<svg width="32" height="30" viewBox="0 0 32 30" fill="none" xmlns="http://www.w3.org/2000/svg">
<path d="M26.5869 7.93013L26.0308 7.8688L15.9939 6.74935V7.12449L25.9909 8.23798L26.5869 7.93013Z" fill="#A1C1E4"/>
<path d="M26.5871 7.92964L26.0309 7.86831L15.994 6.74887V7.124L25.991 8.23749L26.5871 7.92964Z" fill="url(#paint0_linear_601_188)"/>
<path d="M15.9939 7.12307L25.9909 8.23656L24.4814 10.925C24.4814 10.925 24.2956 14.5406 24.1724 15.9613C24.0491 17.3832 24.0182 18.4961 22.9398 18.9594C20.7819 19.8871 18.1208 20.7166 15.9939 21.1804V7.12307Z" fill="#D3E2F5"/>
<path d="M15.994 7.12118L25.991 8.23467L24.4816 10.9231C24.4816 10.9231 24.2958 14.5387 24.1725 15.9594C24.0492 17.3814 24.0183 18.4942 22.9399 18.9575C20.782 19.8852 18.121 20.7147 15.994 21.1785V7.12118Z" fill="url(#paint1_linear_601_188)"/>
<path d="M26.5866 7.92942L25.9906 8.23727L24.4811 10.9257L24.8497 10.9793L26.3121 8.41888L26.5866 7.92942Z" fill="#415050"/>
<path d="M26.5865 7.92857L25.9904 8.23641L24.481 10.9249L24.8496 10.9785L26.3119 8.41803L26.5865 7.92857Z" fill="url(#paint2_linear_601_188)"/>
<path d="M5.40063 7.932L5.95676 7.87066L15.9936 6.75122V7.12635L5.99783 8.23984L7.50731 10.9283C7.50731 10.9283 7.69246 14.5439 7.81572 15.9646C7.93838 17.3865 7.96879 18.4994 9.04834 18.9627C11.2051 19.8904 13.8679 20.7198 15.9936 21.1837V21.566C13.7357 21.0735 10.9812 20.1976 8.90246 19.3045C7.68119 18.7787 7.58233 17.6003 7.4674 16.2361L7.44713 15.9973C7.33459 14.7082 7.16613 11.5416 7.13755 10.9819L5.6751 8.42146L5.40063 7.932Z" fill="#F6F8FD"/>
<path d="M5.40051 7.9334L5.95664 7.87207L15.9935 6.75263V7.12776L5.99771 8.24125L7.50719 10.9297C7.50719 10.9297 7.69234 14.5453 7.8156 15.966C7.93826 17.3879 7.96867 18.5008 9.04822 18.9641C11.2049 19.8918 13.8677 20.7213 15.9935 21.1851V21.5674C13.7356 21.0749 10.981 20.199 8.90233 19.3059C7.68107 18.7801 7.5822 17.6017 7.46728 16.2375L7.447 15.9988C7.33446 14.7096 7.16601 11.543 7.13743 10.9833L5.67498 8.42286L5.40051 7.9334Z" fill="url(#paint3_linear_601_188)"/>
<path d="M5.40063 7.93013L5.95676 7.8688L15.9936 6.74935V7.12449L5.99783 8.23798L5.40063 7.93013Z" fill="#BECDE1"/>
<path d="M5.40051 7.92964L5.95664 7.86831L15.9935 6.74887V7.124L5.99771 8.23749L5.40051 7.92964Z" fill="url(#paint4_linear_601_188)"/>
<path d="M15.9936 7.12307L5.9978 8.23656L7.50728 10.925C7.50728 10.925 7.69244 14.5406 7.81569 15.9613C7.93836 17.3832 7.96876 18.4961 9.04831 18.9594C11.205 19.8871 13.8678 20.7166 15.9936 21.1804V7.12307Z" fill="#F4F6FD"/>
<path d="M15.9935 7.12118L5.99768 8.23467L7.50716 10.9231C7.50716 10.9231 7.69231 14.5387 7.81557 15.9594C7.93823 17.3814 7.96864 18.4942 9.04819 18.9575C11.2049 19.8852 13.8677 20.7147 15.9935 21.1785V7.12118Z" fill="url(#paint5_linear_601_188)"/>
<path d="M5.40063 7.92942L5.99783 8.23727L7.50731 10.9257L7.13755 10.9793L5.6751 8.41888L5.40063 7.92942Z" fill="#415050"/>
<path d="M5.40051 7.92857L5.99771 8.23641L7.50719 10.9249L7.13743 10.9785L5.67498 8.41803L5.40051 7.92857Z" fill="url(#paint6_linear_601_188)"/>
<path d="M24.4814 10.9283C24.4814 10.9283 24.2956 14.5439 24.1724 15.9646C24.0491 17.3865 24.0182 18.4994 22.9398 18.9627C20.7819 19.8904 18.1208 20.7198 15.9939 21.1837V21.566C18.2524 21.0735 21.007 20.1976 23.0857 19.3045C24.307 18.7787 24.4059 17.6003 24.5202 16.2361L24.5404 15.9973C24.6535 14.7082 24.8203 11.5416 24.85 10.9819L24.4814 10.9283Z" fill="#7D8283"/>
<path d="M24.8221 10.9771C24.7941 11.4946 24.625 14.6957 24.5124 15.995C24.5124 16.0021 24.4922 16.2302 24.4916 16.2379C24.3772 17.5961 24.2784 18.7602 23.0744 19.2777C20.9903 20.1744 18.2429 21.0462 15.9939 21.5368L15.9659 21.1563C18.0917 20.6925 20.7552 19.8636 22.9119 18.9365C23.9908 18.4726 24.0224 17.371 24.1444 15.9491C24.2683 14.5284 24.4529 10.9122 24.4529 10.9122L24.8221 10.9771Z" fill="#787E80"/>
<path d="M24.7929 10.973C24.7691 11.447 24.597 14.6827 24.4845 15.9927C24.4827 16.0082 24.4642 16.2249 24.4636 16.2398C24.3493 17.5915 24.2511 18.7413 23.0632 19.251C20.9719 20.1501 18.2328 21.0189 15.994 21.5065L15.938 21.1308C18.0649 20.6664 20.7266 19.8369 22.8833 18.9098C23.9623 18.4459 23.9944 17.3551 24.1177 15.9337C24.2416 14.5118 24.4261 10.8962 24.4261 10.8962L24.7929 10.973Z" fill="#737A7C"/>
<path d="M24.7648 10.9694C24.7428 11.3999 24.5701 14.6707 24.4564 15.9902C24.4546 16.0134 24.4361 16.2188 24.435 16.2421C24.3212 17.586 24.2224 18.7221 23.0523 19.2259C20.9557 20.1262 18.222 20.9914 15.9939 21.4778L15.9099 21.1027C18.0363 20.6389 20.6991 19.81 22.8564 18.8823C23.9348 18.4184 23.967 17.3383 24.0896 15.917C24.2135 14.4956 24.398 10.8801 24.398 10.8801L24.7648 10.9694Z" fill="#6E7578"/>
<path d="M24.7369 10.9653C24.716 11.3529 24.5428 14.6576 24.4273 15.9879C24.4249 16.0182 24.4076 16.2135 24.4058 16.2439C24.2933 17.5813 24.1951 18.7037 23.0411 19.1985C20.938 20.103 18.2125 20.9652 15.9939 21.4481L15.882 21.0772C18.0077 20.6121 20.6712 19.7832 22.8279 18.8555C23.9068 18.3923 23.9396 17.3234 24.0628 15.9009C24.1855 14.479 24.3713 10.864 24.3713 10.864L24.7369 10.9653Z" fill="#687173"/>
<path d="M24.7077 10.9611C24.6905 11.3058 24.5154 14.6451 24.3993 15.9849C24.3958 16.0236 24.3808 16.2082 24.3772 16.2451C24.2641 17.5771 24.1665 18.6841 23.0286 19.1735C20.9213 20.0792 18.2013 20.9372 15.9939 21.4189L15.854 21.0498C17.9809 20.5853 20.6432 19.7553 22.7999 18.8305C23.8783 18.3655 23.9122 17.3062 24.0355 15.8854C24.1587 14.4641 24.3433 10.8479 24.3433 10.8479L24.7077 10.9611Z" fill="#646D70"/>
<path d="M24.6798 10.957C24.6649 11.2583 24.4881 14.6327 24.3714 15.9825C24.3666 16.029 24.3529 16.2023 24.3493 16.2475C24.2368 17.5724 24.1385 18.6644 23.0185 19.1468C20.9041 20.0554 18.1918 20.9099 15.994 21.3892L15.8267 21.023C17.953 20.5592 20.6159 19.7291 22.772 18.802C23.851 18.3387 23.8849 17.2907 24.0075 15.8694C24.132 14.4475 24.3154 10.8325 24.3154 10.8325L24.6798 10.957Z" fill="#5F696C"/>
<path d="M24.6518 10.9528C24.6387 11.2113 24.4607 14.6202 24.3428 15.9802C24.338 16.0344 24.3244 16.1976 24.319 16.2488C24.2088 17.5683 24.1105 18.646 23.0066 19.1206C20.8868 20.0322 18.1811 20.8825 15.994 21.3595L15.7981 20.9951C17.9256 20.5324 20.5867 19.703 22.7446 18.7753C23.8236 18.312 23.8569 17.2747 23.9801 15.8534C24.104 14.4321 24.2886 10.8165 24.2886 10.8165L24.6518 10.9528Z" fill="#5A6569"/>
<path d="M24.6226 10.9486C24.6119 11.1641 24.4332 14.6076 24.3141 15.9771C24.3094 16.0391 24.2957 16.1921 24.291 16.251C24.1808 17.5634 24.0831 18.6269 22.9952 19.0943C20.8695 20.0077 18.1709 20.8556 15.9939 21.3308L15.7706 20.9694C17.897 20.5049 20.5592 19.6755 22.7166 18.7484C23.7943 18.2851 23.83 17.2597 23.9539 15.8372C24.0766 14.4153 24.2606 10.7997 24.2606 10.7997L24.6226 10.9486Z" fill="#556266"/>
<path d="M24.5946 10.9444C24.5857 11.1171 24.4059 14.5945 24.285 15.9748C24.2796 16.0438 24.2677 16.1855 24.2617 16.2528C24.1528 17.5592 24.0545 18.6084 22.9839 19.0675C20.8522 19.9845 18.1608 20.8288 15.9939 21.3016L15.7421 20.942C17.8684 20.4781 20.5319 19.6487 22.6886 18.7216C23.7675 18.2583 23.8021 17.2431 23.9253 15.8211C24.0492 14.4004 24.2343 10.7842 24.2343 10.7842L24.5946 10.9444Z" fill="#515E62"/>
<path d="M24.5661 10.9403C24.5595 11.0695 24.3786 14.5815 24.2577 15.973C24.2511 16.0498 24.2398 16.1802 24.2333 16.2547C24.1243 17.5539 24.0267 18.5888 22.9733 19.042C20.835 19.9601 18.1501 20.8015 15.994 21.2719L15.7153 20.9146C17.8411 20.4526 20.504 19.6231 22.6601 18.6948C23.7391 18.231 23.7754 17.227 23.898 15.8057C24.0225 14.3838 24.2064 10.7682 24.2064 10.7682L24.5661 10.9403Z" fill="#4C5A5F"/>
<path d="M24.538 10.9362C24.5332 11.0225 24.3511 14.569 24.2296 15.9707C24.2219 16.0558 24.2117 16.1749 24.2052 16.2565C24.0956 17.5498 23.9991 18.5698 22.963 19.0158C20.8176 19.9382 18.1411 20.7742 15.9939 21.2422L15.6873 20.8879C17.8124 20.4252 20.4753 19.5958 22.6332 18.6681C23.7109 18.2048 23.7479 17.211 23.8711 15.7891C23.9944 14.3677 24.1789 10.7522 24.1789 10.7522L24.538 10.9362Z" fill="#48575C"/>
<path d="M24.5089 10.9319C24.5065 10.9748 24.3231 14.5564 24.201 15.9682C24.1927 16.0605 24.1844 16.1695 24.1766 16.2582C24.0676 17.545 23.9706 18.5513 22.9512 18.9895C20.8004 19.9137 18.1304 20.7473 15.9939 21.213L15.6587 20.8622C17.785 20.3984 20.4473 19.5683 22.604 18.6412C23.6836 18.178 23.7193 17.1955 23.8431 15.7735C23.9664 14.3516 24.1516 10.7354 24.1516 10.7354L24.5089 10.9319Z" fill="#435459"/>
<path d="M15.6307 20.8354C17.7565 20.3716 20.4188 19.5415 22.5761 18.6144C23.6556 18.1512 23.6925 17.1788 23.8152 15.7575C23.9396 14.3361 24.1242 10.7206 24.1242 10.7206L24.4815 10.9284C24.4815 10.9284 24.2957 14.5439 24.1724 15.9647C24.1629 16.0653 24.1564 16.1641 24.1481 16.2606C24.0397 17.5396 23.9426 18.5322 22.9399 18.9628C20.782 19.8905 18.1209 20.7199 15.994 21.1838L15.6307 20.8354Z" fill="#3F5257"/>
<path d="M7.50132 10.9283C7.50132 10.9283 7.68648 14.5439 7.80915 15.9646C7.93241 17.3865 7.96341 18.4994 9.04177 18.9627C11.1991 19.8904 13.8619 20.7198 15.987 21.1837V21.566C13.7291 21.0735 10.9746 20.1976 8.89647 19.3045C7.6752 18.7787 7.57574 17.6003 7.46141 16.2361L7.44055 15.9973C7.3292 14.7082 7.16075 11.5416 7.13098 10.9819L7.50132 10.9283Z" fill="#7D8283"/>
<path d="M7.16016 10.9771C7.18695 11.4946 7.35667 14.6957 7.4698 15.995C7.4704 16.0021 7.48941 16.2302 7.49001 16.2379C7.60433 17.5961 7.70323 18.7602 8.90841 19.2777C10.9925 20.1744 13.7393 21.0462 15.9871 21.5368L16.0156 21.1563C13.8893 20.6925 11.2271 19.8636 9.07036 18.9365C7.992 18.4726 7.95984 17.371 7.83658 15.9491C7.71332 14.5284 7.52875 10.9122 7.52875 10.9122L7.16016 10.9771Z" fill="#787E80"/>
<path d="M7.18872 10.973C7.21313 11.447 7.38404 14.6827 7.49837 15.9927C7.49837 16.0082 7.51804 16.2249 7.51923 16.2398C7.63236 17.5915 7.73119 18.7413 8.91852 19.251C11.0097 20.1501 13.7494 21.0189 15.9871 21.5065L16.0443 21.1308C13.9179 20.6664 11.2539 19.8369 9.09776 18.9098C8.0194 18.4459 7.98841 17.3551 7.86456 15.9337C7.7413 14.5118 7.55673 10.8962 7.55673 10.8962L7.18872 10.973Z" fill="#737A7C"/>
<path d="M7.21667 10.9694C7.2393 11.3999 7.41141 14.6707 7.52574 15.9902C7.52812 16.0134 7.54539 16.2188 7.54718 16.2421C7.66032 17.586 7.75917 18.7221 8.92982 19.2259C11.027 20.1262 13.7595 20.9914 15.987 21.4778L16.071 21.1027C13.9452 20.6389 11.2836 19.81 9.12572 18.8823C8.04736 18.4184 8.0152 17.3383 7.89135 15.917C7.76869 14.4956 7.58469 10.8801 7.58469 10.8801L7.21667 10.9694Z" fill="#6E7578"/>
<path d="M7.24524 10.9653C7.26548 11.3529 7.43938 14.6576 7.5543 15.9879C7.55728 16.0182 7.57335 16.2135 7.57633 16.2439C7.68887 17.5813 7.78771 18.7037 8.94109 19.1985C11.0448 20.103 13.7696 20.9652 15.987 21.4481L16.0996 21.0772C13.9732 20.6121 11.311 19.7832 9.15428 18.8555C8.07533 18.3923 8.04259 17.3234 7.91933 15.9009C7.79548 14.479 7.61143 10.864 7.61143 10.864L7.24524 10.9653Z" fill="#687173"/>
<path d="M7.2738 10.9611C7.29107 11.3058 7.46667 14.6451 7.58338 15.9849C7.58635 16.0236 7.60184 16.2082 7.60482 16.2451C7.71676 17.5771 7.81566 18.6841 8.95177 19.1735C11.0614 20.0792 13.7802 20.9372 15.987 21.4189L16.1275 21.0498C14.0017 20.5853 11.3389 19.7553 9.18161 18.8305C8.10385 18.3655 8.06927 17.3062 7.94601 15.8854C7.82335 14.4641 7.63818 10.8479 7.63818 10.8479L7.2738 10.9611Z" fill="#646D70"/>
<path d="M7.30298 10.957C7.31727 11.2583 7.49408 14.6327 7.61139 15.9825C7.61496 16.029 7.6293 16.2023 7.63407 16.2475C7.74482 17.5724 7.84249 18.6644 8.96372 19.1468C11.0776 20.0554 13.7904 20.9099 15.987 21.3892L16.1555 21.023C14.0291 20.5592 11.3669 19.7291 9.2102 18.802C8.13006 18.3387 8.09728 17.2907 7.97402 15.8694C7.85076 14.4475 7.66503 10.8325 7.66503 10.8325L7.30298 10.957Z" fill="#5F696C"/>
<path d="M7.33105 10.9528C7.34415 11.2113 7.52157 14.6202 7.63946 15.9802C7.64423 16.0344 7.65797 16.1976 7.66214 16.2488C7.7729 17.5683 7.87171 18.646 8.97508 19.1206C11.0961 20.0322 13.8018 20.8825 15.9871 21.3595L16.183 20.9951C14.0572 20.5324 11.395 19.703 9.23712 18.7753C8.15935 18.312 8.12419 17.2747 8.00093 15.8534C7.87946 14.4321 7.69369 10.8165 7.69369 10.8165L7.33105 10.9528Z" fill="#5A6569"/>
<path d="M7.3584 10.9486C7.3709 11.1641 7.54895 14.6076 7.66804 15.9771C7.6734 16.0391 7.6859 16.1921 7.69007 16.251C7.80142 17.5634 7.89907 18.6269 8.98636 19.0943C11.1133 20.0077 13.8107 20.8556 15.987 21.3308L16.2109 20.9694C14.0857 20.5049 11.4229 19.6755 9.26562 18.7484C8.18726 18.2851 8.15212 17.2597 8.02886 15.8372C7.9056 14.4153 7.72045 10.7997 7.72045 10.7997L7.3584 10.9486Z" fill="#556266"/>
<path d="M7.38757 10.9444C7.39591 11.1171 7.57638 14.5945 7.69547 15.9748C7.70202 16.0438 7.71506 16.1855 7.71982 16.2528C7.82998 17.5592 7.92766 18.6084 8.99649 19.0675C11.13 19.9845 13.8214 20.8288 15.987 21.3016L16.2389 20.942C14.1132 20.4781 11.4503 19.6487 9.29363 18.7216C8.21528 18.2583 8.18012 17.2431 8.05745 15.8211C7.933 14.4004 7.74846 10.7842 7.74846 10.7842L7.38757 10.9444Z" fill="#515E62"/>
<path d="M7.41553 10.9403C7.42267 11.0695 7.60432 14.5815 7.72401 15.973C7.73115 16.0498 7.74129 16.1802 7.74843 16.2547C7.8568 17.5539 7.95563 18.5888 9.00838 19.042C11.1472 19.9601 13.8309 20.8015 15.987 21.2719L16.2669 20.9146C14.1411 20.4526 11.4783 19.6231 9.32101 18.6948C8.24324 18.231 8.20692 17.227 8.08366 15.8057C7.95981 14.3838 7.77518 10.7682 7.77518 10.7682L7.41553 10.9403Z" fill="#4C5A5F"/>
<path d="M7.44421 10.9362C7.44898 11.0225 7.63114 14.569 7.7532 15.9707C7.76035 16.0558 7.77048 16.1749 7.77763 16.2565C7.886 17.5498 7.98367 18.5698 9.02035 19.0158C11.164 19.9382 13.8405 20.7742 15.9871 21.2422L16.2949 20.8879C14.1691 20.4252 11.5069 19.5958 9.34904 18.6681C8.27128 18.2048 8.23553 17.211 8.11228 15.7891C7.98842 14.3677 7.80321 10.7522 7.80321 10.7522L7.44421 10.9362Z" fill="#48575C"/>
<path d="M7.47327 10.9319C7.47505 10.9748 7.65842 14.5564 7.78168 15.9682C7.78942 16.0605 7.79837 16.1695 7.80552 16.2582C7.91389 17.545 8.01152 18.5513 9.03152 18.9895C11.1817 19.9137 13.8511 20.7473 15.987 21.213L16.3228 20.8622C14.197 20.3984 11.5342 19.5683 9.37693 18.6412C8.29917 18.178 8.26161 17.1955 8.13835 15.7735C8.01509 14.3516 7.8311 10.7354 7.8311 10.7354L7.47327 10.9319Z" fill="#435459"/>
<path d="M16.3507 20.8354C14.225 20.3716 11.5622 19.5415 9.40546 18.6144C8.32711 18.1512 8.28956 17.1788 8.1663 15.7575C8.04245 14.3361 7.85673 10.7206 7.85673 10.7206L7.50122 10.9284C7.50122 10.9284 7.68639 14.5439 7.80905 15.9647C7.81858 16.0653 7.8263 16.1641 7.83463 16.2606C7.94301 17.5396 8.03953 18.5322 9.04167 18.9628C11.199 19.8905 13.8618 20.7199 15.9869 21.1838L16.3507 20.8354Z" fill="#3F5257"/>
<path d="M15.9925 7.10989L5.99544 8.22219L5.974 8.22516L5.98476 8.24422L7.49424 10.9327L7.49242 10.9261C7.49421 10.9624 7.67943 14.5589 7.8009 15.9642L7.82053 16.2036C7.93069 17.5046 8.01704 18.5342 9.04181 18.9742C11.0991 19.8584 13.7619 20.7093 15.9901 21.1958L15.9936 21.1964L15.9966 21.1958C18.2272 20.7093 20.8889 19.8584 22.9449 18.9742C23.9715 18.5342 24.0572 17.5046 24.1661 16.2036L24.187 15.9642C24.3091 14.5589 24.493 10.9624 24.4948 10.9261L24.4931 10.9327L26.0031 8.24422L26.0138 8.22516L25.9918 8.22219L15.9954 7.10989H15.9925ZM25.9781 8.22933L24.4681 10.919L24.4657 10.9214V10.9255C24.4633 10.9613 24.2793 14.5572 24.1573 15.9618L24.1376 16.2012C24.028 17.4939 23.9429 18.5133 22.9336 18.9474C20.8781 19.8299 18.2182 20.6813 15.9901 21.1666H15.9966C13.7696 20.6813 11.1092 19.8299 9.05308 18.9474C8.04558 18.5133 7.95922 17.4939 7.85026 16.2012L7.83005 15.9618C7.70798 14.5572 7.52401 10.9613 7.52222 10.9255V10.9214L7.52041 10.919L6.00918 8.22933L5.99842 8.25196L15.9954 7.13907H15.9925L25.9888 8.25196L25.9781 8.22933Z" fill="white"/>
<path d="M12.019 0.269941C6.34739 1.92529 1.44205 6.15476 1.44205 13.2948C1.44205 20.6379 7.74485 26.896 16.0001 27.3218L15.9966 28.7574C8.74045 28.7574 0.37915 22.7975 0.37915 13.6806C0.37915 5.84453 5.23745 1.89075 11.0335 0.0222359C11.105 0.00675392 11.1818 0.0127068 11.2479 0.0258064C11.4962 0.0752277 11.7499 0.12882 12.019 0.269941Z" fill="#D7D8D9"/>
<path d="M16.0068 29.2061C6.6952 29.2061 0 21.2824 0 13.7548C0 10.9818 1.90131 4.801 6.1016 4.801C5.22987 5.67274 2.81348 8.56424 2.81348 12.7056C2.81348 18.3909 6.65651 24.5717 15.9967 25.5149C18.4821 25.7656 20.6811 29.2061 16.0068 29.2061Z" fill="#D7D8D9"/>
<path d="M15.914 25.5331C18.0183 25.7361 19.8046 28.1632 17.6128 28.9051C17.1859 29.048 16.6131 29.1308 15.8658 29.1272C7.03765 29.0546 0.632373 21.9348 0.0940879 14.7352C0.0690791 14.4036 0.0566264 14.0713 0.0578173 13.7408C0.0655581 11.496 1.27193 7.26234 3.78591 5.59687C4.43614 5.17529 5.18044 4.93593 6.0224 4.96332C5.32454 5.70167 3.65672 7.72322 3.04996 10.6028C2.90586 11.2959 2.82184 12.0372 2.82601 12.8226C2.86353 18.5187 6.77152 24.6268 15.914 25.5331Z" fill="#D3D5D6"/>
<path d="M15.8307 25.5544C17.9577 25.7491 19.6499 28.1542 17.4587 28.8485C17.03 28.9812 16.4613 29.0563 15.7259 29.0467C6.96627 28.9038 0.665199 21.8984 0.149541 14.7131C0.124532 14.3832 0.112647 14.0545 0.114433 13.7258C0.131106 11.4262 1.3595 7.27178 3.82108 5.66169C4.43916 5.27584 5.14299 5.0716 5.94208 5.12579C5.25195 5.89868 3.63115 7.91665 3.04821 10.7397C2.90947 11.4286 2.83209 12.1646 2.83923 12.9416C2.91128 18.6466 6.8859 24.6839 15.8307 25.5544Z" fill="#CED0D1"/>
<path d="M15.7467 25.5742C17.8962 25.7606 19.4944 28.1442 17.3043 28.7903C16.8726 28.9129 16.3082 28.9808 15.5853 28.9677C6.89414 28.7521 0.698496 21.8634 0.203083 14.69C0.17986 14.3631 0.169678 14.0362 0.171464 13.7117C0.197068 11.3567 1.44579 7.28027 3.85616 5.72437C4.4403 5.37543 5.1066 5.20633 5.86282 5.28731C5.18044 6.09414 3.60482 8.11033 3.04629 10.8756C2.91351 11.561 2.84026 12.2904 2.85098 13.0591C2.96054 18.7748 7.00072 24.74 15.7467 25.5742Z" fill="#CBCDCF"/>
<path d="M15.6633 25.5945C17.8337 25.7719 19.339 28.1335 17.1496 28.7319C16.7167 28.8462 16.1558 28.9064 15.4442 28.8885C6.82269 28.6009 0.731238 21.8277 0.257857 14.6674C0.235229 14.3423 0.226341 14.0196 0.228128 13.6974C0.263259 11.287 1.53334 7.2892 3.89131 5.78867C4.4421 5.47606 5.06972 5.34149 5.78247 5.44986C5.10783 6.29004 3.57872 8.30325 3.04401 11.0125C2.91718 11.6937 2.84989 12.4178 2.86418 13.177C3.00887 18.9022 7.11508 24.796 15.6633 25.5945Z" fill="#C7C9CB"/>
<path d="M15.58 25.6148C17.7724 25.7851 19.1836 28.1234 16.9948 28.6742C16.5595 28.779 16.0039 28.8302 15.3043 28.8076C6.75186 28.4503 0.764047 21.7914 0.312101 14.6448C0.291261 14.3227 0.281707 14.0018 0.28528 13.6826C0.328152 11.218 1.61908 7.2988 3.92644 5.85305C4.44389 5.57677 5.03221 5.47673 5.70268 5.61249C5.03519 6.48661 3.5531 8.49684 3.04221 11.1478C2.92074 11.826 2.85937 12.5441 2.87605 13.295C3.05825 19.0309 7.22882 24.8526 15.58 25.6148Z" fill="#C3C6C7"/>
<path d="M15.4966 25.6345C17.7105 25.7964 19.0276 28.1139 16.8399 28.6171C16.4041 28.7117 15.8521 28.7558 15.1626 28.729C6.6798 28.2979 0.79854 21.7563 0.36684 14.6222C0.34719 14.3019 0.338263 13.9839 0.341836 13.6683C0.394235 11.1478 1.70725 7.30835 3.96221 5.91679C4.44571 5.67682 4.99589 5.61192 5.6223 5.77507C4.96314 6.68313 3.52634 8.68979 3.04105 11.2842C2.92553 11.9594 2.86837 12.6698 2.88921 13.4129C3.10655 19.159 7.34434 24.9092 15.4966 25.6345Z" fill="#BFC2C4"/>
<path d="M15.4138 25.6546C17.6491 25.8077 18.8727 28.1031 16.6856 28.5592C16.2462 28.6444 15.6996 28.6813 15.0226 28.6491C6.6071 28.1466 0.830073 21.7205 0.421 14.5989C0.401946 14.2822 0.394808 13.9666 0.398976 13.6534C0.459712 11.0786 1.79409 7.3166 3.99725 5.98101C4.44741 5.77737 4.95827 5.747 5.543 5.93695C4.89039 6.87895 3.50067 8.88263 3.03801 11.4204C2.92904 12.0921 2.87723 12.7965 2.90165 13.5313C3.15531 19.2869 7.45858 24.9657 15.4138 25.6546Z" fill="#BCBFC1"/>
<path d="M15.3298 25.6755C17.5884 25.8208 18.7173 28.0937 16.5308 28.5021C16.0896 28.5766 15.5466 28.6069 14.8815 28.5694C6.53688 27.9954 0.864044 21.6843 0.475812 14.5764C0.458544 14.2626 0.451336 13.95 0.456695 13.6391C0.524576 11.0091 1.88042 7.3262 4.03237 6.04479C4.44918 5.87688 4.9214 5.88224 5.46386 6.09898C4.81839 7.07552 3.47385 9.07622 3.0362 11.5569C2.93259 12.2238 2.88617 12.9228 2.91416 13.6487C3.20533 19.4144 7.57292 25.0217 15.3298 25.6755Z" fill="#B8BCBE"/>
<path d="M15.2465 25.6948C17.5271 25.8318 18.562 28.0844 16.3761 28.444C15.9337 28.5095 15.3942 28.5309 14.7422 28.4905C6.46428 27.8444 0.897395 21.6499 0.530599 14.554C0.512735 14.242 0.507954 13.9323 0.512718 13.6257C0.590126 10.9396 1.96744 7.33537 4.06818 6.10874C4.45106 5.97774 4.88453 6.01764 5.38352 6.26177C4.74579 7.27165 3.44715 9.26938 3.03451 11.6935C2.93685 12.3568 2.89633 13.0499 2.92729 13.7668C3.253 19.5433 7.68788 25.0785 15.2465 25.6948Z" fill="#B5B8BA"/>
<path d="M15.1625 25.7148C17.4651 25.8446 18.4071 28.0746 16.2224 28.3866C15.7764 28.4426 15.2423 28.4563 14.601 28.4104C6.39334 27.6923 0.92954 21.6128 0.584776 14.5305C0.569294 14.2215 0.56392 13.9148 0.569875 13.6106C0.656215 10.8697 2.05491 7.34406 4.10266 6.17222C4.45398 6.07814 4.84753 6.15257 5.30424 6.42409C4.67366 7.46791 3.42087 9.46267 3.03264 11.829C2.94035 12.4893 2.9046 13.1753 2.94033 13.8845C3.30236 19.6704 7.80217 25.1349 15.1625 25.7148Z" fill="#B1B5B7"/>
<path d="M15.0798 25.7352C17.4045 25.8567 18.2512 28.064 16.0676 28.3284C15.6199 28.3748 15.0899 28.3814 14.46 28.3307C6.32137 27.5418 0.962303 21.5784 0.638975 14.508C0.624089 14.2013 0.620563 13.8971 0.627708 13.597C0.72298 10.8001 2.14187 7.35369 4.13782 6.23603C4.45579 6.17828 4.81133 6.28843 5.22397 6.58616C4.60113 7.66332 3.39535 9.65629 3.03153 11.9648C2.94459 12.6222 2.9142 13.3028 2.95172 14.0031C3.35126 19.7992 7.91719 25.1909 15.0798 25.7352Z" fill="#AEB1B3"/>
<path d="M14.9958 25.7559C17.3431 25.8679 18.0964 28.0544 15.9123 28.2705C15.4627 28.3068 14.9364 28.305 14.3201 28.2509C6.24995 27.3904 0.995084 21.5425 0.694383 14.4859C0.680092 14.181 0.677134 13.8791 0.684279 13.5826C0.787292 10.731 2.22827 7.36253 4.1736 6.30025C4.45763 6.27881 4.7732 6.42291 5.14476 6.74862C4.52907 7.86032 3.36914 9.84972 3.02973 12.1011C2.94815 12.7543 2.92373 13.429 2.96482 14.1203C3.40069 19.9277 8.03147 25.248 14.9958 25.7559Z" fill="#AAAEB1"/>
<path d="M14.9118 25.7757C17.2805 25.8799 17.9397 28.045 15.7585 28.2135C15.3066 28.2397 14.785 28.2301 14.1794 28.1718C6.17838 27.2387 1.02836 21.5063 0.747307 14.4628C0.735994 14.1615 0.733024 13.8626 0.740765 13.5672C0.853305 10.6614 2.31573 7.37159 4.20806 6.36409C4.45874 6.37898 4.7368 6.55821 5.06489 6.91131C4.45634 8.05576 3.34345 10.0428 3.02727 12.2376C2.95164 12.8872 2.93199 13.5559 2.97784 14.2389C3.44884 20.0552 8.14633 25.3041 14.9118 25.7757Z" fill="#A6ABAD"/>
<path d="M14.8291 25.7955C17.2198 25.8926 17.7849 28.0338 15.6037 28.1553C15.15 28.1726 14.632 28.1553 14.0389 28.0928C6.10636 27.0883 1.06171 21.4714 0.803283 14.4409C0.790778 14.1408 0.789031 13.8449 0.798558 13.5531C0.918243 10.592 2.4027 7.3813 4.24383 6.42858C4.46176 6.4786 4.69994 6.69355 4.98516 7.07345C4.38376 8.25244 3.3167 10.2365 3.02553 12.3741C2.95646 13.0196 2.94158 13.6817 2.991 14.357C3.49952 20.1834 8.26012 25.3609 14.8291 25.7955Z" fill="#A2A7AA"/>
<path d="M14.7458 25.8154C17.1579 25.9042 17.6301 28.024 15.449 28.0978C14.9929 28.1049 14.4802 28.0805 13.8978 28.0121C6.03491 26.9361 1.0945 21.4353 0.858703 14.4174C0.846794 14.1202 0.8456 13.8279 0.855723 13.5385C0.98434 10.522 2.48963 7.38989 4.27955 6.49136C4.46354 6.57949 4.66304 6.82898 4.90538 7.23567C4.31172 8.4492 3.29053 10.4291 3.02258 12.5102C2.96066 13.152 2.94989 13.8082 3.00288 14.4739C3.54772 20.3105 8.37506 25.4159 14.7458 25.8154Z" fill="#9FA4A7"/>
<path d="M14.6618 25.8358C17.0972 25.9162 17.4742 28.0145 15.2942 28.0396C14.8363 28.0378 14.3277 28.0044 13.7585 27.933C5.96348 26.7843 1.12788 21.3991 0.911728 14.3943C0.902796 14.1001 0.902796 13.8101 0.911728 13.5243C1.04987 10.4524 2.576 7.39893 4.31411 6.55577C4.46536 6.67962 4.62554 6.96365 4.82561 7.39714C4.23909 8.6452 3.26498 10.6221 3.02204 12.6466C2.96487 13.2843 2.95946 13.934 3.01484 14.5925C3.59719 20.4392 8.49002 25.4732 14.6618 25.8358Z" fill="#9CA1A3"/>
<path d="M14.5785 25.8556C17.0359 25.9288 17.3199 28.0034 15.14 27.9831C14.6803 27.97 14.1747 27.9301 13.618 27.8527C5.89206 26.6332 1.16064 21.3647 0.96712 14.3718C0.958188 14.0806 0.95941 13.793 0.968937 13.5102C1.11542 10.3829 2.66353 7.4086 4.34864 6.61903C4.46773 6.7798 4.5892 7.09956 4.7458 7.55984C4.16703 8.84184 3.23817 10.8158 3.01964 12.7825C2.96843 13.4179 2.96898 14.0615 3.02793 14.7106C3.64541 20.5674 8.60435 25.5299 14.5785 25.8556Z" fill="#989EA1"/>
<path d="M14.4956 25.8758C16.9738 25.9413 17.1638 27.9944 14.985 27.9247C14.5236 27.9021 14.0233 27.8562 13.4761 27.7729C5.81985 26.4825 1.19388 21.3283 1.02179 14.3491C1.01286 14.0603 1.01462 13.7757 1.02594 13.4952C1.18135 10.3137 2.74976 7.41747 4.38486 6.68388C4.46882 6.87979 4.55161 7.23527 4.66594 7.72234C4.0949 9.03829 3.21181 11.0092 3.0177 12.9194C2.97185 13.55 2.97784 14.1871 3.04096 14.8284C3.69357 20.6954 8.71911 25.5858 14.4956 25.8758Z" fill="#959B9D"/>
<path d="M14.4116 25.8963C16.9125 25.9529 17.0078 27.9852 14.8302 27.8673C14.3664 27.8357 13.8709 27.7803 13.3362 27.6928C5.74841 26.331 1.22661 21.2923 1.07536 14.3262C1.06881 14.0392 1.07116 13.7581 1.08307 13.4812C1.24622 10.2438 2.83668 7.4261 4.41938 6.74729C4.47059 6.98011 4.51464 7.36953 4.58729 7.8846C4.02161 9.23329 3.18564 11.2018 3.01653 13.0549C2.97544 13.6819 2.98676 14.3137 3.05345 14.946C3.74298 20.8225 8.83344 25.6427 14.4116 25.8963Z" fill="#91979A"/>
<path d="M14.3289 25.9164C16.85 25.9652 16.853 27.9749 14.6755 27.8093C14.2104 27.7689 13.7186 27.7057 13.1952 27.6146C5.67707 26.1802 1.26006 21.257 1.13025 14.3034C1.12489 14.0199 1.12786 13.7413 1.13977 13.4668C1.31245 10.1745 2.92433 7.43608 4.45523 6.81145C4.47309 7.08119 4.47843 7.50515 4.50582 8.047C3.94907 9.43083 3.16013 11.3958 3.01305 13.1917C2.97911 13.8151 2.99639 14.4409 3.06546 15.065C3.7925 20.9522 8.94783 25.6985 14.3289 25.9164Z" fill="#8E9496"/>
<path d="M14.2449 25.9359C16.7892 25.977 16.6975 27.964 14.5206 27.7521C14.0526 27.7008 13.5661 27.63 13.0546 27.5341C5.60557 26.0288 1.29269 21.2212 1.18491 14.2812C1.17955 13.9996 1.18433 13.7233 1.19683 13.4524C1.37785 10.1048 3.01056 7.44488 4.49084 6.87564C4.47477 7.1811 4.44086 7.64019 4.42717 8.21004C3.87757 9.62661 3.13321 11.5892 3.01174 13.3273C2.98316 13.9472 3.00522 14.5664 3.07905 15.1821C3.84063 21.0795 9.06268 25.7549 14.2449 25.9359Z" fill="#8A9194"/>
<path d="M14.1615 25.9565C16.7279 25.9892 16.5422 27.9548 14.3664 27.694C13.8972 27.6333 13.4143 27.5547 12.9141 27.4552C5.5335 25.8773 1.32549 21.1858 1.23975 14.2571C1.23558 13.9796 1.2403 13.7063 1.25399 13.4372C1.44275 10.0348 3.09811 7.45412 4.5254 6.93786C4.47598 7.28025 4.40457 7.77447 4.34681 8.37111C3.80495 9.82222 3.1065 11.7818 3.00945 13.4634C2.98682 14.0803 3.01417 14.693 3.09158 15.3009C3.89008 21.2072 9.17703 25.8112 14.1615 25.9565Z" fill="#878D90"/>
<path d="M14.0771 25.9772C16.6667 26.001 16.3862 27.9451 14.2123 27.6367C13.7395 27.5664 13.2613 27.4807 12.7742 27.3753C5.46271 25.7265 1.35827 21.1505 1.29396 14.2355C1.29098 13.9592 1.29698 13.6889 1.31068 13.4245C1.50837 9.96558 3.18456 7.46291 4.56064 7.00322C4.47847 7.38133 4.36708 7.91128 4.26764 8.53352C3.73233 10.0192 3.08151 11.9758 3.00827 13.6002C2.991 14.2135 3.02258 14.8203 3.10356 15.4187C3.93898 21.3357 9.29144 25.8682 14.0771 25.9772Z" fill="#838A8D"/>
<path d="M13.9949 25.9965C16.6041 26.0131 16.2314 27.934 14.0574 27.5786C13.584 27.4982 13.1089 27.4053 12.6331 27.2951C5.39066 25.5749 1.39222 21.115 1.34756 14.2131C1.34577 13.9386 1.3529 13.6707 1.36719 13.4093C1.57381 9.89553 3.27201 7.47146 4.59629 7.06656C4.48017 7.48158 4.33011 8.04488 4.18721 8.6963C3.66024 10.2141 3.05531 12.1684 3.00649 13.7362C2.99517 14.3447 3.03265 14.9455 3.11661 15.5362C3.98775 21.4633 9.40695 25.9238 13.9949 25.9965Z" fill="#81878A"/>
<path d="M13.911 26.0171C16.5429 26.0254 16.076 27.9249 13.9026 27.5206C13.4263 27.4313 12.9577 27.3294 12.4938 27.2157C5.31925 25.4234 1.42442 21.079 1.40358 14.1909C1.40239 13.9199 1.40894 13.6538 1.42502 13.3953C1.63998 9.82741 3.35904 7.48194 4.63152 7.13063C4.48206 7.58257 4.2933 8.1804 4.10752 8.85921C3.58769 10.4115 3.02913 12.3622 3.00472 13.8723C2.99876 14.4779 3.04163 15.0727 3.12916 15.6551C4.03662 21.5917 9.52133 25.9807 13.911 26.0171Z" fill="#7D8387"/>
<path d="M13.7484 27.4637C5.74558 25.7995 1.45776 21.4807 1.45776 14.168C1.45776 10.0868 3.35963 7.51146 4.66724 7.19408C4.07239 8.77917 3.00294 11.9088 3.00294 14.0084C3.00294 20.8465 9.23079 26.0365 13.8271 26.0365C16.4816 26.0365 15.9206 27.9151 13.7484 27.4637Z" fill="#798083"/>
<path d="M19.3857 0.699177C19.3797 0.705727 19.3743 0.712275 19.3708 0.720015L19.3452 0.782539C23.9796 2.23126 29.1796 6.28984 29.1796 12.7022C29.1796 18.2738 25.302 24.7178 15.9969 25.5169L16.0005 25.886C25.3062 25.0852 29.4869 18.3757 29.4869 12.9053C29.4869 6.49467 24.8983 2.15267 19.3857 0.699177Z" fill="#3C535A"/>
<path d="M19.3858 0.700459C19.3798 0.707008 19.3745 0.713556 19.3709 0.721296L19.3453 0.783821C23.9797 2.23255 29.1797 6.29112 29.1797 12.7035C29.1797 18.2751 25.3021 24.7191 15.9971 25.5182L16.0006 25.8873C25.3063 25.0865 29.487 18.3769 29.487 12.9066C29.487 6.49596 24.8985 2.15395 19.3858 0.700459Z" fill="url(#paint7_linear_601_188)"/>
<path d="M19.9731 0.264742C25.6442 1.92128 30.5661 6.15551 30.5661 13.2955C30.5661 20.6386 24.255 26.8968 16.0003 27.3225L15.9967 28.7581C23.254 28.7581 31.6129 22.7935 31.6129 13.6766C31.6129 5.84171 26.7541 1.88614 20.9586 0.0188182C20.8865 0.0027406 20.7936 0.0134585 20.7263 0.0229857C20.6186 0.0378725 20.4733 0.0736033 20.3066 0.123621C20.1916 0.164111 20.0523 0.224847 19.9731 0.264742Z" fill="#DEE4E9"/>
<path d="M19.3856 0.699995C24.8983 2.15348 29.4868 6.49549 29.4868 12.9061L30.5663 13.2973C30.5663 6.15728 25.6443 1.92304 19.9733 0.266506C19.7083 0.392145 19.497 0.574355 19.3856 0.699995Z" fill="#C6DAF1"/>
<path d="M19.3859 0.701826C24.8985 2.15532 29.487 6.49732 29.487 12.9079L30.5666 13.2991C30.5666 6.15911 25.6446 1.92487 19.9735 0.268337C19.7086 0.393976 19.4972 0.576186 19.3859 0.701826Z" fill="url(#paint8_linear_601_188)"/>
<path d="M30.5662 13.2938C30.5662 20.6369 24.2603 26.895 16.0068 27.322V25.884C25.3119 25.0831 29.4866 18.373 29.4866 12.9026L30.5662 13.2938Z" fill="white"/>
<path d="M30.5662 13.2923C30.5662 20.6354 24.2603 26.8936 16.0068 27.3205V25.8825C25.3119 25.0816 29.4866 18.3715 29.4866 12.9011L30.5662 13.2923Z" fill="url(#paint9_linear_601_188)"/>
<path d="M12.6067 0.704268C7.09342 2.15776 2.50433 6.49977 2.50433 12.9104C2.50433 18.3802 6.69326 25.0855 16.0001 25.8864V27.3238C7.74482 26.898 1.44202 20.6399 1.44202 13.2968C1.44202 6.15679 6.34736 1.92732 12.019 0.271975C12.2238 0.365459 12.4846 0.556597 12.6067 0.704268Z" fill="#7093AE"/>
<path d="M12.6064 0.705671C7.09317 2.15916 2.50409 6.50117 2.50409 12.9118C2.50409 18.3816 6.69302 25.0869 15.9999 25.8878V27.3252C7.74458 26.8994 1.44177 20.6413 1.44177 13.2982C1.44177 6.1582 6.34711 1.92872 12.0188 0.273378C12.2236 0.366863 12.4844 0.558001 12.6064 0.705671Z" fill="url(#paint10_linear_601_188)"/>
<path d="M2.81363 12.7076C2.81363 6.29341 8.01369 2.23662 12.6475 0.7873L12.6225 0.724781C12.6177 0.717039 12.6129 0.710487 12.607 0.703938C7.09373 2.15743 2.50464 6.49944 2.50464 12.91C2.50464 18.3798 6.69357 25.0852 16.0004 25.886L15.9969 25.5169C6.69775 24.7178 2.81363 18.1768 2.81363 12.7076Z" fill="#3C535A"/>
<path d="M2.81375 12.7089C2.81375 6.29469 8.01381 2.2379 12.6476 0.788582L12.6226 0.726063C12.6178 0.718321 12.6131 0.711769 12.6071 0.705219C7.09385 2.15871 2.50476 6.50072 2.50476 12.9113C2.50476 18.3811 6.69369 25.0865 16.0006 25.8873L15.997 25.5182C6.69787 24.7191 2.81375 18.1781 2.81375 12.7089Z" fill="url(#paint11_linear_601_188)"/>
<path d="M19.3772 0.705599C20.7646 1.0718 22.0722 1.61425 23.2655 2.31807C24.4993 3.04571 25.5818 3.92876 26.4845 4.9434C27.4313 6.00687 28.1673 7.20373 28.6698 8.49704C29.2046 9.87014 29.4748 11.3522 29.4748 12.9022C29.4748 14.2919 29.1992 15.7508 28.6781 17.1209C28.1154 18.5982 27.2895 19.9487 26.2249 21.1354C25.0638 22.4299 23.652 23.4857 22.0276 24.2758C20.243 25.144 18.2155 25.6811 15.9993 25.8722L16.0011 25.8954C18.2191 25.7037 20.2513 25.1666 22.0389 24.2967C23.6644 23.5053 25.0787 22.4478 26.2428 21.1509C27.3086 19.9624 28.1351 18.6083 28.699 17.1299C29.2218 15.7562 29.4987 14.2943 29.4987 12.9022C29.4987 11.3492 29.2271 9.86479 28.6912 8.4887C28.1869 7.19182 27.4509 5.99437 26.5018 4.92792C25.5979 3.91149 24.5136 3.02665 23.278 2.29842C22.0859 1.59579 20.7802 1.05393 19.3969 0.685946C19.3916 0.68535 19.3719 0.703812 19.3772 0.705599Z" fill="#EDF1FB"/>
<path d="M15.8678 29.4958C25.1795 29.4958 32.0003 21.2828 32.0003 13.7552C32.0003 10.9822 30.0978 4.80141 25.8987 4.80141C26.7705 5.67315 29.1868 8.56465 29.1868 12.706C29.1868 18.3913 25.3437 24.5721 16.0035 25.5153C13.5169 25.766 11.193 29.4958 15.8678 29.4958Z" fill="#DEE4E9"/>
<path d="M15.941 29.4216C25.1884 29.3418 31.8961 21.3008 31.8961 13.7827C31.8961 10.9472 29.9949 4.93851 25.9315 4.92303C26.7902 5.8287 29.1439 8.73211 29.1439 12.7752C29.1439 18.5159 25.1866 24.649 16.0714 25.5476C13.5777 25.7864 11.3102 29.4567 15.941 29.4216Z" fill="#D6DCE1"/>
<path d="M16.0136 29.3451C25.1996 29.1879 31.7918 21.3167 31.7918 13.8104C31.7918 10.9124 29.8899 5.07521 25.9653 5.04484C26.8102 5.98446 29.0992 8.89918 29.0992 12.8446C29.0992 18.6401 25.0293 24.7268 16.1398 25.5801C13.6389 25.8069 11.4281 29.4183 16.0136 29.3451Z" fill="#CFD5DA"/>
<path d="M16.0868 29.2697C25.2109 29.0339 31.6882 21.3347 31.6882 13.838C31.6882 10.8775 29.7857 5.21237 25.9987 5.16652C26.8311 6.14067 29.0557 9.06611 29.0557 12.9157C29.0557 18.7654 24.8721 24.8044 16.2083 25.613C13.6991 25.828 11.5454 29.3792 16.0868 29.2697Z" fill="#C8CED2"/>
<path d="M16.1602 29.1947C25.2211 28.8809 31.5841 21.3521 31.5841 13.8649C31.5841 10.843 29.6816 5.34883 26.0327 5.28809C26.852 6.29618 29.0118 9.23353 29.0118 12.9849C29.0118 18.8893 24.715 24.8819 16.2775 25.6459C13.7594 25.8489 11.6622 29.34 16.1602 29.1947Z" fill="#C0C7CB"/>
<path d="M16.2322 29.1196C25.2324 28.7272 31.4793 21.3692 31.4793 13.8928C31.4793 10.8084 29.578 5.48506 26.0667 5.41004C26.8723 6.45207 28.9695 9.40073 28.9695 13.055C28.9695 19.0154 24.5572 24.9598 16.346 25.6779C13.8201 25.8685 11.7807 29.3024 16.2322 29.1196Z" fill="#BAC0C4"/>
<path d="M16.3055 29.0439C25.2438 28.5735 31.3757 21.3853 31.3757 13.9201C31.3757 10.7726 29.4744 5.62195 26.1 5.53204C26.8931 6.60802 28.9248 9.5668 28.9248 13.1246C28.9248 19.1398 24.4006 25.0371 16.415 25.7112C13.8802 25.8904 11.8986 29.2636 16.3055 29.0439Z" fill="#B2B9BD"/>
<path d="M16.378 28.9697C25.2538 28.4201 31.2714 21.4033 31.2714 13.9477C31.2714 10.7382 29.3707 5.75909 26.1339 5.65369C26.9127 6.76302 28.8807 9.7343 28.8807 13.1945C28.8807 19.2645 24.2427 25.1147 16.4829 25.7435C13.9409 25.9108 12.0152 29.2257 16.378 28.9697Z" fill="#ABB2B6"/>
<path d="M16.4508 28.8932C25.2646 28.2662 31.1673 21.4203 31.1673 13.9742C31.1673 10.7034 29.266 5.89635 26.1685 5.77547C26.9336 6.91874 28.8373 9.90193 28.8373 13.2644C28.8373 19.3886 24.085 25.1913 16.5519 25.776C14.0022 25.9308 12.1332 29.1861 16.4508 28.8932Z" fill="#A4ABAF"/>
<path d="M16.5246 28.8181C25.2765 28.1125 31.0636 21.4381 31.0636 14.0022C31.0636 10.6682 29.1618 6.03268 26.2018 5.89692C26.9545 7.07472 28.7932 10.068 28.7932 13.3341C28.7932 19.5136 23.9284 25.2692 16.6217 25.8081C14.0624 25.9522 12.2498 29.148 16.5246 28.8181Z" fill="#9DA3A7"/>
<path d="M16.5967 28.7436C25.2866 27.9588 30.9595 21.4553 30.9595 14.0301C30.9595 10.6336 29.0575 6.16955 26.2351 6.0189C26.9741 7.23005 28.7503 10.2353 28.7503 13.4042C28.7503 19.6386 23.7712 25.3472 16.6889 25.8414C14.1231 25.9724 12.3678 29.1086 16.5967 28.7436Z" fill="#979DA1"/>
<path d="M16.6693 28.6674C25.2973 27.8046 30.8552 21.4726 30.8552 14.0569C30.8552 10.5985 28.9534 6.30654 26.2691 6.14041C26.9961 7.38549 28.7057 10.402 28.7057 13.474C28.7057 19.7631 23.6134 25.4246 16.758 25.8736C14.1833 25.9933 12.4851 29.0705 16.6693 28.6674Z" fill="#8F9699"/>
<path d="M16.7431 28.5922C25.308 27.6526 30.7516 21.4897 30.7516 14.0847C30.7516 10.5638 28.8497 6.44328 26.303 6.26226C27.0151 7.54188 28.6633 10.5697 28.6633 13.5446C28.6633 19.8885 23.4568 25.5024 16.8265 25.9073C14.244 26.0151 12.6023 29.0322 16.7431 28.5922Z" fill="#888F92"/>
<path d="M16.8151 28.5175C25.3193 27.4975 30.6468 21.5066 30.6468 14.1118C30.6468 10.5284 28.7455 6.58054 26.3357 6.38404C27.036 7.697 28.6193 10.7362 28.6193 13.6134C28.6193 20.0127 23.2995 25.5801 16.8955 25.9392C14.3053 26.035 12.7202 28.9932 16.8151 28.5175Z" fill="#81878A"/>
<path d="M16.8877 28.4418C25.3294 27.3444 30.5426 21.5238 30.5426 14.1391C30.5426 10.4938 28.6414 6.71683 26.3691 6.50604C27.0569 7.85295 28.5752 10.9028 28.5752 13.6842C28.5752 20.1376 23.1424 25.6575 16.964 25.9724C14.3654 26.0552 12.8375 28.9544 16.8877 28.4418Z" fill="#7A7F83"/>
<path d="M16.9616 28.3668C25.3408 27.1908 30.439 21.5412 30.439 14.1659C30.439 10.4593 28.5372 6.85323 26.4031 6.62755C27.0771 8.00899 28.5312 11.0702 28.5312 13.7527C28.5312 20.2621 22.9834 25.7355 17.0331 26.0046C14.4268 26.0761 12.9554 28.9164 16.9616 28.3668Z" fill="#73787B"/>
<path d="M17.0343 28.2916C25.3516 27.0358 30.3348 21.5583 30.3348 14.1932C30.3348 10.424 28.4336 6.99005 26.4364 6.74949C27.0974 8.16428 28.4884 11.238 28.4884 13.8228C28.4884 20.3859 22.8269 25.8128 17.1022 26.0367C14.487 26.0968 13.0722 28.8775 17.0343 28.2916Z" fill="#6C7174"/>
<path d="M17.1069 28.2161C25.3616 26.8841 30.2312 21.5762 30.2312 14.2207C30.2312 10.3895 28.3299 7.12768 26.4703 6.87104C27.1176 8.31976 28.4443 11.4042 28.4443 13.8932C28.4443 20.5122 22.6702 25.8903 17.1694 26.0701C14.5483 26.1177 13.1895 28.8383 17.1069 28.2161Z" fill="#656A6C"/>
<path d="M17.1797 28.1417C25.373 26.7293 30.1264 21.5924 30.1264 14.2487C30.1264 10.3551 28.2246 7.26471 26.5049 6.99259C27.1379 8.47525 28.4009 11.5716 28.4009 13.9623C28.4009 20.6367 22.5119 25.9677 17.2386 26.1029C14.6085 26.1392 13.3081 28.8003 17.1797 28.1417Z" fill="#5D6265"/>
<path d="M17.2522 28.0658C25.3842 26.5766 30.0228 21.6105 30.0228 14.2764C30.0228 10.3202 28.1209 7.40133 26.5382 7.11492C27.1587 8.63093 28.3567 11.7392 28.3567 14.0334C28.3567 20.7602 22.3552 26.046 17.307 26.1359C14.6692 26.1597 13.4247 28.7613 17.2522 28.0658Z" fill="#565A5C"/>
<path d="M17.3255 27.9912C25.3951 26.4227 29.918 21.6264 29.918 14.3036C29.918 10.2855 28.0174 7.5381 26.5716 7.2368C27.1802 8.78675 28.3139 11.9057 28.3139 14.1029C28.3139 20.8857 22.1981 26.1232 17.3761 26.1679C14.73 26.1798 13.5421 28.723 17.3255 27.9912Z" fill="#4F5355"/>
<path d="M17.3986 27.9155C25.405 26.2685 29.8143 21.6454 29.8143 14.3315C29.8143 10.2497 27.913 7.67559 26.6054 7.35821C27.1997 8.9427 28.2697 12.073 28.2697 14.1725C28.2697 21.0107 22.0407 26.2006 17.4444 26.2006C14.7899 26.2006 13.6591 28.6836 17.3986 27.9155Z" fill="#474B4C"/>
<path d="M15.997 28.7794C17.9578 28.7794 20.0294 28.3399 21.9873 27.5093C23.9779 26.6649 25.8225 25.4258 27.3219 23.9276C28.664 22.5843 29.7168 21.0606 30.4516 19.3963C31.2423 17.6004 31.643 15.6771 31.643 13.6806C31.643 11.7942 31.3572 10.0489 30.7922 8.496C30.2682 7.05323 29.4923 5.74265 28.4836 4.59939C26.7073 2.58141 24.1809 1.03444 20.9738 0.000738144C20.9625 -0.00223923 20.95 0.00371742 20.9458 0.0156269C20.9417 0.0269394 20.9488 0.0400429 20.9601 0.0436153C24.1595 1.07493 26.6794 2.61714 28.4509 4.62797C29.4548 5.76766 30.2277 7.07467 30.7511 8.51089C31.3138 10.0596 31.599 11.799 31.599 13.6806C31.599 15.8593 31.1221 17.9428 30.1807 19.8732C29.3125 21.6518 28.0805 23.25 26.5162 24.6207C25.0562 25.9016 23.3187 26.9537 21.4918 27.6617C19.687 28.3637 17.7858 28.7347 15.997 28.7347C15.9845 28.7347 15.9756 28.7442 15.9756 28.7573C15.9756 28.7692 15.9845 28.7794 15.997 28.7794Z" fill="#E5E6E6"/>
<path d="M12.6032 0.688965C11.2087 1.05636 9.89392 1.60119 8.69528 2.30918C7.46151 3.03741 6.37958 3.92165 5.47688 4.93689C4.5319 6.00215 3.79712 7.19959 3.29456 8.49588C2.75985 9.87197 2.49011 11.3564 2.49011 12.9088C2.49011 14.3015 2.76759 15.7639 3.29158 17.1364C3.85488 18.6149 4.68315 19.9684 5.75138 21.1575C8.21059 23.8948 11.7547 25.5335 15.9985 25.9002L16.0014 25.8705C11.7642 25.5055 8.22785 23.8692 5.77401 21.1373C4.70756 19.9511 3.88167 18.6018 3.31898 17.1263C2.79617 15.7562 2.51988 14.2973 2.51988 12.9088C2.51988 11.36 2.78903 9.87852 3.32195 8.5072C3.82332 7.21389 4.55632 6.02001 5.49891 4.95654C6.39983 3.94249 7.47997 3.06063 8.70957 2.33478C9.90642 1.62858 11.2271 1.08434 12.6199 0.716948L12.6032 0.688965Z" fill="#EDF1FB"/>
<path d="M20.2345 0.879272C21.6767 0.902494 22.5621 1.11805 23.9948 2.00705C22.5389 1.95287 21.3003 1.33419 20.2345 0.879272Z" fill="#E5E6E6"/>
<path d="M23.9951 2.00482C22.5624 1.11582 21.677 0.900262 20.2349 0.87704C21.7003 1.19441 22.6625 1.48797 23.9951 2.00482Z" fill="#232E30"/>
<path d="M23.9953 2.00299C22.5627 1.11399 21.6773 0.898431 20.2351 0.875208C21.7005 1.19258 22.6627 1.48614 23.9953 2.00299Z" fill="url(#paint12_linear_601_188)"/>
<path d="M24.0952 1.32012C24.6031 2.21687 25.535 3.07431 26.652 3.88531C26.19 2.76587 25.9744 2.29487 24.0952 1.32012Z" fill="#7093AE"/>
<path d="M24.095 1.32104C24.6029 2.21778 25.5347 3.07523 26.6518 3.88623C26.1897 2.76679 25.9742 2.29579 24.095 1.32104Z" fill="url(#paint13_linear_601_188)"/>
<path d="M26.652 3.88531C25.9208 2.97428 25.1498 2.05372 24.0952 1.32012C24.6031 2.21687 25.535 3.07431 26.652 3.88531Z" fill="#232E30"/>
<path d="M26.6518 3.88623C25.9206 2.97519 25.1495 2.05463 24.095 1.32104C24.6029 2.21778 25.5347 3.07523 26.6518 3.88623Z" fill="url(#paint14_linear_601_188)"/>
<path d="M25.5422 3.91775C26.7325 4.24227 27.3339 4.4739 28.2932 5.8869C26.8838 5.30813 26.6051 5.04136 25.5422 3.91775Z" fill="#9CB3CF"/>
<path d="M25.5421 3.91946C26.7324 4.24398 27.3338 4.47561 28.2931 5.88861C26.8837 5.30983 26.605 5.04307 25.5421 3.91946Z" fill="url(#paint15_linear_601_188)"/>
<path d="M25.5422 3.91775C26.3294 4.32206 27.3304 5.01636 28.2932 5.8869C27.3339 4.4739 26.7325 4.24227 25.5422 3.91775Z" fill="#232E30"/>
<path d="M25.5421 3.91946C26.3293 4.32377 27.3302 5.01807 28.2931 5.88861C27.3338 4.47561 26.7324 4.24398 25.5421 3.91946Z" fill="url(#paint16_linear_601_188)"/>
<path d="M28.2598 4.47309C28.3854 5.65505 28.8821 6.88346 29.6681 8.06543C29.6454 6.85965 29.7603 5.88609 28.2598 4.47309Z" fill="#9CB3CF"/>
<path d="M28.2595 4.47425C28.3852 5.65621 28.8818 6.88462 29.6678 8.06659C29.6452 6.86081 29.7601 5.88725 28.2595 4.47425Z" fill="url(#paint17_linear_601_188)"/>
<path d="M28.1841 7.2141C29.4828 8.18706 30.0306 8.99091 30.2616 10.5105C29.5167 9.71736 28.9087 9.07487 28.1841 7.2141Z" fill="#9CB3CF"/>
<path d="M28.1843 7.21318C29.483 8.18614 30.0308 8.99 30.2619 10.5096C29.5169 9.71645 28.909 9.07396 28.1843 7.21318Z" fill="url(#paint18_linear_601_188)"/>
<path d="M28.1841 7.2141C29.1815 8.36986 29.7072 9.25529 30.2616 10.5105C30.0306 8.99091 29.4828 8.18706 28.1841 7.2141Z" fill="#232E30"/>
<path d="M28.1843 7.21318C29.1817 8.36895 29.7075 9.25438 30.2619 10.5096C30.0308 8.99 29.483 8.18614 28.1843 7.21318Z" fill="url(#paint19_linear_601_188)"/>
<path d="M31.159 10.0324C30.9631 10.844 30.7422 11.053 30.6725 11.6783C30.604 12.3047 30.6279 13.4521 30.5928 14.2399C30.9971 13.4056 31.9908 12.5821 31.159 10.0324Z" fill="#9CB3CF"/>
<path d="M31.1588 10.031C30.9629 10.8426 30.7419 11.0516 30.6723 11.6768C30.6038 12.3032 30.6277 13.4506 30.5925 14.2384C30.9968 13.4042 31.9906 12.5807 31.1588 10.031Z" fill="url(#paint20_linear_601_188)"/>
<path d="M30.6725 11.6783C30.604 12.3047 30.6279 13.4521 30.5928 14.2399C31.0733 12.6423 31.2221 11.5211 31.159 10.0324C30.9631 10.844 30.7422 11.053 30.6725 11.6783Z" fill="#232E30"/>
<path d="M30.6723 11.6768C30.6038 12.3032 30.6277 13.4506 30.5925 14.2384C31.0731 12.6408 31.2219 11.5196 31.1588 10.031C30.9629 10.8426 30.7419 11.0516 30.6723 11.6768Z" fill="url(#paint21_linear_601_188)"/>
<path d="M29.6107 13.1398C29.9578 14.264 30.72 15.284 29.8536 17.3234C29.8071 16.3618 29.1248 15.7586 29.6107 13.1398Z" fill="#9CB3CF"/>
<path d="M29.6109 13.1391C29.9581 14.2633 30.7202 15.2833 29.8538 17.3227C29.8074 16.361 29.125 15.7579 29.6109 13.1391Z" fill="url(#paint22_linear_601_188)"/>
<path d="M29.8535 17.3234C30.7199 15.284 29.9577 14.264 29.6106 13.1398C29.7892 14.8642 30.0714 15.8967 29.8535 17.3234Z" fill="#232E30"/>
<path d="M29.8536 17.3227C30.72 15.2833 29.9579 14.2633 29.6107 13.1391C29.7894 14.8635 30.0716 15.896 29.8536 17.3227Z" fill="url(#paint23_linear_601_188)"/>
<path d="M31.2515 16.7923C30.7198 17.5467 29.8766 17.7807 28.6053 20.1875C30.3262 19.308 30.8698 18.5191 31.2515 16.7923Z" fill="#9CB3CF"/>
<path d="M31.2514 16.7938C30.7196 17.5483 29.8765 17.7823 28.6052 20.1891C30.3261 19.3096 30.8697 18.5206 31.2514 16.7938Z" fill="url(#paint24_linear_601_188)"/>
<path d="M28.6053 20.1875C29.9749 18.9079 30.6942 18.0754 31.2515 16.7923C30.7198 17.5467 29.8766 17.7807 28.6053 20.1875Z" fill="#232E30"/>
<path d="M28.6052 20.1891C29.9748 18.9095 30.694 18.077 31.2514 16.7938C30.7196 17.5483 29.8765 17.7823 28.6052 20.1891Z" fill="url(#paint25_linear_601_188)"/>
<path d="M28.5402 17.7144C27.9935 18.7422 27.7553 19.3144 27.6547 19.6461C27.5541 19.9777 27.4963 21.3401 27.4272 21.6265C28.1984 20.7536 28.3162 20.1302 28.3936 19.783C28.4692 19.4353 28.5783 18.479 28.5402 17.7144Z" fill="#9CB3CF"/>
<path d="M28.5404 17.7149C27.9938 18.7426 27.7556 19.3148 27.6549 19.6465C27.5543 19.9782 27.4966 21.3405 27.4275 21.627C28.1986 20.754 28.3164 20.1306 28.3939 19.7834C28.4695 19.4357 28.5785 18.4794 28.5404 17.7149Z" fill="url(#paint26_linear_601_188)"/>
<path d="M27.4272 21.6274C27.8435 20.6306 28.318 18.8782 28.5402 17.7153C27.9935 18.743 27.7553 19.3153 27.6547 19.6469C27.557 19.9679 27.4963 21.341 27.4272 21.6274C27.4284 21.6268 27.4272 21.628 27.4272 21.6274Z" fill="#232E30"/>
<path d="M27.4275 21.6284C27.8437 20.6316 28.3183 18.8792 28.5404 17.7163C27.9938 18.744 27.7556 19.3162 27.6549 19.6479C27.5573 19.9689 27.4966 21.342 27.4275 21.6284C27.4287 21.6278 27.4275 21.629 27.4275 21.6284Z" fill="url(#paint27_linear_601_188)"/>
<path d="M25.8515 21.6009C25.1268 22.2803 24.6957 22.6977 24.3491 23.239C24.0026 23.7802 23.9025 24.4096 23.5399 24.942C25.4817 23.8606 25.5204 22.6358 25.8515 21.6009Z" fill="#9CB3CF"/>
<path d="M25.8515 21.6009C25.1268 22.2803 24.6957 22.6977 24.3491 23.239C24.0026 23.7802 23.9025 24.4096 23.5399 24.942C25.4817 23.8606 25.5204 22.6358 25.8515 21.6009Z" fill="url(#paint28_linear_601_188)"/>
<path d="M24.3491 23.239C24.0026 23.7802 23.9025 24.4096 23.5399 24.942C24.3366 24.1738 25.2269 22.8216 25.8515 21.6009C25.1268 22.2803 24.6957 22.6977 24.3491 23.239Z" fill="#232E30"/>
<path d="M24.3491 23.239C24.0026 23.7802 23.9025 24.4096 23.5399 24.942C24.3366 24.1738 25.2269 22.8216 25.8515 21.6009C25.1268 22.2803 24.6957 22.6977 24.3491 23.239Z" fill="url(#paint29_linear_601_188)"/>
<path d="M28.779 22.0702C28.1716 22.3441 27.5863 22.4406 26.9634 22.7133C26.3412 22.9878 25.5749 23.7411 25.1152 24.0447C26.7706 23.9364 27.9769 23.404 28.779 22.0702Z" fill="#9CB3CF"/>
<path d="M28.7788 22.0688C28.1714 22.3427 27.586 22.4392 26.9632 22.7119C26.3409 22.9864 25.5747 23.7397 25.115 24.0433C26.7703 23.935 27.9767 23.4026 28.7788 22.0688Z" fill="url(#paint30_linear_601_188)"/>
<path d="M18.5802 26.9069C19.1584 26.3734 19.3382 25.8744 19.8926 25.4457C20.4469 25.017 21.3604 24.5543 21.9481 24.3798C21.2675 25.2033 20.4058 26.5473 18.5802 26.9069Z" fill="#9CB3CF"/>
<path d="M18.5801 26.905C19.1583 26.3714 19.3381 25.8725 19.8924 25.4437C20.4468 25.015 21.3602 24.5524 21.9479 24.3779C21.2673 25.2014 20.4057 26.5453 18.5801 26.905Z" fill="url(#paint31_linear_601_188)"/>
<path d="M18.5802 26.9069C20.0128 26.1245 20.6446 25.2254 21.9481 24.3798C21.3604 24.5543 20.4469 25.017 19.8926 25.4457C19.3382 25.8744 19.1584 26.3734 18.5802 26.9069Z" fill="#232E30"/>
<path d="M18.5801 26.905C20.0127 26.1225 20.6445 25.2234 21.9479 24.3779C21.3602 24.5524 20.4468 25.015 19.8924 25.4437C19.3381 25.8725 19.1583 26.3714 18.5801 26.905Z" fill="url(#paint32_linear_601_188)"/>
<path d="M22.6776 26.5957C21.4409 26.6761 21.22 26.4617 20.6204 26.4558C22.4234 25.7377 22.7467 25.6799 24.8963 25.8192C24.1913 26.3754 23.5083 26.529 22.6776 26.5957Z" fill="#9CB3CF"/>
<path d="M22.6776 26.5957C21.4409 26.6761 21.22 26.4617 20.6204 26.4558C22.4234 25.7377 22.7467 25.6799 24.8963 25.8192C24.1913 26.3754 23.5083 26.529 22.6776 26.5957Z" fill="url(#paint33_linear_601_188)"/>
<path d="M20.6202 26.4538C22.1345 26.0144 23.5439 26.3389 24.8962 25.8173C22.7466 25.6779 22.4233 25.7357 20.6202 26.4538Z" fill="#232E30"/>
<path d="M20.6201 26.4518C22.1343 26.0124 23.5438 26.3369 24.8961 25.8153C22.7465 25.676 22.4231 25.7337 20.6201 26.4518Z" fill="url(#paint34_linear_601_188)"/>
<path d="M18.5632 28.1241C17.364 28.0336 16.5965 27.5447 16.0909 27.3488C17.2914 27.2386 18.4846 27.1517 19.2337 27.2905C19.9988 27.431 20.3144 27.8002 20.8634 27.8234C19.9387 28.1485 19.1986 28.1723 18.5632 28.1241Z" fill="#9CB3CF"/>
<path d="M18.5632 28.1231C17.364 28.0326 16.5965 27.5437 16.0909 27.3478C17.2914 27.2377 18.4846 27.1507 19.2337 27.2895C19.9988 27.43 20.3144 27.7992 20.8634 27.8224C19.9387 28.1475 19.1986 28.1713 18.5632 28.1231Z" fill="url(#paint35_linear_601_188)"/>
<path d="M16.0909 27.3496C17.6736 27.5336 19.0026 27.8128 20.8634 27.8242C20.3144 27.8009 19.9988 27.4318 19.2337 27.2912C18.4846 27.1525 17.2914 27.2394 16.0909 27.3496Z" fill="#232E30"/>
<path d="M16.0909 27.3493C17.6736 27.5333 19.0026 27.8125 20.8634 27.8239C20.3144 27.8006 19.9988 27.4315 19.2337 27.2909C18.4846 27.1522 17.2914 27.2391 16.0909 27.3493Z" fill="url(#paint36_linear_601_188)"/>
<path d="M25.1152 24.0447C26.0745 23.5136 27.4857 23.1915 28.779 22.0702C28.1716 22.3441 27.5863 22.4406 26.9634 22.7133C26.3412 22.9878 25.5749 23.7411 25.1152 24.0447Z" fill="#232E30"/>
<path d="M25.115 24.0433C26.0743 23.5122 27.4854 23.1901 28.7788 22.0688C28.1714 22.3427 27.586 22.4392 26.9632 22.7119C26.3409 22.9864 25.5747 23.7397 25.115 24.0433Z" fill="url(#paint37_linear_601_188)"/>
<path d="M28.2598 4.47309C28.3854 5.65505 28.8821 6.88346 29.6681 8.06543C29.3507 6.57621 28.9344 5.84738 28.2598 4.47309Z" fill="#232E30"/>
<path d="M28.2595 4.47425C28.3852 5.65621 28.8818 6.88462 29.6678 8.06659C29.3505 6.57737 28.9342 5.84854 28.2595 4.47425Z" fill="url(#paint38_linear_601_188)"/>
<path d="M11.772 0.87704C10.3322 0.900262 9.4462 1.11582 8.01355 2.00482C9.46883 1.95064 10.7086 1.33196 11.772 0.87704Z" fill="#F1F5FC"/>
<path d="M11.7719 0.875208C10.3321 0.898431 9.44608 1.11399 8.01343 2.00299C9.4687 1.9488 10.7084 1.33013 11.7719 0.875208Z" fill="url(#paint39_radial_601_188)"/>
<path d="M8.01355 2.00482C9.4462 1.11582 10.3322 0.900262 11.772 0.87704C10.334 1.2093 9.34616 1.48797 8.01355 2.00482Z" fill="#232E30"/>
<path d="M8.01343 2.00299C9.44608 1.11399 10.3321 0.898431 11.7719 0.875208C10.3339 1.20747 9.34604 1.48614 8.01343 2.00299Z" fill="url(#paint40_linear_601_188)"/>
<path d="M7.91307 1.32012C7.40575 2.21687 6.47325 3.07431 5.35559 3.88531C5.81766 2.76587 6.03324 2.29487 7.91307 1.32012Z" fill="#232E30"/>
<path d="M7.91307 1.32104C7.40575 2.21778 6.47325 3.07523 5.35559 3.88623C5.81766 2.76679 6.03324 2.29579 7.91307 1.32104Z" fill="url(#paint41_linear_601_188)"/>
<path d="M5.35559 3.88531C6.23209 2.93141 6.58284 2.37169 7.91307 1.32012C7.40575 2.21687 6.47325 3.07431 5.35559 3.88531Z" fill="#587089"/>
<path d="M5.35559 3.88623C6.23209 2.93232 6.58284 2.3726 7.91307 1.32104C7.40575 2.21778 6.47325 3.07523 5.35559 3.88623Z" fill="url(#paint42_linear_601_188)"/>
<path d="M6.46418 3.91775C5.27507 4.24227 4.67373 4.4739 3.71387 5.8869C5.12389 5.30813 5.4025 5.04136 6.46418 3.91775Z" fill="#F1F5FC"/>
<path d="M6.46418 3.91946C5.27507 4.24398 4.67373 4.47561 3.71387 5.88861C5.12389 5.30983 5.4025 5.04307 6.46418 3.91946Z" fill="url(#paint43_radial_601_188)"/>
<path d="M6.46418 3.91775C5.67879 4.32206 4.68802 5.05387 3.71387 5.8869C4.67373 4.4739 5.27507 4.24227 6.46418 3.91775Z" fill="#232E30"/>
<path d="M6.46418 3.91946C5.67879 4.32377 4.68802 5.05558 3.71387 5.88861C4.67373 4.47561 5.27507 4.24398 6.46418 3.91946Z" fill="url(#paint44_linear_601_188)"/>
<path d="M3.74933 4.47309C3.6219 5.65505 3.19978 6.83226 2.33936 8.06543C2.36317 6.85965 2.33454 5.91705 3.74933 4.47309Z" fill="#9CB3CF"/>
<path d="M3.74909 4.47425C3.62166 5.65621 3.19953 6.83342 2.33911 8.06659C2.36293 6.86081 2.3343 5.91821 3.74909 4.47425Z" fill="url(#paint45_linear_601_188)"/>
<path d="M3.74933 4.47309C3.6219 5.65505 3.11642 6.88227 2.33936 8.06543C2.74426 6.4077 3.19318 5.78605 3.74933 4.47309Z" fill="#232E30"/>
<path d="M3.74909 4.47425C3.62166 5.65621 3.11617 6.88343 2.33911 8.06659C2.74402 6.40886 3.19294 5.78721 3.74909 4.47425Z" fill="url(#paint46_linear_601_188)"/>
<path d="M3.83096 7.21929C2.52455 8.18154 1.96963 8.98063 1.72668 10.499C2.47814 9.71125 3.09082 9.07352 3.83096 7.21929Z" fill="#F1F5FC"/>
<path d="M3.83072 7.22045C2.5243 8.1827 1.96938 8.98179 1.72644 10.5002C2.4779 9.7124 3.09057 9.07468 3.83072 7.22045Z" fill="url(#paint47_radial_601_188)"/>
<path d="M3.83096 7.21929C3.10868 7.99219 1.89401 9.95776 1.72668 10.499C1.96963 8.98063 2.52455 8.18154 3.83096 7.21929Z" fill="#232E30"/>
<path d="M3.83072 7.22045C3.10844 7.99335 1.89376 9.95892 1.72644 10.5002C1.96938 8.98179 2.5243 8.1827 3.83072 7.22045Z" fill="url(#paint48_linear_601_188)"/>
<path d="M1.33377 11.6783C1.40343 12.3047 1.3802 13.4521 1.41474 14.2399C0.973512 12.9168 0.921155 11.5431 0.848511 10.0324C1.04441 10.844 1.26469 11.053 1.33377 11.6783Z" fill="#232E30"/>
<path d="M1.33377 11.6768C1.40343 12.3032 1.3802 13.4506 1.41474 14.2384C0.973512 12.9153 0.921155 11.5416 0.848511 10.031C1.04441 10.8426 1.26469 11.0516 1.33377 11.6768Z" fill="url(#paint49_linear_601_188)"/>
<path d="M2.39718 13.1398C2.05063 14.264 1.28788 15.284 2.15426 17.3234C2.2013 16.3618 2.88247 15.7586 2.39718 13.1398Z" fill="#F1F5FC"/>
<path d="M2.39706 13.1391C2.05051 14.2633 1.28776 15.2833 2.15414 17.3227C2.20118 16.361 2.88235 15.7579 2.39706 13.1391Z" fill="url(#paint50_radial_601_188)"/>
<path d="M2.15426 17.3234C1.28788 15.284 2.05063 14.264 2.39718 13.1398C2.36324 14.9017 1.87261 15.8967 2.15426 17.3234Z" fill="#232E30"/>
<path d="M2.15414 17.3227C1.28776 15.2833 2.05051 14.2633 2.39706 13.1391C2.36312 14.901 1.87249 15.896 2.15414 17.3227Z" fill="url(#paint51_linear_601_188)"/>
<path d="M0.756714 16.7923C1.28785 17.5467 2.13159 17.7807 3.40287 20.1875C1.68083 19.308 1.13721 18.5191 0.756714 16.7923Z" fill="#9CB3CF"/>
<path d="M0.756714 16.7938C1.28785 17.5483 2.13159 17.7823 3.40287 20.1891C1.68083 19.3096 1.13721 18.5206 0.756714 16.7938Z" fill="url(#paint52_linear_601_188)"/>
<path d="M3.46842 17.7144C4.01445 18.7422 4.25378 19.3144 4.35382 19.6461C4.45385 19.9777 4.5116 21.3401 4.58067 21.6265C3.81016 20.7536 3.59881 20.1486 3.52199 19.8015C3.44518 19.4531 3.42972 18.479 3.46842 17.7144Z" fill="#232E30"/>
<path d="M3.4683 17.7149C4.01433 18.7426 4.25366 19.3148 4.3537 19.6465C4.45373 19.9782 4.51148 21.3405 4.58055 21.627C3.81004 20.754 3.59868 20.1491 3.52187 19.8019C3.44506 19.4536 3.4296 18.4794 3.4683 17.7149Z" fill="url(#paint53_linear_601_188)"/>
<path d="M4.58063 21.6274C4.00484 20.7646 3.81791 18.8038 3.46838 17.7153C4.01441 18.743 4.25374 19.3153 4.35378 19.6469C4.45024 19.9679 4.51156 21.341 4.58063 21.6274C4.58063 21.628 4.58004 21.6268 4.58063 21.6274Z" fill="#F1F5FC"/>
<path d="M4.58039 21.6284C4.00459 20.7656 3.81767 18.8048 3.46814 17.7163C4.01417 18.744 4.2535 19.3162 4.35353 19.6479C4.45 19.9689 4.51132 21.342 4.58039 21.6284C4.58039 21.629 4.57979 21.6278 4.58039 21.6284Z" fill="url(#paint54_radial_601_188)"/>
<path d="M6.15576 21.6009C6.88102 22.2803 7.31215 22.6977 7.6587 23.239C8.00585 23.7802 8.10647 24.4096 8.4685 24.942C6.52615 23.8606 6.48862 22.6358 6.15576 21.6009Z" fill="#232E30"/>
<path d="M6.15576 21.6009C6.88102 22.2803 7.31215 22.6977 7.6587 23.239C8.00585 23.7802 8.10647 24.4096 8.4685 24.942C6.52615 23.8606 6.48862 22.6358 6.15576 21.6009Z" fill="url(#paint55_linear_601_188)"/>
<path d="M7.6587 23.239C8.00585 23.7802 8.10647 24.4096 8.4685 24.942C8.01715 24.6448 6.61426 22.4953 6.15576 21.6009C6.88102 22.2803 7.31215 22.6977 7.6587 23.239Z" fill="#F1F5FC"/>
<path d="M7.6587 23.239C8.00585 23.7802 8.10647 24.4096 8.4685 24.942C8.01715 24.6448 6.61426 22.4953 6.15576 21.6009C6.88102 22.2803 7.31215 22.6977 7.6587 23.239Z" fill="url(#paint56_radial_601_188)"/>
<path d="M3.22961 22.0697C3.83757 22.3407 4.42348 22.4336 5.04751 22.7033C5.67094 22.9742 6.4414 23.7227 6.90407 24.0246C5.24753 23.924 4.03764 23.3976 3.22961 22.0697Z" fill="#9CB3CF"/>
<path d="M3.22937 22.0681C3.83732 22.339 4.42323 22.4319 5.04726 22.7016C5.6707 22.9726 6.44116 23.7211 6.90382 24.0229C5.24728 23.9223 4.03739 23.3959 3.22937 22.0681Z" fill="url(#paint57_linear_601_188)"/>
<path d="M6.90407 24.0246C5.94004 23.4994 4.62296 23.1374 3.22961 22.0697C3.83757 22.3407 4.42348 22.4336 5.04751 22.7033C5.67094 22.9742 6.4414 23.7227 6.90407 24.0246Z" fill="#232E30"/>
<path d="M6.90382 24.0229C5.93979 23.4978 4.62272 23.1357 3.22937 22.0681C3.83732 22.339 4.42323 22.4319 5.04726 22.7016C5.6707 22.9726 6.44116 23.7211 6.90382 24.0229Z" fill="url(#paint58_linear_601_188)"/>
<path d="M13.4283 26.9069C12.8495 26.3734 12.6703 25.8744 12.1159 25.4457C11.561 25.017 10.6481 24.5543 10.0586 24.3798C10.7404 25.2033 11.6014 26.5473 13.4283 26.9069Z" fill="#232E30"/>
<path d="M13.4285 26.905C12.8497 26.3714 12.6705 25.8725 12.1162 25.4437C11.5612 25.015 10.6483 24.5524 10.0588 24.3779C10.7406 25.2014 11.6017 26.5453 13.4285 26.905Z" fill="url(#paint59_linear_601_188)"/>
<path d="M13.4283 26.9069C12.1987 26.2287 11.4775 25.2933 10.0586 24.3798C10.6481 24.5543 11.561 25.017 12.1159 25.4457C12.6703 25.8744 12.8495 26.3734 13.4283 26.9069Z" fill="#F1F5FC"/>
<path d="M13.4285 26.905C12.1989 26.2268 11.4778 25.2913 10.0588 24.3779C10.6483 24.5524 11.5612 25.015 12.1162 25.4437C12.6705 25.8725 12.8497 26.3714 13.4285 26.905Z" fill="url(#paint60_radial_601_188)"/>
<path d="M9.33075 26.5957C10.5669 26.6761 10.789 26.4617 11.388 26.4558C9.58557 25.7377 9.26103 25.6799 7.11206 25.8192C7.81707 26.3754 8.4995 26.529 9.33075 26.5957Z" fill="#9CB3CF"/>
<path d="M9.33075 26.5957C10.5669 26.6761 10.789 26.4617 11.388 26.4558C9.58557 25.7377 9.26103 25.6799 7.11206 25.8192C7.81707 26.3754 8.4995 26.529 9.33075 26.5957Z" fill="url(#paint61_linear_601_188)"/>
<path d="M11.3881 26.4538C9.80601 26.1358 8.46385 26.3389 7.11218 25.8173C9.26116 25.6779 9.58569 25.7357 11.3881 26.4538Z" fill="#232E30"/>
<path d="M11.3884 26.4518C9.80625 26.1339 8.46409 26.3369 7.11243 25.8153C9.2614 25.676 9.58594 25.7337 11.3884 26.4518Z" fill="url(#paint62_linear_601_188)"/>
<path d="M13.4434 28.1241C14.6438 28.0336 15.4113 27.5447 15.9169 27.3488C14.717 27.2386 13.5244 27.1517 12.7741 27.2905C12.009 27.431 11.6934 27.8002 11.1444 27.8234C12.0691 28.1485 12.8093 28.1723 13.4434 28.1241Z" fill="#9CB3CF"/>
<path d="M13.4434 28.1231C14.6438 28.0326 15.4113 27.5437 15.9169 27.3478C14.717 27.2377 13.5244 27.1507 12.7741 27.2895C12.009 27.43 11.6934 27.7992 11.1444 27.8224C12.0691 28.1475 12.8093 28.1713 13.4434 28.1231Z" fill="url(#paint63_linear_601_188)"/>
<path d="M15.9169 27.3496C14.3342 27.5336 13.0052 27.8128 11.1444 27.8242C11.6934 27.8009 12.009 27.4318 12.7741 27.2912C13.5244 27.1525 14.717 27.2394 15.9169 27.3496Z" fill="#232E30"/>
<path d="M15.9169 27.3493C14.3342 27.5333 13.0052 27.8125 11.1444 27.8239C11.6934 27.8006 12.009 27.4315 12.7741 27.2909C13.5244 27.1522 14.717 27.2391 15.9169 27.3493Z" fill="url(#paint64_linear_601_188)"/>
<path d="M3.40287 20.1875C2.57817 19.3616 1.27773 18.1939 0.756714 16.7923C1.28785 17.5467 2.13159 17.7807 3.40287 20.1875Z" fill="#232E30"/>
<path d="M3.40287 20.1891C2.57817 19.3632 1.27773 18.1955 0.756714 16.7938C1.28785 17.5483 2.13159 17.7823 3.40287 20.1891Z" fill="url(#paint65_linear_601_188)"/>
<path d="M24.8976 25.8088C22.7629 25.6701 22.4437 25.7183 20.6151 26.4478C20.6074 26.4501 20.6032 26.4591 20.6062 26.4656C20.6098 26.474 20.6187 26.4775 20.6258 26.4751C22.4485 25.7487 22.7677 25.7005 24.8946 25.838C24.9035 25.8398 24.9107 25.8315 24.9107 25.8237C24.9113 25.816 24.9047 25.8088 24.8976 25.8088Z" fill="#818384"/>
<path d="M28.7682 22.0488C28.4627 22.1864 28.1555 22.2817 27.8578 22.3728C27.5654 22.4627 27.2623 22.5562 26.9544 22.6913C26.5513 22.87 26.0923 23.2427 25.6874 23.572C25.4694 23.75 25.2646 23.9174 25.1008 24.0245L25.0806 24.0388L25.108 24.0805L25.1288 24.0662C25.2938 23.9572 25.4998 23.7893 25.7183 23.6107C26.1214 23.2826 26.577 22.9116 26.9741 22.7384C27.2802 22.6032 27.5814 22.5097 27.872 22.4198C28.1715 22.3281 28.48 22.2334 28.7885 22.0941L28.8116 22.0834L28.7914 22.0387L28.7682 22.0488Z" fill="#88898A"/>
<path d="M30.2738 10.5001L30.2625 10.4894C29.5122 9.68915 28.9197 9.05797 28.1992 7.2103C28.1951 7.20136 28.1867 7.19719 28.1784 7.20017C28.1695 7.20374 28.1653 7.21268 28.1689 7.22161C28.8918 9.07643 29.486 9.70999 30.2387 10.5115L30.25 10.5234C30.2553 10.5299 30.266 10.5305 30.2732 10.524C30.2797 10.518 30.2803 10.5067 30.2738 10.5001Z" fill="#D0D1D3"/>
<path d="M29.7101 8.06527L29.7066 7.7878C29.6958 6.69872 29.6863 5.75851 28.287 4.44316L28.2299 4.5033C29.6024 5.79543 29.6113 6.71897 29.6232 7.78839L29.6267 8.06647L29.7101 8.06527Z" fill="#EBF1FB"/>
<path d="M28.2993 5.87008C26.9012 5.29547 26.6249 5.03586 25.5555 3.90451C25.5483 3.89736 25.5382 3.89736 25.5305 3.90331C25.5245 3.90927 25.5245 3.91999 25.5305 3.92654C26.6053 5.06265 26.8815 5.32286 28.2868 5.90045C28.2951 5.90461 28.3047 5.90045 28.3088 5.89211C28.3124 5.88318 28.3088 5.87365 28.2993 5.87008Z" fill="#C3C4C6"/>
<path d="M7.11323 25.8336C9.23958 25.6954 9.55933 25.7436 11.3814 26.4701C11.3897 26.4731 11.3981 26.4695 11.4016 26.4618C11.4046 26.454 11.4011 26.4457 11.3933 26.4427C9.5641 25.7139 9.24494 25.6656 7.11085 25.8038C7.10311 25.8056 7.09656 25.8121 7.09656 25.8199C7.09715 25.8282 7.10489 25.8342 7.11323 25.8336Z" fill="#939596"/>
<path d="M11.1462 27.8384C11.4285 27.8259 11.6464 27.7253 11.8995 27.6092C12.1353 27.4984 12.4032 27.3746 12.7778 27.3049C13.5376 27.165 14.7445 27.2573 15.9158 27.3638C15.9235 27.3644 15.9313 27.3585 15.9325 27.3502C15.9336 27.3424 15.9277 27.3347 15.9182 27.3335C14.7445 27.2275 13.5346 27.1346 12.7712 27.2757C12.3949 27.346 12.1246 27.471 11.8864 27.5818C11.6357 27.6967 11.4207 27.7967 11.1445 27.8086C11.1361 27.8086 11.1296 27.8158 11.1302 27.8241C11.1308 27.8325 11.1367 27.8384 11.1462 27.8384Z" fill="#838486"/>
<path d="M20.8872 27.8384C20.6049 27.8259 20.3864 27.7253 20.1339 27.6092C19.8976 27.4984 19.6296 27.3746 19.2563 27.3049C18.4953 27.165 17.2883 27.2573 16.1176 27.3638C16.1087 27.3644 16.1022 27.3585 16.1004 27.3502C16.0998 27.3424 16.1063 27.3347 16.1147 27.3335C17.2883 27.2275 18.4977 27.1346 19.2616 27.2757C19.6391 27.346 19.9083 27.471 20.147 27.5818C20.3971 27.6967 20.6115 27.7967 20.889 27.8086C20.8973 27.8086 20.9033 27.8158 20.9033 27.8241C20.9033 27.8325 20.8961 27.8384 20.8872 27.8384Z" fill="#838486"/>
<path d="M0.834236 10.0378C0.923553 10.4046 1.01645 10.6475 1.09862 10.8631C1.19687 11.1191 1.28142 11.34 1.31953 11.6818C1.3618 12.0653 1.37014 12.6518 1.37788 13.2187C1.38205 13.5718 1.38622 13.9374 1.40051 14.2428C1.40111 14.2512 1.40706 14.2565 1.41599 14.2565C1.42433 14.2559 1.43028 14.2488 1.43028 14.2416C1.41659 13.9362 1.41123 13.5718 1.40587 13.2181C1.39932 12.6506 1.39217 12.0629 1.34811 11.6788C1.3106 11.3329 1.22485 11.1108 1.1266 10.8512C1.04384 10.638 0.952137 10.3956 0.864011 10.0312C0.86163 10.0229 0.853885 10.0187 0.845549 10.0199C0.837212 10.0223 0.832449 10.0306 0.834236 10.0378Z" fill="#94A3AF"/>
<path d="M3.22382 22.0852C3.53226 22.2228 3.84189 22.3163 4.14081 22.4074C4.43258 22.4943 4.73447 22.586 5.04172 22.7188C5.44127 22.8921 5.89976 23.2613 6.30407 23.587C6.5232 23.7644 6.73041 23.9317 6.89595 24.0395C6.90309 24.0431 6.91203 24.0419 6.91619 24.0347C6.92096 24.0276 6.91858 24.0187 6.91203 24.0139C6.74828 23.9079 6.54166 23.7406 6.32253 23.5637C5.91763 23.2368 5.45675 22.8671 5.05363 22.6914C4.74459 22.558 4.4421 22.4663 4.14914 22.3776C3.85082 22.2883 3.54357 22.1942 3.23513 22.0584C3.22799 22.0555 3.21905 22.0584 3.21548 22.0662C3.2125 22.0727 3.21548 22.0823 3.22382 22.0852Z" fill="#818384"/>
<path d="M0.743764 16.7997C0.911681 17.0373 1.11175 17.2254 1.34278 17.4422C1.83939 17.9072 2.51939 18.5444 3.38934 20.1943C3.39351 20.2015 3.40244 20.2039 3.40899 20.1997C3.41614 20.1967 3.41911 20.1872 3.41554 20.1801C2.54202 18.5265 1.86142 17.8864 1.36363 17.4202C1.13319 17.204 0.934308 17.0182 0.769368 16.7824C0.76401 16.7753 0.754483 16.7747 0.747337 16.7783C0.740788 16.7842 0.739596 16.7931 0.743764 16.7997Z" fill="#838486"/>
<path d="M3.73459 4.47016C3.60121 5.71703 3.14034 6.89006 2.32696 8.05595C2.32219 8.0625 2.32338 8.07143 2.33053 8.07679C2.33767 8.08096 2.3466 8.07917 2.35077 8.07262C3.16773 6.90316 3.6292 5.72477 3.76437 4.47254C3.76496 4.4648 3.75901 4.45766 3.75067 4.45647C3.74233 4.45587 3.73519 4.46123 3.73459 4.47016Z" fill="#BABBBD"/>
<path d="M19.975 0.278678C23.0047 1.16113 25.5687 2.69977 27.3901 4.72906C28.3923 5.84493 29.1682 7.10788 29.6963 8.48158C30.2638 9.9565 30.5514 11.5755 30.5514 13.2952C30.5514 15.0928 30.1768 16.8512 29.4373 18.5185C28.721 20.1405 27.6885 21.6112 26.3707 22.8908C23.6525 25.5334 19.972 27.1024 16.0052 27.3067C15.9968 27.3073 15.9903 27.3144 15.9915 27.3222C15.9915 27.3317 15.998 27.337 16.007 27.337C19.9798 27.1316 23.6686 25.5608 26.3916 22.9123C27.7117 21.6297 28.7454 20.1553 29.4659 18.5316C30.2054 16.8595 30.5812 15.0982 30.5812 13.2952C30.5812 11.5719 30.2924 9.94876 29.7243 8.47086C29.1938 7.09359 28.4167 5.82766 27.4122 4.71C25.5871 2.67595 23.0178 1.13374 19.9834 0.249501C19.975 0.247714 19.9637 0.260218 19.9613 0.268554C19.9589 0.275699 19.9673 0.276295 19.975 0.278678Z" fill="white"/>
<path d="M16.001 27.3076C12.0341 27.1028 8.35422 25.5338 5.6354 22.8918C4.31946 21.6116 3.28755 20.1408 2.57003 18.5188C1.83168 16.8515 1.45773 15.0932 1.45773 13.2955C1.45773 11.5777 1.74415 9.95982 2.31042 8.48668C2.83918 7.11298 3.61445 5.85123 4.6154 4.73595C6.43509 2.70726 8.99671 1.16802 12.0228 0.283783C12.0311 0.281402 12.0448 0.283784 12.043 0.276043C12.04 0.268899 12.0049 0.258177 12.0002 0.259369C8.97587 1.1454 6.41425 2.68642 4.59277 4.7163C3.58944 5.83396 2.81297 7.09869 2.28362 8.47596C1.71556 9.95268 1.42737 11.5747 1.42737 13.2955C1.42737 15.0985 1.8025 16.8599 2.54205 18.5319C3.26194 20.1557 4.29564 21.63 5.61516 22.9138C8.33874 25.5612 12.0258 27.132 15.9992 27.3374C16.0081 27.3374 16.0147 27.332 16.0147 27.3237C16.0159 27.3148 16.0087 27.3082 16.001 27.3076Z" fill="white"/>
<path d="M16.0051 21.2079C18.1315 20.7452 20.7937 19.9027 22.9511 18.9761C23.2178 18.8624 23.4155 18.6862 23.5757 18.4599V16.8182L16.0051 15.0146V21.2079Z" fill="#D3E2F5"/>
<path d="M16.0051 21.2079C18.1315 20.7452 20.7937 19.9027 22.9511 18.9761C23.2178 18.8624 23.4155 18.6862 23.5757 18.4599V16.8182L16.0051 15.0146V21.2079Z" fill="url(#paint66_linear_601_188)"/>
<path d="M19.9666 9.66974H24.3182L24.8815 8.7474H19.8112V11.3227H16.0897V8.7474H15.9307V10.5975H8.32385L8.37982 10.6945C8.37982 10.6945 8.37982 10.7076 8.37982 10.732H15.9307V12.0384H8.39414C8.39414 12.0819 8.39471 12.1337 8.3953 12.1778H15.9307V13.9123H8.41558C8.41618 13.9552 8.41675 14.0034 8.41675 14.0463H12.0978V16.5281H8.45607C8.45607 16.5311 8.45607 16.5335 8.45607 16.5347C8.46679 16.8937 8.50307 17.2093 8.57869 17.4814H12.102V18.327H9.12239C9.26172 18.4312 9.42904 18.5133 9.62792 18.5747C10.4264 18.8182 11.3523 19.0701 12.2348 19.2958V16.6633L15.9307 16.6591V20.0978C15.9444 20.0996 15.961 20.1026 15.9759 20.105C16.0033 20.1008 16.0617 20.0955 16.0897 20.0919V17.3975H23.5197C23.5292 17.3552 23.5388 17.3034 23.5477 17.2593H16.0897V15.9624H23.6298C23.631 15.9214 23.6317 15.8523 23.6335 15.807H16.0897V14.0463H23.6578C23.6578 14.0034 23.6585 13.9469 23.659 13.9034H19.9666V11.4525H23.6865C23.6912 10.991 23.6954 10.6945 23.6954 10.6945L23.8246 10.4813H19.9666V9.66974Z" fill="#BCD0ED"/>
<path d="M19.9668 9.6692H24.3183L24.8816 8.74685H19.8114V11.3222H16.0898V8.74685H15.9308V10.5969H8.32397L8.37994 10.694C8.37994 10.694 8.37994 10.7071 8.37994 10.7315H15.9308V12.0379H8.39426C8.39426 12.0814 8.39483 12.1332 8.39543 12.1772H15.9308V13.9118H8.41571C8.4163 13.9546 8.41687 14.0029 8.41687 14.0457H12.0979V16.5276H8.45619C8.45619 16.5305 8.45619 16.5329 8.45619 16.5341C8.46691 16.8932 8.50319 17.2088 8.57881 17.4809H12.1021V18.3264H9.12251C9.26184 18.4306 9.42916 18.5128 9.62804 18.5741C10.4265 18.8177 11.3524 19.0695 12.2349 19.2952V16.6627L15.9308 16.6586V20.0973C15.9445 20.0991 15.9612 20.102 15.9761 20.1044C16.0034 20.1003 16.0618 20.0949 16.0898 20.0913V17.3969H23.5198C23.5294 17.3546 23.5389 17.3028 23.5478 17.2588H16.0898V15.9619H23.63C23.6311 15.9208 23.6318 15.8517 23.6336 15.8065H16.0898V14.0457H23.6579C23.6579 14.0029 23.6586 13.9463 23.6592 13.9028H19.9668V11.452H23.6866C23.6913 10.9905 23.6955 10.694 23.6955 10.694L23.8247 10.4808H19.9668V9.6692Z" fill="url(#paint67_linear_601_188)"/>
<path d="M23.1791 17.6756L16.2594 19.8829L16.048 20.1414V17.3564H23.5721L23.1791 17.6756Z" fill="#606969"/>
<path d="M16.2594 19.8829L23.1791 17.6756L23.5721 17.3564L23.5602 17.4082C23.4065 18.0543 23.057 18.433 22.4592 18.6152C20.4716 19.222 17.6342 19.9026 16.0962 20.1336L16.048 20.1414L16.2594 19.8829Z" fill="#E3EBF7"/>
<path d="M8.91859 16.0725L12.1388 14.0051V16.5715H8.41663L8.91859 16.0725Z" fill="#E3EBF7"/>
<path d="M8.91865 16.0725L8.41668 16.5715L8.41549 16.5304C8.40477 16.1577 8.39167 15.3223 8.375 14.0474V14.0051H12.1388L8.91865 16.0725Z" fill="#606969"/>
<path d="M15.7246 16.9105L15.9711 16.6176V20.1468L15.9235 20.1396C15.0762 20.0146 13.7388 19.7216 12.2496 19.3411L12.2186 19.334L15.7246 16.9105Z" fill="#E3EBF7"/>
<path d="M15.7246 16.9105L12.2186 19.334V16.6176H15.9711L15.7246 16.9105Z" fill="#606969"/>
<path d="M9.1902 18.131L11.8923 17.6648L12.1436 17.4409V18.3692H9.12231L9.1902 18.131Z" fill="#E3EBF7"/>
<path d="M11.8924 17.6648L9.19023 18.131L9.12235 18.3692H9.10747L9.09675 18.3615C8.8282 18.1626 8.6448 17.878 8.53881 17.4933L8.52393 17.4409H12.1437L11.8924 17.6648Z" fill="#606969"/>
<path d="M15.8354 12.2929L8.77996 13.6267L8.37387 13.9554L8.37327 13.9131L8.35303 12.1786V12.1363H15.9712L15.8354 12.2929Z" fill="#606969"/>
<path d="M8.77988 13.6267L15.8353 12.2929L15.9711 12.1363V13.9554H8.37378L8.77988 13.6267Z" fill="#E3EBF7"/>
<path d="M16.3588 11.0689L19.5403 9.06106L19.8529 8.70618V11.3649H16.048L16.3588 11.0689Z" fill="#E3EBF7"/>
<path d="M19.5403 9.06106L16.3588 11.0689L16.048 11.3649V8.70618H19.8529L19.5403 9.06106Z" fill="#606969"/>
<path d="M15.7747 10.8748L15.9712 10.6908V12.0812H8.35242L15.7747 10.8748Z" fill="#E3EBF7"/>
<path d="M15.7747 10.8748L8.35244 12.0812L8.35125 12.0389L8.33934 10.7331L8.33875 10.6908H15.9712L15.7747 10.8748Z" fill="#606969"/>
<path d="M8.41963 10.4377L15.7954 8.90029L15.9711 8.70618V10.6396H8.30054L8.41963 10.4377Z" fill="#E3EBF7"/>
<path d="M15.7956 8.90029L8.41974 10.4377L8.30065 10.6396L8.28874 10.6199L7.15798 8.7687L7.11987 8.70618H15.9712L15.7956 8.90029Z" fill="#606969"/>
<path d="M23.2565 11.9074L20.2947 13.6378L19.9255 13.9457V11.4114H23.7287L23.2565 11.9074Z" fill="#606969"/>
<path d="M20.2947 13.6378L23.2565 11.9074L23.7287 11.4114V11.4531L23.7013 13.9046L23.7001 13.9457H19.9255L20.2947 13.6378Z" fill="#E3EBF7"/>
<path d="M23.9264 9.86078L20.1536 10.3538L19.9255 10.5235V9.62915H24.3414L23.9264 9.86078Z" fill="#606969"/>
<path d="M20.1536 10.3538L23.9264 9.86078L24.3414 9.62915L24.3021 9.69227L23.8079 10.5033L23.796 10.5235H19.9255L20.1536 10.3538Z" fill="#E3EBF7"/>
<path d="M23.2779 16.2059L16.2647 17.1039L16.048 17.301V15.9225H23.6733L23.2779 16.2059Z" fill="#606969"/>
<path d="M16.2647 17.1039L23.2779 16.2059L23.6733 15.9225V15.9642L23.659 16.537C23.6513 16.8174 23.6286 17.0562 23.5875 17.267L23.5822 17.301H16.048L16.2647 17.1039Z" fill="#E3EBF7"/>
<path d="M23.4619 14.2314L16.304 15.6122L16.048 15.8486V14.0051H23.6995L23.4619 14.2314Z" fill="#606969"/>
<path d="M16.304 15.6122L23.4619 14.2314L23.6995 14.0051L23.6983 14.0474C23.6894 14.7774 23.6816 15.3693 23.6751 15.8081L23.6739 15.8486H16.048L16.304 15.6122Z" fill="#E3EBF7"/>
<path d="M19.6504 12.4191L16.3147 12.9556L16.048 13.1908V12.2494H19.8529L19.6504 12.4191Z" fill="#606969"/>
<path d="M16.3147 12.9556L19.6504 12.4191L19.8529 12.2494V13.1908H16.048L16.3147 12.9556Z" fill="#E3EBF7"/>
<path d="M12.3717 15.6172L15.8021 15.0295L15.9712 14.8342V15.7744H12.2157L12.3717 15.6172Z" fill="#E3EBF7"/>
<path d="M15.8021 15.0295L12.3717 15.6172L12.2157 15.7744V14.8342H15.9712L15.8021 15.0295Z" fill="#606969"/>
<path d="M16.0895 20.0906C17.5227 19.8751 20.3612 19.2094 22.4465 18.5734C23.0652 18.3841 23.3784 17.9941 23.5195 17.3962H16.0895V20.0906Z" fill="#D4B066"/>
<path d="M16.0892 20.0887C17.5225 19.8732 20.361 19.2075 22.4463 18.5715C23.0649 18.3822 23.3781 17.9922 23.5193 17.3943H16.0892V20.0887Z" fill="url(#paint68_linear_601_188)"/>
<path d="M12.0979 14.047H8.41687C8.42997 15.0998 8.44488 16.0984 8.45619 16.5289H12.0979V14.047Z" fill="#D91121"/>
<path d="M12.0981 14.0475H8.41699C8.43009 15.1002 8.445 16.0988 8.45632 16.5293H12.0981V14.0475Z" fill="url(#paint69_linear_601_188)"/>
<path d="M12.2596 16.6595V19.3009C13.7024 19.6689 15.0511 19.9684 15.9306 20.0982V16.6595H12.2596Z" fill="#D91121"/>
<path d="M12.2596 16.6595V19.3009C13.7024 19.6689 15.0511 19.9684 15.9306 20.0982V16.6595H12.2596Z" fill="url(#paint70_linear_601_188)"/>
<path d="M12.102 17.4805H8.57874C8.67877 17.8419 8.84852 18.1254 9.12243 18.326H12.102V17.4805Z" fill="#003971"/>
<path d="M12.102 17.4792H8.57874C8.67877 17.8406 8.84852 18.124 9.12243 18.3247H12.102V17.4792Z" fill="url(#paint71_linear_601_188)"/>
<path d="M15.9308 12.1764H8.39539C8.40074 12.7046 8.40792 13.3072 8.41567 13.9109H15.9308V12.1764Z" fill="#D4B066"/>
<path d="M15.931 12.1746H8.39563C8.40099 12.7027 8.40817 13.3053 8.41591 13.9091H15.931V12.1746Z" fill="url(#paint72_linear_601_188)"/>
<path d="M16.0896 11.3231H19.8112V8.74792H16.0896V11.3231Z" fill="#D91121"/>
<path d="M19.8108 11.3203V8.745H16.0892V11.3203H19.8108Z" fill="url(#paint73_linear_601_188)"/>
<path d="M15.9305 8.74766H7.19348L8.32361 10.5977H15.9305V8.74766Z" fill="#D4B066"/>
<path d="M15.9304 8.74735H7.19336L8.32349 10.5974H15.9304V8.74735Z" fill="url(#paint74_linear_601_188)"/>
<path d="M19.9664 13.905H23.6588C23.6701 12.9981 23.6803 12.0805 23.6862 11.4541H19.9664V13.905Z" fill="#D91121"/>
<path d="M19.9662 13.9059H23.6586C23.6699 12.9991 23.68 12.0815 23.686 11.4551H19.9662V13.9059Z" fill="url(#paint75_linear_601_188)"/>
<path d="M19.9664 9.6707V10.4823H23.7726L24.2662 9.6707H19.9664Z" fill="#003971"/>
<path d="M19.9662 9.67131V10.4829H23.7723L24.266 9.67131H19.9662Z" fill="url(#paint76_linear_601_188)"/>
<path d="M16.0896 17.26H23.5476C23.5887 17.0421 23.6095 16.8015 23.6179 16.5354C23.6214 16.3931 23.6262 16.2138 23.6298 15.9631H16.0896V17.26Z" fill="#141314"/>
<path d="M16.0895 15.8063H23.6333C23.641 15.3193 23.6499 14.6928 23.6576 14.0456H16.0895V15.8063Z" fill="#D4B066"/>
<path d="M16.0892 15.8049H23.633C23.6408 15.3178 23.6496 14.6914 23.6574 14.0441H16.0892V15.8049Z" fill="url(#paint77_linear_601_188)"/>
<path d="M12.2579 15.7329H15.9307V14.8749H12.2579V15.7329Z" fill="#003971"/>
<path d="M15.931 15.7296H12.2583V14.8716H15.931V15.7296Z" fill="url(#paint78_linear_601_188)"/>
<path d="M16.0896 13.1496H19.8112V12.2901H16.0896V13.1496Z" fill="#003971"/>
<path d="M19.8108 13.1501H16.0892V12.2909H19.8108V13.1501Z" fill="url(#paint79_linear_601_188)"/>
<path d="M15.9306 10.7325H8.37976C8.38214 10.8695 8.38691 11.3744 8.39405 12.039H15.9306V10.7325Z" fill="#141314"/>
<path d="M23.4668 17.4405C23.3132 18.0324 22.9929 18.3652 22.4343 18.5361C20.4705 19.1345 17.6773 19.8074 16.1327 20.0444V17.4405H23.4668Z" fill="#D4B066"/>
<path d="M23.4671 17.4409C23.3135 18.0328 22.9931 18.3656 22.4346 18.5365C20.4708 19.135 17.6775 19.8078 16.1329 20.0448V17.4409H23.4671Z" fill="url(#paint80_linear_601_188)"/>
<path d="M24.2663 9.67035H19.9666V10.4819H20.0267V9.7299H24.2663V9.67035Z" fill="#233B4D"/>
<path d="M19.8112 12.2901H16.0896V13.1493H16.1491V12.3491H19.8112V12.2901Z" fill="#233B4D"/>
<path d="M19.8112 8.74792H16.0896V11.3232H16.1491V8.80747H19.8112V8.74792Z" fill="#96423A"/>
<path d="M15.9306 8.74792H7.1936L8.32376 10.598H8.39165L7.30436 8.80747H15.9306V8.74792Z" fill="#716543"/>
<path d="M15.9307 12.1785H8.39172L8.41137 13.9131H8.47449L8.45484 12.2375H15.9307V12.1785Z" fill="#716543"/>
<path d="M12.0977 14.0468H8.41248L8.45178 16.5286H8.52025L8.47976 14.1064H12.0977V14.0468Z" fill="#95473F"/>
<path d="M23.6863 11.4532H19.9666V13.9029H20.0267V11.5127H23.6863V11.4532Z" fill="#96423A"/>
<path d="M15.9307 14.8749H12.2579V15.7329H12.3169V14.9344H15.9307V14.8749Z" fill="#264865"/>
<path d="M15.9337 16.6598H12.2598V19.3012L12.3193 19.3185V16.7187H15.9337V16.6598Z" fill="#95473F"/>
<path d="M23.5142 17.3982H16.0896V20.0974H16.1491V17.4577H23.5142V17.3982Z" fill="#716543"/>
<path d="M23.6577 14.0468H16.0896V15.8076H16.1491V14.1064H23.6577V14.0468Z" fill="#716543"/>
<path d="M8.57861 17.4821C8.58278 17.4964 8.58755 17.5101 8.59171 17.525L8.59648 17.5417C8.69056 17.8471 8.90254 18.1359 9.13536 18.3277H9.22944C8.99841 18.1556 8.76142 17.8638 8.6584 17.5417H12.1019V17.4821H8.57861Z" fill="#264865"/>
<path d="M24.9314 8.69629C24.6932 9.15538 24.2847 9.85384 23.775 10.6601C23.7584 12.422 23.7155 15.4052 23.6923 16.5252C23.6673 17.7281 23.3148 18.3747 22.5502 18.6224C21.8089 18.8636 17.4686 20.0277 16.011 20.1563L16.0473 20.1093C17.6479 19.9276 21.7922 18.8064 22.5323 18.5664C23.2689 18.3271 23.6071 17.6965 23.6333 16.5252C23.6565 15.4022 23.6994 12.4119 23.7143 10.6511L23.7155 10.6434L23.7191 10.6357L24.8576 8.76834L24.9314 8.69629Z" fill="#E3EBF7"/>
<path d="M24.9314 8.69629H7.09717L7.12635 8.74214L8.32379 10.6904C8.33987 12.4161 8.39227 15.3605 8.41787 16.555C8.44288 17.7286 8.78229 18.3366 9.55756 18.5879C10.3757 18.854 14.4539 19.9794 16.011 20.1563L16.0146 20.1569L16.0182 20.1563C17.6205 19.9753 21.7762 18.8505 22.5175 18.6093C23.2815 18.3616 23.634 17.7144 23.659 16.5139C23.6834 15.3915 23.7263 12.4089 23.7411 10.6476L24.9029 8.74154L24.9314 8.69629ZM23.6816 10.6303V10.6386C23.6673 12.3988 23.6238 15.3891 23.6006 16.5121C23.575 17.684 23.2356 18.314 22.499 18.5527C21.7589 18.7933 17.6152 19.9151 16.0146 20.0961C14.4593 19.9199 10.3936 18.7975 9.57542 18.5319C8.8198 18.286 8.50064 17.7132 8.47682 16.5538C8.45181 15.3576 8.39822 12.4059 8.38334 10.6815V10.6726L8.37857 10.6654L7.20435 8.75584H24.8237L23.6864 10.6232L23.6816 10.6303Z" fill="#606E7B"/>
<path d="M29.1341 25.3725C29.249 25.4874 29.3062 25.6267 29.3062 25.7905C29.3062 25.9548 29.249 26.0953 29.1341 26.2115C29.0192 26.3276 28.8799 26.3853 28.7161 26.3853C28.5518 26.3853 28.4124 26.3276 28.2981 26.2115C28.1838 26.0953 28.1266 25.9548 28.1266 25.7905C28.1266 25.6267 28.1844 25.4874 28.2987 25.3725C28.4142 25.2564 28.5536 25.198 28.7161 25.198C28.8793 25.198 29.0186 25.2564 29.1341 25.3725ZM29.202 25.3058C29.0686 25.1724 28.9061 25.1057 28.7161 25.1057C28.5268 25.1057 28.3654 25.1724 28.2326 25.3058C28.0986 25.4398 28.0308 25.6011 28.0308 25.7905C28.0308 25.981 28.0975 26.1436 28.2308 26.2782C28.3642 26.4127 28.5262 26.4794 28.7161 26.4794C28.9061 26.4794 29.0686 26.4127 29.202 26.2782C29.3366 26.143 29.4033 25.9804 29.4033 25.7905C29.4033 25.6005 29.3366 25.4392 29.202 25.3058ZM28.8179 25.7583C28.79 25.7696 28.7477 25.775 28.6917 25.775H28.572V25.5023H28.6852C28.759 25.5023 28.812 25.5112 28.8453 25.5303C28.8787 25.5487 28.8954 25.5856 28.8954 25.6404C28.8954 25.6982 28.8697 25.7381 28.8179 25.7583ZM28.4392 26.1656H28.572V25.8679H28.6762C28.7471 25.8679 28.7965 25.8762 28.8245 25.8923C28.8715 25.9197 28.8954 25.978 28.8954 26.0656V26.1251L28.8983 26.1495C28.8989 26.1531 28.8995 26.1549 28.9007 26.1579C28.9007 26.1603 28.9013 26.1632 28.9025 26.1656H29.0264L29.0216 26.1561C29.0186 26.1495 29.0168 26.137 29.015 26.1168C29.0138 26.0965 29.0133 26.0781 29.0133 26.0608V26.0054C29.0133 25.9673 28.9996 25.9286 28.9722 25.8887C28.9454 25.8482 28.9013 25.8238 28.8418 25.8149C28.8888 25.8071 28.9251 25.7952 28.9519 25.778C29.0007 25.7464 29.0258 25.6964 29.0258 25.6291C29.0258 25.5344 28.9865 25.4713 28.9085 25.4386C28.865 25.4207 28.7965 25.4112 28.7024 25.4112H28.4392V26.1656Z" fill="black"/>
<defs>
<linearGradient id="paint0_linear_601_188" x1="27.9272" y1="8.0769" x2="27.8865" y2="8.44554" gradientUnits="userSpaceOnUse">
<stop stop-color="#A1C1E4"/>
<stop offset="1" stop-color="#CCDCF3"/>
</linearGradient>
<linearGradient id="paint1_linear_601_188" x1="21.8262" y1="24.0638" x2="14.3269" y2="22.2547" gradientUnits="userSpaceOnUse">
<stop stop-color="#D3E2F5"/>
<stop offset="1" stop-color="#9EBDE2"/>
</linearGradient>
<linearGradient id="paint2_linear_601_188" x1="27.0631" y1="6.33443" x2="27.3845" y2="6.516" gradientUnits="userSpaceOnUse">
<stop stop-color="#415050"/>
<stop offset="1" stop-color="#576162"/>
</linearGradient>
<linearGradient id="paint3_linear_601_188" x1="19.0259" y1="7.02726" x2="17.3193" y2="21.4941" gradientUnits="userSpaceOnUse">
<stop stop-color="#F6F8FD"/>
<stop offset="1" stop-color="#4B616C"/>
</linearGradient>
<linearGradient id="paint4_linear_601_188" x1="17.0862" y1="5.23609" x2="17.3606" y2="6.13409" gradientUnits="userSpaceOnUse">
<stop stop-color="#BECDE1"/>
<stop offset="1" stop-color="#D7E6F7"/>
</linearGradient>
<linearGradient id="paint5_linear_601_188" x1="15.0945" y1="22.3696" x2="6.7492" y2="22.3696" gradientUnits="userSpaceOnUse">
<stop stop-color="#F4F6FD"/>
<stop offset="1" stop-color="#C9DCF2"/>
</linearGradient>
<linearGradient id="paint6_linear_601_188" x1="8.33521" y1="12.3739" x2="8.01285" y2="12.556" gradientUnits="userSpaceOnUse">
<stop stop-color="#415050"/>
<stop offset="1" stop-color="#576162"/>
</linearGradient>
<linearGradient id="paint7_linear_601_188" x1="36.6892" y1="7.00572" x2="29.9896" y2="29.2049" gradientUnits="userSpaceOnUse">
<stop stop-color="#3C535A"/>
<stop offset="1" stop-color="#87A3C1"/>
</linearGradient>
<linearGradient id="paint8_linear_601_188" x1="18.5898" y1="16.1942" x2="15.131" y2="1.26673" gradientUnits="userSpaceOnUse">
<stop stop-color="#C6DAF1"/>
<stop offset="1" stop-color="#84A3C2"/>
</linearGradient>
<linearGradient id="paint9_linear_601_188" x1="32.8607" y1="52.4192" x2="14.5675" y2="28.3689" gradientUnits="userSpaceOnUse">
<stop stop-color="white"/>
<stop offset="1" stop-color="#C6DAF1"/>
</linearGradient>
<linearGradient id="paint10_linear_601_188" x1="16.4541" y1="-2.60768" x2="27.3914" y2="22.4874" gradientUnits="userSpaceOnUse">
<stop stop-color="#7093AE"/>
<stop offset="1" stop-color="#F6F8FD"/>
</linearGradient>
<linearGradient id="paint11_linear_601_188" x1="17.2871" y1="0.749631" x2="19.1955" y2="25.1871" gradientUnits="userSpaceOnUse">
<stop stop-color="#3C535A"/>
<stop offset="1" stop-color="#8AAACA"/>
</linearGradient>
<linearGradient id="paint12_linear_601_188" x1="24.7136" y1="-0.818418" x2="25.1816" y2="-0.320693" gradientUnits="userSpaceOnUse">
<stop stop-color="#232E30"/>
<stop offset="1" stop-color="#7F919D"/>
</linearGradient>
<linearGradient id="paint13_linear_601_188" x1="22.7833" y1="-2.77917" x2="27.3984" y2="-0.125079" gradientUnits="userSpaceOnUse">
<stop stop-color="#7093AE"/>
<stop offset="1" stop-color="#F6F8FD"/>
</linearGradient>
<linearGradient id="paint14_linear_601_188" x1="26.5695" y1="-1.14627" x2="29.1264" y2="1.41812" gradientUnits="userSpaceOnUse">
<stop stop-color="#232E30"/>
<stop offset="1" stop-color="#7F919D"/>
</linearGradient>
<linearGradient id="paint15_linear_601_188" x1="27.9121" y1="8.94767" x2="25.4954" y2="7.67992" gradientUnits="userSpaceOnUse">
<stop stop-color="#9CB3CF"/>
<stop offset="1" stop-color="#F1F5FC"/>
</linearGradient>
<linearGradient id="paint16_linear_601_188" x1="24.1559" y1="6.52336" x2="23.7697" y2="5.42425" gradientUnits="userSpaceOnUse">
<stop stop-color="#232E30"/>
<stop offset="1" stop-color="#7F919D"/>
</linearGradient>
<linearGradient id="paint17_linear_601_188" x1="31.1667" y1="4.43462" x2="31.3449" y2="5.38519" gradientUnits="userSpaceOnUse">
<stop stop-color="#9CB3CF"/>
<stop offset="1" stop-color="#F1F5FC"/>
</linearGradient>
<linearGradient id="paint18_linear_601_188" x1="26.0864" y1="7.38325" x2="26.3836" y2="6.93738" gradientUnits="userSpaceOnUse">
<stop stop-color="#9CB3CF"/>
<stop offset="1" stop-color="#F1F5FC"/>
</linearGradient>
<linearGradient id="paint19_linear_601_188" x1="31.7306" y1="7.87455" x2="31.8643" y2="8.76609" gradientUnits="userSpaceOnUse">
<stop stop-color="#232E30"/>
<stop offset="1" stop-color="#7F919D"/>
</linearGradient>
<linearGradient id="paint20_linear_601_188" x1="28.4444" y1="13.8258" x2="28.8342" y2="11.795" gradientUnits="userSpaceOnUse">
<stop stop-color="#9CB3CF"/>
<stop offset="1" stop-color="#F1F5FC"/>
</linearGradient>
<linearGradient id="paint21_linear_601_188" x1="31.0415" y1="15.4837" x2="30.5955" y2="15.4689" gradientUnits="userSpaceOnUse">
<stop stop-color="#232E30"/>
<stop offset="1" stop-color="#7F919D"/>
</linearGradient>
<linearGradient id="paint22_linear_601_188" x1="27.864" y1="17.3537" x2="27.6189" y2="13.3047" gradientUnits="userSpaceOnUse">
<stop stop-color="#9CB3CF"/>
<stop offset="1" stop-color="#F1F5FC"/>
</linearGradient>
<linearGradient id="paint23_linear_601_188" x1="31.9772" y1="13.0404" x2="32.2283" y2="17.1784" gradientUnits="userSpaceOnUse">
<stop stop-color="#232E30"/>
<stop offset="1" stop-color="#7F919D"/>
</linearGradient>
<linearGradient id="paint24_linear_601_188" x1="25.758" y1="17.1606" x2="27.5411" y2="15.4842" gradientUnits="userSpaceOnUse">
<stop stop-color="#9CB3CF"/>
<stop offset="1" stop-color="#F1F5FC"/>
</linearGradient>
<linearGradient id="paint25_linear_601_188" x1="31.1848" y1="21.5259" x2="29.5209" y2="21.7191" gradientUnits="userSpaceOnUse">
<stop stop-color="#232E30"/>
<stop offset="1" stop-color="#7F919D"/>
</linearGradient>
<linearGradient id="paint26_linear_601_188" x1="27.2692" y1="23.1623" x2="26.779" y2="22.9989" gradientUnits="userSpaceOnUse">
<stop stop-color="#9CB3CF"/>
<stop offset="1" stop-color="#F1F5FC"/>
</linearGradient>
<linearGradient id="paint27_linear_601_188" x1="27.1156" y1="23.0764" x2="26.7593" y2="22.9725" gradientUnits="userSpaceOnUse">
<stop stop-color="#232E30"/>
<stop offset="1" stop-color="#7F919D"/>
</linearGradient>
<linearGradient id="paint28_linear_601_188" x1="23.4999" y1="26.7852" x2="23.054" y2="26.5326" gradientUnits="userSpaceOnUse">
<stop stop-color="#9CB3CF"/>
<stop offset="1" stop-color="#F1F5FC"/>
</linearGradient>
<linearGradient id="paint29_linear_601_188" x1="23.534" y1="26.5579" x2="22.8865" y2="26.3275" gradientUnits="userSpaceOnUse">
<stop stop-color="#232E30"/>
<stop offset="1" stop-color="#7F919D"/>
</linearGradient>
<linearGradient id="paint30_linear_601_188" x1="26.0798" y1="20.3814" x2="27.4764" y2="20.5597" gradientUnits="userSpaceOnUse">
<stop stop-color="#9CB3CF"/>
<stop offset="1" stop-color="#F1F5FC"/>
</linearGradient>
<linearGradient id="paint31_linear_601_188" x1="18.1393" y1="28.7694" x2="17.8458" y2="28.5079" gradientUnits="userSpaceOnUse">
<stop stop-color="#9CB3CF"/>
<stop offset="1" stop-color="#F1F5FC"/>
</linearGradient>
<linearGradient id="paint32_linear_601_188" x1="17.6208" y1="28.3383" x2="17.2652" y2="27.9687" gradientUnits="userSpaceOnUse">
<stop stop-color="#232E30"/>
<stop offset="1" stop-color="#7F919D"/>
</linearGradient>
<linearGradient id="paint33_linear_601_188" x1="20.494" y1="24.4231" x2="22.7742" y2="24.2818" gradientUnits="userSpaceOnUse">
<stop stop-color="#9CB3CF"/>
<stop offset="1" stop-color="#F1F5FC"/>
</linearGradient>
<linearGradient id="paint34_linear_601_188" x1="19.3091" y1="26.72" x2="19.216" y2="26.0086" gradientUnits="userSpaceOnUse">
<stop stop-color="#232E30"/>
<stop offset="1" stop-color="#7F919D"/>
</linearGradient>
<linearGradient id="paint35_linear_601_188" x1="16.4726" y1="25.0376" x2="18.3696" y2="25.3511" gradientUnits="userSpaceOnUse">
<stop stop-color="#9CB3CF"/>
<stop offset="1" stop-color="#F1F5FC"/>
</linearGradient>
<linearGradient id="paint36_linear_601_188" x1="14.7276" y1="26.8842" x2="14.7741" y2="26.637" gradientUnits="userSpaceOnUse">
<stop stop-color="#232E30"/>
<stop offset="1" stop-color="#7F919D"/>
</linearGradient>
<linearGradient id="paint37_linear_601_188" x1="28.4793" y1="25.7088" x2="25.9104" y2="26.5201" gradientUnits="userSpaceOnUse">
<stop stop-color="#232E30"/>
<stop offset="1" stop-color="#7F919D"/>
</linearGradient>
<linearGradient id="paint38_linear_601_188" x1="26.7006" y1="7.53379" x2="26.4629" y2="6.41947" gradientUnits="userSpaceOnUse">
<stop stop-color="#232E30"/>
<stop offset="1" stop-color="#7F919D"/>
</linearGradient>
<radialGradient id="paint39_radial_601_188" cx="0" cy="0" r="1" gradientUnits="userSpaceOnUse" gradientTransform="translate(9.20099 -0.164723) scale(1.99744 1.99744)">
<stop stop-color="#7F9FBD"/>
<stop offset="1" stop-color="#F1F5FC"/>
</radialGradient>
<linearGradient id="paint40_linear_601_188" x1="11.5904" y1="3.79438" x2="10.6397" y2="4.21031" gradientUnits="userSpaceOnUse">
<stop stop-color="#232E30"/>
<stop offset="1" stop-color="#7F919D"/>
</linearGradient>
<linearGradient id="paint41_linear_601_188" x1="10.3473" y1="3.90605" x2="7.7431" y2="6.35874" gradientUnits="userSpaceOnUse">
<stop stop-color="#232E30"/>
<stop offset="1" stop-color="#7F919D"/>
</linearGradient>
<linearGradient id="paint42_linear_601_188" x1="4.80366" y1="5.55234" x2="4.51363" y2="5.33668" gradientUnits="userSpaceOnUse">
<stop stop-color="#587089"/>
<stop offset="1" stop-color="#E0ECF9"/>
</linearGradient>
<radialGradient id="paint43_radial_601_188" cx="0" cy="0" r="1" gradientUnits="userSpaceOnUse" gradientTransform="translate(4.20903 3.61635) scale(2.08423 2.08427)">
<stop stop-color="#7F9FBD"/>
<stop offset="1" stop-color="#F1F5FC"/>
</radialGradient>
<linearGradient id="paint44_linear_601_188" x1="2.32752" y1="6.80566" x2="2.10489" y2="6.494" gradientUnits="userSpaceOnUse">
<stop stop-color="#232E30"/>
<stop offset="1" stop-color="#7F919D"/>
</linearGradient>
<linearGradient id="paint45_linear_601_188" x1="3.781" y1="2.8488" x2="4.18015" y2="2.99847" gradientUnits="userSpaceOnUse">
<stop stop-color="#9CB3CF"/>
<stop offset="1" stop-color="#F1F5FC"/>
</linearGradient>
<linearGradient id="paint46_linear_601_188" x1="4.00762" y1="2.9399" x2="4.38397" y2="3.07856" gradientUnits="userSpaceOnUse">
<stop stop-color="#232E30"/>
<stop offset="1" stop-color="#7F919D"/>
</linearGradient>
<radialGradient id="paint47_radial_601_188" cx="0" cy="0" r="1" gradientUnits="userSpaceOnUse" gradientTransform="translate(1.41794 7.44095) scale(2.30299 2.30303)">
<stop stop-color="#7F9FBD"/>
<stop offset="1" stop-color="#F1F5FC"/>
</radialGradient>
<linearGradient id="paint48_linear_601_188" x1="4.10676" y1="11.9962" x2="3.2153" y2="12.2934" gradientUnits="userSpaceOnUse">
<stop stop-color="#232E30"/>
<stop offset="1" stop-color="#7F919D"/>
</linearGradient>
<linearGradient id="paint49_linear_601_188" x1="0.688169" y1="8.76993" x2="1.12362" y2="8.74025" gradientUnits="userSpaceOnUse">
<stop stop-color="#232E30"/>
<stop offset="1" stop-color="#7F919D"/>
</linearGradient>
<radialGradient id="paint50_radial_601_188" cx="0" cy="0" r="1" gradientUnits="userSpaceOnUse" gradientTransform="translate(0.989627 15.1117) scale(2.05244 2.05248)">
<stop stop-color="#7F9FBD"/>
<stop offset="1" stop-color="#F1F5FC"/>
</radialGradient>
<linearGradient id="paint51_linear_601_188" x1="2.42457" y1="18.5623" x2="1.94921" y2="18.5821" gradientUnits="userSpaceOnUse">
<stop stop-color="#232E30"/>
<stop offset="1" stop-color="#7F919D"/>
</linearGradient>
<linearGradient id="paint52_linear_601_188" x1="4.50998" y1="21.4533" x2="4.27225" y2="21.6613" gradientUnits="userSpaceOnUse">
<stop stop-color="#9CB3CF"/>
<stop offset="1" stop-color="#F1F5FC"/>
</linearGradient>
<linearGradient id="paint53_linear_601_188" x1="4.51053" y1="23.0473" x2="4.0747" y2="23.1266" gradientUnits="userSpaceOnUse">
<stop stop-color="#232E30"/>
<stop offset="1" stop-color="#7F919D"/>
</linearGradient>
<radialGradient id="paint54_radial_601_188" cx="0" cy="0" r="1" gradientUnits="userSpaceOnUse" gradientTransform="translate(2.42174 20.2115) scale(2.16793 2.16802)">
<stop stop-color="#7F9FBD"/>
<stop offset="1" stop-color="#F1F5FC"/>
</radialGradient>
<linearGradient id="paint55_linear_601_188" x1="9.34567" y1="26.3572" x2="8.92966" y2="26.6543" gradientUnits="userSpaceOnUse">
<stop stop-color="#232E30"/>
<stop offset="1" stop-color="#7F919D"/>
</linearGradient>
<radialGradient id="paint56_radial_601_188" cx="0" cy="0" r="1" gradientUnits="userSpaceOnUse" gradientTransform="translate(5.21346 24.5176) scale(2.89365 2.89363)">
<stop stop-color="#7F9FBD"/>
<stop offset="1" stop-color="#F1F5FC"/>
</radialGradient>
<linearGradient id="paint57_linear_601_188" x1="8.11084" y1="20.9454" x2="8.52677" y2="22.6982" gradientUnits="userSpaceOnUse">
<stop stop-color="#9CB3CF"/>
<stop offset="1" stop-color="#F1F5FC"/>
</linearGradient>
<linearGradient id="paint58_linear_601_188" x1="1.65295" y1="21.8929" x2="1.87088" y2="21.3183" gradientUnits="userSpaceOnUse">
<stop stop-color="#232E30"/>
<stop offset="1" stop-color="#7F919D"/>
</linearGradient>
<linearGradient id="paint59_linear_601_188" x1="13.0576" y1="22.2587" x2="15.3714" y2="23.6346" gradientUnits="userSpaceOnUse">
<stop stop-color="#232E30"/>
<stop offset="1" stop-color="#7F919D"/>
</linearGradient>
<radialGradient id="paint60_radial_601_188" cx="0" cy="0" r="1" gradientUnits="userSpaceOnUse" gradientTransform="translate(11.1284 26.2516) scale(1.20932 1.20931)">
<stop stop-color="#7F9FBD"/>
<stop offset="1" stop-color="#F1F5FC"/>
</radialGradient>
<linearGradient id="paint61_linear_601_188" x1="12.7036" y1="25.7173" x2="12.6442" y2="26.7424" gradientUnits="userSpaceOnUse">
<stop stop-color="#9CB3CF"/>
<stop offset="1" stop-color="#F1F5FC"/>
</linearGradient>
<linearGradient id="paint62_linear_601_188" x1="5.81208" y1="26.0494" x2="5.85662" y2="25.411" gradientUnits="userSpaceOnUse">
<stop stop-color="#232E30"/>
<stop offset="1" stop-color="#7F919D"/>
</linearGradient>
<linearGradient id="paint63_linear_601_188" x1="17.2055" y1="27.1352" x2="17.2501" y2="27.6698" gradientUnits="userSpaceOnUse">
<stop stop-color="#9CB3CF"/>
<stop offset="1" stop-color="#F1F5FC"/>
</linearGradient>
<linearGradient id="paint64_linear_601_188" x1="9.8579" y1="28.0552" x2="9.78365" y2="27.3128" gradientUnits="userSpaceOnUse">
<stop stop-color="#232E30"/>
<stop offset="1" stop-color="#7F919D"/>
</linearGradient>
<linearGradient id="paint65_linear_601_188" x1="-0.420599" y1="15.5928" x2="-0.0838333" y2="15.3353" gradientUnits="userSpaceOnUse">
<stop stop-color="#232E30"/>
<stop offset="1" stop-color="#7F919D"/>
</linearGradient>
<linearGradient id="paint66_linear_601_188" x1="21.821" y1="24.0892" x2="14.3223" y2="22.2803" gradientUnits="userSpaceOnUse">
<stop stop-color="#D3E2F5"/>
<stop offset="1" stop-color="#748A9B"/>
</linearGradient>
<linearGradient id="paint67_linear_601_188" x1="28.9592" y1="19.906" x2="14.3862" y2="26.8649" gradientUnits="userSpaceOnUse">
<stop stop-color="#BCD0ED"/>
<stop offset="1" stop-color="#C7D9EF"/>
</linearGradient>
<linearGradient id="paint68_linear_601_188" x1="19.8534" y1="16.2034" x2="28.2609" y2="16.2034" gradientUnits="userSpaceOnUse">
<stop stop-color="#D4B066"/>
<stop offset="1" stop-color="#E7CC8F"/>
</linearGradient>
<linearGradient id="paint69_linear_601_188" x1="8.2277" y1="12.8565" x2="15.6971" y2="12.8565" gradientUnits="userSpaceOnUse">
<stop stop-color="#D91121"/>
<stop offset="1" stop-color="#DC7866"/>
</linearGradient>
<linearGradient id="paint70_linear_601_188" x1="12.2597" y1="15.4684" x2="15.8095" y2="15.4684" gradientUnits="userSpaceOnUse">
<stop stop-color="#D91121"/>
<stop offset="1" stop-color="#DC7866"/>
</linearGradient>
<linearGradient id="paint71_linear_601_188" x1="8.18913" y1="16.2886" x2="15.6502" y2="16.2886" gradientUnits="userSpaceOnUse">
<stop stop-color="#003971"/>
<stop offset="1" stop-color="#5687C0"/>
</linearGradient>
<linearGradient id="paint72_linear_601_188" x1="8.16644" y1="10.9835" x2="15.7019" y2="10.9835" gradientUnits="userSpaceOnUse">
<stop stop-color="#D4B066"/>
<stop offset="1" stop-color="#E7CC8F"/>
</linearGradient>
<linearGradient id="paint73_linear_601_188" x1="18.2372" y1="7.55411" x2="33.6685" y2="7.55411" gradientUnits="userSpaceOnUse">
<stop stop-color="#D91121"/>
<stop offset="1" stop-color="#DC7866"/>
</linearGradient>
<linearGradient id="paint74_linear_601_188" x1="6.9653" y1="7.55647" x2="15.7023" y2="7.55647" gradientUnits="userSpaceOnUse">
<stop stop-color="#D4B066"/>
<stop offset="1" stop-color="#E7CC8F"/>
</linearGradient>
<linearGradient id="paint75_linear_601_188" x1="18.2368" y1="10.2642" x2="33.6638" y2="10.2642" gradientUnits="userSpaceOnUse">
<stop stop-color="#D91121"/>
<stop offset="1" stop-color="#DC7866"/>
</linearGradient>
<linearGradient id="paint76_linear_601_188" x1="18.745" y1="8.4806" x2="29.9242" y2="8.4806" gradientUnits="userSpaceOnUse">
<stop stop-color="#003971"/>
<stop offset="1" stop-color="#5687C0"/>
</linearGradient>
<linearGradient id="paint77_linear_601_188" x1="19.8536" y1="12.8532" x2="28.2615" y2="12.8532" gradientUnits="userSpaceOnUse">
<stop stop-color="#D4B066"/>
<stop offset="1" stop-color="#E7CC8F"/>
</linearGradient>
<linearGradient id="paint78_linear_601_188" x1="8.18998" y1="13.6804" x2="15.6506" y2="13.6804" gradientUnits="userSpaceOnUse">
<stop stop-color="#003971"/>
<stop offset="1" stop-color="#5687C0"/>
</linearGradient>
<linearGradient id="paint79_linear_601_188" x1="18.7454" y1="11.0999" x2="29.9261" y2="11.0999" gradientUnits="userSpaceOnUse">
<stop stop-color="#003971"/>
<stop offset="1" stop-color="#5687C0"/>
</linearGradient>
<linearGradient id="paint80_linear_601_188" x1="19.8548" y1="16.2498" x2="28.2628" y2="16.2498" gradientUnits="userSpaceOnUse">
<stop stop-color="#D4B066"/>
<stop offset="1" stop-color="#E7CC8F"/>
</linearGradient>
</defs>
</svg>
