<?xml version="1.0" encoding="UTF-8"?>
<svg id="Calque_1" xmlns="http://www.w3.org/2000/svg" version="1.1" viewBox="0 0 468.79 512">
  <!-- Generator: Adobe Illustrator 29.3.1, SVG Export Plug-In . SVG Version: 2.1.0 Build 151)  -->
  <defs>
    <style>
      .st0 {
        fill: #32cd32;
      }

      .st1 {
        fill: #212121;
      }

      .st2 {
        fill: #fff;
      }
    </style>
  </defs>
  <path class="st1" d="M247.36,0h-.39s-27.14,0-27.14,0h-.31l-.31.04c-.18.03-.41.04-.74.04h-.6c-.25-.01-.5-.02-.75-.02-.18,0-.36,0-.54,0-14.92.39-31.3,1.37-50.05,2.99-18.8,1.62-35.78,3.7-51.92,6.37-27.51,4.52-48.24,9.55-67.21,16.32-7.44,2.67-13.39,5.12-18.71,7.71-13.87,6.75-23.03,17.48-27.25,31.88-.23.79-.38,1.53-.51,2.18-.09.43-.17.85-.28,1.26-.41,1.39-.65,4.81-.65,5.72v34.38l.07.39c0,.06,0,.37-.01.6-.01.42-.03.95,0,1.52.23,3.53.44,7.08.65,10.63.21,3.57.42,7.13.66,10.7.88,13.14,2.39,26.78,4.62,41.73,3.48,23.44,8.67,46.89,15.44,69.68,19.29,65.06,51.96,124.21,97.1,175.81,25.7,29.35,55.1,55.07,87.39,76.47,7,4.65,25.01,14.31,26.73,14.98l1.56.61,1.57-.56c1.69-.61,16.92-8.54,21.89-11.72,39.14-24.85,74.49-56.56,105.05-94.24,37.3-45.98,65.22-98.14,82.98-155.04,7.67-24.47,13.49-49.94,17.3-75.69,1.37-9.4,2.53-19,3.44-28.54,1.05-11.33,1.81-20.86,2.09-30.56.31-10.79.27-21.73.23-32.3,0-2.4-.02-4.8-.02-7.2,0-3.31-.3-6.32-.9-8.94-3.36-14.95-12.12-26.05-26.03-32.97-5.14-2.57-10.78-4.97-16.73-7.14-23-8.31-48.83-14.35-81.29-19.03-11.37-1.64-22.5-2.86-31.89-3.84-10.28-1.1-20.28-1.97-29.71-2.58-7.57-.48-15.23-.82-22.64-1.14-3.43-.15-6.87-.3-10.3-.47-.17,0-.33-.01-.48-.01-.21,0-.43,0-.65.01-.13,0-.25,0-.38,0l-.38-.07h0Z"/>
  <path class="st0" d="M464.28,76.17c0-2.65-.2-5.39-.79-7.96-3.09-13.76-11.14-23.73-23.67-29.97-5.25-2.62-10.73-4.93-16.27-6.94-26.06-9.42-53.06-14.87-80.41-18.8-10.53-1.52-21.11-2.71-31.72-3.82-9.82-1.05-19.68-1.92-29.53-2.57-10.96-.7-21.92-1.08-32.86-1.6-.09,0-.18,0-.27,0-.34,0-.69.02-1.03.02-.26,0-.52-.01-.77-.06h-27.14c-.46.06-.91.08-1.36.08s-.9-.02-1.35-.02c-.14,0-.28,0-.42,0-16.62.44-33.24,1.55-49.8,2.97-17.26,1.49-34.46,3.5-51.57,6.33-22.54,3.7-44.87,8.43-66.44,16.12-6.18,2.22-12.33,4.64-18.25,7.52-12.45,6.06-20.99,15.69-24.93,29.13-.32,1.11-.47,2.27-.76,3.35-.23.79-.49,3.61-.49,4.56v33.98c.15.82,0,1.76.05,2.6.47,7.11.85,14.23,1.31,21.34.93,13.85,2.54,27.64,4.58,41.37,3.47,23.38,8.57,46.38,15.31,69.07,19.3,65.1,51.52,123.09,96.18,174.14,25.45,29.07,54.29,54.34,86.5,75.68,7.2,4.78,24.87,14.14,25.89,14.54,1.04-.37,15.89-8.01,20.99-11.28,39.85-25.31,74.31-56.71,103.99-93.29,37.23-45.89,64.58-97.14,82.19-153.56,7.7-24.55,13.38-49.56,17.14-75.01,1.37-9.39,2.51-18.83,3.41-28.31.93-10.06,1.78-20.17,2.07-30.26.38-13.12.23-26.24.2-39.36ZM443.81,116.31c-.38,10.58-1.11,21.14-2.1,31.66-.93,9.97-2.21,19.94-3.67,29.85-3.35,22.62-8.57,44.84-15.36,66.68-16.21,52.04-41.34,99.39-75.51,141.84-26.65,33.09-57.49,61.66-93.06,84.98-5.77,3.76-11.78,7.14-17.7,10.7-.64.41-1.34.73-2.13,1.14-1.72-.96-3.5-1.89-5.22-2.89-21.22-12.33-40.67-27.11-59.01-43.38-15.68-13.91-30.38-28.83-43.7-45.04-26.79-32.59-48.83-68.08-65.22-107.03-12.89-30.7-22.27-62.45-28.19-95.22-2.1-11.63-3.91-23.27-5.01-35.01-.9-9.62-1.66-19.24-2.33-28.89-.96-14.08-.93-28.19-.73-42.3.09-8.1,3.5-14.96,8.95-20.85,3.27-3.53,7.14-6.27,11.46-8.34,10.55-5.04,21.6-8.72,32.83-11.84,15.95-4.46,32.16-7.84,48.54-10.15,13.21-1.87,26.41-3.59,39.68-4.93,17.93-1.81,35.95-2.65,53.94-3.44,4.04-.18,8.08-.26,12.11-.26,10.69,0,21.36.55,32.03,1.17,13.61.79,27.23,1.69,40.82,2.97,11.9,1.17,23.73,2.8,35.57,4.46,14.9,2.07,29.62,5.01,44.17,8.8,12.59,3.27,25.07,7,36.97,12.39,4.37,1.95,8.51,4.26,11.98,7.58,6.71,6.44,10.17,14.29,10.17,23.59,0,10.58.12,21.2-.26,31.75Z"/>
  <g>
    <path class="st2" d="M187.76,120.9c8.01-3.59,13.24-11.68,13.14-20.59-.1-9.75-6.11-17.95-15.31-20.9-2.56-.82-5.26-1.24-8.03-1.24-1.57,0-3.2.13-4.86.4-9.96,1.59-17.59,9.71-18.56,19.75-.99,10.3,4.61,19.49,14.58,23.12,2.44.89,5.03,1.75,7.32,3.3,4.77,3.24,9.01,4.99,13.8,5.61.34.04.7.07,1.07.07.91,0,2.15-.22,3.2-.88,1.21-.76,7.94-7.54,7.94-7.54,0,0-5.33.61-6.52.62-3.08.02-5.32-.72-7.78-1.72ZM177.94,114.14l-.34.02c-6.53-.12-11.67-3.56-13.42-8.97-1.88-5.81.06-12.04,4.84-15.5,2.31-1.67,5.31-2.59,8.43-2.59,3.52,0,6.95,1.19,9.4,3.26,4.13,3.49,5.73,9.27,3.99,14.39-1.8,5.31-5.6,8.42-11.29,9.27-.59.09-1.18.11-1.61.12Z"/>
    <path class="st2" d="M369.7,88.99c0,6.04,0,12.08-.01,18.11l-5.51-6.32c-5.5-6.31-11.19-12.83-16.66-19.34-.67-.8-1.69-1.96-2.32-2.57h-7.14v43.37h8.72v-15c-.01-2.25-.1-11.87-.09-12.91l5.47,6.23c5.39,6.17,10.96,12.55,16.3,18.94.28.33,2.26,2.45,2.55,2.73h7.5v-43.37h-8.8v10.12Z"/>
    <path class="st2" d="M67.11,79.16c-4.17-.33-8.4-.35-12.49-.38-1.74,0-8.13.01-8.13.01v43.44h20.06c.25,0,1.4-.04,1.7-.09,11.05-1.77,18.84-11.19,18.53-22.39-.32-11.22-8.4-19.69-19.67-20.59ZM77.34,101.3c-.28,6.5-4.72,11.38-11.04,12.14-2.66.32-4.64.35-7.66.35-.76,0-2.04-.01-2.9-.01v-26.37c.87,0,8.4-.31,11.74.46,6.47,1.51,10.16,6.5,9.85,13.42Z"/>
    <path class="st2" d="M279.37,104.71h16.07v-8.59h-16.17v-8.73h6.77s4.59.02,4.59.02h5.35v-8.53h-25.9v43.35h26.48v-8.37h-17.27c0-2.65.08-6.78.08-9.16Z"/>
    <rect class="st2" x="311.38" y="78.87" width="8.76" height="43.42"/>
    <path class="st2" d="M243.87,78.91l-.03,11.2c-.03,5.57-.05,11.15-.11,16.72-.03,3.11-1.46,5.24-4.38,6.53-1.74.76-3.5,1.15-5.25,1.15s-3.5-.39-5.22-1.15c-2.56-1.13-3.93-2.88-4.19-5.36l-.05-.48c-.15-1.4-.3-2.81-.31-4.21-.03-4.15-.03-8.3-.02-12.46v-7.36c0-.7-.02-4.64-.02-4.64h-9.02s0,7.7,0,10.12c.02,6.18-.14,12.57.09,18.87.25,6.53,3.84,11.28,10.4,13.72,2.56.95,5.28,1.44,8.08,1.44,1.94,0,3.96-.23,6-.69,7.89-1.77,12.71-7.41,13.23-15.5.04-.66.06-1.33.06-2,.01-7.33.02-14.67.02-22.01,0-.51,0-3.89,0-3.89h-9.27Z"/>
    <path class="st2" d="M130.34,78.91l-.03,11.2c-.03,5.57-.05,11.15-.11,16.72-.03,3.11-1.46,5.24-4.37,6.53-1.74.76-3.5,1.15-5.25,1.15s-3.5-.39-5.22-1.15c-2.56-1.13-3.93-2.88-4.19-5.36l-.05-.48c-.15-1.4-.3-2.81-.31-4.21-.03-4.15-.03-8.3-.02-12.46v-7.36c0-.7-.02-4.64-.02-4.64h-9.02s0,7.7,0,10.12c.02,6.18-.14,12.57.09,18.87.25,6.53,3.84,11.28,10.4,13.72,2.56.95,5.28,1.44,8.08,1.44,1.94,0,3.96-.23,6-.69,7.89-1.77,12.71-7.41,13.23-15.5.04-.66.06-1.33.06-2,.01-7.33.02-14.67.02-22.01,0-.51,0-3.89,0-3.89h-9.27Z"/>
    <path class="st2" d="M404.87,113.87c0-2.65.08-6.78.08-9.16h16.07v-8.59h-16.17v-8.73h6.77s4.59.02,4.59.02h5.35v-8.53h-25.9v43.35h26.48v-8.37h-17.27Z"/>
  </g>
  <g>
    <path class="st2" d="M309.85,284.23c-3.01-17.27-9.14-33.37-18.08-48.44-.27-.47-.54-.98-.8-1.49.09-.09.18-.2.24-.29,10.32,4.59,20.64,9.16,31.09,13.82,3.12-2.56,6.2-5.08,9.25-7.6-.36-1.11-.6-1.96-.91-2.83-5.8-16.2-14.29-30.87-25.41-43.98-24.34-28.66-55.66-43.44-92.9-46.03-12.82-.89-25.54.36-38.12,3.12-13.91,3.03-27.08,8.02-39.43,15.13-.71.4-1.36.87-2.05,1.32,3.88-1.07,7.56-2.39,11.3-3.57,2.68-.87,5.66-1.14,7.4-3.95-.25.6-.47,1.18-.74,1.83.33.02.58.07.78.02,5.22-.91,10.43-1.83,15.62-2.81.91-.18,1.85-.6,2.63-1.16,1.89-1.36,3.7-2.87,5.55-4.32.4-.31.89-.56,1.34-.82.04.07.09.16.13.22-1.45,1.78-2.88,3.54-4.39,5.39,6.06,0,11.79.02,17.54-.04.8,0,1.63-.27,2.41-.56,5.22-2.01,10.43-4.03,15.65-6.06.89-.33,1.81-.65,2.7-.96-1.81,1.56-3.79,2.81-5.73,4.1-1.94,1.31-4.03,2.45-6.24,4.23,7.36.89,14.06,2.39,20.71,4.17.8.22,1.78-.02,2.63-.27,5.66-1.67,11.28-3.43,16.92-5.15.51-.16,1.03-.24,1.54-.36-4.41,2.92-9.14,5.15-13.93,8.07,1.07.45,1.69.69,2.3.96,4.77,2.14,9.61,4.12,14.22,6.53,2.1,1.07,4.01,1.34,6.26,1,7.11-1.03,14.22-1.94,21.33-2.9-5.95,2.63-12.21,4.41-18.46,6.91,4.68,3.37,9.07,6.55,13.51,9.74-.36.74-.58,1.2-.83,1.65-6.11,11.46-11.1,23.36-15.07,35.71-5.62,17.56-9.05,35.46-8.2,54.01.04,1.03-.33,1.74-.98,2.41-2.12,2.21-4.7,3.59-7.6,4.35-2.1.56-4.26.85-6.62,1.29,9.85,22.54,12.68,46.03,9.32,70.57.29.18.54.36.78.49.62.29,1.23.6,1.85.87,7.27,2.99,14.82,3.57,22.51,2.47,9-1.27,17.07-4.95,24.74-9.7,12.28-7.62,19.79-18.63,23.47-32.45,3.05-11.48,2.76-23.07.76-34.66ZM277.56,204.39c4.77-3.43,12.26-2.9,16.81,1.23-4.53,3.43-13.2,2.63-16.81-1.23Z"/>
    <path class="st2" d="M212.23,272.38c-.31-.66-.6-1.33-.93-2.05.68-.36,1.13-.62,1.6-.86,5.33-2.72,10.53-5.65,15.24-9.38,2.92-2.31,5.58-4.88,7.7-7.97,2.49-3.65,3.46-7.65,3.06-12.05-.4-4.41-1.52-8.64-3.05-12.76-5-13.42-12.26-25.63-20.22-37.45-.13-.19-.39-.28-.88-.62.37,2.76.65,5.15,1.02,7.53,1.37,8.7,3.99,17.07,6.79,25.39,1.16,3.43,2.13,6.93,3.05,10.44,1.18,4.47-.16,8.39-3.05,11.81-1.06,1.26-2.31,2.41-3.62,3.41-4.62,3.5-10.02,5.5-15.26,8.07-.33-.69-.6-1.21-.84-1.75-1.54-3.37-2.99-6.78-4.61-10.11-6.32-12.94-13.5-25.38-21.84-37.13-.43-.6-.7-1.45-1.8-1.66,1.76,19.63,6.65,38.36,13.24,56.72-3,.85-5.74,1.7-8.52,2.4-2.71.68-5.43,1.4-8.19,1.76-5.72.74-12.01-.66-15.54-7.65-.65-1.28-1.34-2.54-1.94-3.85-1.34-2.96-2.65-5.94-3.95-8.92-3.69-8.41-8.06-16.43-13.5-23.85-.37-.5-.79-.96-1.19-1.43.13,3.08.56,5.99,1.07,8.88,1.8,10.37,4.11,20.62,7.76,30.52,1.87,5.05,4.08,9.93,7.37,14.26,3.31,4.35,7.71,6.62,13.08,7.3,5.8.74,11.47-.09,17.12-1.21,3.62-.72,7.2-1.61,10.99-2.46.78,2.05,1.61,3.99,2.26,5.98,5.71,17.5,7.03,35.39,4.42,53.57-.79,5.48-2.22,10.82-4.86,15.75-2.79,5.22-7.15,8.43-12.92,9.4-9.69,1.63-18.87-6.28-16.07-17.7,2.37-9.7,14.72-13.31,22.53-6.94.58.47,1.13.97,1.9,1.63.19-.95.38-1.67.47-2.39.38-3.15.78-6.31,1.07-9.47,1.16-12.73-.25-25.22-3.63-37.52-.3-1.1-.81-1.63-1.92-1.88-10.04-2.29-19.99-2.03-29.79,1.12-25.19,8.1-40.53,33.92-36.04,60.44,5.07,29.95,35.49,51.33,66.34,43.4,22.31-5.74,39.44-26.19,40.66-49.11.42-7.95.07-15.9-.92-23.8-2.08-16.63-6.6-32.58-13.65-47.8Z"/>
    <path class="st2" d="M337.76,319.33c-4.6-4.16-9.72-7.49-15.4-9.96-1.03,5.4-2.01,10.49-3.02,15.78,10.96,6.09,18.35,15.41,22.51,27.52,4.68-1.56,9.16-3.06,13.92-4.64-3.73-11.22-9.38-20.9-18.01-28.7Z"/>
    <path class="st2" d="M316.41,332.72c-2.79,4.19-5.57,8.38-8.49,12.77,7.74,9.69,11.64,21.02,11.19,33.92,5.02.23,9.82.44,14.56.65,2.95-13.57-6.94-40.34-17.26-47.34Z"/>
  </g>
</svg>