<svg width="21" height="32" viewBox="0 0 21 32" fill="none" xmlns="http://www.w3.org/2000/svg">
<g clip-path="url(#clip0_601_1005)">
<path d="M18.9618 0.00221252C19.5151 0.00221252 19.9624 0.444802 19.9624 0.992176V30.9794C19.9624 31.5263 19.5151 31.9693 18.9618 31.9693H1.04268C0.489957 31.9693 0.0424805 31.5263 0.0424805 30.9794V0.992176C0.0424805 0.444802 0.489957 0.00221252 1.04268 0.00221252H18.9618Z" fill="white"/>
<path d="M0.431396 4.44753H19.5865V30.9194C19.5865 31.1396 19.549 31.2757 19.4005 31.4234C19.2393 31.5835 19.0979 31.5979 18.8427 31.5979L1.00332 31.5996C0.862756 31.5996 0.754946 31.5548 0.638582 31.4565C0.494466 31.3329 0.431396 31.179 0.431396 31.0161V4.44753Z" fill="#FFF200"/>
<path d="M19.5865 3.1157H0.431396V4.4757H19.5865V3.1157Z" fill="#ED1C24"/>
<path d="M19.5865 1.75296H0.431396V3.11302H19.5865V1.75296Z" fill="white"/>
<path d="M0.972895 0.369629H19.0325C19.3218 0.369629 19.5885 0.648436 19.5885 0.920553V1.78874H0.431396L0.433142 1.02522V0.961687C0.433142 0.653847 0.670349 0.400058 0.972895 0.369629Z" fill="#009A4E"/>
<path d="M18.9618 0.00221252C19.5151 0.00221252 19.9624 0.444802 19.9624 0.992176V30.9794C19.9624 31.5263 19.5151 31.9693 18.9618 31.9693H1.04268C0.489957 31.9693 0.0424805 31.5263 0.0424805 30.9794V0.992176C0.0424805 0.444802 0.489957 0.00221252 1.04268 0.00221252H18.9618ZM18.9618 0.397383H1.04268C0.710582 0.397383 0.442131 0.664089 0.442131 0.992176V30.9794C0.442131 31.3079 0.71064 31.5728 1.04268 31.5728H18.9618C19.294 31.5728 19.5624 31.3079 19.5624 30.9794V0.992176C19.5624 0.664147 19.294 0.397383 18.9618 0.397383Z" fill="black"/>
<path d="M9.65009 6.12759C9.65009 6.12759 9.63798 6.24303 9.61163 6.31063C9.58568 6.37324 9.51807 6.41536 9.52255 6.45737C9.52703 6.49856 9.5709 6.54825 9.63891 6.58263C9.70559 6.61754 9.73241 6.64442 9.80089 6.66188C9.86443 6.67759 9.94501 6.72407 9.96782 6.67084C9.99068 6.61667 9.95624 6.55087 9.91772 6.4878C9.85058 6.37772 9.8166 6.35084 9.71769 6.19956C9.69663 6.16698 9.68011 6.13202 9.65009 6.12759Z" fill="black"/>
<path d="M9.14842 18.0207C9.15511 18.001 9.31354 18.1013 9.39587 18.1496C9.56908 18.2534 9.64693 18.3152 9.8 18.4297C9.92131 18.5219 9.9799 18.5694 10.1017 18.6741C10.2511 18.803 10.3317 18.913 10.372 18.888C10.4302 18.8182 10.2767 18.6141 10.141 18.5032C10.009 18.3939 9.87255 18.3054 9.76736 18.2365C9.63174 18.146 9.61964 18.1254 9.41693 17.9894C9.19898 17.8435 9.01106 17.66 9.01106 17.66L8.79933 17.4936L8.46775 17.2138L8.099 16.8742L7.82066 16.564C7.82066 16.564 7.60404 16.2991 7.5696 16.248C7.53469 16.1975 7.43264 16.0336 7.34857 15.895C7.27334 15.7705 7.12748 15.5773 7.11404 15.5607C7.03526 15.4653 6.85536 15.5038 6.64631 15.3808C6.39258 15.2308 6.33126 15.0939 6.33126 15.0939C6.33126 15.0939 6.32183 15.0738 6.312 15.063C6.30258 15.0518 6.28338 15.038 6.28338 15.038L6.15043 14.9453L6.07433 14.8952C6.07433 14.8952 6.01661 14.8473 5.94412 14.8164C5.87116 14.7842 5.70871 14.6897 5.70871 14.6897L5.41827 14.5045C5.41827 14.5045 5.30458 14.4132 5.267 14.3828C5.22854 14.3537 5.15692 14.3121 5.15692 14.3121C5.15692 14.3121 5.11125 14.2892 5.0974 14.2883C5.08355 14.2874 5.02316 14.2821 5.02316 14.2821C5.02316 14.2821 4.96719 14.2673 4.91034 14.334C4.8535 14.4012 4.86741 14.3653 4.96003 14.743C4.99669 14.8916 4.99314 15.4157 5.03253 15.5754C5.08262 15.7804 5.22674 16.0453 5.24151 16.0766C5.25589 16.1075 5.26613 16.2221 5.26613 16.2221C5.26613 16.2221 5.2599 16.3148 5.26973 16.3734C5.3136 16.6441 5.70965 16.466 5.79698 16.8375C5.88291 17.204 5.74549 17.5696 5.74549 17.5696C5.74549 17.5696 5.66042 17.7514 5.54005 17.78C5.42013 17.8078 5.23395 17.5419 5.09926 17.3267C4.96637 17.1149 4.85763 16.8375 4.82272 16.7493C4.78781 16.6611 4.76943 16.6419 4.72916 16.5779C4.66964 16.4826 4.62176 16.5001 4.55509 16.3497C4.48794 16.1993 4.54746 16.1389 4.5175 16.0078C4.50004 15.9353 4.48439 15.9272 4.46159 15.8234C4.43965 15.72 4.4101 15.3911 4.4101 15.3911L4.36803 15.085C4.36803 15.085 4.35325 14.9453 4.33405 14.8576C4.26738 14.5515 4.2441 14.2552 4.2441 14.2552L4.23159 14.1335L4.22711 14.0078C4.22711 14.0078 4.2231 13.9473 4.23788 13.8851C4.25266 13.823 4.28268 13.7715 4.28268 13.7715C4.28268 13.7715 4.34447 13.6681 4.35517 13.6422C4.36547 13.6176 4.49167 13.4708 4.49167 13.4708C4.49167 13.4708 4.55788 13.4157 4.66575 13.3499C4.77408 13.2841 4.87119 13.2886 4.87119 13.2886C4.87119 13.2886 4.89981 13.2859 5.0914 13.3097C5.28294 13.3334 5.67677 13.4381 5.77615 13.4636C5.87413 13.4901 5.99142 13.5312 6.06746 13.5737C6.28628 13.6927 6.35255 13.6422 6.17847 13.5057C6.06118 13.414 6.02813 13.3728 5.93365 13.2869C5.85394 13.2135 5.79133 13.1647 5.73181 13.0971C5.67229 13.0282 5.50269 12.7781 5.50269 12.7781L5.39663 12.6214C5.39663 12.6214 5.33978 12.557 5.33036 12.5525C5.32146 12.5471 5.29277 12.5252 5.29277 12.5252C5.29277 12.5252 5.22255 12.5288 5.14999 12.5149C5.07663 12.5001 5.04259 12.6031 5.04259 12.6031C5.04259 12.6031 4.88503 12.8971 4.72486 13.0771C4.46531 13.3693 4.27913 13.568 4.18383 13.7237C4.05001 13.9394 4.07957 14.1758 4.01062 14.2849C3.97036 14.3489 3.94842 14.3583 3.92649 14.4143C3.85935 14.5839 4.10324 14.6769 4.04733 14.8649C3.95826 15.163 3.26013 15.4579 3.16745 15.4086C3.07122 15.3581 3.14999 14.9549 3.18223 14.8246C3.21533 14.6935 3.31331 14.5002 3.32233 14.4904C3.33082 14.4809 3.35456 14.4353 3.36166 14.3968C3.36928 14.3583 3.37196 14.2711 3.37644 14.2227C3.38092 14.1739 3.40105 14.097 3.40105 14.097C3.40105 14.097 3.40373 14.0804 3.46546 13.9466C3.52765 13.812 3.75503 13.4986 3.91794 13.1997C4.02534 13.0046 4.07008 12.8865 4.17748 12.6909C4.27639 12.5114 4.44599 12.2375 4.44599 12.2375C4.44599 12.2375 4.51756 12.0979 4.55113 12.046C4.58517 11.9927 4.65673 11.892 4.72387 11.7926C4.79148 11.6937 4.808 11.6194 4.89615 11.538C4.96911 11.47 5.01879 11.4337 5.1141 11.4033C5.25594 11.3563 5.35311 11.3814 5.4981 11.4217C5.64844 11.4628 5.75183 11.5318 5.85033 11.6132C5.94831 11.6956 6.02127 11.7864 6.02127 11.7864L6.06915 11.8571L6.09865 11.8746L6.18999 11.9332L6.39898 12.0714C6.39898 12.0714 6.89487 12.4089 6.92262 12.4272C6.94903 12.4447 7.03805 12.5176 7.05551 12.5235C7.07389 12.5288 7.20591 12.3856 7.46505 12.2071C7.76486 11.999 7.87092 12.0146 7.97036 11.9605C8.06834 11.9063 8.1086 11.8616 8.18563 11.7846C8.30199 11.6682 8.30287 11.6061 8.43488 11.4436C8.56783 11.2816 8.69222 11.1907 8.69222 11.1907C8.69222 11.1907 8.71055 11.1724 8.94735 10.9048C9.18362 10.6381 9.28835 10.4362 9.28835 10.4362L9.41815 10.1762C9.41815 10.1762 9.60608 9.7721 9.66653 9.61228C9.72739 9.4521 9.72739 9.39881 9.72739 9.39881C9.72739 9.39881 9.73629 9.35674 9.69068 9.27529C9.64367 9.19424 9.59532 9.23095 9.50537 9.24934C9.33309 9.28605 9.22837 9.24125 9.05429 9.21088C8.89498 9.18441 8.81172 9.13658 8.65196 9.11017C8.48998 9.08288 8.39555 9.05606 8.23305 9.07171C8.20844 9.07439 8.15881 9.08468 8.13501 9.09271C8.04326 9.12314 8.01778 9.1303 7.94976 9.16969C7.87098 9.2064 7.81908 9.21804 7.73181 9.22025C7.67136 9.22205 7.63471 9.22385 7.57879 9.20192C7.54028 9.18714 7.51834 9.17597 7.48791 9.14868C7.46959 9.1321 7.45975 9.12134 7.44585 9.09987C7.4441 9.08288 7.43869 9.08375 7.45527 9.05606C7.47139 9.02784 7.49152 9.02289 7.49152 9.02289L7.56582 9.00457C7.56582 9.00457 7.67055 8.97728 7.68038 8.97455C7.68981 8.97187 7.78959 8.93964 7.8334 8.92579C7.87773 8.91194 7.92608 8.8864 7.92608 8.8864C7.92608 8.8864 7.9529 8.84346 7.94261 8.81885C7.92963 8.79104 7.87011 8.78842 7.87011 8.78842C7.87011 8.78842 7.78685 8.81885 7.77748 8.82153C7.76853 8.82333 7.63558 8.86534 7.63558 8.86534C7.63558 8.86534 7.53132 8.8882 7.45033 8.9074C7.36887 8.92573 7.25251 8.93516 7.25251 8.93516L7.2176 8.92573C7.2176 8.92573 7.17821 8.89932 7.17199 8.87162C7.16617 8.84701 7.16256 8.82863 7.15808 8.80047C7.14063 8.69748 7.11962 8.63529 7.14423 8.53376C7.15366 8.49123 7.16349 8.46749 7.18182 8.42816C7.19747 8.39546 7.20777 8.37667 7.2279 8.34577L7.29196 8.24105L7.4128 8.06249C7.4544 8.02042 7.48175 7.99942 7.53405 7.96986C7.61103 7.92692 7.65577 7.91482 7.752 7.90406C7.84643 7.89376 7.85941 7.89469 7.99322 7.86467C8.12791 7.83424 8.22327 7.781 8.22327 7.781C8.22327 7.781 8.54508 7.66284 8.74103 7.5666C8.94642 7.46595 9.03596 7.35849 9.24855 7.27529C9.3385 7.24038 9.39087 7.2238 9.48349 7.20012C9.49513 7.19249 9.50095 7.18534 9.50455 7.17143C9.51351 7.13786 9.46162 7.12221 9.42578 7.12576C9.39354 7.12844 9.32018 7.16247 9.30359 7.12576C9.29103 7.0976 9.37068 7.08102 9.37068 7.08102C9.37068 7.08102 9.40826 7.06356 9.40919 7.04256C9.41012 7.01033 9.35509 7.03133 9.33042 7.02865C9.20556 7.01475 9.19573 6.99194 9.10933 6.97094C9.00774 6.94545 8.95276 6.91409 8.8471 6.90961C8.75401 6.90601 8.66674 6.92573 8.60815 6.93958C8.55043 6.95436 8.54863 6.89751 8.57143 6.88634C8.73481 6.81024 8.73836 6.80396 8.85385 6.7986C8.91692 6.79593 9.00512 6.80937 9.01495 6.81425C9.02438 6.81961 9.15058 6.81338 9.18281 6.78028C9.21591 6.74804 9.07942 6.74985 9.01495 6.72431C8.95549 6.70063 8.86461 6.69393 8.86642 6.65449C8.86956 6.6151 8.91343 6.63703 8.94473 6.629C8.98406 6.61958 9.00692 6.62051 9.04719 6.61516C9.11974 6.60532 9.12597 6.59857 9.23337 6.58967C9.33943 6.57937 9.49251 6.62458 9.49251 6.62458C9.49251 6.62458 9.65315 6.6958 9.73193 6.73338C9.81071 6.77004 9.90601 6.78929 9.90601 6.78929C9.90601 6.78929 10.0178 6.80495 10.103 6.75171C10.1893 6.69888 10.1405 6.66397 10.1105 6.61521C10.081 6.56954 10.0434 6.50333 10.0984 6.37801C10.1472 6.2688 10.1727 6.14127 10.1866 6.12963C10.2041 6.11578 10.2717 6.21376 10.3155 6.25408C10.4726 6.40087 10.6803 6.47337 10.8763 6.78033C10.8916 6.80495 10.964 6.76556 11.1914 6.80047C11.4187 6.83537 11.6174 7.07881 11.6676 7.13705C11.7195 7.19564 11.7866 7.19249 11.7866 7.19249L11.8958 7.20727L12.2923 7.21396C12.2923 7.21396 12.4722 7.18173 12.576 7.22118C12.6485 7.24847 12.8902 7.41004 12.7801 7.4713C12.7032 7.5143 12.6307 7.41987 12.5608 7.41539C12.4785 7.41004 12.4427 7.42569 12.3693 7.44401C12.2153 7.48253 11.8851 7.58231 12.005 7.62257C12.0139 7.62612 12.0309 7.6288 12.0309 7.6288L12.09 7.6391C12.09 7.6391 12.235 7.6722 12.3227 7.70665C12.4551 7.75901 12.5178 7.81679 12.6396 7.88835C12.7093 7.92861 12.7398 7.96893 12.8159 7.99174C12.8857 8.01193 12.9304 7.99174 13.002 8.00384C13.096 8.02042 13.1488 8.03968 13.2348 8.08081C13.3627 8.14214 13.4093 8.21644 13.5239 8.29876C13.5811 8.34036 13.6294 8.34665 13.6724 8.40262C13.6823 8.41513 13.6904 8.42188 13.6949 8.4366C13.7101 8.48762 13.6107 8.4576 13.5579 8.44916C13.4997 8.43933 13.4756 8.41065 13.4219 8.38604C13.3422 8.34845 13.3046 8.30726 13.2178 8.29161C13.1551 8.27951 13.1175 8.28893 13.0531 8.29248C12.9905 8.29516 12.9574 8.30458 12.8946 8.30545C12.7882 8.30726 12.7282 8.29789 12.6234 8.2759C12.5062 8.25134 12.448 8.20567 12.3317 8.18147C12.2001 8.15418 11.9674 8.04143 11.9897 8.15418C12.0014 8.20835 12.1249 8.25396 12.1249 8.25396C12.1249 8.25396 12.2099 8.29964 12.2905 8.33542C12.3711 8.37033 12.4157 8.42362 12.4157 8.42362L12.4712 8.46481C12.4712 8.46481 12.5285 8.54359 12.6037 8.63261C12.6771 8.72035 12.8078 8.71761 12.8078 8.71761C12.8078 8.71761 12.8865 8.71761 13.0566 8.75252C13.2257 8.78743 13.4003 8.8921 13.4003 8.8921C13.4003 8.8921 13.5318 8.98252 13.6088 9.0734C13.6849 9.16428 13.641 9.20989 13.6312 9.21926C13.6223 9.22909 13.6258 9.22461 13.6151 9.22909C13.6062 9.23357 13.5113 9.11453 13.5113 9.11453L13.4433 9.05681C13.4433 9.05681 13.377 9.01027 13.2911 8.98252C13.2052 8.95523 13.1765 8.97356 13.1765 8.97356C13.1765 8.97356 12.9939 9.02458 12.8346 9.0201C12.6771 9.01562 12.5948 8.95249 12.5948 8.95249L12.4945 8.88535C12.4945 8.88535 12.3441 8.74438 12.3387 8.81111C12.3351 8.85632 12.405 8.90641 12.405 8.90641C12.405 8.90641 12.4533 8.95517 12.4856 8.98612C12.5464 9.04605 12.5716 9.07607 12.6413 9.13821C12.7111 9.20093 12.7541 9.20093 12.7541 9.20093C12.7541 9.20093 12.7917 9.20983 12.806 9.21257C12.8203 9.21524 12.8454 9.22199 12.8454 9.22199C12.8454 9.22199 12.8687 9.23095 12.9778 9.27529C13.0861 9.3191 13.2034 9.41446 13.2034 9.41446C13.2034 9.41446 13.2142 9.42342 13.2303 9.42656C13.2463 9.42836 13.2786 9.44448 13.2875 9.44716C13.2974 9.44937 13.3251 9.44937 13.3878 9.45833C13.4514 9.46775 13.4272 9.50801 13.4272 9.50801L13.4164 9.5232L13.3645 9.55811C13.3645 9.55811 13.2974 9.57737 13.2517 9.57958C13.2051 9.58225 13.1389 9.55636 13.1389 9.55636L12.9984 9.50353C12.9984 9.50353 12.8561 9.46595 12.8256 9.461C12.7952 9.45652 12.6681 9.43104 12.6467 9.42656C12.6261 9.42167 12.5625 9.39881 12.5455 9.38897C12.5285 9.37961 12.4972 9.37332 12.4202 9.33574C12.3441 9.29815 12.3137 9.25475 12.2189 9.22473C12.1231 9.1943 12.0649 9.18807 11.9933 9.23776C11.8698 9.32276 12.1794 9.33667 12.3334 9.41358C12.5608 9.52547 12.6887 9.6078 12.7424 9.7287C12.797 9.84995 12.8516 9.89382 12.8516 9.89382C12.8516 9.89382 13.0119 9.9744 13.0834 10.0589C13.1228 10.1046 13.1282 10.1422 13.1676 10.1878C13.2552 10.2907 13.4254 10.2849 13.4594 10.3722C13.4916 10.4536 13.3215 10.4169 13.2329 10.4088C13.0736 10.3932 13.0351 10.2473 12.8865 10.1887C12.8024 10.1551 12.7487 10.1551 12.6627 10.1256C12.5061 10.0741 12.4327 10.0066 12.276 9.95782C12.1812 9.92873 12.0093 9.80387 12.0308 9.90004C12.0344 9.92332 12.0487 9.94124 12.0549 9.95514C12.063 9.96899 12.1024 10.02 12.1024 10.02C12.1024 10.02 12.1551 10.0898 12.1793 10.1082C12.2017 10.1275 12.3028 10.2035 12.4478 10.2823C12.591 10.3611 12.7163 10.5123 12.7163 10.5123C12.7163 10.5123 12.7593 10.5741 12.7799 10.6171C12.8014 10.6655 12.7861 10.6802 12.8202 10.7473C12.8515 10.814 12.8667 10.827 12.9096 10.8682C13.0152 10.9698 13.1263 10.9496 13.2605 11.0047C13.2972 11.0203 13.2999 11.0257 13.3393 11.0678C13.3786 11.1094 13.332 11.1272 13.332 11.1272C13.332 11.1272 13.1826 11.1657 13.0859 11.1576C12.9607 11.1478 12.9042 11.1093 12.7825 11.0484C12.659 10.988 12.5946 10.8793 12.5821 10.8726C12.5713 10.8654 12.5409 10.8332 12.5176 10.8166C12.4944 10.8001 12.4344 10.7875 12.3807 10.7728C12.3261 10.7581 12.2956 10.7553 12.2411 10.7405C12.1668 10.7195 12.0897 10.6868 12.0548 10.6757C12.0199 10.6636 11.9403 10.6493 11.8821 10.6837C11.7657 10.7526 12.0629 10.7991 12.1551 10.8981C12.2025 10.9478 12.2222 10.9827 12.267 11.0351C12.301 11.0753 12.3153 11.1035 12.3574 11.1348C12.386 11.1558 12.4388 11.1786 12.4388 11.1786C12.4388 11.1786 12.5104 11.2118 12.6151 11.2695C12.7199 11.3272 12.8424 11.4906 12.8424 11.4906L12.9167 11.6042L12.9606 11.6691L12.9722 11.6991L12.9883 11.7358C12.9883 11.7358 13.0421 11.8056 13.0814 11.8284C13.1208 11.8522 13.1136 11.8728 13.1136 11.8728C13.1136 11.8728 13.1092 11.8871 13.0814 11.9028C13.0546 11.9194 13.0393 11.9055 13 11.8938C12.9606 11.8826 12.9347 11.8451 12.9007 11.8177C12.8648 11.7891 12.8273 11.7197 12.7637 11.6803C12.7073 11.6464 12.634 11.6343 12.6053 11.6253C12.5775 11.6151 12.5077 11.5712 12.48 11.5591C12.4532 11.5483 12.3807 11.5152 12.3807 11.5152C12.3807 11.5152 12.2411 11.4374 12.164 11.4164C12.0871 11.3949 12.1362 11.4419 12.1362 11.4419C12.1362 11.4419 12.2052 11.5493 12.2714 11.5922C12.3574 11.649 12.4782 11.6992 12.4388 11.7452C12.4119 11.7752 12.3761 11.7645 12.3367 11.76C12.2723 11.7524 12.1944 11.6754 12.1944 11.6754C12.1944 11.6754 12.1622 11.6544 12.0181 11.6087C11.8749 11.5617 11.9277 11.6405 11.9608 11.683C11.9931 11.7242 12.037 11.7479 12.037 11.7479L12.1345 11.7918L12.1793 11.8056C12.1793 11.8056 12.2187 11.8128 12.3485 11.8432C12.4782 11.8728 12.5499 11.9359 12.5499 11.9359C12.5499 11.9359 12.6197 12.0008 12.7163 12.0724C12.8147 12.1449 12.9114 12.1633 12.9652 12.1704C13.0189 12.1771 13.017 12.2147 13.017 12.2147C13.017 12.2147 13.0242 12.2492 13.0207 12.2604C13.0189 12.272 13.0073 12.2814 12.9956 12.2814C12.9848 12.2814 12.9795 12.2859 12.9652 12.2935C12.9509 12.3007 12.8954 12.3096 12.8954 12.3096C12.8954 12.3096 12.7504 12.3052 12.6358 12.2769C12.5231 12.2492 12.4228 12.1704 12.412 12.166C12.4031 12.1615 12.2975 12.1029 12.2241 12.0796C12.1534 12.0559 12.0397 12.0662 12.0271 12.0707C12.0156 12.0752 11.9761 12.0815 11.909 12.1011C11.841 12.119 11.926 12.1449 11.926 12.1449L11.9744 12.1494L12.0898 12.1584C12.0898 12.1584 12.2098 12.1722 12.3109 12.2098C12.412 12.2465 12.4783 12.3208 12.5454 12.3888C12.6125 12.4555 12.6869 12.4994 12.6869 12.4994L12.7406 12.5343L12.7683 12.5553L12.7755 12.5736C12.7755 12.5736 12.7728 12.583 12.7683 12.5946C12.7638 12.6067 12.7469 12.6156 12.7469 12.6156C12.7469 12.6156 12.7218 12.6111 12.7111 12.6111C12.6985 12.6111 12.6225 12.5709 12.5661 12.5463C12.5079 12.5208 12.4783 12.4966 12.4157 12.4813C12.362 12.4684 12.2904 12.4625 12.2742 12.4675C12.2582 12.472 12.14 12.4886 12.0487 12.4948C11.9574 12.5019 11.8786 12.5033 11.7712 12.4903C11.6182 12.472 11.415 12.3511 11.389 12.3847C11.3362 12.4554 11.4973 12.4755 11.5761 12.5207C11.6835 12.5829 11.8697 12.6389 11.8697 12.6389C11.8697 12.6389 12.0057 12.6689 12.0854 12.7064C12.2599 12.7875 12.3128 12.9074 12.4533 13.0336C12.5302 13.1043 12.5929 13.1347 12.6967 13.15C12.7862 13.163 12.7844 13.1522 12.9258 13.1245C13.0681 13.0963 13.1541 12.9616 13.1953 13.0109C13.2033 13.0203 13.1997 13.0292 13.1979 13.0431C13.1953 13.0569 13.1837 13.0825 13.1837 13.0825C13.1837 13.0825 13.1676 13.1053 13.1425 13.1312C13.1165 13.1567 13.019 13.21 12.9679 13.231C12.9169 13.2521 12.7917 13.287 12.6341 13.282C12.4765 13.2776 12.2546 13.1567 12.2546 13.1567L12.0953 13.0896C12.0953 13.0896 12.0219 13.0551 11.9718 13.0363C11.8393 12.9862 11.7552 12.9907 11.6191 12.9549C11.535 12.9321 11.4795 12.9083 11.4034 12.8927C11.3265 12.8762 11.3703 12.9066 11.3775 12.9173C11.4133 12.9661 11.4616 12.9817 11.5225 13.0099C11.6031 13.0493 11.6594 13.0413 11.7418 13.0762C11.834 13.1134 11.9146 13.1657 11.9656 13.1988C12.0157 13.2311 12.0533 13.2678 12.1025 13.3188L12.2717 13.4638C12.2717 13.4638 12.3111 13.496 12.3155 13.5095C12.32 13.5234 12.3388 13.5582 12.3299 13.6142C12.32 13.6702 12.2744 13.6308 12.2744 13.6308L12.2296 13.6022L12.1848 13.561L12.1141 13.5024C12.1141 13.5024 12.0533 13.4473 11.9485 13.394C11.8447 13.3399 11.7194 13.3264 11.7194 13.3264C11.7194 13.3264 11.6083 13.3099 11.612 13.3448C11.6173 13.3793 11.6423 13.3824 11.73 13.4052C11.8186 13.4281 11.8768 13.4728 11.8768 13.4728C11.8768 13.4728 11.9673 13.54 12.0326 13.6142C12.097 13.6886 12.1158 13.7606 12.1158 13.7606C12.1158 13.7606 12.1489 13.8214 12.2322 13.902C12.3154 13.9834 12.3593 13.9552 12.3548 13.9946C12.3503 14.034 12.3136 14.0412 12.3136 14.0412C12.3136 14.0412 12.2921 14.0393 12.2832 14.0393C12.2742 14.0393 12.2528 14.0273 12.2295 14.0183C12.2062 14.0094 12.1185 13.9485 12.1185 13.9485C12.1185 13.9485 11.9807 13.8367 11.9655 13.8259C11.9484 13.8138 11.8187 13.7167 11.8187 13.7167C11.8187 13.7167 11.7417 13.6675 11.6871 13.6397C11.6307 13.6125 11.5564 13.5838 11.5143 13.5699C11.4732 13.5565 11.3962 13.552 11.3962 13.552C11.3962 13.552 11.304 13.5382 11.2476 13.5171C11.159 13.4831 11.056 13.3886 11.0445 13.3841C11.0319 13.3793 10.9496 13.351 10.9334 13.3537C10.9174 13.3555 10.8797 13.5113 10.8708 13.6012C10.8333 13.9781 10.9334 14.2282 11.0892 14.5737C11.3138 15.0758 11.9395 15.7001 11.9395 15.7001C11.9395 15.7001 12.097 15.7892 12.1633 15.8424C12.3503 15.9888 12.66 16.196 12.9348 16.4699C13.1693 16.7048 13.4809 17.1215 13.4809 17.1215C13.4809 17.1215 13.6616 17.373 13.7458 17.5511C13.8478 17.7695 13.9302 18.1025 13.9302 18.1025C13.9302 18.1025 13.9374 18.1598 13.9427 18.1723C13.9499 18.1839 13.9659 18.1992 13.9768 18.1992L14.0859 18.2028C14.0967 18.2028 14.2211 18.1939 14.3034 18.1732C14.3849 18.1526 14.5782 18.064 14.7071 17.9969C14.8342 17.9288 14.9873 17.8 14.9873 17.8C14.9873 17.8 15.0168 17.7749 15.1654 17.6084C15.3158 17.442 15.4125 17.1923 15.4491 17.0978C15.4849 17.0043 15.5145 16.824 15.536 16.516C15.5592 16.2068 15.5172 15.881 15.5172 15.881C15.5172 15.881 15.4608 15.4263 15.4267 15.2714C15.3927 15.1175 15.3104 14.865 15.3104 14.865C15.3104 14.865 15.2531 14.6405 15.2352 14.4986C15.2164 14.3567 15.2138 14.1258 15.2138 14.1258C15.2138 14.1258 15.2138 13.9844 15.2593 13.7231C15.3068 13.463 15.4662 13.2008 15.4662 13.2008C15.4662 13.2008 15.5109 13.1126 15.6828 12.9067C15.8591 12.6959 15.9154 12.6628 16.0891 12.537C16.227 12.4381 16.405 12.2788 16.4633 12.3164C16.5277 12.3567 16.4006 12.4372 16.3576 12.4793C16.2493 12.5867 16.0471 12.7764 15.8833 13.0624C15.7401 13.3099 15.6864 13.4737 15.6506 13.6353C15.6147 13.7964 15.6301 13.9736 15.6345 14.034C15.6399 14.0945 15.673 14.0726 15.673 14.0726C15.673 14.0726 16.0212 13.7928 16.21 13.5811C16.415 13.352 16.5976 12.9443 16.6691 12.9407C16.7175 12.9376 16.7399 13.0468 16.7282 13.0974C16.6835 13.309 16.6684 13.3354 16.5993 13.476C16.5206 13.6371 16.4473 13.7087 16.338 13.8573C16.2234 14.013 16.1671 14.0726 16.0749 14.2788C15.9416 14.5755 16.0194 14.8047 16.0194 14.8047C16.0194 14.8047 16.0355 14.9439 16.0981 14.9421C16.203 14.9385 16.4329 14.648 16.5833 14.4104C16.6944 14.2363 16.7346 14.0349 16.8071 13.9293C16.8733 13.8358 16.9316 14.0815 16.9029 14.2264C16.8697 14.3987 16.7847 14.5536 16.5977 14.7975C16.4151 15.0355 16.4205 15.262 16.4205 15.262C16.4205 15.262 16.4017 15.3654 16.3864 15.591C16.3722 15.8156 16.4366 16.1567 16.4366 16.1567C16.4366 16.1567 16.4938 16.4417 16.5055 16.6579C16.5163 16.8753 16.5091 17.369 16.3058 17.7534C16.2253 17.9074 16.0525 18.1204 16.0525 18.1204C16.0525 18.1204 15.9192 18.2574 15.8099 18.337C15.7007 18.4167 15.4385 18.5411 15.4385 18.5411C15.4385 18.5411 15.2568 18.6038 15.2317 18.6092C15.2049 18.6163 15.1888 18.6387 15.1888 18.6387C15.1888 18.6387 15.2049 18.6736 15.212 18.6879C15.2182 18.7023 15.2693 18.8275 15.2693 18.8275C15.2693 18.8275 15.3238 19.0047 15.3444 19.1453C15.365 19.2858 15.3408 19.3181 15.3212 19.4255C15.3015 19.5284 15.2568 19.4809 15.2451 19.6832C15.2353 19.8623 15.3159 19.9517 15.3015 20.1523C15.2953 20.24 15.1959 20.0413 15.1475 19.9572C15.0455 19.7745 15.0696 19.4935 15.0679 19.4237C15.0652 19.3539 15.0598 19.2769 15.0339 19.1892C15.0026 19.0746 14.9551 18.986 14.9023 18.9162C14.8486 18.8472 14.7922 18.8079 14.7734 18.8151C14.7546 18.8214 14.7528 18.858 14.7528 18.8759C14.7519 18.8956 14.7894 18.9619 14.7975 18.9762C14.8074 18.9896 14.8745 19.1123 14.8745 19.1123C14.8745 19.1123 14.904 19.2072 14.9156 19.3916C14.9273 19.5742 14.8709 19.8015 14.8709 19.8015C14.8709 19.8015 14.7975 20.0566 14.7206 20.207C14.6345 20.3725 14.444 20.5981 14.444 20.5981C14.444 20.5981 14.307 20.7234 14.204 20.9293C14.103 21.1351 14.1898 21.2247 14.1521 21.2515C14.1127 21.2774 14.0321 21.1325 14.0107 21.0349C13.9901 20.9436 13.9999 20.9006 14.0376 20.7985C14.0725 20.7001 14.1549 20.5577 14.1549 20.5577L14.2774 20.3492C14.2774 20.3492 14.426 20.0664 14.4726 19.8605C14.5191 19.6564 14.4654 19.4291 14.4654 19.4291C14.4654 19.4291 14.4592 19.3539 14.4082 19.3575C14.3562 19.3602 14.3205 19.405 14.299 19.4595C14.2568 19.5723 14.3169 19.5518 14.2524 19.7397C14.2023 19.8874 14.188 19.8677 14.1611 19.9554C14.1288 20.0601 14.1119 20.1675 14.1137 20.2329C14.1164 20.2973 14.0806 20.2705 14.0806 20.2705C14.0806 20.2705 14.018 20.1541 14.018 20.0091C14.018 19.9304 14.0216 19.8856 14.0305 19.8068C14.0448 19.6806 14.0967 19.4873 14.0967 19.4873C14.0967 19.4873 14.1522 19.2966 14.1406 19.123C14.1273 18.9475 14.0664 18.9154 14.0664 18.9154C14.0664 18.9154 14.0503 18.8921 13.9822 18.8956C13.9151 18.9011 13.9187 19.0218 13.9187 19.0218C13.9187 19.0218 13.8981 19.1946 13.8713 19.302C13.797 19.5983 13.6977 19.754 13.5222 20.0037C13.3629 20.2293 13.1472 20.428 13.0388 20.5211C12.9314 20.616 12.6002 20.8568 12.6002 20.8568L12.2118 21.1154C12.2118 21.1154 12.0579 21.2658 11.988 21.4448C11.9164 21.623 11.92 21.7626 11.9611 21.9263C12.0024 22.0911 12.0614 22.1662 12.0927 22.2127C12.1231 22.2576 12.1832 22.338 12.2029 22.433C12.2154 22.4911 12.2065 22.526 12.21 22.5851C12.2137 22.637 12.2208 22.6657 12.219 22.7185C12.2172 22.8008 12.2324 22.8589 12.1849 22.9261C12.1509 22.9771 12.0578 23.0218 12.0578 23.0218C12.0578 23.0218 11.9523 23.0683 11.8895 23.1068C11.2289 23.5052 10.9945 23.7638 10.6221 24.2078C10.5039 24.3501 10.5908 24.3412 10.4646 24.5094C10.388 24.6097 10.2113 24.6097 10.1473 24.7296C10.0583 24.8934 10.3478 25.0545 10.0135 25.1987C9.58252 25.3848 8.84093 25.2514 8.82615 25.1933C8.78589 25.0339 8.97114 24.8496 9.03695 24.7762C9.33856 24.4468 9.608 24.4387 9.70691 24.1658C9.72838 24.1076 9.71988 24.0575 9.96018 23.8793C10.1289 23.7549 10.8029 23.2474 11.0974 22.9091C11.1985 22.7927 11.2853 22.7158 11.3292 22.5904C11.374 22.4632 11.2853 22.3836 11.2853 22.3836L11.1645 22.1867L10.9327 21.7723C10.9327 21.7723 10.8352 21.5521 10.7823 21.425C10.7278 21.2979 10.6266 20.9559 10.6266 20.9559C10.6266 20.9559 10.5524 20.6481 10.5397 20.4475C10.5174 20.0877 10.5666 19.8783 10.6616 19.5293C10.7841 19.0764 11.0625 18.8866 11.1735 18.4372C11.2058 18.3066 11.2129 18.0828 11.1466 18.0936C11.084 18.1052 11.0786 18.2815 11.0303 18.3997C10.8513 18.8454 10.615 19.0406 10.4852 19.5024C10.3984 19.8147 10.3626 20.0001 10.3634 20.3241C10.3644 20.5093 10.3572 20.4753 10.4046 20.7967C10.4234 20.9148 10.452 20.9783 10.487 21.0938C10.512 21.1761 10.5792 21.3301 10.5792 21.3301C10.5792 21.3301 10.6714 21.5333 10.7036 21.6756C10.7134 21.7249 10.726 21.7525 10.7224 21.8018C10.7161 21.8868 10.7313 21.9048 10.6902 21.9817C10.6392 22.0775 10.6704 22.1339 10.5076 22.1696C10.3626 22.2 10.0663 22.1034 10.0663 22.1034C10.0663 22.1034 8.84855 21.7346 8.07119 21.8411C7.91724 21.8617 7.83445 21.9181 7.67962 21.9154C7.53865 21.9136 7.46703 21.8035 7.32605 21.8456C7.29743 21.8537 7.28847 21.8742 7.26252 21.8913C7.05667 22.0344 7.21417 22.2725 6.6718 22.149C6.33882 22.0729 5.93562 21.8689 6.00538 21.7409C6.09888 21.5708 6.22421 21.543 6.48742 21.4347C6.7689 21.3201 7.19136 21.3524 7.27462 21.347C7.3762 21.3389 7.52213 21.2682 7.70377 21.2638C8.01795 21.2584 8.07386 21.296 8.07386 21.296L8.60727 21.3434L9.62813 21.356C9.62813 21.356 9.81071 21.3425 9.8832 21.3282C9.95663 21.3138 10.0143 21.1697 10.0545 21.1008C10.094 21.0328 10.0528 20.9325 10.0528 20.9325L10.0224 20.8851L9.92527 20.7285L9.74583 20.4259L9.54668 20.0286C9.54668 20.0286 9.41647 19.752 9.34711 19.5703C9.27817 19.3895 9.23791 19.2874 9.19223 19.1005C9.14435 18.9079 9.11479 18.7522 9.10857 18.5974C9.10101 18.3752 9.08623 18.2024 9.14842 18.0207Z" fill="black"/>
<path d="M15.7754 17.652C15.9901 17.3763 16.0108 17.1202 16.0233 16.7596C16.0331 16.4973 15.9338 16.0932 15.9338 16.0932L15.9204 16.0637C15.9204 16.0637 15.8828 16.0148 15.8596 16.0793C15.8632 16.1362 15.8704 16.1818 15.8704 16.1818L15.8828 16.7023C15.8828 16.7023 15.8667 16.9645 15.7773 17.2349C15.6269 17.6913 15.2277 17.8945 15.1696 18.0592C15.07 18.3322 15.5185 17.984 15.7754 17.652Z" fill="white"/>
<path d="M13.5235 18.4943C13.5235 18.4943 13.4357 18.5193 13.4339 18.6061C13.4322 18.6929 13.4554 18.7681 13.4527 18.8728C13.451 19.0063 13.3283 19.1601 13.4071 19.2103C13.5423 19.2962 13.6586 18.6911 13.6174 18.6017C13.5762 18.5121 13.536 18.4933 13.5235 18.4943Z" fill="white"/>
<path d="M12.0073 22.6893C12.0073 22.6893 11.9821 22.676 11.933 22.6948C11.8847 22.7135 11.8882 22.7637 11.8882 22.7637C11.8882 22.7637 11.8783 22.8174 11.9177 22.8228C11.9572 22.83 12.0216 22.7333 12.0216 22.7225C12.0216 22.7117 12.0073 22.6893 12.0073 22.6893Z" fill="white"/>
<path d="M10.5806 23.7034C10.5806 23.7034 10.5662 23.7178 10.5788 23.7276C10.5921 23.7393 10.611 23.7249 10.611 23.7249C10.611 23.7249 10.8571 23.5325 11.003 23.3974C11.157 23.2524 11.379 23.0026 11.379 23.0026C11.379 23.0026 11.3942 22.9839 11.3772 22.9677C11.3592 22.9516 11.3172 22.9766 11.2823 22.9928C11.2519 23.0089 11.2339 23.0259 11.2107 23.0447C11.1893 23.0644 11.1158 23.1396 11.1158 23.1396L10.926 23.324L10.8061 23.4367L10.6898 23.5477L10.6414 23.6033C10.6414 23.6033 10.6289 23.6247 10.6254 23.6301C10.6217 23.6363 10.6092 23.6524 10.6092 23.6524C10.6092 23.6524 10.5913 23.6695 10.5913 23.6748C10.5913 23.6793 10.5859 23.6838 10.5859 23.6892C10.5841 23.6963 10.5806 23.7034 10.5806 23.7034Z" fill="white"/>
<path d="M10.1549 23.9828C10.1549 23.9828 10.1285 23.9613 10.0869 23.9818C10.0448 24.0042 10.0001 24.0614 9.99642 24.0678C9.99246 24.0759 9.9696 24.1063 9.98531 24.1331C10.001 24.16 10.0542 24.1206 10.0622 24.1188C10.0698 24.1188 10.1393 24.0634 10.1393 24.0634C10.1393 24.0634 10.1795 24.0382 10.1549 23.9828Z" fill="white"/>
<path d="M9.33998 24.808C9.33998 24.808 9.30507 24.7436 9.2594 24.7704C9.21373 24.7973 9.18871 24.8062 9.14665 24.8643C9.13949 24.8742 9.09428 24.9324 9.08619 24.9476C9.07817 24.962 9.03296 25.0479 9.12471 25.0541C9.28227 25.063 9.17882 24.962 9.23299 24.9225C9.27686 24.8922 9.35918 24.9002 9.36011 24.868C9.36099 24.8358 9.33998 24.808 9.33998 24.808Z" fill="white"/>
<path d="M6.54742 21.5105C6.54742 21.5105 6.45299 21.5338 6.44583 21.5661C6.43821 21.6001 6.50087 21.6323 6.5107 21.634C6.52188 21.6358 6.54294 21.6609 6.60601 21.6179C6.6682 21.5759 6.66553 21.5401 6.66553 21.5401C6.66553 21.5401 6.70224 21.4971 6.54742 21.5105Z" fill="white"/>
<path d="M8.08327 21.4604C8.08327 21.4604 8.08234 21.4255 8.01566 21.4301C7.94765 21.4337 7.93333 21.4461 7.93153 21.4569C7.92932 21.4667 7.93514 21.4838 7.99553 21.4891C8.05685 21.4927 8.08146 21.489 8.08327 21.4604Z" fill="white"/>
<path d="M9.53551 21.5025C9.41333 21.5016 9.45184 21.5052 9.37667 21.5088C9.24018 21.5159 9.16588 21.5105 9.03119 21.5016C8.84227 21.489 8.55008 21.4425 8.55008 21.4425C8.55008 21.4425 8.51337 21.4336 8.49859 21.4577C8.48515 21.4801 8.53437 21.532 8.57824 21.5455C8.81766 21.6198 8.83064 21.6073 8.99354 21.6099C9.08442 21.6108 9.13499 21.6018 9.2254 21.5964C9.33996 21.5876 9.3932 21.6054 9.51805 21.5723C9.55069 21.5642 9.58205 21.5034 9.53551 21.5025Z" fill="white"/>
<path d="M10.3537 21.2599C10.3537 21.2599 10.3291 21.2314 10.2784 21.2564C10.2284 21.2805 10.1979 21.3351 10.1979 21.3351C10.1979 21.3351 10.1742 21.3727 10.2248 21.3674C10.274 21.3602 10.3183 21.3388 10.3299 21.3316C10.3429 21.3243 10.3796 21.2904 10.3537 21.2599Z" fill="white"/>
<path d="M9.64154 11.4406C9.64154 11.4406 9.98703 11.1171 10.2345 10.6893C10.3812 10.4342 10.4452 9.84029 10.3191 9.98796C10.2622 10.0556 10.1933 10.3635 10.0841 10.5916C9.92832 10.9165 9.59581 11.3766 9.59581 11.3766C9.59581 11.3766 9.52431 11.5297 9.64154 11.4406Z" fill="white"/>
<path d="M8.26052 12.2628C8.26052 12.2628 8.2238 12.2914 8.24038 12.3371C8.25784 12.3836 8.32812 12.3487 8.32812 12.3487C8.32812 12.3487 8.48789 12.2883 8.65528 12.2821C8.82308 12.2749 9.0558 12.325 9.0558 12.325C9.0558 12.325 9.16676 12.3554 9.18514 12.3626C9.20347 12.3702 9.26392 12.3993 9.27422 12.4028C9.28318 12.4069 9.34089 12.4351 9.37313 12.406C9.40536 12.3764 9.17129 12.1639 8.93234 12.1317C8.53444 12.0775 8.27314 12.2489 8.27314 12.2489L8.26052 12.2628Z" fill="white"/>
<path d="M6.62163 13.664C6.64979 13.6882 6.78274 13.4349 6.89369 13.2746C6.97515 13.1574 7.1238 12.9614 7.1238 12.9614C7.1238 12.9614 7.19088 12.8714 7.07726 12.9216C7.03118 12.9422 6.90498 13.0384 6.8159 13.2152C6.74067 13.3655 6.59208 13.6403 6.62163 13.664Z" fill="white"/>
<path d="M5.70241 12.5635C5.70241 12.5635 5.67373 12.6615 5.78834 12.7841C5.90378 12.9072 5.93333 13.0088 6.00676 12.9354C6.02689 12.9153 5.93514 12.7497 5.88859 12.7036C5.84071 12.6579 5.80667 12.6203 5.80667 12.6203L5.77671 12.5957L5.73819 12.5743L5.71626 12.5654C5.71626 12.5654 5.71044 12.5599 5.70241 12.5635Z" fill="white"/>
<path d="M5.33001 11.6237C5.33001 11.6237 5.20561 11.647 5.17518 11.7073C5.14429 11.7678 5.31837 11.7311 5.31837 11.7311C5.31837 11.7311 5.4338 11.7373 5.43654 11.6935C5.43921 11.6488 5.42182 11.6443 5.33001 11.6237Z" fill="white"/>
<path d="M3.35326 14.8996C3.28972 14.8813 3.27902 15.0062 3.27047 15.0464C3.26331 15.0867 3.29915 15.1672 3.31387 15.1672C3.32818 15.1663 3.37874 15.0876 3.38142 15.0491C3.38415 15.0097 3.40923 14.9171 3.35326 14.8996Z" fill="white"/>
<path d="M5.40623 17.3396C5.40623 17.3396 5.29255 17.2496 5.27509 17.2854C5.2581 17.3212 5.36865 17.4792 5.36865 17.4792C5.36865 17.4792 5.40262 17.5311 5.45499 17.5078C5.50642 17.4828 5.48809 17.4255 5.48809 17.4255C5.48809 17.4255 5.45319 17.3521 5.40623 17.3396Z" fill="white"/>
<path d="M4.54913 14.7009C4.54913 14.7009 4.52004 14.6934 4.50974 14.7282C4.49897 14.7631 4.49991 14.82 4.49228 14.8888C4.48606 14.9426 4.50619 15.0858 4.50619 15.0858C4.50619 15.0858 4.51736 15.1995 4.54017 15.2671C4.56478 15.3413 4.63012 15.447 4.63012 15.447C4.63012 15.447 4.65473 15.5011 4.68516 15.4985C4.71512 15.4953 4.70796 15.46 4.70796 15.46C4.70796 15.46 4.61266 15.0823 4.60999 15.0438C4.59876 14.918 4.59876 14.765 4.59876 14.765L4.59788 14.7421C4.59788 14.7421 4.59695 14.7018 4.54913 14.7009Z" fill="white"/>
<path d="M4.69768 13.5486C4.69768 13.5486 4.64532 13.5387 4.59703 13.6394C4.54827 13.7414 4.55857 13.7826 4.56299 13.7871C4.5666 13.7916 4.60506 13.7907 4.66685 13.6963C4.72817 13.6027 4.71427 13.5669 4.71427 13.5669C4.71427 13.5669 4.71066 13.5486 4.69768 13.5486Z" fill="white"/>
<path d="M6.13787 14.5926C6.13787 14.5926 6.20094 14.687 6.08015 14.6651C5.9589 14.6432 5.70424 14.4422 5.60039 14.3881C5.49787 14.334 5.32914 14.3169 5.39989 14.2534C5.41287 14.2427 5.41642 14.2323 5.43655 14.2315C5.45761 14.2306 5.52743 14.2579 5.53185 14.261C5.53546 14.2627 5.71489 14.337 5.72158 14.3389C5.72786 14.3415 5.82858 14.3845 5.90014 14.4265C5.97176 14.469 6.08807 14.5505 6.08807 14.5505L6.13787 14.5926Z" fill="white"/>
<path d="M9.49478 17.4828C9.52789 17.5866 9.11258 17.2635 8.89016 17.0921C8.30077 16.6383 7.57932 15.7079 7.66927 15.6255C7.74357 15.5579 8.03936 15.984 8.47305 16.4534C8.9367 16.9538 9.47552 17.421 9.49478 17.4828Z" fill="white"/>
<path d="M11.2286 17.0379C11.0997 17.1753 11.0541 17.3512 11.1283 17.4828C11.2008 17.6107 11.2232 17.2957 11.3038 17.203C11.3736 17.122 11.4165 17.135 11.5311 17.0536C11.7262 16.9162 11.3915 16.863 11.2286 17.0379Z" fill="white"/>
<path d="M10.491 14.1012C10.4024 14.0869 10.405 14.2216 10.4175 14.317C10.4767 14.7439 10.6683 15.0728 10.9241 15.3825C11.0799 15.5714 11.5069 15.9079 11.5561 15.8538C11.574 15.8345 11.1497 15.5065 10.8794 15.085C10.6879 14.786 10.5858 14.5332 10.5617 14.2865C10.559 14.2552 10.5661 14.1133 10.491 14.1012Z" fill="white"/>
<path d="M8.83777 7.77356C8.64531 7.87782 8.31146 7.96963 8.31146 7.96963C8.31146 7.96963 8.29622 8.00273 8.33921 7.99919C8.62524 7.97632 8.73439 7.94054 8.88659 7.8734C9.03873 7.80765 9.14928 7.62502 9.14928 7.62502C9.14928 7.62502 9.21107 7.51133 9.09651 7.60489C9.06067 7.63351 8.94337 7.71584 8.83777 7.77356Z" fill="white"/>
<path d="M11.1597 7.04012C11.1597 7.04012 11.0943 7.02575 11.0505 7.05309C11.0066 7.08084 11.0191 7.10278 11.0191 7.10278C11.0191 7.10278 11.0872 7.15468 11.1355 7.16323C11.1838 7.17039 11.2876 7.21559 11.2841 7.18068C11.2796 7.1449 11.2215 7.0809 11.2008 7.06345C11.1821 7.045 11.1597 7.04012 11.1597 7.04012Z" fill="white"/>
<path d="M10.0667 9.04506C10.0779 9.06787 10.273 9.01463 10.3482 8.97251C10.4069 8.9394 10.4301 8.82839 10.4301 8.82839C10.4301 8.82839 10.4462 8.72099 10.4212 8.76259C10.3097 8.94482 10.0559 9.02173 10.0667 9.04506Z" fill="white"/>
<path d="M10.0605 8.54423C10.1393 8.39296 9.8443 8.70132 9.69396 8.78097C9.60221 8.82932 9.45274 8.89373 9.45274 8.89373C9.45274 8.89373 9.41335 8.94295 9.46839 8.93847C9.52343 8.93487 9.66353 8.98234 9.77722 8.8946C9.8041 8.87313 9.92221 8.70127 9.92221 8.70127C9.92221 8.70127 10.0229 8.6158 10.0605 8.54423Z" fill="white"/>
<path d="M10.0148 9.18778C10.0211 9.21239 10.3518 9.20431 10.4346 9.17929C10.5 9.16137 10.5357 9.04593 10.5357 9.04593C10.5357 9.04593 10.5751 8.94481 10.5411 8.97879C10.3912 9.13187 10.0091 9.16317 10.0148 9.18778Z" fill="white"/>
<path d="M4.70307 12.2171C4.70307 12.2171 4.65298 12.1988 4.59078 12.2923C4.52899 12.3854 4.25065 12.8083 4.29987 12.8705C4.35846 12.9439 4.59968 12.4928 4.67316 12.4087C4.7474 12.3232 4.71698 12.2373 4.71698 12.2373C4.71698 12.2373 4.7161 12.218 4.70307 12.2171Z" fill="white"/>
<path d="M10.7666 19.8422C10.7362 19.9827 10.772 20.2701 10.8204 20.3264C10.9385 20.4687 10.866 20.1036 10.883 19.9755C10.8973 19.8565 10.9116 19.8153 10.9707 19.6882C11.0763 19.4591 10.8285 19.5432 10.7666 19.8422Z" fill="white"/>
<path d="M9.7508 7.62147C9.7508 7.62147 9.6591 7.62414 9.58748 7.66353C9.51499 7.70292 9.49707 7.75889 9.49707 7.75889C9.49707 7.75889 9.48229 7.79916 9.49218 7.82109C9.51318 7.86897 9.61256 7.79648 9.68191 7.82016C9.73782 7.84029 9.7647 7.85687 9.80764 7.9083C9.84523 7.9531 9.91103 8.01751 9.95222 7.9808C9.99469 7.94502 9.9791 7.85326 9.9791 7.85326C9.9791 7.85326 9.93029 7.7038 9.86635 7.66173C9.80182 7.61879 9.7508 7.62147 9.7508 7.62147Z" fill="white"/>
<path d="M8.22653 8.6727C8.22653 8.6727 8.17504 8.68073 8.18714 8.74339C8.19925 8.80471 8.23282 8.79529 8.23282 8.79529C8.23282 8.79529 8.33935 8.74961 8.33306 8.68567C8.32544 8.62121 8.22653 8.6727 8.22653 8.6727Z" fill="white"/>
<path d="M7.48226 8.33885C7.48226 8.33885 7.42635 8.34112 7.38696 8.41042C7.3485 8.47936 7.32563 8.55098 7.32563 8.55098C7.32563 8.55098 7.3073 8.6414 7.33948 8.67002C7.37218 8.69818 7.40796 8.61143 7.45491 8.5774C7.48307 8.55727 7.50058 8.54831 7.52968 8.52771C7.56953 8.50036 7.6344 8.53527 7.62992 8.45475C7.62416 8.3737 7.53823 8.33524 7.48226 8.33885Z" fill="white"/>
<path d="M9.88724 7.47287C9.88724 7.47287 9.76063 7.45455 9.76552 7.5033C9.77 7.54892 9.83406 7.52163 9.87519 7.54002C9.91545 7.55834 9.94233 7.5655 9.97451 7.59506C9.99825 7.61606 9.99551 7.65725 10.0247 7.65812C10.0649 7.65906 10.0569 7.64247 10.0569 7.64247C10.0569 7.64247 10.0202 7.53327 9.97236 7.50243C9.92488 7.47107 9.88724 7.47287 9.88724 7.47287Z" fill="white"/>
<path d="M11.3002 7.98348C11.2822 8.05242 11.2715 8.0761 11.2715 8.0761C11.2715 8.0761 11.2358 8.2162 11.3771 8.16471C11.5186 8.11276 11.4452 8.13469 11.5471 8.08506C11.6475 8.03584 11.6456 8.06313 11.7191 8.06673C11.7441 8.06761 11.7602 8.06848 11.7979 8.06138C11.83 8.05417 11.8166 8.01658 11.745 7.99732C11.6681 7.97719 11.5741 7.98167 11.4649 7.98074C11.4005 7.97993 11.319 7.91459 11.3002 7.98348Z" fill="white"/>
<path d="M11.3628 7.46572C11.3628 7.46572 11.2983 7.45094 11.2536 7.47869C11.2097 7.50598 11.2231 7.52791 11.2231 7.52791C11.2231 7.52791 11.2903 7.58121 11.3395 7.58836C11.3878 7.59686 11.4916 7.6416 11.4881 7.60582C11.4827 7.57091 11.4254 7.50603 11.4048 7.48858C11.3843 7.47107 11.3628 7.46572 11.3628 7.46572Z" fill="white"/>
<path d="M11.6117 8.43822C11.6117 8.43822 11.5427 8.42432 11.4953 8.45073C11.4487 8.47668 11.4612 8.49774 11.4612 8.49774C11.4612 8.49774 11.5347 8.54702 11.5866 8.55459C11.6385 8.56174 11.7495 8.60381 11.745 8.57024C11.7406 8.53713 11.6779 8.47581 11.6573 8.45929C11.6367 8.44265 11.6117 8.43822 11.6117 8.43822Z" fill="white"/>
<path d="M11.6331 8.79081C11.6331 8.79081 11.5596 8.77428 11.5095 8.80471C11.4594 8.83468 11.4746 8.85888 11.4746 8.85888C11.4746 8.85888 11.5507 8.91659 11.6062 8.92468C11.6608 8.93318 11.779 8.98153 11.7736 8.94301C11.7691 8.90455 11.7029 8.83473 11.6796 8.81594C11.6581 8.79616 11.6331 8.79081 11.6331 8.79081Z" fill="white"/>
<path d="M11.6662 9.13454C11.6662 9.13454 11.5865 9.11622 11.5328 9.15019C11.4782 9.18417 11.4952 9.21152 11.4952 9.21152C11.4952 9.21152 11.5775 9.27593 11.6366 9.28582C11.6966 9.29524 11.8245 9.35022 11.8193 9.30682C11.8138 9.26388 11.7422 9.18417 11.7172 9.16317C11.6939 9.14077 11.6662 9.13454 11.6662 9.13454Z" fill="white"/>
<path d="M11.6591 9.55968C11.6591 9.55968 11.5794 9.54269 11.5257 9.57626C11.4711 9.60937 11.4863 9.63665 11.4863 9.63665C11.4863 9.63665 11.5704 9.70106 11.6295 9.71095C11.6886 9.72038 11.8166 9.77542 11.8112 9.73242C11.805 9.68902 11.7342 9.60937 11.7101 9.58831C11.685 9.56643 11.6591 9.55968 11.6591 9.55968Z" fill="white"/>
<path d="M11.6009 10.3885C11.6009 10.3885 11.5203 10.3711 11.4666 10.4051C11.4129 10.4387 11.429 10.4656 11.429 10.4656C11.429 10.4656 11.5114 10.5304 11.5705 10.5399C11.6305 10.5488 11.7585 10.6047 11.7531 10.5609C11.7477 10.5179 11.6762 10.4387 11.651 10.4168C11.6268 10.3948 11.6009 10.3885 11.6009 10.3885Z" fill="white"/>
<path d="M11.6546 9.97411C11.6546 9.97411 11.5632 9.9531 11.4988 9.99244C11.437 10.0309 11.4558 10.0623 11.4558 10.0623C11.4558 10.0623 11.5516 10.1374 11.6205 10.1482C11.6886 10.1594 11.8372 10.2225 11.8317 10.1733C11.8246 10.1227 11.7422 10.031 11.7136 10.0063C11.685 9.98126 11.6546 9.97411 11.6546 9.97411Z" fill="white"/>
<path d="M11.5614 10.7636C11.5614 10.7636 11.4952 10.7479 11.4505 10.7761C11.4057 10.8038 11.42 10.8258 11.42 10.8258C11.42 10.8258 11.4881 10.8799 11.5364 10.8871C11.5856 10.8952 11.6904 10.9403 11.6867 10.9046C11.6814 10.8687 11.6232 10.8038 11.6027 10.7864C11.583 10.7681 11.5614 10.7636 11.5614 10.7636Z" fill="white"/>
<path d="M11.4988 11.1224C11.4988 11.1224 11.4451 11.1108 11.4075 11.1337C11.3718 11.1565 11.3825 11.1748 11.3825 11.1748C11.3825 11.1748 11.4388 11.2187 11.4792 11.2254C11.5194 11.2316 11.608 11.2702 11.6044 11.2397C11.6008 11.2106 11.5507 11.1565 11.5346 11.1417C11.5176 11.1269 11.4988 11.1224 11.4988 11.1224Z" fill="white"/>
<path d="M11.4219 11.4501C11.4219 11.4501 11.3735 11.4389 11.3395 11.4599C11.3072 11.48 11.3162 11.4975 11.3162 11.4975C11.3162 11.4975 11.3672 11.5369 11.4039 11.5423C11.4407 11.549 11.5194 11.5825 11.5159 11.5561C11.5132 11.5297 11.4693 11.48 11.454 11.4671C11.4388 11.4537 11.4219 11.4501 11.4219 11.4501Z" fill="white"/>
<path d="M11.3449 11.7186C11.3449 11.7186 11.2948 11.7073 11.2626 11.7275C11.2285 11.7485 11.2384 11.7651 11.2384 11.7651C11.2384 11.7651 11.2894 11.8053 11.3261 11.8107C11.3628 11.8166 11.4416 11.851 11.438 11.8238C11.4353 11.7974 11.3915 11.7486 11.3754 11.7356C11.361 11.7222 11.3449 11.7186 11.3449 11.7186Z" fill="white"/>
<path d="M11.2509 12.0301C11.2509 12.0301 11.2115 12.0207 11.1838 12.0372C11.1569 12.0547 11.1659 12.0677 11.1659 12.0677C11.1659 12.0677 11.207 12.1 11.2366 12.1053C11.2661 12.1097 11.3305 12.1375 11.327 12.1151C11.3243 12.0941 11.2885 12.0547 11.2769 12.0435C11.2643 12.0328 11.2509 12.0301 11.2509 12.0301Z" fill="white"/>
<path d="M11.1391 12.3214C11.1391 12.3214 11.1051 12.3133 11.0818 12.3276C11.0586 12.3424 11.0657 12.3544 11.0657 12.3544C11.0657 12.3544 11.1015 12.3817 11.1266 12.3853C11.1517 12.3903 11.2071 12.414 11.2044 12.3948C11.2027 12.3764 11.1713 12.3424 11.1615 12.3334C11.1498 12.3241 11.1391 12.3214 11.1391 12.3214Z" fill="white"/>
<path d="M11.0236 12.5985C11.0236 12.5985 10.9886 12.5908 10.9654 12.6056C10.9429 12.6195 10.951 12.6311 10.951 12.6311C10.951 12.6311 10.985 12.6589 11.011 12.6633C11.0369 12.6669 11.0915 12.6906 11.0888 12.6728C11.0871 12.653 11.0557 12.6195 11.0459 12.6101C11.0352 12.6011 11.0236 12.5985 11.0236 12.5985Z" fill="white"/>
<path d="M3.53095 14.0077C3.53095 14.0077 3.47324 14.1196 3.50186 14.1809C3.53008 14.2427 3.60793 14.0829 3.60793 14.0829C3.60793 14.0829 3.68845 13.9236 3.65581 13.8945C3.62271 13.865 3.60351 13.9473 3.53095 14.0077Z" fill="white"/>
<path d="M11.6778 28.3766V28.1591C11.6778 27.665 11.9275 27.5683 12.657 27.5648C13.3283 27.5683 13.5655 27.6525 13.5655 28.0785V29.7228H13.8134V30.0933H12.1737C11.8282 30.0933 11.6027 29.8561 11.6027 29.5643V29.2313C11.6027 28.944 11.7494 28.6934 12.2632 28.6907H12.9041V28.1903C12.9041 27.929 12.8862 27.8977 12.624 27.8977H12.6213C12.3071 27.8977 12.2865 27.9389 12.2865 28.1903V28.3765H11.6778M12.4387 28.9665C12.3098 28.9665 12.2337 29.0703 12.2337 29.1991V29.5169C12.2337 29.6449 12.2883 29.7469 12.4387 29.7487H12.6696C12.7967 29.7487 12.9006 29.7093 12.9006 29.5169L12.9023 28.9665H12.6839C12.6786 28.9665 12.4387 28.9665 12.4387 28.9665Z" fill="black"/>
<path d="M10.1182 28.1841V27.6095H9.20349V27.9514H9.44739V29.7218H9.20349V30.0933H10.3492V29.7218H10.1182V28.7731C10.1182 28.6846 10.6575 28.0034 10.6575 28.0821V29.0246H11.2913V27.964C11.2913 27.7214 11.1328 27.5649 10.8437 27.5649C10.5 27.5648 10.2677 27.9971 10.1182 28.1841Z" fill="black"/>
<path d="M17.4099 29.7201V27.6095H16.4763V27.9514H16.7377V29.7201H16.4763V30.0933H17.6551V29.7201H17.4099Z" fill="black"/>
<path d="M7.76471 28.1841V27.6095H6.84998V27.9514H7.09387V29.7218H6.84998V30.0933H7.99476V29.7218H7.76471V28.7731C7.76471 28.6846 8.30353 28.0034 8.30353 28.0821V29.0246H8.93678V27.964C8.93678 27.7214 8.77923 27.5649 8.48971 27.5649C8.14685 27.5648 7.91418 27.9971 7.76471 28.1841Z" fill="black"/>
<path fill-rule="evenodd" clip-rule="evenodd" d="M6.49986 29.2797H5.85811V29.4659C5.85811 29.7183 5.81605 29.729 5.5032 29.7326H5.49873C5.14021 29.7344 5.1604 29.6986 5.16441 29.4659V29.0246H6.4998V28.066C6.4998 27.7186 6.23758 27.5728 5.54568 27.5702H5.44636C4.69942 27.5737 4.50073 27.7438 4.50073 28.1734V29.5768C4.50073 30.0494 4.77995 30.1291 5.46021 30.1479H5.53445C6.27696 30.1309 6.4998 30.0798 6.4998 29.6386V29.2797M5.17163 28.1018C5.17163 27.9711 5.21102 27.9066 5.36048 27.9048H5.64197C5.75833 27.9048 5.8232 27.9568 5.8232 28.0498V28.7686H5.17157V28.1018H5.17163Z" fill="black"/>
<path d="M17.0715 27.0993V26.65" stroke="black" stroke-width="0.74" stroke-miterlimit="10"/>
<path d="M14.9771 28.1841V27.6095H14.0614V27.9514H14.3049V29.7218H14.0614V30.0933H15.2071V29.7218H14.9771V28.7731C14.9771 28.6846 15.515 28.0034 15.515 28.0821V29.0246H16.1496V27.964C16.1496 27.7214 15.9902 27.5649 15.7002 27.5649C15.3583 27.5648 15.1255 27.9971 14.9771 28.1841Z" fill="black"/>
<path d="M3.70056 28.8859V28.5547H3.34391V29.7228H3.96192V30.0933H2.1499V29.7228H2.63188V27.0993H2.25329V26.6482H16.367V27.0993H3.34391V28.1528H3.70056V27.8413H4.11098V28.8859H3.70056Z" fill="black"/>
<path d="M17.4008 26.6321H16.7278V27.0761H17.4008V26.6321Z" fill="black"/>
</g>
<defs>
<clipPath id="clip0_601_1005">
<rect width="20.0145" height="32" fill="white"/>
</clipPath>
</defs>
</svg>
