<svg width="32" height="20" viewBox="0 0 32 20" fill="none" xmlns="http://www.w3.org/2000/svg">
<path d="M1.62975 19.4487C0.889497 19.3345 0.440577 19.062 0.259174 18.5572L0.162659 18.2886L0.0162354 16.9308V15.5332L0.672971 15.5229C1.25747 15.5138 1.33489 15.5197 1.3768 15.5766C1.41228 15.6248 1.4239 15.9392 1.4239 16.8516C1.4239 17.9964 1.42811 18.0714 1.50086 18.2206C1.54319 18.3074 1.63611 18.4226 1.70733 18.4765C1.98271 18.6851 1.95754 18.6826 3.81572 18.6824H5.53428L5.67803 18.4044C5.75903 18.2477 5.92702 18.0135 6.0628 17.8679C6.19534 17.7257 6.3038 17.5999 6.3038 17.5882C6.3038 17.5766 6.11376 17.5623 5.8815 17.5565L5.4592 17.546L5.46783 17.403C5.48794 17.0702 5.92885 16.4362 6.3796 16.0918C6.50396 15.9968 6.72782 15.8631 6.87705 15.7946C7.39974 15.5548 7.44785 15.5518 10.728 15.553L13.6799 15.554L14.5722 16.2052C15.0629 16.5634 15.4825 16.8564 15.5046 16.8564C15.5547 16.8564 16.9152 16.0202 17.3206 15.7403L17.6203 15.5333L18.7654 15.5366C19.935 15.5399 19.9072 15.539 19.9577 15.5658C20.0312 15.6049 20.005 15.6273 20.005 16.8776C20.005 17.9503 20.0146 18.1861 20.0628 18.3006C20.1376 18.4784 20.2149 18.5607 20.3992 18.6588C20.5436 18.7356 20.6021 18.7391 21.935 18.7505C22.6971 18.757 23.3599 18.7525 23.4079 18.7406L23.4952 18.7188L23.505 17.1633L23.5148 15.6079H24.2093H24.9037L24.9225 17.1546L24.9412 18.7014L27.4603 18.711L29.9793 18.7206L30.0831 18.6395C30.1401 18.5949 30.2104 18.5026 30.2391 18.4342C30.2838 18.3281 30.2838 18.292 30.2391 18.1859C30.2104 18.1176 30.1403 18.0253 30.0834 17.9809L29.9799 17.9001H27.681C25.684 17.9001 25.376 17.8927 25.3354 17.8442C25.2754 17.7723 25.3374 17.3262 25.4485 17.0314C25.5344 16.8036 25.7471 16.4608 25.9333 16.2502C26.1161 16.0435 26.5623 15.7634 26.8576 15.6699C27.1161 15.5881 27.1378 15.5874 29.2769 15.5976L31.4353 15.6079L31.4462 15.9402C31.4541 16.1809 31.4438 16.2809 31.4087 16.303C31.382 16.3198 30.5191 16.3338 29.4912 16.3341C27.7158 16.3347 27.615 16.3383 27.4794 16.407C27.2358 16.5304 26.9494 16.9288 27.0035 17.0688C27.0185 17.1078 27.3815 17.1174 28.8421 17.1174C30.0467 17.1174 30.7293 17.1315 30.861 17.1593C31.1552 17.2213 31.3846 17.3508 31.5774 17.5637C31.8 17.8095 31.8795 18.0435 31.8605 18.3967C31.8296 18.9691 31.4529 19.3663 30.8486 19.4636C30.5067 19.5187 20.1688 19.5171 19.8106 19.4619C19.188 19.366 18.8707 19.1808 18.6841 18.8045L18.5598 18.5542L18.5411 17.2704C18.5288 16.4338 18.5088 15.9822 18.4834 15.9739C18.3935 15.9442 16.2513 17.3086 16.2513 17.3954L18.9212 19.5496C18.9212 19.5714 18.4533 19.4655 17.8407 19.4655H16.84L15.9488 18.8319C15.4587 18.4834 15.0341 18.1982 15.0053 18.1982C14.9538 18.1982 13.4592 19.0983 13.0662 19.3659L12.8653 19.5027L7.398 19.499C3.23441 19.4962 1.8589 19.4843 1.62975 19.4489V19.4487ZM12.3177 18.8665C12.4476 18.7831 12.9254 18.4846 13.3796 18.2031C13.8338 17.9215 14.2055 17.6719 14.2055 17.6483C14.2055 17.6092 12.3017 16.1373 11.986 15.8586C11.8717 15.7577 11.7321 16.042 11.7982 16.1521L11.6409 16.3292L9.90741 16.3345C8.0164 16.3403 7.97094 16.3549 7.82407 16.4336C7.60282 16.5521 7.10194 16.9987 7.10194 17.1362C7.10194 17.1988 7.505 17.1758 9.4312 17.1764C10.5512 17.177 11.5027 17.1741 11.5027 17.1741C11.496 17.2074 11.5003 17.5809 11.5003 17.5809L11.5027 17.844L9.776 17.8627C7.91409 17.8828 8.00667 17.8724 7.7228 18.0933C7.56858 18.2133 7.24011 18.6573 7.29687 18.7137L11.9532 18.7013L11.9647 19.0727C11.9732 19.3438 12.0159 19.0602 12.3176 18.8665L12.3177 18.8665Z" fill="url(#paint0_linear_601_1152)"/>
<path d="M0.029541 15.5073V15.8602H1.50293V15.5073H0.029541ZM23.3044 15.5282V15.8823H24.9187V15.5282H23.3044ZM17.6275 15.5294L17.4959 15.6214H18.0223C18.196 15.6172 18.3153 15.6267 18.4032 15.6424L18.402 15.8882H19.9499V15.5306L19.2697 15.5399C18.6395 15.5353 18.1934 15.5322 17.6275 15.5294H17.6275ZM11.3635 15.5504C11.0501 15.551 10.6872 15.5524 10.2687 15.5539C7.67847 15.5632 7.46913 15.568 7.38365 15.6284C7.38365 15.6549 7.26504 15.7039 7.56069 15.6832C7.6045 15.6801 7.62425 15.6879 7.68765 15.6808C8.09891 15.6874 8.75879 15.6739 10.1872 15.6739C11.7907 15.6739 13.1226 15.6811 13.1223 15.6657C13.1213 15.6161 13.2093 15.5871 13.0128 15.5702C12.7984 15.5517 12.3037 15.5484 11.3635 15.5504V15.5504ZM30.0517 15.5807C29.8069 15.5813 29.5235 15.5827 29.1967 15.5842C27.174 15.5935 27.0097 15.5994 26.943 15.6599C26.943 15.6864 26.8507 15.7342 27.0816 15.7135C27.1158 15.7104 27.1311 15.7194 27.1806 15.7123C27.5018 15.7189 28.0172 15.7053 29.1327 15.7053C30.3849 15.7053 31.4251 15.7125 31.4249 15.6972C31.4241 15.6476 31.4922 15.6186 31.3387 15.6017C31.1713 15.5832 30.7859 15.5787 30.0517 15.5807V15.5807Z" fill="url(#paint1_linear_601_1152)"/>
<path d="M26.589 17.146C26.4949 16.9934 26.815 16.5644 27.1713 16.3666C27.5744 16.1427 27.7328 16.1275 29.6567 16.1269L31.4545 16.1483L31.4824 16.4405C31.3886 16.445 31.0326 16.4463 29.6202 16.4477C27.5456 16.4498 27.5225 16.4522 27.237 16.6871C27.1454 16.7626 27.0511 16.879 27.0231 16.9514C27.0038 17.0012 27.0046 17.0433 26.9721 17.0741C26.8891 17.1165 26.7917 17.1558 26.7151 17.176C26.6805 17.1849 26.6452 17.2092 26.6242 17.1985C26.6096 17.191 26.6185 17.191 26.6054 17.1731L26.589 17.146Z" fill="url(#paint2_linear_601_1152)"/>
<path d="M6.58088 17.4157C6.58023 17.3759 6.60822 17.2616 6.64616 17.1485C6.74393 16.8569 6.98938 16.5766 7.31202 16.388C7.69995 16.1612 7.80581 16.1516 9.92974 16.1495C11.1064 16.1483 11.7933 16.1495 11.7933 16.1495C11.7933 16.1495 11.7933 16.2449 11.7933 16.3178C11.7933 16.3834 11.7933 16.4945 11.7933 16.4945C11.702 16.4835 11.0598 16.497 9.94574 16.497C8.00001 16.497 7.90738 16.4909 7.63081 16.6606C7.56264 16.7024 7.43915 16.8101 7.36358 16.8964C7.26304 17.0112 7.16385 17.1143 7.11401 17.2301C7.02406 17.3099 6.90875 17.3122 6.82295 17.3517C6.64871 17.4319 6.57532 17.4475 6.57532 17.4475L6.58088 17.4157Z" fill="url(#paint3_linear_601_1152)"/>
<path d="M30.1866 18.4774C30.2392 18.2679 29.975 17.99 29.6781 17.9231C29.6049 17.9066 28.6407 17.9018 27.5355 17.9125C26.4302 17.9232 25.4664 17.9076 25.3907 17.9066C25.3113 17.9055 25.2801 17.9123 25.2651 17.8947C25.2356 17.8603 25.3054 17.7767 25.4432 17.6712L25.6016 17.5501L27.5461 17.5521C29.6944 17.5543 30.0003 17.5711 30.1763 17.6965C30.4762 17.91 30.5976 18.2567 30.4418 18.4542C30.3395 18.5838 30.0541 18.7625 29.9904 18.7231C30.1489 18.5934 30.1397 18.5991 30.1866 18.4774Z" fill="url(#paint4_linear_601_1152)"/>
<path d="M23.4677 18.8014C23.4065 18.7666 23.3158 18.7693 23.3025 18.7345C23.2892 18.6998 23.2849 17.938 23.2849 17.0986C23.2849 16.0267 23.2823 15.6914 23.2728 15.5183C23.3254 15.5157 23.4497 15.5729 23.5554 15.6786L23.726 15.8868L23.7148 18.7308C23.7144 18.7895 23.7211 18.8494 23.7133 18.9081C23.6062 18.8618 23.5413 18.8334 23.4677 18.8014H23.4677Z" fill="url(#paint5_linear_601_1152)"/>
<path d="M6.74544 18.8802C6.74544 18.8802 6.72531 18.6733 6.80173 18.4694C6.88331 18.2517 7.18748 17.9402 7.42533 17.8307C7.79191 17.6619 7.8716 17.6557 9.6876 17.6553C10.9471 17.6546 11.4964 17.6647 11.4964 17.6647L11.5087 17.9973C11.5087 17.9973 10.8335 17.9986 9.77598 17.9986C8.75998 17.9986 8.08126 18.0124 7.99535 18.0344C7.72443 18.1038 7.43565 18.3842 7.32771 18.6827C7.30996 18.7318 6.80997 18.8754 6.76897 18.8932L6.74544 18.8802Z" fill="url(#paint6_linear_601_1152)"/>
<path d="M19.9864 19.5199C19.6763 19.4802 19.1459 19.299 18.957 19.1682C18.818 19.072 18.6366 18.8659 18.5535 18.7098C18.448 18.5116 18.405 18.0534 18.4037 17.1143C18.403 16.5979 18.4069 16.1572 18.3894 16.1464C18.3719 16.1356 17.9527 16.3768 17.4809 16.671C16.598 17.2214 16.3447 17.391 16.1733 17.47L15.4833 17.4734C15.5726 17.3899 18.186 15.7281 18.3238 15.6706C18.4184 15.6311 18.3566 15.6209 18.4018 15.6467C18.4685 15.6849 18.6887 15.767 18.7153 15.8292C18.7625 15.9393 18.7258 16.1656 18.7397 16.943C18.7642 18.3085 18.7792 18.3832 19.0912 18.6878C19.2222 18.8157 19.3749 18.9171 19.5444 18.9887C19.5444 18.9887 19.7262 19.0435 19.8189 19.0639C19.8842 19.0783 20.0167 19.0972 20.0167 19.0972L25.164 19.1068L30.4414 19.11C30.4414 19.11 30.5658 19.0903 30.6251 19.0699C30.6704 19.0543 30.7115 19.0284 30.7547 19.0076C31.435 18.6803 31.6712 18.2369 31.4266 17.7461C31.3742 17.6409 31.2641 17.4941 31.1819 17.4199C31.0998 17.3457 30.9779 17.2295 30.9844 17.2106C31.0021 17.1585 31.4138 17.3753 31.5368 17.4981C31.8442 17.805 31.9744 18.4217 31.7732 18.8329C31.5665 19.2554 31.1479 19.4752 30.5602 19.5277C30.084 19.5703 20.3236 19.563 19.9864 19.5199V19.5199Z" fill="url(#paint7_linear_601_1152)"/>
<path d="M1.61163 19.5071C1.21417 19.4504 1.03229 19.388 0.763449 19.2161C0.503684 19.0499 0.30684 18.8196 0.167705 18.5191C0.143052 18.4659 0.114563 18.4141 0.095071 18.3588C0.0784607 18.3116 0.0663555 18.2628 0.0576793 18.2135C0.0404727 18.1159 0.0343597 18.0165 0.028905 17.9175C0.0119058 17.6089 0.0166727 16.9905 0.0166727 16.9905L0.00341443 15.6021C0.0030195 15.5608 0 15.5024 0 15.5024C0 15.5024 0.151304 15.5795 0.259798 15.673L0.460372 15.8458L0.461624 16.8106C0.463017 17.8843 0.48295 18.0086 0.649527 18.362C0.749731 18.5746 0.968557 18.7635 1.32185 18.9426C1.73732 19.1531 1.7278 19.1527 6.95986 19.1527H11.7579L11.9988 18.9757C12.1313 18.8783 12.645 18.5471 13.1404 18.2396C13.6358 17.9321 14.0413 17.6627 14.0414 17.6409C14.0419 17.5616 13.8155 17.3899 12.1313 16.1922C11.8068 15.9614 11.557 15.7948 11.4307 15.6796C11.5513 15.6826 11.8271 15.6866 11.9999 15.6867L12.2712 15.6869L13.0912 16.2708C13.5422 16.5919 14.0789 16.9745 14.2839 17.121C14.4888 17.2674 14.7697 17.4835 14.7428 17.5007L13.7062 18.1659C13.3908 18.3683 13.0446 18.5814 12.9421 18.6476C12.8396 18.7139 12.6342 18.8464 12.4856 18.9421C12.3369 19.0378 12.2054 19.156 12.2054 19.1764C12.2353 19.1945 12.3441 19.1899 12.5228 19.1897L12.8303 19.189L13.8827 18.5025C14.4616 18.125 14.9683 17.8055 15.0088 17.7927C15.1112 17.7602 15.1445 17.7806 16.1288 18.4812C16.6106 18.8241 17.0571 19.164 17.0981 19.1848C17.1391 19.2057 17.3551 19.1898 17.6011 19.2014C17.7794 19.2098 17.8758 19.1987 17.9956 19.219C18.6333 19.4517 18.0714 19.2489 18.9068 19.5553L16.742 19.5575C16.6272 19.4974 15.5654 18.732 15.2731 18.4946C15.139 18.3858 15.0057 18.2964 14.9768 18.296C14.9479 18.2953 14.7718 18.3997 14.5854 18.5274C14.3991 18.6551 13.9794 18.9402 13.6528 19.161L13.0589 19.5625L7.50298 19.5585C3.20148 19.5554 1.87133 19.5437 1.61163 19.5068V19.5071Z" fill="url(#paint8_linear_601_1152)"/>
<path d="M20.1144 18.6669C19.8743 18.6021 19.7078 18.4799 19.6397 18.3875C19.5956 18.3276 19.5934 18.3396 19.5823 18.306C19.5718 18.2745 19.5471 18.2203 19.5422 18.1875C19.4921 17.8545 19.4959 17.0654 19.4959 17.0654V15.9176L19.704 15.7322C19.8184 15.6303 19.9186 15.5403 19.9267 15.5323C19.9348 15.5242 19.9481 15.5295 19.9793 15.5554C20.0283 15.596 20.0079 15.8145 20.008 16.9587C20.008 18.4699 20.1285 18.5089 20.4493 18.6969C20.5885 18.7337 20.3081 18.7226 20.1144 18.6669ZM1.48542 18.5888C1.28025 18.539 1.1038 18.363 1.06744 18.2615L1.02034 18.1302C0.989409 17.3721 0.968018 16.6264 0.968018 15.8463L1.11564 15.6988C1.28089 15.5338 1.48939 15.5031 1.48939 15.5031C1.50317 15.5318 1.49897 16.1518 1.5044 16.8778C1.51622 18.4586 1.49318 18.3425 1.83221 18.5302C1.92844 18.5835 2.11617 18.6349 2.1055 18.6524C2.08273 18.6899 1.64875 18.6284 1.48542 18.5888ZM24.4157 17.3771V15.8714L24.5467 15.7565C24.6896 15.631 24.8969 15.5125 24.9247 15.5403C24.948 15.5636 24.9539 18.6451 24.9304 18.7063C24.9203 18.7325 24.8172 18.7829 24.7175 18.8183C24.5846 18.8655 24.431 18.9076 24.4338 18.8925C24.4137 18.9085 24.4157 18.3911 24.4157 17.3771H24.4157Z" fill="url(#paint9_linear_601_1152)"/>
<path d="M25.2527 17.8982C25.2539 17.7072 25.3699 17.1285 25.5299 16.801C25.7323 16.3868 26.0931 15.9889 26.424 15.8151C26.5509 15.7485 26.6745 15.6939 26.6987 15.6938C26.8333 15.6534 27.0409 15.6164 27.2184 15.6017C27.0869 15.6606 26.9767 15.6948 26.8252 15.7833C26.6195 15.8958 26.4362 15.9948 26.1522 16.3421C26.0509 16.466 25.9749 16.5723 25.8989 16.7854C25.7974 17.0701 25.7696 17.3618 25.7411 17.5454C25.6425 17.5992 25.6495 17.6241 25.2527 17.8982ZM5.34766 17.531C5.34766 17.3973 5.52587 16.9841 5.73685 16.6292C5.98049 16.2193 6.20361 16.0211 6.61675 15.8477C6.92133 15.7198 7.47389 15.5903 7.61611 15.5942C7.70187 15.5966 7.37977 15.7052 7.19895 15.7724C6.88122 15.8904 6.69259 16.0322 6.41626 16.3105C6.24513 16.4829 6.07398 16.7044 5.82893 17.3165L5.75238 17.5576L5.53338 17.5543C5.37701 17.5519 5.37428 17.5472 5.34766 17.531V17.531ZM12.8922 15.5533L13.6777 15.5523C14.7243 16.325 15.3148 16.7254 15.502 16.8601L15.0537 17.1374C14.051 16.4175 13.7635 16.1802 12.8922 15.5533V15.5533Z" fill="url(#paint10_linear_601_1152)"/>
<path d="M16.2065 17.9936L15.4993 17.4684H15.8617C16.0611 17.4684 16.2438 17.3885 16.2731 17.4143C16.2731 17.4143 16.8586 17.8903 18.918 19.5394C17.5901 19.1988 17.2077 18.7373 16.2065 17.9936Z" fill="url(#paint11_linear_601_1152)"/>
<path d="M5.59052 18.7184C5.52839 18.6748 5.53116 18.6573 5.63748 18.4203C5.7658 18.1343 6.22651 17.6223 6.41326 17.497C6.48537 17.4486 6.59765 17.3756 6.70014 17.3378C6.80264 17.2999 6.89962 17.2535 6.98664 17.2199C7.03894 17.1996 7.14298 17.1717 7.33273 17.1735L7.63193 17.1762L7.44557 17.2426C7.09288 17.3683 6.84927 17.5171 6.59376 17.763C6.30129 18.0443 6.12469 18.3012 5.98669 18.6459C5.93385 18.7779 5.88921 18.8832 5.87598 18.8913C5.76671 18.8889 5.6837 18.7826 5.59052 18.7185V18.7184Z" fill="url(#paint12_linear_601_1152)"/>
<path d="M14.5162 13.5134C13.1677 13.3718 11.9058 13.0113 10.666 12.4133C9.63271 11.9149 8.97615 11.4551 8.27556 10.7392C7.48986 9.93623 7.10666 9.34904 6.74746 8.39763C6.31813 7.26046 6.46728 5.73921 7.13804 4.41382C7.7029 3.2977 8.4116 2.51559 9.52369 1.78107C9.93727 1.50791 10.9625 0.981997 11.2319 0.904786C11.422 0.85032 11.1378 0.956967 10.8129 1.14485C10.6125 1.2559 10.4887 1.3244 10.3038 1.4341C9.87427 1.6959 9.7629 1.78862 9.31738 2.14779C8.09999 3.12925 7.34402 4.29339 7.07277 5.60431C6.98411 6.03277 6.98411 6.99279 7.07277 7.42125C7.39437 8.97552 8.32888 10.249 9.92272 11.305C10.8395 11.9123 11.9023 12.3596 13.1411 12.6595C14.1883 12.9129 14.5832 12.9535 15.997 12.9535C17.0275 12.9535 17.3618 12.9389 17.774 12.8756C19.0906 12.6735 20.4938 12.2182 21.4338 11.688C22.2029 11.2542 22.4585 11.103 22.5279 11.0412C22.5675 11.0058 22.745 10.9118 22.9224 10.8322C23.1348 10.7368 23.2858 10.6367 23.3653 10.5386C23.4835 10.3925 23.4915 10.3898 23.7925 10.3897C23.9728 10.3897 24.2491 10.129 24.2491 10.1539C23.8975 10.6557 23.3161 11.2136 22.9861 11.4676C22.4959 11.8457 22.1109 12.1043 21.4126 12.4364C20.2381 12.9951 19.2765 13.3214 17.7952 13.4995C16.7095 13.63 15.5542 13.6224 14.5162 13.5134Z" fill="url(#paint13_linear_601_1152)"/>
<path d="M14.4222 12.8472C13.6433 12.7643 12.5008 12.5163 11.8974 12.2992C11.4703 12.1455 10.5662 11.7503 10.3318 11.6149C10.0719 11.4647 9.43922 10.9941 9.07045 10.6767C8.59221 10.2651 7.82557 9.29887 7.89198 9.19142C7.91098 9.16068 8.25427 9.03287 8.31722 9.03287C8.32861 9.03287 8.39199 9.12741 8.46731 9.26146C8.80969 9.87077 9.31929 10.4177 9.88676 10.8803C10.6461 11.4994 11.1936 11.7731 12.3029 12.0882C14.5907 12.738 17.2526 12.7079 19.3816 12.008C20.213 11.7348 21.0544 11.2781 21.3708 10.9285C21.4566 10.8337 22.1373 10.5937 22.1851 10.6414C22.2452 10.7015 22.0853 10.9052 21.7553 11.1887C21.1674 11.6938 19.7049 12.3239 18.5339 12.5766C17.4803 12.804 17.1088 12.8419 15.821 12.8539C15.145 12.8601 14.5155 12.8571 14.4222 12.8472Z" fill="url(#paint14_linear_601_1152)"/>
<path d="M10.28 11.405C9.93715 11.296 9.7481 11.188 9.32629 10.8606C8.39916 10.1408 7.72897 9.22956 7.43311 8.28639C7.25835 7.72927 7.21859 7.36435 7.24474 6.55737C7.2648 5.93814 7.28523 5.77062 7.37996 5.44879C7.61602 4.64682 7.94339 4.03697 8.49069 3.37969C9.73091 1.89024 12.0476 0.766559 14.4059 0.510607C15.0588 0.43974 16.2789 0.433603 16.4667 0.500242C16.6596 0.56873 16.8614 0.792102 16.9263 1.00898C16.9692 1.15231 16.9636 1.19457 16.88 1.35866C16.8277 1.46132 16.7305 1.6124 16.6639 1.69439C16.5974 1.77638 16.4239 2.00082 16.2784 2.19316C16.1329 2.38549 15.7932 2.81466 15.5234 3.14688C15.2537 3.47909 14.8144 4.0561 14.5472 4.42911C14.0527 5.11958 12.9701 6.75751 12.754 7.14192C12.6885 7.25849 12.5719 7.44183 12.4949 7.54934C12.4179 7.65685 12.2859 7.89045 12.2015 8.06845C12.0602 8.36642 12.0493 8.41677 12.0637 8.70336C12.0834 9.09335 12.205 9.29617 12.5541 9.52132C13.0795 9.86021 12.602 9.83354 18.1466 9.83354H23.0924L23.5211 9.37149C23.8523 9.01455 23.9829 8.83759 24.0954 8.59369C24.2599 8.23718 24.4299 7.6805 24.5033 7.25797C24.5657 6.89944 24.5268 5.93898 24.4401 5.69368C24.2768 5.02976 23.9879 4.38082 23.6315 3.81449C22.9525 2.75395 21.9851 1.91172 20.5867 1.16372C20.3385 1.03095 19.7045 0.725009 19.7143 0.715132C19.7447 0.68466 20.6888 1.07905 21.1544 1.31101C22.3045 1.88396 23.2933 2.70415 23.9501 3.62983C24.4369 4.31592 24.8407 5.09669 25.0398 5.88359C25.1506 6.32143 25.1642 6.7025 25.1629 7.17944C25.1602 8.13137 24.9616 8.75647 24.496 9.66443C24.1694 10.3014 24.0947 10.3829 23.6 10.6433L23.0518 10.8418L18.172 10.872C13.1914 10.9029 13.1775 10.8718 12.6921 10.7781C11.6534 10.5777 11.2278 10.3302 10.9565 9.76873C10.8219 9.49018 10.7918 8.94929 10.8893 8.56031C11.1124 7.67015 12.6431 5.29856 14.7845 2.52519C15.1922 1.99707 15.5452 1.52874 15.5689 1.48446C15.6817 1.2733 15.5688 1.13351 15.247 1.08586C15.0226 1.05261 13.8783 1.23073 13.383 1.37601C12.1723 1.73112 11.7052 1.91198 11.1007 2.2596C10.191 2.78279 9.44494 3.42535 8.92708 4.13175C8.37477 4.88514 8.15518 5.35906 7.94638 6.24832C7.82292 6.77413 7.85154 7.59518 8.0137 8.17894C8.35169 9.39572 9.06926 10.3415 10.3118 11.2079C10.5038 11.3418 10.6609 11.4593 10.6609 11.469C10.6609 11.5034 10.5098 11.478 10.28 11.405Z" fill="url(#paint15_linear_601_1152)"/>
<path d="M10.3043 11.4135C9.96144 11.3045 9.77239 11.1966 9.35059 10.8692C8.42346 10.1494 7.75327 9.23815 7.45741 8.29498C7.28264 7.73786 7.24288 7.37294 7.26903 6.56597C7.28909 5.94673 7.30952 5.77921 7.40425 5.45738C7.64031 4.65541 7.96769 4.04556 8.51498 3.38828C9.7552 1.89883 12.0719 0.775149 14.4302 0.519198C15.0831 0.448331 16.3032 0.442194 16.491 0.508833C16.6839 0.57732 16.8857 0.800694 16.9506 1.01757C16.9935 1.1609 16.9879 1.20316 16.9043 1.36725C16.852 1.46991 16.7548 1.62099 16.6882 1.70298C16.6217 1.78497 16.4482 2.00942 16.3027 2.20175C16.1572 2.39408 15.8175 2.82326 15.5477 3.15547C15.2779 3.48769 14.8387 4.06469 14.5715 4.4377C14.077 5.12817 12.9944 6.7661 12.7783 7.15052C12.7128 7.26708 12.5962 7.45042 12.5192 7.55793C12.4422 7.66544 12.3102 7.89904 12.2258 8.07704C12.0845 8.37501 12.0736 8.42536 12.088 8.71195C12.1077 9.10194 12.2293 9.30476 12.5784 9.52991C13.1038 9.8688 12.6263 9.84213 18.1709 9.84213H23.1167L23.5454 9.38008C23.8766 9.02314 24.0072 8.84619 24.1197 8.60228C24.2842 8.24577 24.4542 7.68909 24.5276 7.26656C24.59 6.90803 24.5511 5.94757 24.4643 5.70227C24.3011 5.03835 23.9468 4.44757 23.5905 3.88124C22.9114 2.8207 22.0093 2.12909 20.611 1.38109C20.3628 1.24832 19.1345 0.589061 19.7386 0.723724C19.769 0.693252 20.7131 1.08764 21.1787 1.3196C22.3288 1.89255 23.3176 2.71274 23.9744 3.63842C24.4612 4.3245 24.865 5.10528 25.0641 5.89218C25.1749 6.33002 25.1885 6.71109 25.1872 7.18803C25.1845 8.13996 24.9859 8.76506 24.5203 9.67302C24.1937 10.31 24.119 10.3915 23.6243 10.6519L23.0761 10.8504L18.1963 10.8806C13.2157 10.9115 13.2018 10.8804 12.7164 10.7867C11.6776 10.5863 11.2521 10.3388 10.9808 9.77732C10.8462 9.49877 10.8161 8.95788 10.9136 8.5689C11.1367 7.67874 12.6674 5.30715 14.8088 2.53378C15.2165 2.00566 15.5695 1.53733 15.5932 1.49306C15.706 1.2819 15.5931 1.1421 15.2713 1.09445C15.0469 1.0612 13.9026 1.23932 13.4073 1.3846C12.1966 1.73971 11.7295 1.92057 11.125 2.26818C10.2153 2.79138 9.46923 3.43395 8.95138 4.14034C8.39907 4.89373 8.17948 5.36765 7.97067 6.25691C7.84721 6.78272 7.87584 7.60377 8.03799 8.18753C8.37599 9.40431 9.09356 10.3501 10.3361 11.2165C10.5281 11.3504 10.6852 11.4679 10.6852 11.4776C10.6852 11.512 10.5341 11.4866 10.3043 11.4135Z" fill="url(#paint16_linear_601_1152)"/>
<path d="M10.3043 11.4135C9.96144 11.3045 9.77239 11.1966 9.35059 10.8692C8.42346 10.1494 7.75327 9.23815 7.45741 8.29498C7.28264 7.73786 7.24288 7.37294 7.26903 6.56597C7.28909 5.94673 7.30952 5.77921 7.40425 5.45738C7.64031 4.65541 7.96769 4.04556 8.51498 3.38828C9.7552 1.89883 12.0719 0.775149 14.4302 0.519198C15.0831 0.448331 16.3032 0.442194 16.491 0.508833C16.6839 0.57732 16.8857 0.800694 16.9506 1.01757C16.9935 1.1609 16.9879 1.20316 16.9043 1.36725C16.852 1.46991 16.7548 1.62099 16.6882 1.70298C16.6217 1.78497 16.4482 2.00942 16.3027 2.20175C16.1572 2.39408 15.8175 2.82326 15.5477 3.15547C15.2779 3.48769 14.8387 4.06469 14.5715 4.4377C14.077 5.12817 12.9944 6.7661 12.7783 7.15052C12.7128 7.26708 12.5962 7.45042 12.5192 7.55793C12.4422 7.66544 12.3102 7.89904 12.2258 8.07704C12.0845 8.37501 12.0736 8.42536 12.088 8.71195C12.1077 9.10194 12.2293 9.30476 12.5784 9.52991C13.1038 9.8688 12.6263 9.84213 18.1709 9.84213H23.1167L23.5454 9.38008C23.8766 9.02314 24.0072 8.84619 24.1197 8.60228C24.2842 8.24577 24.4542 7.68909 24.5276 7.26656C24.59 6.90803 24.5511 5.94757 24.4643 5.70227C24.3011 5.03835 24.0122 4.38941 23.6558 3.82308C22.9768 2.76254 22.0093 1.92031 20.611 1.17231C20.3628 1.03954 19.7288 0.733602 19.7386 0.723724C19.769 0.693252 20.7131 1.08764 21.1787 1.3196C22.3288 1.89255 23.3176 2.71274 23.9744 3.63842C24.4612 4.3245 24.865 5.10528 25.0641 5.89218C25.1749 6.33002 25.1885 6.71109 25.1872 7.18803C25.1845 8.13996 24.9859 8.76506 24.5203 9.67302C24.1937 10.31 24.119 10.3915 23.6243 10.6519L23.0761 10.8504L18.1963 10.8806C13.2157 10.9115 13.2018 10.8804 12.7164 10.7867C11.6776 10.5863 11.2521 10.3388 10.9808 9.77732C10.8462 9.49877 10.8161 8.95788 10.9136 8.5689C11.1367 7.67874 12.6674 5.30715 14.8088 2.53378C15.2165 2.00566 15.5695 1.53733 15.5932 1.49306C15.706 1.2819 15.5931 1.1421 15.2713 1.09445C15.0469 1.0612 13.9026 1.23932 13.4073 1.3846C12.1966 1.73971 11.7295 1.92057 11.125 2.26818C10.2153 2.79138 9.46923 3.43395 8.95138 4.14034C8.39907 4.89373 8.17948 5.36765 7.97067 6.25691C7.84721 6.78272 7.87584 7.60377 8.03799 8.18753C8.37599 9.40431 9.09356 10.3501 10.3361 11.2165C10.5281 11.3504 10.6852 11.4679 10.6852 11.4776C10.6852 11.512 10.5341 11.4866 10.3043 11.4135Z" fill="url(#paint17_linear_601_1152)"/>
<path d="M7.24478 6.55737C7.26484 5.93814 7.28528 5.77062 7.38001 5.44879C7.61607 4.64682 7.94344 4.03697 8.49073 3.37969C9.73095 1.89024 12.0476 0.766559 14.4059 0.510607C15.0589 0.43974 16.279 0.433603 16.4667 0.500242C16.6597 0.56873 16.8615 0.792102 16.9264 1.00898C16.9692 1.15231 16.9636 1.19457 16.8801 1.35866C16.8278 1.46132 16.7305 1.6124 16.664 1.69439C16.5974 1.77638 16.424 2.00082 16.2785 2.19316C16.133 2.38549 15.7932 2.81466 15.5235 3.14688C15.2537 3.47909 14.8144 4.0561 14.5473 4.42911C14.0528 5.11958 12.9701 6.75751 12.7541 7.14192C12.6886 7.25849 12.572 7.44183 12.495 7.54934C12.418 7.65685 12.2859 7.89045 12.2015 8.06845C12.0603 8.36642 12.0493 8.41677 12.0638 8.70336C12.0835 9.09335 12.205 9.29617 12.5541 9.52132C13.0796 9.86021 12.602 9.83354 18.1466 9.83354H23.0925L23.5212 9.37149C23.8523 9.01455 23.983 8.83759 24.0955 8.59369C24.2599 8.23718 24.4299 7.6805 24.5034 7.25797C24.5657 6.89944 24.5269 5.93898 24.4401 5.69368C24.2768 5.02976 23.9077 4.46112 23.5513 3.89479C22.8722 2.83425 21.9048 1.99202 20.5064 1.24402C20.2582 1.11125 19.7045 0.725009 19.7144 0.715132C19.7448 0.68466 20.6889 1.07905 21.1545 1.31101C22.3045 1.88396 23.2934 2.70415 23.9501 3.62983C24.4369 4.31592 24.8407 5.09669 25.0399 5.88359C25.1507 6.32143 25.1643 6.7025 25.1629 7.17944C25.1603 8.13137 24.9616 8.75647 24.496 9.66443C24.1694 10.3014 24.0948 10.3829 23.6 10.6433L23.0518 10.8418L18.1721 10.872C13.1915 10.9029 13.1775 10.8718 12.6921 10.7781C11.6534 10.5777 11.2279 10.3302 10.9565 9.76873C10.8219 9.49018 10.7919 8.94929 10.8894 8.56031C11.1125 7.67015 12.6431 5.29856 14.7845 2.52519C15.1923 1.99707 15.5453 1.52874 15.5689 1.48446C15.6817 1.2733 15.5689 1.13351 15.2471 1.08586C15.0226 1.05261 13.8783 1.23073 13.383 1.37601C12.1724 1.73112 11.7052 1.91198 11.1008 2.2596C10.191 2.78279 9.44498 3.42535 8.92712 4.13175C8.37482 4.88514 8.15524 5.35906 7.94643 6.24832C7.82296 6.77413 7.85159 7.59518 8.01375 8.17894C7.30978 7.59088 7.22954 7.06943 7.24478 6.55737Z" fill="url(#paint18_linear_601_1152)"/>
<path d="M7.43311 8.28639C7.25835 7.72927 7.21859 7.36435 7.24474 6.55737C7.2648 5.93814 7.28523 5.77062 7.37996 5.44879C7.61602 4.64682 7.94339 4.03697 8.49069 3.37969C9.73091 1.89024 12.0476 0.766559 14.4059 0.510607C15.0588 0.43974 16.2789 0.433603 16.4667 0.500242C16.6596 0.56873 16.8614 0.792102 16.9263 1.00898C16.9692 1.15231 16.9636 1.19457 16.88 1.35866C16.8277 1.46132 16.7305 1.6124 16.6639 1.69439C16.5974 1.77638 16.4239 2.00082 16.2784 2.19316C16.1329 2.38549 15.7932 2.81466 15.5234 3.14688C15.2537 3.47909 14.8144 4.0561 14.5472 4.42911C14.0527 5.11958 12.9701 6.75751 12.754 7.14192C12.6885 7.25849 12.5719 7.44183 12.4949 7.54934C12.4179 7.65685 12.2859 7.89045 12.2015 8.06845C12.0602 8.36642 12.0493 8.41677 12.0637 8.70336C12.0834 9.09335 12.205 9.29617 12.5541 9.52132C13.0795 9.86021 12.602 9.83354 18.1466 9.83354H23.0924L23.5211 9.37149C23.8523 9.01455 23.9829 8.83759 24.0954 8.59369C24.2599 8.23718 24.4299 7.6805 24.5033 7.25797C24.5657 6.89944 24.5268 5.93898 24.4401 5.69368C24.2768 5.02976 23.9879 4.38082 23.6315 3.81449C22.9525 2.75395 21.9851 1.91172 20.5867 1.16372C20.3385 1.03095 19.7045 0.725009 19.7143 0.715132C19.7447 0.68466 20.6888 1.07905 21.1544 1.31101C22.3045 1.88396 23.2933 2.70415 23.9501 3.62983C24.4369 4.31592 24.8407 5.09669 25.0398 5.88359C25.1506 6.32143 25.1642 6.7025 25.1629 7.17944C25.1602 8.13137 24.9616 8.75647 24.496 9.66443C24.1694 10.3014 24.0947 10.3829 23.6 10.6433L23.0518 10.8418L18.172 10.872C13.1914 10.9029 13.1775 10.8718 12.6921 10.7781C11.6533 10.5777 11.2278 10.3302 10.9565 9.76873C10.8219 9.49018 10.7918 8.94929 10.8893 8.56031C11.1124 7.67015 12.6431 5.29856 14.7845 2.52519C15.1922 1.99707 15.5452 1.52874 15.5689 1.48446C15.6817 1.2733 15.5688 1.13351 15.247 1.08586C15.0226 1.05261 13.8783 1.23073 13.383 1.37601C12.1723 1.73112 11.7052 1.91198 11.1007 2.2596C10.191 2.78279 9.44494 3.42535 8.92708 4.13175C8.37477 4.88514 8.15518 5.35906 7.94638 6.24832C7.82292 6.77413 7.85154 7.59518 8.0137 8.17894C7.81622 8.29463 8.34373 9.09914 7.43311 8.28639Z" fill="url(#paint19_linear_601_1152)"/>
<path d="M7.47962 8.23984C7.30486 7.68272 7.2651 7.31779 7.29125 6.51082C7.3113 5.89159 7.33174 5.72406 7.42647 5.40223C7.66253 4.60026 7.9899 3.99042 8.5372 3.33314C9.77742 1.84369 12.0941 0.720005 14.4524 0.464053C15.1053 0.393185 16.3254 0.387049 16.5132 0.453687C16.7061 0.522175 16.908 0.745548 16.9728 0.962423C17.0157 1.10575 17.0101 1.14801 16.9265 1.31211C16.8742 1.41477 16.777 1.56585 16.7105 1.64784C16.6439 1.72983 16.4704 1.95427 16.3249 2.1466C16.1794 2.33894 15.8397 2.76811 15.5699 3.10033C15.3002 3.43254 14.8609 4.00954 14.5937 4.38256C14.0993 5.07302 13.0166 6.71096 12.8006 7.09537C12.7351 7.21194 12.6185 7.39527 12.5414 7.50278C12.4644 7.61029 12.3324 7.84389 12.248 8.02189C12.1067 8.31986 12.0958 8.37022 12.1103 8.6568C12.1299 9.04679 12.2515 9.24961 12.6006 9.47476C13.126 9.81365 12.6485 9.78699 18.1931 9.78699H23.1389L23.5676 9.32493C23.8988 8.96799 24.0294 8.79104 24.142 8.54713C24.3064 8.19063 24.4764 7.63395 24.5498 7.21142C24.6122 6.85289 24.5733 5.89243 24.4866 5.64713C24.3233 4.98321 23.9541 4.41456 23.5977 3.84824C22.9187 2.7877 21.9513 1.94547 20.5529 1.19746C20.3047 1.0647 19.751 0.678457 19.7608 0.668579C19.7912 0.638107 20.7353 1.0325 21.2009 1.26446C22.351 1.83741 23.3398 2.6576 23.9966 3.58328C24.4834 4.26936 24.8872 5.05014 25.0863 5.83704C25.1971 6.27488 25.2107 6.65595 25.2094 7.13289C25.2067 8.08482 25.0081 8.70992 24.5425 9.61787C24.2159 10.2548 24.1412 10.3364 23.6465 10.5968L23.0983 10.7952L18.2185 10.8255C13.2379 10.8564 13.224 10.8252 12.7386 10.7316C11.6999 10.5311 11.2743 10.2836 11.003 9.72217C10.8684 9.44363 10.8383 8.90273 10.9358 8.51375C11.1589 7.6236 12.6896 5.252 14.831 2.47864C15.2387 1.95051 15.5917 1.48219 15.6154 1.43791C15.7282 1.22675 15.6153 1.08696 15.2935 1.0393C15.0691 1.00606 13.9248 1.18418 13.4295 1.32945C12.2189 1.68456 11.7517 1.86543 11.1472 2.21304C10.2375 2.73624 9.49144 3.3788 8.97359 4.0852C8.42128 4.83859 8.20169 5.31251 7.99289 6.20176C7.86942 6.72758 7.89805 7.54863 8.06021 8.13239C7.86273 8.24808 7.90568 8.2014 7.47962 8.23984Z" fill="url(#paint20_linear_601_1152)"/>
<g opacity="0.8">
<path d="M14.489 0.548768C15.1033 0.480847 16.2512 0.474965 16.4278 0.538833C16.6094 0.604473 16.7992 0.81856 16.8603 1.02642C16.9006 1.16379 16.8953 1.20429 16.8167 1.36157C16.7675 1.45996 16.676 1.60475 16.6134 1.68334C16.5508 1.76192 16.3876 1.97703 16.2507 2.16137C15.2609 3.15741 15.4471 2.59137 15.5832 1.48214C15.6893 1.27976 15.5831 1.14577 15.2804 1.1001C14.8944 0.794621 15.2628 0.845621 14.489 0.548768Z" fill="url(#paint21_linear_601_1152)"/>
</g>
<path d="M15.2601 3.40581C15.0063 3.72421 14.593 4.27722 14.3417 4.63473C13.8765 5.29649 12.8579 6.86633 12.6546 7.23476C12.593 7.34648 12.4833 7.52219 12.4109 7.62523C12.3384 7.72827 12.2142 7.95216 12.1348 8.12276C12.0019 8.40834 11.9916 8.4566 12.0052 8.73127C12.0237 9.10505 12.1381 9.29944 12.4665 9.51522C12.9609 9.84002 12.5116 9.81447 17.728 9.81447C18.4065 10.1164 23.6992 10.6187 17.7519 10.8098C13.0661 10.8394 13.053 10.8096 12.5963 10.7198C11.6191 10.5277 11.2188 10.2905 10.9635 9.75235C10.8369 9.48538 10.8086 8.96698 10.9003 8.59417C12.0568 4.57495 15.8113 2.54845 15.2601 3.40581Z" fill="url(#paint22_linear_601_1152)"/>
<path d="M14.1495 9.02604C13.9384 8.73023 13.9326 8.38326 14.1311 7.93187C14.4801 7.13812 16.4556 4.37513 17.9468 2.59504C18.8074 1.56781 19.1548 1.07889 19.1548 0.894901C19.1548 0.813935 19.103 0.715285 19.0015 0.602942L18.7304 0.358337L18.9726 0.43327C19.1231 0.479826 19.5525 0.623032 19.6809 0.707119C19.8912 0.84495 19.8549 1.22893 19.6399 1.60329C19.5374 1.78171 19.1303 2.30815 18.7746 2.72221C17.8028 3.85358 16.6539 5.40301 15.5847 7.02455C15.0167 7.88591 14.835 8.25222 14.8965 8.41237C14.9282 8.49519 14.3891 9.12331 14.2879 9.12141C14.2487 9.12069 14.1864 9.07776 14.1495 9.02604Z" fill="#505050"/>
<path d="M23.2125 9.3143C23.1211 9.21327 22.895 8.73981 22.895 8.66217C22.895 8.62841 22.987 8.62831 23.0255 8.59721C23.1417 8.50326 23.2223 8.31289 23.3368 7.86187C23.6047 6.8072 23.493 5.76237 23.0036 4.745C22.401 3.49219 21.1536 2.42302 19.7618 1.96624C19.5653 1.90174 19.503 1.8785 19.4615 1.83134C19.3902 1.75021 19.3994 1.72003 19.5164 1.46416C19.6034 1.27414 19.6232 1.17418 19.6881 1.16481C19.7389 1.15748 19.9858 1.25622 20.3525 1.43512C22.1492 2.31178 23.328 3.41891 23.9213 4.78673C24.232 5.50322 24.2995 5.78643 24.3267 6.48904C24.3604 7.3591 24.2223 7.99937 23.8386 8.7519C23.5288 9.35937 23.3635 9.48146 23.2125 9.3143Z" fill="url(#paint23_linear_601_1152)"/>
<path d="M14.6812 9.36296C14.4619 9.33554 14.2594 9.19385 14.2594 9.10946C14.2594 9.02544 14.8227 8.37605 14.8932 8.37605C14.9169 8.37605 14.9292 8.46825 15.0051 8.50692C15.1299 8.57054 15.5189 8.57888 19.086 8.59443L23.0289 8.61161L23.1989 8.91984C23.3018 9.10636 23.3888 9.28618 23.3722 9.32887C23.3467 9.39407 20.9463 9.43288 17.0311 9.42701C14.7012 9.42352 14.7523 9.37186 14.6812 9.36295V9.36296Z" fill="url(#paint24_linear_601_1152)"/>
<path opacity="0.5" d="M14.6812 9.36296C14.4619 9.33554 14.2594 9.19385 14.2594 9.10946C14.2594 9.02544 14.8227 8.37605 14.8932 8.37605C14.9169 8.37605 14.9292 8.46825 15.0051 8.50692C15.1299 8.57054 15.5189 8.57888 19.086 8.59443L23.0289 8.61161L23.1989 8.91984C23.3018 9.10636 23.3888 9.28618 23.3722 9.32887C23.3467 9.39407 20.9463 9.43288 17.0311 9.42701C14.7012 9.42352 14.7523 9.37186 14.6812 9.36295V9.36296Z" fill="url(#paint25_linear_601_1152)"/>
<path d="M14.6861 13.0995C10.5885 12.742 7.31198 10.3406 6.82504 7.33796C6.52077 5.4617 7.32583 3.63062 9.10103 2.16134C9.71203 1.65564 9.87279 1.55165 10.6593 1.15343C12.1295 0.408972 13.5571 0.0694238 15.4279 0.0192634C16.4345 -0.00772726 17.165 0.0377933 17.9908 0.178972C18.71 0.301919 18.796 0.332278 18.9983 0.534618C19.1432 0.679497 19.1792 0.745399 19.1792 0.865759C19.1792 1.04958 18.978 1.33002 17.9092 2.63581C16.6401 4.18641 15.8601 5.23605 14.848 6.75556C14.0087 8.01542 13.8927 8.29617 14.0241 8.74821C14.1211 9.08208 14.4251 9.23693 14.7237 9.29376C15.1104 9.36737 15.5458 9.35005 18.4754 9.34542C20.0142 9.34298 23.2783 9.34998 23.3796 9.34255C23.5112 9.33289 23.588 9.29477 23.6762 9.2103C23.9787 8.81871 24.0974 8.65512 23.6973 9.36626C23.526 9.67062 23.2649 9.90654 22.9774 9.96624C22.6444 10.0354 13.8817 10.0012 13.3999 9.92893C12.979 9.86577 12.7352 9.77286 12.409 9.55134C12.2045 9.41249 12.1255 9.32556 12.0344 9.13943C11.9321 8.93021 11.9219 8.87209 11.9449 8.62583C11.9738 8.31682 12.1026 8.00122 12.3471 7.64031C12.4357 7.50963 12.5724 7.28827 12.651 7.14839C12.7296 7.00851 13.0632 6.48396 13.3923 5.98273C14.2658 4.65262 15.1551 3.44117 15.788 2.71887C16.1863 2.26444 16.761 1.47789 16.8023 1.33068C16.8826 1.04497 16.6581 0.659091 16.3477 0.549093C16.1362 0.474139 15.0114 0.490251 14.334 0.577937C10.6138 1.05954 7.80641 3.20446 7.33146 5.92805C7.25072 6.39098 7.25023 7.30995 7.33041 7.76805C7.55191 9.03282 8.36181 10.2065 9.64446 11.1216C10.1117 11.4549 11.1345 11.9794 11.7401 12.1962C14.4875 13.1798 17.9688 13.0231 20.5852 11.7983C21.2144 11.5037 21.4842 11.3209 21.8761 10.9235L22.2206 10.5742L22.8147 10.5458C23.3821 10.5187 23.6959 10.548 23.6543 10.6152C23.6164 10.6766 22.8163 10.9896 22.4962 11.1032C22.3154 11.1673 22.1473 11.2833 21.8914 11.4442C19.9294 12.6776 17.2049 13.3192 14.686 13.0995L14.6861 13.0995Z" fill="url(#paint26_linear_601_1152)"/>
<path opacity="0.3" d="M14.7327 13.0919C10.6351 12.7344 7.35861 10.333 6.87167 7.33042C6.5674 5.45416 7.37246 3.62308 9.14766 2.1538C9.75866 1.6481 9.91942 1.54411 10.7059 1.14588C12.1761 0.40143 13.6038 0.0618798 15.4745 0.0117188C14.8619 0.311259 15.1953 0.535961 14.3807 0.570392C10.6605 1.05199 7.85304 3.19691 7.37809 5.92051C7.29736 6.38343 7.29686 7.3024 7.37704 7.76051C7.59854 9.02527 8.40844 10.199 9.69109 11.114C10.1583 11.4474 11.1811 11.9718 11.7867 12.1886C14.5341 13.1722 18.0154 13.0156 20.6319 11.7907C21.2611 11.4962 21.5308 11.3134 21.9227 10.9159L22.2672 10.5666L22.8614 10.5382C23.4287 10.5112 23.7425 10.5404 23.701 10.6077C23.6631 10.669 22.8629 10.982 22.5428 11.0956C22.362 11.1598 22.194 11.2758 21.9381 11.4366C19.976 12.67 17.2515 13.3117 14.7327 13.0919L14.7327 13.0919Z" fill="url(#paint27_linear_601_1152)"/>
<path d="M14.7048 13.0969C10.6073 12.7394 7.4271 10.4986 6.94016 7.496C6.63588 5.61974 7.44094 3.82078 9.21614 2.3515C9.82714 1.84579 10.0079 1.7402 10.7461 1.30985C12.1699 0.479946 13.5759 0.0668605 15.4466 0.0167001C16.4533 -0.0102906 17.1837 0.035228 18.0095 0.176406C18.7287 0.299353 18.8147 0.329714 19.0171 0.532055C19.1619 0.676933 19.1979 0.742836 19.1979 0.863195C19.1979 1.04702 18.9967 1.32746 17.928 2.63324C16.6588 4.18385 15.8789 5.23349 14.8667 6.753C14.0275 8.01286 13.9114 8.2936 14.0428 8.74565C14.1399 9.07952 14.4438 9.23437 14.7424 9.2912C15.1292 9.36481 15.5645 9.34749 18.4941 9.34285C20.033 9.34042 23.2971 9.34741 23.3983 9.33998C23.53 9.33032 23.6068 9.29221 23.6949 9.20774C23.9974 8.81615 24.1161 8.65256 23.716 9.3637C23.5448 9.66806 23.2837 9.90398 22.9961 9.96367C22.6632 10.0328 13.9004 9.99867 13.4186 9.92637C12.9978 9.86321 12.754 9.7703 12.4277 9.54878C12.2233 9.40993 12.1442 9.323 12.0532 9.13687C11.9508 8.92765 11.9407 8.86953 11.9637 8.62326C11.9925 8.31425 12.1213 7.99866 12.3659 7.63775C12.4544 7.50707 12.5912 7.28571 12.6697 7.14583C12.7483 7.00595 13.0819 6.4814 13.4111 5.98016C14.2846 4.65006 15.1738 3.43861 15.8068 2.71631C16.205 2.26188 16.7797 1.47533 16.8211 1.32811C16.9013 1.0424 16.6769 0.656527 16.3664 0.546529C16.1549 0.471576 15.0301 0.487688 14.3528 0.575373C10.6326 1.05697 7.82516 3.20189 7.3502 5.92549C7.26948 6.38842 7.26898 7.30739 7.34916 7.76549C7.57067 9.03026 8.38056 10.204 9.66321 11.119C10.1305 11.4523 11.1532 11.9768 11.7589 12.1936C14.5062 13.1772 17.9875 13.0206 20.604 11.7957C21.2332 11.5012 21.5029 11.3184 21.8949 10.9209L22.2393 10.5716L22.8335 10.5432C23.4009 10.5161 23.7147 10.5454 23.6731 10.6127C23.6352 10.674 22.835 10.987 22.5149 11.1006C22.3342 11.1648 22.1661 11.2808 21.9102 11.4416C19.9481 12.675 17.2236 13.3166 14.7048 13.0969L14.7048 13.0969Z" fill="url(#paint28_linear_601_1152)"/>
<path opacity="0.5" d="M14.6861 13.0995C10.5885 12.742 7.31198 10.3405 6.82504 7.33796C6.52077 5.4617 7.32583 3.63062 9.10103 2.16134C9.71203 1.65563 9.87279 1.55165 10.6593 1.15342C12.1295 0.408965 13.5571 0.069417 15.4279 0.0192566C15.3885 0.426769 14.7435 0.579649 14.334 0.577928C10.6138 1.05953 7.80641 3.20445 7.33146 5.92804C7.25072 6.39097 7.25023 7.30994 7.33041 7.76805C7.55191 9.03281 8.36181 10.2065 9.64446 11.1216C10.1117 11.4549 11.1345 11.9793 11.7401 12.1962C14.4875 13.1797 17.9688 13.0231 20.5852 11.7983C21.2144 11.5037 21.4842 11.3209 21.8761 10.9235L22.2206 10.5741L22.8147 10.5458C23.3821 10.5187 23.6959 10.548 23.6543 10.6152C23.6164 10.6766 22.8163 10.9896 22.4962 11.1031C22.3154 11.1673 22.1473 11.2833 21.8914 11.4442C19.9294 12.6775 17.2049 13.3192 14.686 13.0995H14.6861Z" fill="url(#paint29_linear_601_1152)"/>
<path opacity="0.3" d="M14.7327 13.0919C10.6351 12.7344 7.35861 10.333 6.87167 7.33042C6.5674 5.45416 7.37246 3.62308 9.14766 2.1538C9.75866 1.6481 9.91942 1.54411 10.7059 1.14588C12.1761 0.40143 13.6038 0.0618798 15.4745 0.0117188C14.8619 0.311259 15.1953 0.535961 14.3807 0.570392C10.6605 1.05199 7.85304 3.19691 7.37809 5.92051C7.29736 6.38343 7.29686 7.3024 7.37704 7.76051C7.59854 9.02527 8.40844 10.199 9.69109 11.114C10.1583 11.4474 11.1811 11.9718 11.7867 12.1886C14.5341 13.1722 18.0154 13.0156 20.6319 11.7907C21.2611 11.4962 21.5308 11.3134 21.9227 10.9159L22.2672 10.5666L22.8614 10.5382C23.4287 10.5112 23.7425 10.5404 23.701 10.6077C23.6631 10.669 22.8629 10.982 22.5428 11.0956C22.362 11.1598 22.194 11.2758 21.9381 11.4366C19.976 12.67 17.2515 13.3117 14.7327 13.0919L14.7327 13.0919Z" fill="url(#paint30_linear_601_1152)"/>
<path opacity="0.3" d="M15.1573 9.54512C14.8205 9.53699 14.1949 9.04657 14.2412 9.08587C14.5943 9.38552 16.077 9.35827 18.9783 9.35116L23.3809 9.34036L23.4931 9.2329C23.5548 9.17379 23.6934 8.94022 23.8011 8.71384C24.4398 7.37119 24.4421 6.00992 23.808 4.68529C23.5502 4.14674 23.2488 3.72164 22.7705 3.22207C22.077 2.49759 21.423 2.00537 20.3756 1.54312C19.6328 1.21529 19.6113 1.28785 19.6419 1.08174C19.6419 1.03066 19.6141 0.96519 19.5915 0.884413C19.4937 0.535449 19.5388 0.612274 20.4204 1.07289C21.6051 1.69183 22.2445 2.11336 22.9902 2.89029C24.6374 4.60644 25.047 6.82098 24.0854 8.81091C23.9014 9.19154 23.6377 9.45147 23.344 9.54146C23.2132 9.58156 22.4452 9.58468 19.3764 9.58112C17.1733 9.57857 16.883 9.58674 15.1573 9.54512Z" fill="url(#paint31_linear_601_1152)"/>
<path d="M15.1572 9.43204C14.5706 9.42402 14.0417 8.94471 14.088 8.98349C14.4411 9.27923 16.077 9.24764 18.9782 9.24061L23.3809 9.22996L23.4931 9.1239C23.5548 9.06556 23.6933 8.83504 23.801 8.61163C24.4397 7.2865 24.4421 5.943 23.8079 4.63567C23.5501 4.10415 23.2487 3.6846 22.7705 3.19155C22.077 2.47653 21.423 1.99074 20.3756 1.53452C19.6328 1.21097 19.6113 1.28259 19.6419 1.07917C19.6419 1.02875 19.6141 0.964139 19.5914 0.884416C19.4937 0.540009 19.5842 0.795157 20.4658 1.24976C21.6505 1.86062 22.1536 2.18698 22.8993 2.95377C24.5465 4.64752 25.047 6.74347 24.0854 8.70742C23.9014 9.08308 23.6376 9.33962 23.344 9.42843C23.2131 9.46801 22.4452 9.47109 19.3763 9.46758C17.1732 9.46506 16.8833 9.45563 15.1572 9.43204Z" fill="url(#paint32_linear_601_1152)"/>
<path opacity="0.5" d="M23.808 4.68529C23.5502 4.14674 23.2488 3.72163 22.7706 3.22206C22.0771 2.49759 21.423 2.00537 20.3757 1.54311C19.6329 1.21528 19.6114 1.28785 19.6419 1.08173C19.6419 1.03066 19.6141 0.965184 19.5915 0.884407C19.4937 0.535443 19.482 0.72583 20.3637 1.18645C21.5484 1.80539 22.2445 2.11335 22.9902 2.89028C23.6267 3.75692 23.205 3.29406 23.808 4.68529Z" fill="url(#paint33_linear_601_1152)"/>
<path opacity="0.3" d="M21.9228 10.9159L22.2673 10.5666L22.8615 10.5382C23.4288 10.5112 23.7426 10.5404 23.7011 10.6077C23.3027 11.0585 21.5384 11.3787 21.9228 10.9159Z" fill="url(#paint34_linear_601_1152)"/>
<path opacity="0.6" d="M14.7048 13.0876C10.6073 12.7301 7.4271 10.4893 6.94016 7.48669C6.63587 5.61044 7.44094 3.81147 9.21614 2.34219C9.82715 1.83649 10.0079 1.73089 10.7461 1.30054C12.1699 0.470638 13.5759 0.0575525 15.4466 0.00739206C16.4533 -0.0195986 17.1837 0.0259219 18.0096 0.1671C18.7287 0.290047 18.8147 0.320406 19.0171 0.522747C19.1619 0.667626 19.1979 0.733528 19.1979 0.853887C19.1979 1.03771 18.9967 1.31815 17.928 2.62393C16.6588 4.17454 15.8789 5.22418 14.8667 6.74369C14.0275 8.00355 13.9114 8.2843 14.0428 8.73634C14.1399 9.07021 14.4438 9.22506 14.7424 9.28189C15.1292 9.3555 15.5645 9.33818 18.4941 9.33354C20.033 9.3311 23.2971 9.3381 23.3983 9.33067C23.53 9.32101 23.6068 9.2829 23.6949 9.19843C23.9974 8.80684 24.1161 8.64325 23.716 9.35438C23.5448 9.65875 23.2837 9.89467 22.9961 9.95436C22.6632 10.0235 13.9004 9.98936 13.4186 9.91706C12.9978 9.8539 12.754 9.76099 12.4277 9.53947C12.2233 9.40062 12.1442 9.31369 12.0532 9.12756C11.9508 8.91834 11.9407 8.86022 11.9637 8.61396C11.9925 8.30494 12.1213 7.98935 12.3659 7.62844C12.4544 7.49776 12.5912 7.2764 12.6697 7.13652C12.7483 6.99664 13.0819 6.47209 13.4111 5.97085C14.2846 4.64075 15.1738 3.4293 15.8068 2.707C16.205 2.25257 16.7797 1.46602 16.8211 1.31881C16.9013 1.0331 16.6769 0.647219 16.3664 0.537221C16.1549 0.462268 15.0301 0.47838 14.3528 0.566065C10.6326 1.04766 7.82516 3.19259 7.35021 5.91618C7.26948 6.37911 7.26898 7.29808 7.34916 7.75618C7.57067 9.02095 8.38056 10.1947 9.66321 11.1097C10.1305 11.443 11.1532 11.9675 11.7589 12.1843C14.5062 13.1679 17.9875 13.0113 20.604 11.7864C21.2332 11.4919 21.5029 11.3091 21.8949 10.9116L22.2393 10.5623L22.8335 10.5339C23.4009 10.5068 23.7147 10.5361 23.6731 10.6033C23.6352 10.6647 22.8351 10.9777 22.515 11.0913C22.3342 11.1554 22.1661 11.2714 21.9102 11.4323C19.9482 12.6657 17.2236 13.3073 14.7048 13.0876H14.7048Z" fill="url(#paint35_radial_601_1152)"/>
<defs>
<linearGradient id="paint0_linear_601_1152" x1="14.9248" y1="20.7839" x2="14.7716" y2="14.4478" gradientUnits="userSpaceOnUse">
<stop stop-color="#505050"/>
<stop offset="0.0584744" stop-color="#525252"/>
<stop offset="0.56152" stop-color="#555555"/>
<stop offset="0.786532" stop-color="#5A5A5A"/>
<stop offset="1" stop-color="#C8C8C8"/>
</linearGradient>
<linearGradient id="paint1_linear_601_1152" x1="21.9745" y1="15.363" x2="21.9745" y2="15.9654" gradientUnits="userSpaceOnUse">
<stop stop-color="#B8B8B8"/>
<stop offset="1" stop-color="#828282"/>
</linearGradient>
<linearGradient id="paint2_linear_601_1152" x1="16.8657" y1="14.7622" x2="16.7605" y2="19.3291" gradientUnits="userSpaceOnUse">
<stop stop-color="#464646"/>
<stop offset="1"/>
</linearGradient>
<linearGradient id="paint3_linear_601_1152" x1="16.8655" y1="14.7288" x2="16.7516" y2="19.4788" gradientUnits="userSpaceOnUse">
<stop stop-color="#464646"/>
<stop offset="1"/>
</linearGradient>
<linearGradient id="paint4_linear_601_1152" x1="16.8655" y1="14.3759" x2="16.7259" y2="19.636" gradientUnits="userSpaceOnUse">
<stop stop-color="#464646"/>
<stop offset="1"/>
</linearGradient>
<linearGradient id="paint5_linear_601_1152" x1="16.8655" y1="14.3759" x2="16.7259" y2="19.636" gradientUnits="userSpaceOnUse">
<stop stop-color="#464646"/>
<stop offset="1"/>
</linearGradient>
<linearGradient id="paint6_linear_601_1152" x1="16.8656" y1="14.7283" x2="16.7469" y2="19.5786" gradientUnits="userSpaceOnUse">
<stop stop-color="#464646"/>
<stop offset="1"/>
</linearGradient>
<linearGradient id="paint7_linear_601_1152" x1="16.8655" y1="14.3759" x2="16.7259" y2="19.636" gradientUnits="userSpaceOnUse">
<stop stop-color="#464646"/>
<stop offset="1"/>
</linearGradient>
<linearGradient id="paint8_linear_601_1152" x1="16.8655" y1="14.3759" x2="16.7259" y2="19.636" gradientUnits="userSpaceOnUse">
<stop stop-color="#464646"/>
<stop offset="1"/>
</linearGradient>
<linearGradient id="paint9_linear_601_1152" x1="13.5033" y1="14.61" x2="13.3903" y2="20.0692" gradientUnits="userSpaceOnUse">
<stop stop-color="#787878"/>
<stop offset="1" stop-color="#1E1E1E"/>
</linearGradient>
<linearGradient id="paint10_linear_601_1152" x1="14.8964" y1="14.6853" x2="15.0847" y2="19.128" gradientUnits="userSpaceOnUse">
<stop stop-color="#B4B4B4"/>
<stop offset="0.322353" stop-color="#828282"/>
<stop offset="1" stop-color="#3C3C3C"/>
</linearGradient>
<linearGradient id="paint11_linear_601_1152" x1="15.5759" y1="20.3394" x2="15.7623" y2="17.2454" gradientUnits="userSpaceOnUse">
<stop stop-color="#828282"/>
<stop offset="0.5" stop-color="#828282"/>
<stop offset="1" stop-color="#3C3C3C"/>
</linearGradient>
<linearGradient id="paint12_linear_601_1152" x1="15.1599" y1="16.8689" x2="15.2352" y2="19.2032" gradientUnits="userSpaceOnUse">
<stop stop-color="#828282"/>
<stop offset="0.5" stop-color="#828282"/>
<stop offset="1" stop-color="#3C3C3C"/>
</linearGradient>
<linearGradient id="paint13_linear_601_1152" x1="6.42193" y1="4.02073" x2="23.1544" y2="14.9221" gradientUnits="userSpaceOnUse">
<stop stop-color="#000032"/>
<stop offset="0.25" stop-color="#646464"/>
<stop offset="0.423823"/>
<stop offset="1" stop-color="#787878"/>
</linearGradient>
<linearGradient id="paint14_linear_601_1152" x1="7.19353" y1="11.9911" x2="24.3457" y2="11.8627" gradientUnits="userSpaceOnUse">
<stop stop-color="#999999"/>
<stop offset="0.220528" stop-color="#3C3C3C" stop-opacity="0.87451"/>
<stop offset="0.515847" stop-color="#969696"/>
<stop offset="0.752781" stop-color="#828282"/>
<stop offset="1" stop-color="#5A5A5A"/>
</linearGradient>
<linearGradient id="paint15_linear_601_1152" x1="18.4677" y1="13.5008" x2="18.4355" y2="9.29306" gradientUnits="userSpaceOnUse">
<stop/>
<stop offset="1" stop-opacity="0"/>
</linearGradient>
<linearGradient id="paint16_linear_601_1152" x1="12.6219" y1="0.6206" x2="24.9152" y2="14.6044" gradientUnits="userSpaceOnUse">
<stop stop-color="#5A5A5A"/>
<stop offset="0.268765" stop-color="#505050"/>
<stop offset="0.632019" stop-color="#666666"/>
<stop offset="0.667453" stop-color="#666666"/>
<stop offset="1" stop-color="#666666"/>
</linearGradient>
<linearGradient id="paint17_linear_601_1152" x1="12.6219" y1="0.6206" x2="24.9152" y2="14.6044" gradientUnits="userSpaceOnUse">
<stop stop-color="#5A5A5A"/>
<stop offset="0.268765" stop-color="#505050"/>
<stop offset="0.632019" stop-color="#666666"/>
<stop offset="0.667453" stop-color="#666666"/>
<stop offset="1" stop-color="#666666"/>
</linearGradient>
<linearGradient id="paint18_linear_601_1152" x1="7.88124" y1="2.00268" x2="20.4582" y2="7.4276" gradientUnits="userSpaceOnUse">
<stop stop-color="#323232" stop-opacity="0"/>
<stop offset="0.39399" stop-color="#323232" stop-opacity="0.94902"/>
<stop offset="0.466851" stop-color="#323232" stop-opacity="0.901961"/>
<stop offset="0.704071" stop-color="#E1E1E1" stop-opacity="0.498039"/>
<stop offset="1" stop-color="#C8C8C8" stop-opacity="0"/>
</linearGradient>
<linearGradient id="paint19_linear_601_1152" x1="18.3714" y1="11.3487" x2="18.4358" y2="9.29306" gradientUnits="userSpaceOnUse">
<stop/>
<stop offset="1" stop-opacity="0"/>
</linearGradient>
<linearGradient id="paint20_linear_601_1152" x1="7.34817" y1="3.18094" x2="9.06911" y2="4.99573" gradientUnits="userSpaceOnUse">
<stop stop-color="#28170B"/>
<stop offset="1" stop-color="#28170B" stop-opacity="0"/>
</linearGradient>
<linearGradient id="paint21_linear_601_1152" x1="15.6225" y1="2.02727" x2="14.9811" y2="0.57596" gradientUnits="userSpaceOnUse">
<stop stop-color="#B3B3B3" stop-opacity="0"/>
<stop offset="0.160949" stop-color="#B3B3B3" stop-opacity="0.300885"/>
<stop offset="0.341789" stop-color="#B3B3B3" stop-opacity="0.87451"/>
<stop offset="0.405936" stop-color="#B3B3B3" stop-opacity="0.74902"/>
<stop offset="0.658295" stop-color="#B3B3B3" stop-opacity="0"/>
<stop offset="1" stop-color="#B3B3B3" stop-opacity="0"/>
</linearGradient>
<linearGradient id="paint22_linear_601_1152" x1="11.6407" y1="10.0053" x2="10.8152" y2="7.48325" gradientUnits="userSpaceOnUse">
<stop stop-color="#B3B3B3" stop-opacity="0"/>
<stop offset="0.12143" stop-color="#B3B3B3" stop-opacity="0.368627"/>
<stop offset="0.285824" stop-color="#B3B3B3" stop-opacity="0.87451"/>
<stop offset="0.383948" stop-color="#B3B3B3" stop-opacity="0.74902"/>
<stop offset="0.516942" stop-color="#B3B3B3" stop-opacity="0.498039"/>
<stop offset="1" stop-color="#B3B3B3" stop-opacity="0"/>
</linearGradient>
<linearGradient id="paint23_linear_601_1152" x1="20.7307" y1="0.750149" x2="23.2603" y2="8.30396" gradientUnits="userSpaceOnUse">
<stop/>
<stop offset="0.552013" stop-color="#7D7D7D"/>
<stop offset="0.693304" stop-color="#969696"/>
<stop offset="0.857541" stop-color="#8A8A8A"/>
<stop offset="1" stop-color="#505050"/>
</linearGradient>
<linearGradient id="paint24_linear_601_1152" x1="14.1084" y1="8.58869" x2="22.4262" y2="10.5562" gradientUnits="userSpaceOnUse">
<stop stop-color="#323232"/>
<stop offset="0.105545" stop-color="#B4B4B6"/>
<stop offset="0.253205" stop-color="#B4B4B4"/>
<stop offset="1" stop-color="#AAAAAA"/>
</linearGradient>
<linearGradient id="paint25_linear_601_1152" x1="19.3226" y1="8.24525" x2="19.3226" y2="9.6307" gradientUnits="userSpaceOnUse">
<stop stop-color="#505050"/>
<stop offset="1" stop-color="#FAFAFA" stop-opacity="0"/>
</linearGradient>
<linearGradient id="paint26_linear_601_1152" x1="8.49176" y1="-0.725879" x2="12.1535" y2="5.11999" gradientUnits="userSpaceOnUse">
<stop stop-color="#8282A9"/>
<stop offset="1" stop-color="#A9A9A9" stop-opacity="0"/>
</linearGradient>
<linearGradient id="paint27_linear_601_1152" x1="23.0339" y1="10.5359" x2="18.5441" y2="12.0758" gradientUnits="userSpaceOnUse">
<stop stop-color="#FAFAFA"/>
<stop offset="0.25" stop-color="#FAFAFA" stop-opacity="0.901961"/>
<stop offset="0.5" stop-color="#E1E1E1" stop-opacity="0.498039"/>
<stop offset="1" stop-color="#C8C8C8" stop-opacity="0"/>
</linearGradient>
<linearGradient id="paint28_linear_601_1152" x1="16.3799" y1="-0.664201" x2="16.2811" y2="15.221" gradientUnits="userSpaceOnUse">
<stop stop-color="#AAAAAA"/>
<stop offset="0.101807" stop-color="#BEBEBE"/>
<stop offset="0.211525" stop-color="#BEBEBE"/>
<stop offset="0.549206" stop-color="#B4B4B4"/>
<stop offset="0.673505" stop-color="#878787"/>
<stop offset="0.778718" stop-color="#969696"/>
<stop offset="1" stop-color="#AAAAAA"/>
</linearGradient>
<linearGradient id="paint29_linear_601_1152" x1="6.35839" y1="10.353" x2="10.0522" y2="7.14099" gradientUnits="userSpaceOnUse">
<stop stop-color="#E6E6E6"/>
<stop offset="1" stop-color="#FAFAFA" stop-opacity="0"/>
</linearGradient>
<linearGradient id="paint30_linear_601_1152" x1="23.0339" y1="10.5359" x2="18.5441" y2="12.0758" gradientUnits="userSpaceOnUse">
<stop stop-color="#FAFAFA"/>
<stop offset="0.25" stop-color="#FAFAFA" stop-opacity="0.901961"/>
<stop offset="0.5" stop-color="#E1E1E1" stop-opacity="0.498039"/>
<stop offset="1" stop-color="#C8C8C8" stop-opacity="0"/>
</linearGradient>
<linearGradient id="paint31_linear_601_1152" x1="19.3138" y1="0.659873" x2="20.2288" y2="1.30228" gradientUnits="userSpaceOnUse">
<stop stop-color="#FAFAFA"/>
<stop offset="0.25" stop-color="#EDEDED" stop-opacity="0.74902"/>
<stop offset="0.5" stop-color="#E1E1E1" stop-opacity="0.498039"/>
<stop offset="1" stop-color="#C8C8C8" stop-opacity="0"/>
</linearGradient>
<linearGradient id="paint32_linear_601_1152" x1="14.7418" y1="9.93546" x2="23.2536" y2="1.13453" gradientUnits="userSpaceOnUse">
<stop stop-color="#969696"/>
<stop offset="0.132623" stop-color="#C0BEBE"/>
<stop offset="0.5" stop-color="#B4B4B4"/>
<stop offset="1" stop-color="#BEBEBE"/>
</linearGradient>
<linearGradient id="paint33_linear_601_1152" x1="19.1744" y1="1.13452" x2="21.0053" y2="1.48784" gradientUnits="userSpaceOnUse">
<stop stop-opacity="0"/>
<stop offset="0.109171" stop-color="#323232" stop-opacity="0.94902"/>
<stop offset="0.218341" stop-color="#323232" stop-opacity="0.901961"/>
<stop offset="0.506057" stop-color="#E1E1E1" stop-opacity="0.498039"/>
<stop offset="1" stop-color="#C8C8C8" stop-opacity="0"/>
</linearGradient>
<linearGradient id="paint34_linear_601_1152" x1="22.7931" y1="10.5359" x2="22.7841" y2="11.0961" gradientUnits="userSpaceOnUse">
<stop stop-color="#FAFAFA"/>
<stop offset="0.5" stop-color="#FAFAFA" stop-opacity="0.901961"/>
<stop offset="0.697845" stop-color="#E1E1E1" stop-opacity="0.498039"/>
<stop offset="1" stop-color="#C8C8C8" stop-opacity="0"/>
</linearGradient>
<radialGradient id="paint35_radial_601_1152" cx="0" cy="0" r="1" gradientUnits="userSpaceOnUse" gradientTransform="translate(15.7484 3.98602) rotate(76.732) scale(4.40043 5.59461)">
<stop stop-color="#DCDCDC" stop-opacity="0.901961"/>
<stop offset="0.752174" stop-color="#E1E1E1" stop-opacity="0.45098"/>
<stop offset="1" stop-color="#C8C8C8" stop-opacity="0"/>
</radialGradient>
</defs>
</svg>
