<svg width="32" height="36" viewBox="16 12 32 35.1209" fill="none" xmlns="http://www.w3.org/2000/svg">
<g clip-path="url(#clip0_601_49967)">
<path fill-rule="evenodd" clip-rule="evenodd" d="M32.0001 13.0014C27.162 13.0014 22.1401 13.413 17.043 14.2896C16.9669 16.3257 16.8802 19.4729 17.0259 22.1435C17.3504 28.0979 18.6658 32.7195 21.1657 36.6881C23.6581 40.6452 27.518 44.0477 32.0001 46.0685C36.4823 44.0477 40.3417 40.6452 42.8341 36.6881C45.3344 32.7195 46.6494 28.0979 46.9742 22.1435C47.1193 19.4729 47.033 16.3257 46.9569 14.2896C41.8598 13.413 36.8382 13.0014 32.0001 13.0014ZM32.0001 13.575C36.7693 13.575 41.6118 13.9791 46.3994 14.7767C46.5045 17.7973 46.5044 20.2007 46.4 22.1125C46.0809 27.9654 44.7935 32.5002 42.3475 36.3831C39.9018 40.2657 36.2342 43.4728 32.0001 45.4377C27.7657 43.4728 24.0984 40.2657 21.6527 36.3831C19.2067 32.5002 17.919 27.9654 17.6002 22.1125C17.4958 20.2007 17.4958 17.7973 17.6009 14.7767C22.3884 13.9791 27.2306 13.575 32.0001 13.575Z" fill="white"/>
<path fill-rule="evenodd" clip-rule="evenodd" d="M21.9939 16.3071C21.947 16.306 21.8969 16.3082 21.8441 16.3136C21.1356 16.3875 20.4283 16.4688 19.7216 16.558V18.6451C19.8441 18.6295 19.9669 18.6145 20.0894 18.5995V17.9537C20.6736 17.8823 21.2588 17.8162 21.8441 17.7552C22.2672 17.7113 22.5037 17.5347 22.5037 17.0976V16.8614C22.5037 16.4875 22.3227 16.3152 21.9939 16.3071ZM21.9533 16.639C22.0485 16.6291 22.1441 16.7013 22.1441 16.797V17.2197C22.1441 17.3106 22.0485 17.3975 21.9533 17.4077C21.3316 17.4714 20.7101 17.5415 20.0894 17.6171V16.8487C20.7101 16.7728 21.3316 16.703 21.9533 16.639Z" fill="white"/>
<path fill-rule="evenodd" clip-rule="evenodd" d="M31.3212 15.7895C31.9836 15.7848 32.6459 15.7871 33.3079 15.796V16.1323C32.6002 16.1231 31.8921 16.1211 31.1841 16.1269C31.0882 16.1279 30.9923 16.2106 30.9923 16.3063V17.3521C30.9923 17.4477 31.0882 17.5424 31.1841 17.5413C31.8191 17.5359 32.4538 17.5369 33.0888 17.5441V16.98C32.7203 16.9759 32.3518 16.9739 31.9836 16.9742V16.6375C32.4722 16.6375 32.9609 16.6413 33.4495 16.6484V17.8852C32.763 17.875 32.0764 17.8722 31.3898 17.8763C30.8872 17.8797 30.6316 17.7933 30.6316 17.3065V16.3968C30.6316 15.9424 30.8599 15.7929 31.3212 15.7895V15.7895Z" fill="white"/>
<path fill-rule="evenodd" clip-rule="evenodd" d="M38.4947 16.0078C38.0987 16.0089 37.9207 16.1338 37.9207 16.5434V17.4754C37.9207 17.9714 38.1762 18.0682 38.6778 18.1019C39.1385 18.1332 39.5984 18.1678 40.0588 18.2056C40.5553 18.2465 40.815 18.162 40.815 17.6933V16.7613C40.815 16.2836 40.5143 16.1559 40.0588 16.1185C39.5984 16.0804 39.1385 16.046 38.6778 16.0144C38.6122 16.01 38.5512 16.0076 38.4947 16.0078ZM38.4728 16.3374C39.0703 16.3765 39.6671 16.4215 40.2639 16.4719C40.3595 16.48 40.455 16.5702 40.455 16.6791V17.7118C40.455 17.8071 40.3595 17.8945 40.2639 17.8864C39.6671 17.836 39.0703 17.791 38.4728 17.7515C38.3632 17.744 38.2809 17.6437 38.2809 17.548V16.5158C38.2809 16.4065 38.3632 16.3299 38.4728 16.3374Z" fill="white"/>
<path fill-rule="evenodd" clip-rule="evenodd" d="M29.7277 15.8135V17.3233C29.7277 17.8009 29.4763 17.9057 28.9695 17.9214C28.5283 17.935 28.0871 17.9513 27.6459 17.9711C27.1756 17.9922 26.8883 17.903 26.8883 17.4302V15.9204L27.2487 15.902V17.4754C27.2487 17.5711 27.3309 17.6491 27.4401 17.6439C28.0185 17.6171 28.5965 17.5953 29.1749 17.5786C29.2848 17.5755 29.3578 17.4918 29.3578 17.3961V15.8227C29.481 15.8193 29.6042 15.8162 29.7277 15.8135V15.8135Z" fill="white"/>
<path fill-rule="evenodd" clip-rule="evenodd" d="M34.3516 15.8153C35.2401 15.8364 36.1284 15.8698 37.0166 15.9154V16.2517C36.2488 16.2126 35.4807 16.1823 34.7123 16.1612V16.6749C35.3958 16.694 36.0789 16.7198 36.7617 16.7529V17.0895C36.0789 17.0565 35.3958 17.0303 34.7123 17.0116V17.5753C35.4807 17.5964 36.2488 17.6267 37.0166 17.6662V18.0026C36.1284 17.9573 35.2401 17.9239 34.3516 17.9025V15.8153Z" fill="white"/>
<path fill-rule="evenodd" clip-rule="evenodd" d="M25.9843 15.9716V16.308C25.2169 16.3553 24.4498 16.4114 23.6834 16.4765V16.9905C24.3652 16.9323 25.0473 16.8816 25.7298 16.838V17.1747C25.0473 17.2182 24.3652 17.269 23.6834 17.3268V17.8909C24.4498 17.8256 25.2169 17.7694 25.9843 17.7224V18.0588C25.0968 18.1132 24.2099 18.1799 23.3234 18.2586V16.1711C24.2099 16.0925 25.0968 16.0261 25.9843 15.9716Z" fill="white"/>
<path fill-rule="evenodd" clip-rule="evenodd" d="M41.4828 16.2459C42.4157 16.3365 43.348 16.4406 44.2786 16.5578V16.8944C43.8762 16.8437 43.4732 16.7954 43.0699 16.7498V18.5006C42.9474 18.4866 42.8249 18.473 42.7017 18.4594V16.7086C42.296 16.664 41.8892 16.6221 41.4828 16.5826V16.2459Z" fill="white"/>
<path fill-rule="evenodd" clip-rule="evenodd" d="M29.1389 20.24C30.8519 20.0899 33.1699 20.049 35.3842 20.2162C35.5101 20.2257 35.6326 20.2553 35.749 20.3044C36.4745 20.6087 37.7616 21.2746 39.1928 22.0913C39.2559 22.1273 39.3153 22.1696 39.3699 22.2176C39.749 22.5508 40.7096 23.5313 40.7096 23.5313L40.41 23.472C40.368 23.4638 40.3287 23.4475 40.2933 23.4237C39.6872 23.0176 38.8024 22.4889 38.0609 22.1161C37.9728 22.0722 37.8776 22.0439 37.7797 22.0337C37.419 21.9953 36.9314 21.9616 36.6123 21.9486C36.455 21.9422 36.3479 21.9159 36.194 21.838C35.8998 21.6892 35.1873 21.3668 34.8324 21.2317C34.6806 21.1738 34.6031 21.1602 34.4543 21.1626C33.8445 21.1714 32.4554 21.2157 31.7459 21.2596C31.7213 21.261 31.6978 21.2599 31.6739 21.2562L31.3358 21.2034C32.2946 21.0387 34.6649 20.8279 35.6459 20.7765L35.2467 20.6434C35.1696 20.6179 35.0894 20.6043 35.0078 20.6022C34.7948 20.5972 34.3212 20.5877 33.7065 20.5869L33.4965 20.587C32.5653 20.5888 31.3672 20.6116 30.2622 20.6945C30.1656 20.7016 30.0715 20.7248 29.9827 20.7639C29.5364 20.9595 28.448 21.5482 27.3564 22.1529L27.1141 22.2874C26.8319 22.4442 26.5526 22.6003 26.2875 22.7489C26.2875 22.7489 26.4236 22.5743 26.4499 22.5403C26.4731 22.5107 26.4803 22.5052 26.5117 22.4848C26.5555 22.4561 26.7053 22.3577 26.8563 22.2578L26.9681 22.1837C27.0587 22.1235 27.1397 22.0695 27.1853 22.0381C27.2078 22.0228 27.2221 22.0119 27.2504 21.9908C27.5791 21.7437 28.0977 21.3079 28.4069 21.038C28.4769 20.977 28.5362 20.9062 28.585 20.8273C28.685 20.6659 28.7942 20.4909 28.8614 20.3939C28.9188 20.3098 29.0167 20.2509 29.1389 20.24V20.24Z" fill="white"/>
<path fill-rule="evenodd" clip-rule="evenodd" d="M29.9687 21.8913C30.008 21.891 30.0325 21.9332 30.0131 21.9669L29.1852 23.3888C29.1392 23.4726 29.062 23.5349 28.9706 23.5624L27.4183 24.0469C27.2381 24.1013 27.0859 24.1306 26.8982 24.1449C26.5539 24.1708 25.5312 24.2028 25.5312 24.2028L25.5538 24.1544C25.5643 24.1316 25.5831 24.1136 25.6063 24.1037L26.0902 23.8988C26.1264 23.8835 26.1581 23.86 26.1823 23.8297L26.9296 22.9119C26.9696 22.8629 27.0218 22.8159 27.0774 22.7866C27.5712 22.5276 28.4492 22.1384 29.0641 21.9335C29.1221 21.9141 29.2002 21.9019 29.2613 21.9012L29.9687 21.8913Z" fill="white"/>
<path fill-rule="evenodd" clip-rule="evenodd" d="M26.1053 24.4461C26.1378 24.4434 26.1685 24.4615 26.1811 24.4911C26.2238 24.5901 26.2121 24.7008 26.1709 24.7954C26.1548 24.8339 26.1053 24.8713 26.0647 24.8802L25.7252 24.9554C25.7047 24.9598 25.686 24.9435 25.6873 24.9227L25.7191 24.5251C25.7215 24.4982 25.7426 24.4768 25.7696 24.4747L26.1053 24.4461Z" fill="white"/>
<path fill-rule="evenodd" clip-rule="evenodd" d="M33.6349 22.7671C33.6857 22.7583 33.7379 22.7654 33.7847 22.7875L34.1392 22.9567C34.174 22.9734 34.1996 23.0051 34.2088 23.0432C34.2569 23.2454 34.316 23.5133 34.3556 23.7411C34.3716 23.8357 34.3538 23.9324 34.3057 24.0158C34.159 24.2701 33.8577 24.7276 33.6891 24.9734C33.6516 25.0286 33.6471 25.0953 33.6587 25.161C33.7352 25.5824 34.0539 27.0541 34.0539 27.0541L33.8533 26.872C33.8133 26.8352 33.7871 26.7964 33.77 26.7457C33.6274 26.3293 33.3605 25.4595 33.2377 25.0364C33.2179 24.9666 33.2329 24.8921 33.2789 24.8366C33.4881 24.5833 33.7929 24.1782 33.971 23.9215C34.0208 23.8493 34.0372 23.7697 34.0078 23.7101C33.9669 23.6264 33.898 23.499 33.8318 23.3836C33.814 23.3516 33.7843 23.3278 33.7492 23.3162L33.5086 23.2393C33.4666 23.226 33.4216 23.2267 33.38 23.2417C32.8558 23.4313 32.1508 23.7047 31.7195 23.883C31.6564 23.9092 31.6304 23.9113 31.554 23.8997C31.4291 23.8813 31.0653 23.8163 30.8869 23.783C30.8548 23.7768 30.8388 23.7407 30.8551 23.7125L31.0667 23.3469C31.0954 23.2975 31.1428 23.2624 31.1988 23.2498C31.8792 23.0953 32.779 22.9176 33.6349 22.7671V22.7671Z" fill="white"/>
<path fill-rule="evenodd" clip-rule="evenodd" d="M26.2368 23.1503L26.0976 23.3212C26.0897 23.3287 26.0822 23.3358 26.0744 23.3436C25.9519 23.4338 25.4362 23.8277 25.2967 23.938C25.2571 23.9693 25.2414 23.9966 25.2322 24.0459C25.2008 24.2202 25.1486 24.5515 25.1332 24.7349C25.1288 24.7887 25.1056 24.8153 25.0506 24.8374C24.8114 24.9344 24.5279 25.0366 24.2986 25.1281C24.2494 25.1475 24.2358 25.155 24.2068 25.1772C24.1839 25.1949 23.8792 25.4662 23.8792 25.4662C23.8792 25.4662 24.5415 25.3035 24.7845 25.2486C24.8425 25.2357 24.8674 25.2391 24.921 25.2643C24.9711 25.2875 25.0547 25.3205 25.0988 25.3365C25.1663 25.3613 25.2022 25.3603 25.2769 25.344C25.5506 25.283 26.0109 25.1741 26.2559 25.1104C26.3832 25.0774 26.4528 25.043 26.5606 24.9678C26.678 24.8864 26.9752 24.6641 26.9752 24.6641C26.9752 24.6641 26.9698 24.7033 26.9657 24.7251C26.9626 24.7438 26.9558 24.7544 26.9435 24.769C26.8831 24.8415 26.7773 24.9596 26.7248 25.0138C26.6043 25.138 26.5323 25.1823 26.3811 25.2452C25.685 25.5346 24.4954 25.984 23.6031 26.2921C23.5448 26.3125 23.5195 26.3292 23.4762 26.3734C23.4291 26.4211 23.3663 26.4905 23.3663 26.4905C23.3663 26.4905 24.0938 26.5433 24.316 26.5688C24.388 26.577 24.4395 26.6005 24.4944 26.6478C24.677 26.8044 25.2813 27.425 25.4622 27.6405C25.4622 27.6405 23.744 27.9254 22.9479 28.1225C22.8497 28.1467 22.8005 28.209 22.7783 28.2876C22.7125 28.5184 22.5572 29.2606 22.5572 29.2606C22.5572 29.2606 22.5019 29.2428 22.4248 29.1986C22.3719 29.1683 22.345 29.1431 22.287 29.0818C22.0986 28.8834 21.7891 28.5034 21.6403 28.2832C21.5966 28.2182 21.5782 28.1354 21.6328 28.0691C21.7942 27.8709 22.1184 27.5094 22.2972 27.3235C22.3163 27.3035 22.3405 27.2684 22.3661 27.218C22.4263 27.0988 22.5056 26.7969 22.5332 26.6878L22.5421 26.6526L22.5432 26.6478C22.5432 26.6478 22.5415 26.6488 22.5384 26.6508L22.5058 26.6713C22.4615 26.699 22.39 26.7439 22.3593 26.7632C22.3132 26.7925 22.3006 26.8051 22.2815 26.8452C22.2525 26.9058 22.2016 27.0015 22.1631 27.0679C22.1505 27.0897 22.1167 27.1234 22.0986 27.1373C21.8703 27.3113 21.6181 27.4982 21.4386 27.6241C21.4263 27.6326 21.4107 27.6289 21.4001 27.6187C21.3772 27.5959 21.2813 27.4873 21.2643 27.4617C21.2499 27.4403 21.2434 27.4202 21.2434 27.3943C21.2431 27.3491 21.2475 27.2694 21.252 27.2102C21.2574 27.14 21.2776 27.1067 21.3632 27.0182C21.4591 26.9191 21.5635 26.8149 21.6734 26.708C21.9426 26.482 22.6224 25.9319 23.8362 25.0679C23.859 25.0515 23.8798 25.0325 23.8966 25.0097C24.0242 24.8381 24.3862 24.3697 24.4756 24.2584C24.4883 24.2427 24.5023 24.2281 24.5183 24.2155C24.6613 24.1028 24.7319 24.0541 24.8769 23.9629C25.2151 23.7504 25.8699 23.363 26.2368 23.1503L26.2368 23.1503Z" fill="white"/>
<path fill-rule="evenodd" clip-rule="evenodd" d="M23.4925 28.9881L23.3427 30.0192L22.8333 29.4228C22.9261 29.2223 23.1974 29.033 23.4925 28.9881Z" fill="white"/>
<path fill-rule="evenodd" clip-rule="evenodd" d="M26.848 29.5352C26.5941 29.9518 26.2908 30.3944 26.0614 30.6708C26.0314 30.7069 25.9915 30.7348 25.9461 30.7518C25.6953 30.8455 25.2773 30.9864 24.9695 31.08L26.848 29.5352Z" fill="white"/>
<path fill-rule="evenodd" clip-rule="evenodd" d="M37.679 22.8406C37.8134 22.7912 37.9608 22.7946 38.0929 22.8501C39.1173 23.279 40.8398 24.288 41.7974 24.9988C41.8898 25.0676 41.9267 25.1149 41.9509 25.2259C42.1758 26.2458 42.2611 27.8223 42.1195 29.1496C42.1093 29.245 42.0901 29.3021 42.0403 29.4039C41.4336 30.6414 40.7508 31.806 40.0321 32.7043L40.0336 32.6897C40.0429 32.594 40.0945 32.0546 40.0973 31.7627C40.0976 31.7297 40.113 31.6994 40.1393 31.6793C40.2727 31.5758 40.4559 31.4288 40.5597 31.3392C40.6102 31.2957 40.6382 31.263 40.6644 31.2208C40.9572 30.7489 41.4807 29.761 41.6916 29.1667C41.7431 29.0216 41.7636 28.8681 41.7509 28.7146C41.6834 27.8863 41.553 26.7387 41.3589 25.9898C41.3258 25.8622 41.2411 25.7542 41.1234 25.694C40.9559 25.6082 40.6272 25.4588 39.8789 25.1595C39.7752 25.118 39.6783 25.0605 39.5929 24.989C39.1022 24.5777 38.3351 23.9612 37.8577 23.6065C37.7182 23.5027 37.5401 23.4649 37.3701 23.5034C37.0224 23.582 36.5798 23.6916 36.3307 23.759C36.2461 23.7818 36.2126 23.7839 36.1253 23.7737C36.0798 23.7684 36.021 23.7626 35.9592 23.757L35.8656 23.7488C35.7569 23.7396 35.6548 23.7317 35.6148 23.7287L35.597 23.7274C36.4089 23.3471 37.1899 23.0189 37.6789 22.8406L37.679 22.8406Z" fill="white"/>
<path fill-rule="evenodd" clip-rule="evenodd" d="M25.592 28.0727C25.6725 28.0469 25.7582 28.0438 25.8401 28.0635C26.2093 28.1521 26.9907 28.343 27.5814 28.4938C27.6643 28.5149 27.7677 28.5922 27.8117 28.6654L27.9404 28.8789C27.9854 28.9538 27.9885 29.0457 27.9486 29.1233C27.8412 29.3309 27.6881 29.612 27.5262 29.9019L27.4037 30.12C27.1782 30.519 26.9537 30.904 26.8262 31.1066C26.7423 31.2404 26.6955 31.2996 26.5461 31.3524C25.965 31.5563 25.2432 31.8 24.8143 31.9386C24.7266 31.9668 24.6969 32.02 24.714 32.117C24.7447 32.2937 24.8437 32.8935 24.8815 33.0685C24.8955 33.1331 24.9474 33.1845 25.0436 33.1662C25.2972 33.1182 25.9721 32.9534 25.9721 32.9534C25.9721 32.9534 25.7732 33.1369 25.6541 33.2451C25.6323 33.2656 25.607 33.2805 25.5787 33.2897C25.3948 33.351 24.9457 33.4766 24.8058 33.5073C24.6966 33.5308 24.627 33.4879 24.599 33.3646C24.599 33.3646 24.4075 32.5517 24.3383 32.2753C24.3274 32.2331 24.3164 32.1966 24.3031 32.1551C24.2513 31.9951 24.1267 31.6806 24.0564 31.5158C24.0482 31.4967 24.0441 31.4763 24.0445 31.4552C24.0465 31.2669 24.0813 30.8469 24.0813 30.8469C24.0813 30.8469 24.4946 31.2332 24.6945 31.3728C24.7396 31.4045 24.7665 31.4109 24.8218 31.397C25.0965 31.3265 25.7281 31.1182 26.0748 30.9888C26.154 30.9592 26.2233 30.9095 26.2772 30.8445C26.6358 30.4125 27.0856 29.7405 27.3453 29.2336C27.3811 29.1638 27.3879 29.0838 27.3654 29.0089L27.3094 28.8251C27.2931 28.7713 27.2361 28.7107 27.1835 28.6906C26.5724 28.4588 26.0905 28.2865 25.5244 28.0942L25.592 28.0727Z" fill="white"/>
<path fill-rule="evenodd" clip-rule="evenodd" d="M36.5432 25.9934L36.7544 26.085C36.8168 26.1119 36.8738 26.1514 36.9209 26.2004C38.2159 27.5485 39.2516 28.9463 39.459 29.3146C39.499 29.3854 39.5263 29.4562 39.5362 29.5372C39.7689 31.5032 39.5689 33.5859 39.0936 35.3976C39.0506 35.561 39.0025 35.6448 38.8448 35.7629C38.3373 36.1436 37.5798 36.7507 36.8264 37.3697L36.5889 37.5653C35.6814 38.3147 34.8193 39.0485 34.4534 39.386C34.3616 39.4712 34.2814 39.5672 34.2159 39.6737C34.0443 39.9518 33.7824 40.4305 33.6538 40.6681L33.6179 40.7345C33.5921 40.7824 33.5771 40.8104 33.5771 40.8104C33.4065 40.439 33.0345 39.5328 32.9069 39.1665C32.8653 39.047 32.8578 38.9843 32.9018 38.8243C33.11 38.0649 34.0937 35.8569 34.2852 35.4575L34.2855 35.621C34.2855 35.6448 34.2818 35.6683 34.2742 35.6907C34.1879 35.9518 33.659 37.6921 33.5515 38.4468C33.5276 38.6146 33.5297 38.6599 33.5515 38.8247C33.5986 39.177 33.8098 39.8232 33.8098 39.8232C33.8098 39.8232 33.935 39.5624 34.0518 39.386C34.1091 39.2996 34.1435 39.258 34.237 39.1655C34.71 38.6989 35.5169 37.9777 36.3573 37.2524L36.6548 36.9967C37.3004 36.444 37.9449 35.9062 38.4541 35.4953C38.5865 35.3884 38.6359 35.317 38.6653 35.1141C38.8113 34.1146 38.8537 32.3205 38.7656 31.015C38.7489 30.7685 38.6687 30.5302 38.5295 30.3257C38.2101 29.8548 37.8282 29.4092 37.2492 28.837C37.1666 28.7549 37.1103 28.6501 37.0891 28.5357C36.9202 27.637 36.5431 25.9934 36.5431 25.9934H36.5432Z" fill="white"/>
<path fill-rule="evenodd" clip-rule="evenodd" d="M29.7251 26.6477C29.7251 26.6477 29.8428 27.0279 29.9563 27.4408L29.996 27.5873C30.0677 27.8563 30.1316 28.1219 30.1548 28.2899C30.1769 28.4516 30.1732 28.4952 30.1155 28.6501C29.9757 29.0211 29.7183 29.6179 29.4438 30.228L29.3254 30.4897C28.9886 31.2299 28.6476 31.945 28.482 32.2545C28.4005 32.407 28.3237 32.5064 28.1701 32.662C27.8197 33.0177 27.1488 33.6901 26.7335 34.0662C26.5827 34.2031 26.5421 34.3199 26.5114 34.4969C26.4619 34.7811 26.4127 35.2662 26.3991 35.5168C26.3872 35.737 26.423 35.8402 26.5462 36.0584C27.2781 37.3605 29.7217 40.3563 30.4179 40.9854C30.4684 41.031 30.5052 41.0616 30.6117 41.1321C30.7141 41.2002 31.0478 41.416 31.0478 41.416C31.0611 41.4252 31.0724 41.4374 31.0809 41.4514L31.2017 41.6635C31.2017 41.6635 31.1904 41.6579 31.17 41.6478L31.1179 41.622C31.0759 41.6011 31.0204 41.5736 30.9567 41.5418L30.8016 41.4644C30.5638 41.3454 30.2803 41.2022 30.1312 41.1222C30.0698 41.0892 30.0121 41.0504 29.9586 41.0058C29.1433 40.3304 26.6451 37.4147 25.9104 36.1973C25.7272 35.8933 25.7084 35.7949 25.733 35.5073C25.7791 34.9718 25.8504 34.2984 25.9128 34.0033C25.9507 33.8252 25.99 33.7207 26.1268 33.5634C26.5866 33.0355 27.1475 32.3386 27.694 31.6234L27.8862 31.3705C28.7144 30.2735 29.4774 29.1754 29.7623 28.616C29.8275 28.4887 29.833 28.4445 29.8343 28.3243C29.8381 27.9757 29.7265 27.2969 29.6972 27.1253C29.6927 27.0984 29.6914 27.0712 29.6937 27.044L29.7251 26.6477Z" fill="white"/>
<path fill-rule="evenodd" clip-rule="evenodd" d="M31.9585 30.9626C31.9585 30.9626 32.0527 31.5199 32.0813 31.6816C32.0974 31.7731 32.1008 31.7976 32.0776 31.8875C32.0023 32.1765 31.6546 33.6997 31.3763 35.259L31.3329 35.5054C31.2192 36.1621 31.121 36.814 31.0638 37.3718C31.0313 37.6887 31.0419 37.7646 31.1259 38.0458C31.3637 38.8403 32.2434 40.9163 32.4123 41.2948C32.4311 41.3367 32.4424 41.3806 32.4478 41.4259L32.5113 41.9154C32.2294 41.4909 30.698 38.6834 30.0964 37.1287C30.0254 36.9455 30.0117 36.8553 30.0902 36.5187C30.5086 34.7324 31.6405 31.6972 31.9585 30.9626H31.9585Z" fill="white"/>
</g>
<defs>
<clipPath id="clip0_601_49967">
<rect width="32" height="35.1209" fill="white" transform="translate(16 12)"/>
</clipPath>
</defs>
</svg>
