<svg width="175" height="60" viewBox="0 0 175 60" fill="none" xmlns="http://www.w3.org/2000/svg">
<g clip-path="url(#clip0_601_49967)">
<mask id="mask0_601_49967" style="mask-type:alpha" maskUnits="userSpaceOnUse" x="16" y="12" width="32" height="36">
<path d="M48 47.2052H16V12.0052H48V47.2052Z" fill="black"/>
</mask>
<g mask="url(#mask0_601_49967)">
<path fill-rule="evenodd" clip-rule="evenodd" d="M31.2832 46.788C26.8091 44.7069 22.9231 41.2963 20.3406 37.1857C17.7644 33.0871 16.4104 28.3401 16.0792 22.2454C15.9737 20.301 15.9737 17.8757 16.0786 14.832L16.1263 13.4429L17.4972 13.2132C22.3213 12.4083 27.201 11.9999 32.0002 11.9999C36.7993 11.9999 41.6785 12.4083 46.502 13.2132L47.8729 13.4429L47.9212 14.832C48.0267 17.8762 48.0267 20.3016 47.9206 22.2454C47.5888 28.3401 46.2354 33.0871 43.6592 37.1857C41.0772 41.2963 37.1901 44.7069 32.7166 46.788L32.0002 47.1209L31.2832 46.788Z" fill="black"/>
</g>
<path fill-rule="evenodd" clip-rule="evenodd" d="M32.0001 13.0014C27.162 13.0014 22.1401 13.413 17.043 14.2896C16.9669 16.3257 16.8802 19.4729 17.0259 22.1435C17.3504 28.0979 18.6658 32.7195 21.1657 36.6881C23.6581 40.6452 27.518 44.0477 32.0001 46.0685C36.4823 44.0477 40.3417 40.6452 42.8341 36.6881C45.3344 32.7195 46.6494 28.0979 46.9742 22.1435C47.1193 19.4729 47.033 16.3257 46.9569 14.2896C41.8598 13.413 36.8382 13.0014 32.0001 13.0014ZM32.0001 13.575C36.7693 13.575 41.6118 13.9791 46.3994 14.7767C46.5045 17.7973 46.5044 20.2007 46.4 22.1125C46.0809 27.9654 44.7935 32.5002 42.3475 36.3831C39.9018 40.2657 36.2342 43.4728 32.0001 45.4377C27.7657 43.4728 24.0984 40.2657 21.6527 36.3831C19.2067 32.5002 17.919 27.9654 17.6002 22.1125C17.4958 20.2007 17.4958 17.7973 17.6009 14.7767C22.3884 13.9791 27.2306 13.575 32.0001 13.575Z" fill="white"/>
<path fill-rule="evenodd" clip-rule="evenodd" d="M21.9939 16.3071C21.947 16.306 21.8969 16.3082 21.8441 16.3136C21.1356 16.3875 20.4283 16.4688 19.7216 16.558V18.6451C19.8441 18.6295 19.9669 18.6145 20.0894 18.5995V17.9537C20.6736 17.8823 21.2588 17.8162 21.8441 17.7552C22.2672 17.7113 22.5037 17.5347 22.5037 17.0976V16.8614C22.5037 16.4875 22.3227 16.3152 21.9939 16.3071ZM21.9533 16.639C22.0485 16.6291 22.1441 16.7013 22.1441 16.797V17.2197C22.1441 17.3106 22.0485 17.3975 21.9533 17.4077C21.3316 17.4714 20.7101 17.5415 20.0894 17.6171V16.8487C20.7101 16.7728 21.3316 16.703 21.9533 16.639Z" fill="white"/>
<path fill-rule="evenodd" clip-rule="evenodd" d="M31.3212 15.7895C31.9836 15.7848 32.6459 15.7871 33.3079 15.796V16.1323C32.6002 16.1231 31.8921 16.1211 31.1841 16.1269C31.0882 16.1279 30.9923 16.2106 30.9923 16.3063V17.3521C30.9923 17.4477 31.0882 17.5424 31.1841 17.5413C31.8191 17.5359 32.4538 17.5369 33.0888 17.5441V16.98C32.7203 16.9759 32.3518 16.9739 31.9836 16.9742V16.6375C32.4722 16.6375 32.9609 16.6413 33.4495 16.6484V17.8852C32.763 17.875 32.0764 17.8722 31.3898 17.8763C30.8872 17.8797 30.6316 17.7933 30.6316 17.3065V16.3968C30.6316 15.9424 30.8599 15.7929 31.3212 15.7895V15.7895Z" fill="white"/>
<path fill-rule="evenodd" clip-rule="evenodd" d="M38.4947 16.0078C38.0987 16.0089 37.9207 16.1338 37.9207 16.5434V17.4754C37.9207 17.9714 38.1762 18.0682 38.6778 18.1019C39.1385 18.1332 39.5984 18.1678 40.0588 18.2056C40.5553 18.2465 40.815 18.162 40.815 17.6933V16.7613C40.815 16.2836 40.5143 16.1559 40.0588 16.1185C39.5984 16.0804 39.1385 16.046 38.6778 16.0144C38.6122 16.01 38.5512 16.0076 38.4947 16.0078ZM38.4728 16.3374C39.0703 16.3765 39.6671 16.4215 40.2639 16.4719C40.3595 16.48 40.455 16.5702 40.455 16.6791V17.7118C40.455 17.8071 40.3595 17.8945 40.2639 17.8864C39.6671 17.836 39.0703 17.791 38.4728 17.7515C38.3632 17.744 38.2809 17.6437 38.2809 17.548V16.5158C38.2809 16.4065 38.3632 16.3299 38.4728 16.3374Z" fill="white"/>
<path fill-rule="evenodd" clip-rule="evenodd" d="M29.7277 15.8135V17.3233C29.7277 17.8009 29.4763 17.9057 28.9695 17.9214C28.5283 17.935 28.0871 17.9513 27.6459 17.9711C27.1756 17.9922 26.8883 17.903 26.8883 17.4302V15.9204L27.2487 15.902V17.4754C27.2487 17.5711 27.3309 17.6491 27.4401 17.6439C28.0185 17.6171 28.5965 17.5953 29.1749 17.5786C29.2848 17.5755 29.3578 17.4918 29.3578 17.3961V15.8227C29.481 15.8193 29.6042 15.8162 29.7277 15.8135V15.8135Z" fill="white"/>
<path fill-rule="evenodd" clip-rule="evenodd" d="M34.3516 15.8153C35.2401 15.8364 36.1284 15.8698 37.0166 15.9154V16.2517C36.2488 16.2126 35.4807 16.1823 34.7123 16.1612V16.6749C35.3958 16.694 36.0789 16.7198 36.7617 16.7529V17.0895C36.0789 17.0565 35.3958 17.0303 34.7123 17.0116V17.5753C35.4807 17.5964 36.2488 17.6267 37.0166 17.6662V18.0026C36.1284 17.9573 35.2401 17.9239 34.3516 17.9025V15.8153Z" fill="white"/>
<path fill-rule="evenodd" clip-rule="evenodd" d="M25.9843 15.9716V16.308C25.2169 16.3553 24.4498 16.4114 23.6834 16.4765V16.9905C24.3652 16.9323 25.0473 16.8816 25.7298 16.838V17.1747C25.0473 17.2182 24.3652 17.269 23.6834 17.3268V17.8909C24.4498 17.8256 25.2169 17.7694 25.9843 17.7224V18.0588C25.0968 18.1132 24.2099 18.1799 23.3234 18.2586V16.1711C24.2099 16.0925 25.0968 16.0261 25.9843 15.9716Z" fill="white"/>
<path fill-rule="evenodd" clip-rule="evenodd" d="M41.4828 16.2459C42.4157 16.3365 43.348 16.4406 44.2786 16.5578V16.8944C43.8762 16.8437 43.4732 16.7954 43.0699 16.7498V18.5006C42.9474 18.4866 42.8249 18.473 42.7017 18.4594V16.7086C42.296 16.664 41.8892 16.6221 41.4828 16.5826V16.2459Z" fill="white"/>
<path fill-rule="evenodd" clip-rule="evenodd" d="M29.1389 20.24C30.8519 20.0899 33.1699 20.049 35.3842 20.2162C35.5101 20.2257 35.6326 20.2553 35.749 20.3044C36.4745 20.6087 37.7616 21.2746 39.1928 22.0913C39.2559 22.1273 39.3153 22.1696 39.3699 22.2176C39.749 22.5508 40.7096 23.5313 40.7096 23.5313L40.41 23.472C40.368 23.4638 40.3287 23.4475 40.2933 23.4237C39.6872 23.0176 38.8024 22.4889 38.0609 22.1161C37.9728 22.0722 37.8776 22.0439 37.7797 22.0337C37.419 21.9953 36.9314 21.9616 36.6123 21.9486C36.455 21.9422 36.3479 21.9159 36.194 21.838C35.8998 21.6892 35.1873 21.3668 34.8324 21.2317C34.6806 21.1738 34.6031 21.1602 34.4543 21.1626C33.8445 21.1714 32.4554 21.2157 31.7459 21.2596C31.7213 21.261 31.6978 21.2599 31.6739 21.2562L31.3358 21.2034C32.2946 21.0387 34.6649 20.8279 35.6459 20.7765L35.2467 20.6434C35.1696 20.6179 35.0894 20.6043 35.0078 20.6022C34.7948 20.5972 34.3212 20.5877 33.7065 20.5869L33.4965 20.587C32.5653 20.5888 31.3672 20.6116 30.2622 20.6945C30.1656 20.7016 30.0715 20.7248 29.9827 20.7639C29.5364 20.9595 28.448 21.5482 27.3564 22.1529L27.1141 22.2874C26.8319 22.4442 26.5526 22.6003 26.2875 22.7489C26.2875 22.7489 26.4236 22.5743 26.4499 22.5403C26.4731 22.5107 26.4803 22.5052 26.5117 22.4848C26.5555 22.4561 26.7053 22.3577 26.8563 22.2578L26.9681 22.1837C27.0587 22.1235 27.1397 22.0695 27.1853 22.0381C27.2078 22.0228 27.2221 22.0119 27.2504 21.9908C27.5791 21.7437 28.0977 21.3079 28.4069 21.038C28.4769 20.977 28.5362 20.9062 28.585 20.8273C28.685 20.6659 28.7942 20.4909 28.8614 20.3939C28.9188 20.3098 29.0167 20.2509 29.1389 20.24V20.24Z" fill="white"/>
<path fill-rule="evenodd" clip-rule="evenodd" d="M29.9687 21.8913C30.008 21.891 30.0325 21.9332 30.0131 21.9669L29.1852 23.3888C29.1392 23.4726 29.062 23.5349 28.9706 23.5624L27.4183 24.0469C27.2381 24.1013 27.0859 24.1306 26.8982 24.1449C26.5539 24.1708 25.5312 24.2028 25.5312 24.2028L25.5538 24.1544C25.5643 24.1316 25.5831 24.1136 25.6063 24.1037L26.0902 23.8988C26.1264 23.8835 26.1581 23.86 26.1823 23.8297L26.9296 22.9119C26.9696 22.8629 27.0218 22.8159 27.0774 22.7866C27.5712 22.5276 28.4492 22.1384 29.0641 21.9335C29.1221 21.9141 29.2002 21.9019 29.2613 21.9012L29.9687 21.8913Z" fill="white"/>
<path fill-rule="evenodd" clip-rule="evenodd" d="M26.1053 24.4461C26.1378 24.4434 26.1685 24.4615 26.1811 24.4911C26.2238 24.5901 26.2121 24.7008 26.1709 24.7954C26.1548 24.8339 26.1053 24.8713 26.0647 24.8802L25.7252 24.9554C25.7047 24.9598 25.686 24.9435 25.6873 24.9227L25.7191 24.5251C25.7215 24.4982 25.7426 24.4768 25.7696 24.4747L26.1053 24.4461Z" fill="white"/>
<path fill-rule="evenodd" clip-rule="evenodd" d="M33.6349 22.7671C33.6857 22.7583 33.7379 22.7654 33.7847 22.7875L34.1392 22.9567C34.174 22.9734 34.1996 23.0051 34.2088 23.0432C34.2569 23.2454 34.316 23.5133 34.3556 23.7411C34.3716 23.8357 34.3538 23.9324 34.3057 24.0158C34.159 24.2701 33.8577 24.7276 33.6891 24.9734C33.6516 25.0286 33.6471 25.0953 33.6587 25.161C33.7352 25.5824 34.0539 27.0541 34.0539 27.0541L33.8533 26.872C33.8133 26.8352 33.7871 26.7964 33.77 26.7457C33.6274 26.3293 33.3605 25.4595 33.2377 25.0364C33.2179 24.9666 33.2329 24.8921 33.2789 24.8366C33.4881 24.5833 33.7929 24.1782 33.971 23.9215C34.0208 23.8493 34.0372 23.7697 34.0078 23.7101C33.9669 23.6264 33.898 23.499 33.8318 23.3836C33.814 23.3516 33.7843 23.3278 33.7492 23.3162L33.5086 23.2393C33.4666 23.226 33.4216 23.2267 33.38 23.2417C32.8558 23.4313 32.1508 23.7047 31.7195 23.883C31.6564 23.9092 31.6304 23.9113 31.554 23.8997C31.4291 23.8813 31.0653 23.8163 30.8869 23.783C30.8548 23.7768 30.8388 23.7407 30.8551 23.7125L31.0667 23.3469C31.0954 23.2975 31.1428 23.2624 31.1988 23.2498C31.8792 23.0953 32.779 22.9176 33.6349 22.7671V22.7671Z" fill="white"/>
<path fill-rule="evenodd" clip-rule="evenodd" d="M26.2368 23.1503L26.0976 23.3212C26.0897 23.3287 26.0822 23.3358 26.0744 23.3436C25.9519 23.4338 25.4362 23.8277 25.2967 23.938C25.2571 23.9693 25.2414 23.9966 25.2322 24.0459C25.2008 24.2202 25.1486 24.5515 25.1332 24.7349C25.1288 24.7887 25.1056 24.8153 25.0506 24.8374C24.8114 24.9344 24.5279 25.0366 24.2986 25.1281C24.2494 25.1475 24.2358 25.155 24.2068 25.1772C24.1839 25.1949 23.8792 25.4662 23.8792 25.4662C23.8792 25.4662 24.5415 25.3035 24.7845 25.2486C24.8425 25.2357 24.8674 25.2391 24.921 25.2643C24.9711 25.2875 25.0547 25.3205 25.0988 25.3365C25.1663 25.3613 25.2022 25.3603 25.2769 25.344C25.5506 25.283 26.0109 25.1741 26.2559 25.1104C26.3832 25.0774 26.4528 25.043 26.5606 24.9678C26.678 24.8864 26.9752 24.6641 26.9752 24.6641C26.9752 24.6641 26.9698 24.7033 26.9657 24.7251C26.9626 24.7438 26.9558 24.7544 26.9435 24.769C26.8831 24.8415 26.7773 24.9596 26.7248 25.0138C26.6043 25.138 26.5323 25.1823 26.3811 25.2452C25.685 25.5346 24.4954 25.984 23.6031 26.2921C23.5448 26.3125 23.5195 26.3292 23.4762 26.3734C23.4291 26.4211 23.3663 26.4905 23.3663 26.4905C23.3663 26.4905 24.0938 26.5433 24.316 26.5688C24.388 26.577 24.4395 26.6005 24.4944 26.6478C24.677 26.8044 25.2813 27.425 25.4622 27.6405C25.4622 27.6405 23.744 27.9254 22.9479 28.1225C22.8497 28.1467 22.8005 28.209 22.7783 28.2876C22.7125 28.5184 22.5572 29.2606 22.5572 29.2606C22.5572 29.2606 22.5019 29.2428 22.4248 29.1986C22.3719 29.1683 22.345 29.1431 22.287 29.0818C22.0986 28.8834 21.7891 28.5034 21.6403 28.2832C21.5966 28.2182 21.5782 28.1354 21.6328 28.0691C21.7942 27.8709 22.1184 27.5094 22.2972 27.3235C22.3163 27.3035 22.3405 27.2684 22.3661 27.218C22.4263 27.0988 22.5056 26.7969 22.5332 26.6878L22.5421 26.6526L22.5432 26.6478C22.5432 26.6478 22.5415 26.6488 22.5384 26.6508L22.5058 26.6713C22.4615 26.699 22.39 26.7439 22.3593 26.7632C22.3132 26.7925 22.3006 26.8051 22.2815 26.8452C22.2525 26.9058 22.2016 27.0015 22.1631 27.0679C22.1505 27.0897 22.1167 27.1234 22.0986 27.1373C21.8703 27.3113 21.6181 27.4982 21.4386 27.6241C21.4263 27.6326 21.4107 27.6289 21.4001 27.6187C21.3772 27.5959 21.2813 27.4873 21.2643 27.4617C21.2499 27.4403 21.2434 27.4202 21.2434 27.3943C21.2431 27.3491 21.2475 27.2694 21.252 27.2102C21.2574 27.14 21.2776 27.1067 21.3632 27.0182C21.4591 26.9191 21.5635 26.8149 21.6734 26.708C21.9426 26.482 22.6224 25.9319 23.8362 25.0679C23.859 25.0515 23.8798 25.0325 23.8966 25.0097C24.0242 24.8381 24.3862 24.3697 24.4756 24.2584C24.4883 24.2427 24.5023 24.2281 24.5183 24.2155C24.6613 24.1028 24.7319 24.0541 24.8769 23.9629C25.2151 23.7504 25.8699 23.363 26.2368 23.1503L26.2368 23.1503Z" fill="white"/>
<path fill-rule="evenodd" clip-rule="evenodd" d="M23.4925 28.9881L23.3427 30.0192L22.8333 29.4228C22.9261 29.2223 23.1974 29.033 23.4925 28.9881Z" fill="white"/>
<path fill-rule="evenodd" clip-rule="evenodd" d="M26.848 29.5352C26.5941 29.9518 26.2908 30.3944 26.0614 30.6708C26.0314 30.7069 25.9915 30.7348 25.9461 30.7518C25.6953 30.8455 25.2773 30.9864 24.9695 31.08L26.848 29.5352Z" fill="white"/>
<path fill-rule="evenodd" clip-rule="evenodd" d="M37.679 22.8406C37.8134 22.7912 37.9608 22.7946 38.0929 22.8501C39.1173 23.279 40.8398 24.288 41.7974 24.9988C41.8898 25.0676 41.9267 25.1149 41.9509 25.2259C42.1758 26.2458 42.2611 27.8223 42.1195 29.1496C42.1093 29.245 42.0901 29.3021 42.0403 29.4039C41.4336 30.6414 40.7508 31.806 40.0321 32.7043L40.0336 32.6897C40.0429 32.594 40.0945 32.0546 40.0973 31.7627C40.0976 31.7297 40.113 31.6994 40.1393 31.6793C40.2727 31.5758 40.4559 31.4288 40.5597 31.3392C40.6102 31.2957 40.6382 31.263 40.6644 31.2208C40.9572 30.7489 41.4807 29.761 41.6916 29.1667C41.7431 29.0216 41.7636 28.8681 41.7509 28.7146C41.6834 27.8863 41.553 26.7387 41.3589 25.9898C41.3258 25.8622 41.2411 25.7542 41.1234 25.694C40.9559 25.6082 40.6272 25.4588 39.8789 25.1595C39.7752 25.118 39.6783 25.0605 39.5929 24.989C39.1022 24.5777 38.3351 23.9612 37.8577 23.6065C37.7182 23.5027 37.5401 23.4649 37.3701 23.5034C37.0224 23.582 36.5798 23.6916 36.3307 23.759C36.2461 23.7818 36.2126 23.7839 36.1253 23.7737C36.0798 23.7684 36.021 23.7626 35.9592 23.757L35.8656 23.7488C35.7569 23.7396 35.6548 23.7317 35.6148 23.7287L35.597 23.7274C36.4089 23.3471 37.1899 23.0189 37.6789 22.8406L37.679 22.8406Z" fill="white"/>
<path fill-rule="evenodd" clip-rule="evenodd" d="M25.592 28.0727C25.6725 28.0469 25.7582 28.0438 25.8401 28.0635C26.2093 28.1521 26.9907 28.343 27.5814 28.4938C27.6643 28.5149 27.7677 28.5922 27.8117 28.6654L27.9404 28.8789C27.9854 28.9538 27.9885 29.0457 27.9486 29.1233C27.8412 29.3309 27.6881 29.612 27.5262 29.9019L27.4037 30.12C27.1782 30.519 26.9537 30.904 26.8262 31.1066C26.7423 31.2404 26.6955 31.2996 26.5461 31.3524C25.965 31.5563 25.2432 31.8 24.8143 31.9386C24.7266 31.9668 24.6969 32.02 24.714 32.117C24.7447 32.2937 24.8437 32.8935 24.8815 33.0685C24.8955 33.1331 24.9474 33.1845 25.0436 33.1662C25.2972 33.1182 25.9721 32.9534 25.9721 32.9534C25.9721 32.9534 25.7732 33.1369 25.6541 33.2451C25.6323 33.2656 25.607 33.2805 25.5787 33.2897C25.3948 33.351 24.9457 33.4766 24.8058 33.5073C24.6966 33.5308 24.627 33.4879 24.599 33.3646C24.599 33.3646 24.4075 32.5517 24.3383 32.2753C24.3274 32.2331 24.3164 32.1966 24.3031 32.1551C24.2513 31.9951 24.1267 31.6806 24.0564 31.5158C24.0482 31.4967 24.0441 31.4763 24.0445 31.4552C24.0465 31.2669 24.0813 30.8469 24.0813 30.8469C24.0813 30.8469 24.4946 31.2332 24.6945 31.3728C24.7396 31.4045 24.7665 31.4109 24.8218 31.397C25.0965 31.3265 25.7281 31.1182 26.0748 30.9888C26.154 30.9592 26.2233 30.9095 26.2772 30.8445C26.6358 30.4125 27.0856 29.7405 27.3453 29.2336C27.3811 29.1638 27.3879 29.0838 27.3654 29.0089L27.3094 28.8251C27.2931 28.7713 27.2361 28.7107 27.1835 28.6906C26.5724 28.4588 26.0905 28.2865 25.5244 28.0942L25.592 28.0727Z" fill="white"/>
<path fill-rule="evenodd" clip-rule="evenodd" d="M36.5432 25.9934L36.7544 26.085C36.8168 26.1119 36.8738 26.1514 36.9209 26.2004C38.2159 27.5485 39.2516 28.9463 39.459 29.3146C39.499 29.3854 39.5263 29.4562 39.5362 29.5372C39.7689 31.5032 39.5689 33.5859 39.0936 35.3976C39.0506 35.561 39.0025 35.6448 38.8448 35.7629C38.3373 36.1436 37.5798 36.7507 36.8264 37.3697L36.5889 37.5653C35.6814 38.3147 34.8193 39.0485 34.4534 39.386C34.3616 39.4712 34.2814 39.5672 34.2159 39.6737C34.0443 39.9518 33.7824 40.4305 33.6538 40.6681L33.6179 40.7345C33.5921 40.7824 33.5771 40.8104 33.5771 40.8104C33.4065 40.439 33.0345 39.5328 32.9069 39.1665C32.8653 39.047 32.8578 38.9843 32.9018 38.8243C33.11 38.0649 34.0937 35.8569 34.2852 35.4575L34.2855 35.621C34.2855 35.6448 34.2818 35.6683 34.2742 35.6907C34.1879 35.9518 33.659 37.6921 33.5515 38.4468C33.5276 38.6146 33.5297 38.6599 33.5515 38.8247C33.5986 39.177 33.8098 39.8232 33.8098 39.8232C33.8098 39.8232 33.935 39.5624 34.0518 39.386C34.1091 39.2996 34.1435 39.258 34.237 39.1655C34.71 38.6989 35.5169 37.9777 36.3573 37.2524L36.6548 36.9967C37.3004 36.444 37.9449 35.9062 38.4541 35.4953C38.5865 35.3884 38.6359 35.317 38.6653 35.1141C38.8113 34.1146 38.8537 32.3205 38.7656 31.015C38.7489 30.7685 38.6687 30.5302 38.5295 30.3257C38.2101 29.8548 37.8282 29.4092 37.2492 28.837C37.1666 28.7549 37.1103 28.6501 37.0891 28.5357C36.9202 27.637 36.5431 25.9934 36.5431 25.9934H36.5432Z" fill="white"/>
<path fill-rule="evenodd" clip-rule="evenodd" d="M29.7251 26.6477C29.7251 26.6477 29.8428 27.0279 29.9563 27.4408L29.996 27.5873C30.0677 27.8563 30.1316 28.1219 30.1548 28.2899C30.1769 28.4516 30.1732 28.4952 30.1155 28.6501C29.9757 29.0211 29.7183 29.6179 29.4438 30.228L29.3254 30.4897C28.9886 31.2299 28.6476 31.945 28.482 32.2545C28.4005 32.407 28.3237 32.5064 28.1701 32.662C27.8197 33.0177 27.1488 33.6901 26.7335 34.0662C26.5827 34.2031 26.5421 34.3199 26.5114 34.4969C26.4619 34.7811 26.4127 35.2662 26.3991 35.5168C26.3872 35.737 26.423 35.8402 26.5462 36.0584C27.2781 37.3605 29.7217 40.3563 30.4179 40.9854C30.4684 41.031 30.5052 41.0616 30.6117 41.1321C30.7141 41.2002 31.0478 41.416 31.0478 41.416C31.0611 41.4252 31.0724 41.4374 31.0809 41.4514L31.2017 41.6635C31.2017 41.6635 31.1904 41.6579 31.17 41.6478L31.1179 41.622C31.0759 41.6011 31.0204 41.5736 30.9567 41.5418L30.8016 41.4644C30.5638 41.3454 30.2803 41.2022 30.1312 41.1222C30.0698 41.0892 30.0121 41.0504 29.9586 41.0058C29.1433 40.3304 26.6451 37.4147 25.9104 36.1973C25.7272 35.8933 25.7084 35.7949 25.733 35.5073C25.7791 34.9718 25.8504 34.2984 25.9128 34.0033C25.9507 33.8252 25.99 33.7207 26.1268 33.5634C26.5866 33.0355 27.1475 32.3386 27.694 31.6234L27.8862 31.3705C28.7144 30.2735 29.4774 29.1754 29.7623 28.616C29.8275 28.4887 29.833 28.4445 29.8343 28.3243C29.8381 27.9757 29.7265 27.2969 29.6972 27.1253C29.6927 27.0984 29.6914 27.0712 29.6937 27.044L29.7251 26.6477Z" fill="white"/>
<path fill-rule="evenodd" clip-rule="evenodd" d="M31.9585 30.9626C31.9585 30.9626 32.0527 31.5199 32.0813 31.6816C32.0974 31.7731 32.1008 31.7976 32.0776 31.8875C32.0023 32.1765 31.6546 33.6997 31.3763 35.259L31.3329 35.5054C31.2192 36.1621 31.121 36.814 31.0638 37.3718C31.0313 37.6887 31.0419 37.7646 31.1259 38.0458C31.3637 38.8403 32.2434 40.9163 32.4123 41.2948C32.4311 41.3367 32.4424 41.3806 32.4478 41.4259L32.5113 41.9154C32.2294 41.4909 30.698 38.6834 30.0964 37.1287C30.0254 36.9455 30.0117 36.8553 30.0902 36.5187C30.5086 34.7324 31.6405 31.6972 31.9585 30.9626H31.9585Z" fill="white"/>
</g>
<g clip-path="url(#clip1_601_49967)">
<path d="M88 13.5605C92.6667 13.5605 97.5067 13.9591 102.423 14.8071C102.496 16.7778 102.58 19.8231 102.44 22.4071C102.127 28.1698 100.859 32.6418 98.448 36.4831C96.0427 40.3125 92.3213 43.6045 88 45.5605C83.6773 43.6045 79.956 40.3125 77.552 36.4831C75.1413 32.6431 73.8733 28.1698 73.56 22.4071C73.42 19.8231 73.504 16.7778 73.5773 14.8071C78.3407 13.982 83.1657 13.5649 88 13.5605ZM88 14.1151C83.4 14.1151 78.7333 14.5071 74.1147 15.2805C74.0133 18.2031 74.0133 20.5285 74.1147 22.3791C74.4213 28.0431 75.664 32.4325 78.0213 36.1885C80.3813 39.9458 83.9173 43.0498 88 44.9511C92.0827 43.0498 95.62 39.9458 97.9787 36.1885C100.337 32.4311 101.579 28.0418 101.885 22.3791C101.987 20.5285 101.987 18.2031 101.885 15.2805C97.2969 14.5102 92.6527 14.1204 88 14.1151ZM87.96 30.9418L88.0787 31.6378C88.0964 31.7035 88.095 31.7729 88.0747 31.8378C88.0107 32.0631 87.5907 33.9578 87.3573 35.3378C87.2467 35.9738 87.152 36.6045 87.0973 37.1445C87.0599 37.3633 87.0805 37.5882 87.1573 37.7965C87.3867 38.5658 88.2347 40.5738 88.3973 40.9405C88.4152 40.9807 88.4269 41.0234 88.432 41.0671L88.4933 41.5405C88.2213 41.1298 86.744 38.4138 86.164 36.9085C86.096 36.7311 86.084 36.6445 86.1587 36.3178C86.5613 34.5898 87.6533 31.6525 87.96 30.9418ZM85.8067 26.7658C85.8467 26.8885 86.1933 28.0725 86.22 28.3551C86.2464 28.4725 86.2333 28.5953 86.1827 28.7045C85.8787 29.5125 84.9613 31.5218 84.608 32.1925C84.528 32.3391 84.4547 32.4365 84.3067 32.5871C83.9693 32.9311 83.3213 33.5818 82.9213 33.9458C82.7993 34.0518 82.7229 34.2008 82.708 34.3618C82.6563 34.6888 82.6198 35.0181 82.5987 35.3485C82.588 35.5618 82.6213 35.6618 82.7413 35.8738C83.4467 37.1338 85.8027 40.0338 86.4747 40.6418C86.5326 40.6943 86.5951 40.7416 86.6613 40.7831C86.76 40.8498 87.0813 41.0578 87.0813 41.0578C87.0943 41.067 87.1052 41.0788 87.1133 41.0925L87.2307 41.2978C86.8842 41.1271 86.5398 40.9524 86.1973 40.7738C86.1381 40.7417 86.0823 40.7037 86.0307 40.6605C85.244 40.0071 82.836 37.1858 82.128 36.0071C81.9507 35.7138 81.9333 35.6191 81.956 35.3405C82.0013 34.8218 82.0693 34.1698 82.1293 33.8845C82.1539 33.7247 82.2259 33.5761 82.336 33.4578C83.3413 32.3058 85.2773 29.7605 85.8427 28.6711C85.8936 28.586 85.9178 28.4875 85.912 28.3885C85.9147 28.0511 85.808 27.3951 85.7787 27.2285C85.7745 27.2025 85.7736 27.176 85.776 27.1498L85.8067 26.7658ZM92.38 26.1338C92.4893 26.1831 92.6653 26.2405 92.7453 26.3338C93.9947 27.6378 94.9933 28.9911 95.1933 29.3471C95.232 29.4135 95.257 29.487 95.2667 29.5631C95.492 31.4658 95.2987 33.4805 94.84 35.2338C94.8258 35.3058 94.7973 35.3742 94.756 35.4349C94.7148 35.4957 94.6617 35.5474 94.6 35.5871C93.5867 36.3498 91.1747 38.3498 90.3653 39.0938C90.277 39.1759 90.2003 39.2697 90.1373 39.3725C89.9333 39.7058 89.6813 40.1738 89.5213 40.4725C89.356 40.1125 88.9973 39.2351 88.8747 38.8818C88.831 38.7758 88.8291 38.6572 88.8693 38.5498C89.0693 37.8165 90.0187 35.6791 90.2027 35.2925C90.2013 35.3418 90.212 35.4711 90.1933 35.5191C90.1093 35.7711 89.6 37.4551 89.496 38.1858C89.474 38.3066 89.474 38.4304 89.496 38.5511C89.5413 38.8911 89.7453 39.5165 89.7453 39.5165C89.768 39.4618 89.9973 39.0058 90.1573 38.8805C91.1027 37.9498 93.0867 36.2498 94.224 35.3285C94.352 35.2258 94.3987 35.1551 94.428 34.9591C94.568 33.9925 94.6093 32.2565 94.524 30.9925C94.5088 30.7541 94.4306 30.524 94.2973 30.3258C93.988 29.8698 93.62 29.4391 93.0613 28.8858C92.9815 28.806 92.928 28.7036 92.908 28.5925C92.7444 27.7704 92.5688 26.9508 92.3813 26.1338H92.38ZM81.82 28.1458C81.8976 28.1205 81.9807 28.1173 82.06 28.1365C82.416 28.2218 83.1693 28.4071 83.74 28.5525C83.82 28.5738 83.9187 28.6485 83.9613 28.7191L84.0853 28.9258C84.1067 28.9612 84.1186 29.0015 84.12 29.0428C84.1214 29.0841 84.1122 29.125 84.0933 29.1618C83.9611 29.4149 83.825 29.666 83.6853 29.9151L83.568 30.1258C83.3507 30.5125 83.1333 30.8858 83.0107 31.0818C82.9307 31.2111 82.8853 31.2685 82.7413 31.3191C82.1813 31.5165 81.484 31.7525 81.0707 31.8858C80.9867 31.9138 80.9573 31.9658 80.9747 32.0591C81.004 32.2298 81.0987 32.8111 81.1347 32.9791C81.148 33.0418 81.1987 33.0925 81.292 33.0738C81.536 33.0285 82.1867 32.8685 82.1867 32.8685L81.88 33.1511C81.8594 33.1704 81.8348 33.185 81.808 33.1938C81.5615 33.2722 81.3125 33.3425 81.0613 33.4045C80.9573 33.4271 80.8907 33.3858 80.8627 33.2671C80.8627 33.2671 80.6787 32.4805 80.612 32.2125C80.6016 32.1735 80.59 32.1348 80.5773 32.0965C80.5052 31.8876 80.426 31.6813 80.34 31.4778C80.3319 31.4593 80.3279 31.4393 80.328 31.4191C80.3307 31.2365 80.364 30.8298 80.364 30.8298C80.364 30.8298 80.7627 31.2031 80.956 31.3391C80.9987 31.3698 81.0253 31.3765 81.0787 31.3618C81.3427 31.2951 81.952 31.0925 82.2867 30.9671C82.3627 30.9384 82.4299 30.8901 82.4813 30.8271C82.828 30.4098 83.2613 29.7605 83.512 29.2685C83.5459 29.2011 83.5526 29.1233 83.5307 29.0511L83.4773 28.8738C83.4668 28.8451 83.4506 28.8187 83.4298 28.7963C83.409 28.7738 83.3839 28.7558 83.356 28.7431C82.8263 28.5407 82.2929 28.3482 81.756 28.1658L81.8213 28.1458H81.82ZM93.476 23.0818C93.6057 23.0339 93.7487 23.0372 93.876 23.0911C94.8627 23.5058 96.524 24.4831 97.448 25.1711C97.5373 25.2378 97.572 25.2831 97.5947 25.3898C97.812 26.3765 97.8947 27.9031 97.7587 29.1871C97.7503 29.2737 97.7244 29.3576 97.6827 29.4338C97.096 30.6311 96.4387 31.7578 95.7453 32.6271C95.756 32.5205 95.8053 32.0125 95.808 31.7165C95.8081 31.701 95.8118 31.6857 95.8187 31.6718C95.8256 31.6579 95.8357 31.6459 95.848 31.6365C95.9859 31.5296 96.1215 31.4198 96.2547 31.3071C96.2941 31.2746 96.3278 31.2359 96.3547 31.1925C96.6373 30.7351 97.1413 29.7791 97.3453 29.2045C97.3952 29.0644 97.4148 28.9153 97.4027 28.7671C97.3373 27.9645 97.212 26.8551 97.024 26.1298C97.0087 26.0687 96.9805 26.0116 96.9414 25.9621C96.9024 25.9127 96.8533 25.8722 96.7973 25.8431C96.4047 25.6541 96.0043 25.4815 95.5973 25.3258C95.4972 25.2861 95.4041 25.2307 95.3213 25.1618C94.7745 24.7021 94.2165 24.2558 93.648 23.8231C93.5816 23.7736 93.5053 23.7389 93.4243 23.7217C93.3433 23.7044 93.2595 23.7049 93.1787 23.7231C92.843 23.7998 92.5087 23.8825 92.176 23.9711C92.1118 23.9916 92.0437 23.9962 91.9773 23.9845C91.844 23.9698 91.5773 23.9485 91.468 23.9405C92.1256 23.6275 92.7955 23.3411 93.476 23.0818ZM83.032 29.5618C82.8031 29.9436 82.5497 30.3102 82.2733 30.6591C82.2441 30.695 82.2059 30.7226 82.1627 30.7391C81.8513 30.8527 81.537 30.9581 81.22 31.0551L83.032 29.5618ZM79.796 29.0311L79.652 30.0285L79.16 29.4525C79.2507 29.2578 79.512 29.0751 79.796 29.0311ZM78.8813 26.7658L78.704 26.8778C78.6587 26.9058 78.6467 26.9178 78.628 26.9578C78.5927 27.0306 78.5549 27.1022 78.5147 27.1725C78.4972 27.1977 78.4761 27.2201 78.452 27.2391C78.2428 27.4002 78.0308 27.5576 77.816 27.7111C77.804 27.7191 77.7893 27.7165 77.7787 27.7058C77.7329 27.6571 77.6893 27.6064 77.648 27.5538C77.6345 27.5347 77.6275 27.5118 77.628 27.4885C77.6287 27.4293 77.6314 27.3701 77.636 27.3111C77.6413 27.2431 77.66 27.2111 77.7427 27.1245C77.836 27.0285 77.936 26.9285 78.0427 26.8245C78.3013 26.6058 78.9573 26.0738 80.128 25.2378C80.1505 25.222 80.1703 25.2026 80.1867 25.1805C80.3093 25.0151 80.6587 24.5618 80.744 24.4538C80.7563 24.439 80.7701 24.4256 80.7853 24.4138C80.8955 24.3247 81.0113 24.2428 81.132 24.1685C81.4573 23.9631 82.0893 23.5871 82.4427 23.3818L82.3093 23.5471L82.2853 23.5685C82.034 23.7584 81.7842 23.9504 81.536 24.1445C81.5189 24.1565 81.5045 24.172 81.4937 24.1899C81.4829 24.2078 81.476 24.2277 81.4733 24.2485C81.4336 24.4695 81.402 24.6918 81.3787 24.9151C81.3747 24.9685 81.352 24.9925 81.2987 25.0151C81.068 25.1085 80.7947 25.2071 80.5733 25.2951C80.5414 25.3059 80.5117 25.3221 80.4853 25.3431C80.4627 25.3605 80.1693 25.6231 80.1693 25.6231C80.1693 25.6231 80.808 25.4658 81.0427 25.4125C81.0643 25.4058 81.0871 25.4036 81.1095 25.4061C81.132 25.4087 81.1538 25.4158 81.1733 25.4271C81.2227 25.4498 81.3027 25.4818 81.3453 25.4978C81.4001 25.52 81.461 25.5224 81.5173 25.5045C81.7813 25.4458 82.224 25.3405 82.4613 25.2778C82.5676 25.2528 82.6674 25.206 82.7547 25.1405C82.868 25.0618 83.1547 24.8471 83.1547 24.8471L83.1453 24.9058C83.1427 24.9219 83.1353 24.9367 83.124 24.9485C83.0562 25.0297 82.9859 25.1088 82.9133 25.1858C82.8228 25.2867 82.7088 25.3636 82.5813 25.4098C81.9107 25.6898 80.764 26.1245 79.9027 26.4231C79.8554 26.437 79.8129 26.4637 79.78 26.5005L79.6733 26.6138C79.6733 26.6138 80.376 26.6658 80.5907 26.6898C80.6548 26.6956 80.7152 26.7223 80.7627 26.7658C80.9387 26.9178 81.5213 27.5191 81.696 27.7258C81.696 27.7258 80.0387 28.0031 79.2707 28.1925C79.2312 28.201 79.195 28.2206 79.1662 28.2489C79.1374 28.2772 79.1172 28.3131 79.108 28.3525C79.044 28.5765 78.8947 29.2951 78.8947 29.2951C78.8947 29.2951 78.8413 29.2778 78.7667 29.2351C78.7161 29.2052 78.671 29.1669 78.6333 29.1218C78.4088 28.8778 78.2004 28.6195 78.0093 28.3485C77.968 28.2858 77.9507 28.2058 78.0027 28.1418C78.1587 27.9498 78.4707 27.6005 78.6427 27.4205C78.6694 27.3894 78.6919 27.3549 78.7093 27.3178C78.776 27.1805 78.848 26.8938 78.8813 26.7658ZM89.576 23.0111C89.6254 23.0025 89.6762 23.0095 89.7213 23.0311L90.0627 23.1938C90.0794 23.2019 90.094 23.2137 90.1056 23.2282C90.1171 23.2428 90.1252 23.2597 90.1293 23.2778C90.176 23.4738 90.2333 23.7325 90.2707 23.9538C90.2862 24.0456 90.2692 24.1399 90.2227 24.2205C90.0339 24.5349 89.8356 24.8434 89.628 25.1458C89.5949 25.2001 89.5843 25.2652 89.5987 25.3271C89.6733 25.7351 89.98 27.1591 89.98 27.1591L89.7867 26.9831C89.7496 26.9501 89.722 26.9077 89.7067 26.8605C89.5259 26.3124 89.3548 25.7612 89.1933 25.2071C89.1838 25.1741 89.1825 25.1392 89.1895 25.1055C89.1964 25.0718 89.2115 25.0404 89.2333 25.0138C89.4347 24.7685 89.7293 24.3765 89.9 24.1285C89.948 24.0578 89.964 23.9818 89.936 23.9231C89.8826 23.8162 89.8262 23.7108 89.7667 23.6071C89.7492 23.576 89.7206 23.5527 89.6867 23.5418L89.4547 23.4685C89.4143 23.4553 89.3707 23.4558 89.3307 23.4698C88.8253 23.6538 88.1453 23.9178 87.7307 24.0911C87.6808 24.1147 87.6243 24.1204 87.5707 24.1071C87.4507 24.0898 87.0987 24.0271 86.9267 23.9938C86.9197 23.9924 86.9131 23.9894 86.9074 23.9849C86.9018 23.9805 86.8973 23.9748 86.8943 23.9683C86.8914 23.9618 86.8899 23.9547 86.8902 23.9475C86.8905 23.9404 86.8925 23.9334 86.896 23.9271L87.1 23.5725C87.1137 23.5489 87.1321 23.5284 87.1542 23.5123C87.1762 23.4962 87.2014 23.4849 87.228 23.4791C88.0069 23.305 88.7898 23.1489 89.576 23.0111ZM82.316 24.6351C82.3313 24.6337 82.3467 24.6372 82.3599 24.6451C82.3731 24.653 82.3834 24.6649 82.3893 24.6791C82.4077 24.7264 82.4163 24.7769 82.4145 24.8276C82.4126 24.8782 82.4004 24.928 82.3787 24.9738C82.3685 24.9939 82.3542 25.0116 82.3368 25.0259C82.3193 25.0401 82.2991 25.0505 82.2773 25.0565L81.9493 25.1285C81.9449 25.1293 81.9403 25.129 81.936 25.1279C81.9316 25.1267 81.9276 25.1245 81.9241 25.1216C81.9207 25.1187 81.9179 25.115 81.9161 25.1109C81.9142 25.1068 81.9133 25.1023 81.9133 25.0978L81.944 24.7111C81.9452 24.6988 81.9506 24.6873 81.9594 24.6785C81.9681 24.6698 81.9797 24.6643 81.992 24.6631L82.316 24.6365V24.6351ZM86.0413 22.1631C86.0499 22.1632 86.0583 22.1655 86.0657 22.1698C86.0731 22.1741 86.0792 22.1803 86.0836 22.1877C86.0879 22.1951 86.0902 22.2034 86.0902 22.212C86.0903 22.2206 86.0882 22.229 86.084 22.2365L85.2853 23.6138C85.2411 23.6947 85.1669 23.755 85.0787 23.7818L83.5827 24.2511C83.4193 24.3017 83.2506 24.333 83.08 24.3445C82.748 24.3711 81.7627 24.4018 81.7627 24.4018L81.784 24.3551C81.7942 24.333 81.8123 24.3154 81.8347 24.3058L82.3013 24.1071C82.3362 24.0927 82.367 24.0698 82.3907 24.0405L83.1107 23.1525C83.15 23.1036 83.1984 23.0628 83.2533 23.0325C83.7293 22.7805 84.576 22.4045 85.1693 22.2058C85.2306 22.1862 85.2944 22.1754 85.3587 22.1738L86.0413 22.1631ZM85.2413 20.5658C87.2453 20.4032 89.2589 20.3957 91.264 20.5431C91.3848 20.5524 91.5032 20.5812 91.6147 20.6285C92.3147 20.9218 93.556 21.5671 94.936 22.3565C94.9969 22.3915 95.0541 22.4326 95.1067 22.4791C95.472 22.8018 96.3987 23.7511 96.3987 23.7511L96.1093 23.6938C96.0693 23.6859 96.0312 23.6701 95.9973 23.6471C95.3041 23.1846 94.5851 22.7617 93.844 22.3805C93.7593 22.3378 93.6676 22.3107 93.5733 22.3005C93.1991 22.2626 92.8238 22.2354 92.448 22.2191C92.3067 22.217 92.168 22.1803 92.044 22.1125C91.6138 21.9005 91.1757 21.7048 90.7307 21.5258C90.6161 21.476 90.4915 21.4532 90.3667 21.4591C89.4955 21.4746 88.6247 21.5058 87.7547 21.5525C87.7315 21.5536 87.7082 21.5523 87.6853 21.5485L87.36 21.4978C88.284 21.3378 90.5693 21.1338 91.516 21.0845L91.1307 20.9565C91.0562 20.9318 90.9785 20.9183 90.9 20.9165C89.6067 20.8871 87.8293 20.8925 86.324 21.0058C86.2311 21.0124 86.14 21.035 86.0547 21.0725C85.624 21.2618 84.5747 21.8325 83.5213 22.4165L82.492 22.9938L82.648 22.7911C82.6638 22.7691 82.6843 22.7509 82.708 22.7378C82.844 22.6471 83.2547 22.3805 83.42 22.2591C83.7373 22.0205 84.2373 21.5991 84.536 21.3378C84.6028 21.2787 84.6603 21.21 84.7067 21.1338C84.804 20.9778 84.9093 20.8085 84.9733 20.7138C85.004 20.6709 85.0438 20.6353 85.09 20.6097C85.1361 20.5841 85.1887 20.5691 85.2413 20.5658ZM78.2067 16.7658C78.6147 16.7231 78.8427 16.8818 78.8427 17.2965V17.5245C78.8427 17.9471 78.6147 18.1191 78.2067 18.1605C77.6421 18.2194 77.0781 18.2834 76.5147 18.3525V18.9791C76.396 18.9925 76.2787 19.0058 76.16 19.0218V17.0018C76.8414 16.9157 77.5236 16.837 78.2067 16.7658ZM97.144 16.6991C98.0441 16.7872 98.9428 16.8881 99.84 17.0018V17.3285C99.4519 17.2793 99.0634 17.2327 98.6747 17.1885V18.8818C98.5565 18.8683 98.4383 18.855 98.32 18.8418V17.1485C97.9283 17.105 97.5363 17.0641 97.144 17.0258V16.6991ZM82.2 16.4365V16.7605C81.4599 16.8061 80.7202 16.8603 79.9813 16.9231V17.4205C80.6386 17.3645 81.2964 17.3156 81.9547 17.2738V17.5991C81.2964 17.6411 80.6386 17.69 79.9813 17.7458V18.2925C80.7202 18.2294 81.4598 18.1752 82.2 18.1298V18.4551C81.3441 18.5079 80.4889 18.5724 79.6347 18.6485V16.6271C80.4889 16.551 81.3441 16.4865 82.2 16.4338V16.4365ZM93.7107 16.9898C93.7107 16.5365 93.9347 16.4431 94.4413 16.4778C94.8853 16.5085 95.328 16.5418 95.772 16.5778C96.212 16.6151 96.5013 16.7378 96.5013 17.2005V18.1018C96.5013 18.5551 96.2507 18.6378 95.772 18.5978C95.3287 18.5614 94.8851 18.5281 94.4413 18.4978C93.9573 18.4645 93.7107 18.3711 93.7107 17.8911V16.9898ZM90.2693 16.2845C91.1253 16.3058 91.9827 16.3378 92.8387 16.3818V16.7071C92.0986 16.6691 91.3581 16.6397 90.6173 16.6191V17.1165C91.276 17.1351 91.9347 17.1605 92.5933 17.1925V17.5178C91.935 17.486 91.2763 17.4611 90.6173 17.4431V17.9885C91.3581 18.0089 92.0986 18.0382 92.8387 18.0765V18.4018C91.9827 18.3578 91.1262 18.3253 90.2693 18.3045V16.2845ZM85.8107 16.2831V17.7445C85.8107 18.2071 85.568 18.3085 85.0787 18.3231C84.6532 18.3361 84.2279 18.3521 83.8027 18.3711C83.3493 18.3911 83.072 18.3045 83.072 17.8471V16.3871L83.4187 16.3685V17.8911C83.4187 17.9845 83.4987 18.0591 83.6053 18.0551C84.1625 18.0288 84.7198 18.0075 85.2773 17.9911C85.324 17.9911 85.3688 17.9726 85.4018 17.9396C85.4348 17.9066 85.4533 17.8618 85.4533 17.8151V16.2911L85.8107 16.2818V16.2831ZM94.2427 16.7898C94.2188 16.7873 94.1947 16.7899 94.1719 16.7976C94.1492 16.8053 94.1284 16.8178 94.1109 16.8342C94.0934 16.8507 94.0797 16.8707 94.0707 16.893C94.0617 16.9152 94.0576 16.9392 94.0587 16.9631V17.9605C94.0587 18.0538 94.1387 18.1498 94.2427 18.1578C94.8187 18.1951 95.3947 18.2378 95.9707 18.2871C96.0172 18.2886 96.0624 18.2719 96.0968 18.2405C96.1312 18.2091 96.1519 18.1656 96.1547 18.1191V17.1191C96.1526 17.0694 96.1329 17.0221 96.0992 16.9855C96.0656 16.9489 96.02 16.9254 95.9707 16.9191C95.3951 16.8702 94.8191 16.828 94.2427 16.7898ZM87.3467 16.2605C87.9867 16.2551 88.624 16.2578 89.2627 16.2658V16.5911C88.58 16.5821 87.8973 16.5803 87.2147 16.5858C87.1213 16.5871 87.0293 16.6671 87.0293 16.7591V17.7725C87.0293 17.8645 87.1227 17.9565 87.2147 17.9551C87.828 17.9498 88.4387 17.9511 89.052 17.9578V17.4111C88.6965 17.4072 88.3409 17.4054 87.9853 17.4058V17.0805C88.4573 17.0805 88.928 17.0845 89.3987 17.0911V18.2885C88.7365 18.2784 88.0742 18.2753 87.412 18.2791C86.928 18.2831 86.6813 18.1991 86.6813 17.7285V16.8485C86.6813 16.4085 86.9013 16.2631 87.3467 16.2605ZM78.3133 17.0818C77.7136 17.1436 77.1145 17.2111 76.516 17.2845V18.0285C77.1145 17.9552 77.7136 17.8876 78.3133 17.8258C78.4053 17.8165 78.4973 17.7325 78.4973 17.6445V17.2351C78.4973 17.1418 78.404 17.0725 78.3133 17.0818Z" fill="black"/>
</g>
<path fill-rule="evenodd" clip-rule="evenodd" d="M139.586 13.7543C142.099 13.534 145.501 13.4741 148.75 13.7194C148.935 13.7334 149.115 13.7768 149.285 13.8488C150.35 14.2953 152.239 15.2724 154.339 16.4708C154.431 16.5238 154.518 16.5857 154.599 16.6561C155.155 17.1452 156.564 18.5838 156.564 18.5838L156.125 18.4969C156.063 18.4849 156.006 18.4609 155.953 18.426C155.064 17.83 153.766 17.0543 152.678 16.5073C152.549 16.4428 152.409 16.4014 152.265 16.3864C151.736 16.3299 151.02 16.2805 150.552 16.2615C150.321 16.252 150.164 16.2135 149.938 16.0992C149.507 15.8809 148.461 15.4078 147.94 15.2095C147.718 15.1246 147.604 15.1046 147.386 15.1081C146.491 15.1211 144.452 15.186 143.411 15.2504C143.375 15.2524 143.341 15.2509 143.306 15.2454L142.809 15.168C144.216 14.9262 147.694 14.617 149.134 14.5416L148.548 14.3463C148.435 14.3088 148.317 14.2888 148.198 14.2858C147.885 14.2784 147.19 14.2646 146.288 14.2633L145.98 14.2634C144.614 14.2661 142.856 14.2995 141.234 14.4212C141.092 14.4317 140.954 14.4657 140.824 14.5231C140.169 14.8101 138.572 15.6739 136.97 16.5613L136.615 16.7586C136.2 16.9888 135.791 17.2177 135.402 17.4359C135.402 17.4359 135.601 17.1796 135.64 17.1297C135.674 17.0862 135.685 17.0782 135.731 17.0483C135.795 17.0062 136.015 16.8618 136.236 16.7152L136.4 16.6065C136.533 16.5182 136.652 16.4388 136.719 16.3929C136.752 16.3704 136.773 16.3544 136.815 16.3234C137.297 15.9608 138.058 15.3214 138.512 14.9252C138.614 14.8358 138.701 14.7319 138.773 14.616C138.92 14.3792 139.08 14.1225 139.179 13.9801C139.263 13.8567 139.406 13.7703 139.586 13.7543V13.7543Z" fill="black"/>
<path fill-rule="evenodd" clip-rule="evenodd" d="M140.803 16.1774C140.861 16.1769 140.897 16.2388 140.869 16.2883L139.654 18.3748C139.586 18.4977 139.473 18.5891 139.339 18.6296L137.061 19.3404C136.797 19.4204 136.573 19.4633 136.298 19.4843C135.793 19.5223 134.292 19.5692 134.292 19.5692L134.325 19.4983C134.341 19.4648 134.368 19.4384 134.402 19.4239L135.112 19.1231C135.165 19.1007 135.212 19.0662 135.247 19.0217L136.344 17.675C136.403 17.6031 136.479 17.5341 136.561 17.4912C137.285 17.111 138.574 16.5401 139.476 16.2393C139.561 16.2109 139.676 16.1929 139.765 16.1919L140.803 16.1774Z" fill="black"/>
<path fill-rule="evenodd" clip-rule="evenodd" d="M135.134 19.9263C135.182 19.9223 135.227 19.9488 135.246 19.9923C135.308 20.1376 135.291 20.3 135.231 20.4388C135.207 20.4953 135.134 20.5502 135.075 20.5632L134.577 20.6736C134.547 20.6801 134.519 20.6561 134.521 20.6257L134.568 20.0422C134.571 20.0027 134.602 19.9713 134.642 19.9683L135.134 19.9263Z" fill="black"/>
<path fill-rule="evenodd" clip-rule="evenodd" d="M146.183 17.4626C146.258 17.4496 146.334 17.4601 146.403 17.4925L146.923 17.7408C146.974 17.7653 147.012 17.8117 147.025 17.8677C147.096 18.1644 147.183 18.5575 147.241 18.8917C147.264 19.0306 147.238 19.1725 147.168 19.2948C146.952 19.668 146.51 20.3394 146.263 20.7C146.208 20.781 146.201 20.8789 146.218 20.9753C146.33 21.5937 146.798 23.7532 146.798 23.7532L146.504 23.4859C146.445 23.432 146.406 23.375 146.381 23.3006C146.172 22.6897 145.78 21.4134 145.6 20.7925C145.571 20.69 145.593 20.5807 145.661 20.4992C145.968 20.1276 146.415 19.5331 146.676 19.1565C146.749 19.0506 146.773 18.9337 146.73 18.8463C146.67 18.7234 146.569 18.5366 146.472 18.3672C146.446 18.3203 146.402 18.2853 146.351 18.2683L145.998 18.1554C145.936 18.1359 145.87 18.1369 145.809 18.1589C145.04 18.4372 144.005 18.8383 143.372 19.1C143.28 19.1385 143.242 19.1415 143.13 19.1245C142.946 19.0975 142.413 19.0021 142.151 18.9532C142.104 18.9442 142.08 18.8912 142.104 18.8498L142.415 18.3133C142.457 18.2408 142.526 18.1894 142.608 18.1709C143.607 17.9441 144.927 17.6834 146.183 17.4626V17.4626Z" fill="black"/>
<path fill-rule="evenodd" clip-rule="evenodd" d="M135.327 18.0248L135.123 18.2756C135.111 18.2865 135.1 18.297 135.089 18.3085C134.909 18.4409 134.153 19.0189 133.948 19.1807C133.89 19.2267 133.867 19.2666 133.853 19.3391C133.807 19.5948 133.73 20.0809 133.708 20.3501C133.701 20.429 133.667 20.468 133.587 20.5005C133.236 20.6428 132.82 20.7927 132.483 20.9271C132.411 20.9556 132.391 20.9665 132.348 20.999C132.315 21.025 131.868 21.4231 131.868 21.4231C131.868 21.4231 132.84 21.1843 133.196 21.1039C133.281 21.0849 133.318 21.0899 133.396 21.1269C133.47 21.1609 133.593 21.2093 133.657 21.2328C133.756 21.2693 133.809 21.2678 133.919 21.2438C134.32 21.1544 134.996 20.9945 135.355 20.9011C135.542 20.8527 135.644 20.8022 135.802 20.6918C135.975 20.5724 136.411 20.2462 136.411 20.2462C136.411 20.2462 136.403 20.3037 136.397 20.3356C136.392 20.3631 136.382 20.3786 136.364 20.4001C136.276 20.5065 136.12 20.6798 136.043 20.7592C135.866 20.9416 135.761 21.0065 135.539 21.0989C134.518 21.5235 132.772 22.1829 131.463 22.635C131.377 22.665 131.34 22.6894 131.276 22.7544C131.207 22.8243 131.115 22.9262 131.115 22.9262C131.115 22.9262 132.183 23.0036 132.509 23.0411C132.614 23.0531 132.69 23.0876 132.77 23.157C133.038 23.3868 133.925 24.2974 134.191 24.6136C134.191 24.6136 131.669 25.0318 130.501 25.321C130.357 25.3565 130.285 25.4479 130.252 25.5633C130.156 25.9019 129.928 26.9909 129.928 26.9909C129.928 26.9909 129.847 26.965 129.734 26.9C129.656 26.8556 129.616 26.8186 129.531 26.7287C129.255 26.4374 128.801 25.88 128.582 25.5568C128.518 25.4614 128.491 25.34 128.571 25.2426C128.808 24.9518 129.284 24.4213 129.546 24.1486C129.574 24.1191 129.61 24.0677 129.647 23.9937C129.736 23.8188 129.852 23.3758 129.893 23.2158L129.906 23.164L129.907 23.157C129.907 23.157 129.905 23.1586 129.9 23.1614L129.852 23.1915C129.787 23.2322 129.682 23.298 129.637 23.3263C129.57 23.3693 129.551 23.3878 129.523 23.4467C129.481 23.5356 129.406 23.676 129.35 23.7734C129.331 23.8054 129.281 23.8548 129.255 23.8753C128.92 24.1306 128.55 24.4048 128.286 24.5897C128.268 24.6021 128.245 24.5967 128.23 24.5817C128.196 24.5482 128.056 24.3888 128.031 24.3514C128.01 24.3199 128 24.2904 128 24.2525C128 24.186 128.006 24.0691 128.013 23.9822C128.021 23.8793 128.05 23.8304 128.176 23.7005C128.317 23.5551 128.47 23.4023 128.631 23.2454C129.026 22.9137 130.023 22.1065 131.805 20.8387C131.838 20.8147 131.869 20.7867 131.893 20.7532C132.08 20.5015 132.612 19.8141 132.743 19.6508C132.761 19.6278 132.782 19.6063 132.806 19.5878C133.015 19.4225 133.119 19.351 133.332 19.2172C133.828 18.9055 134.789 18.337 135.327 18.0248L135.327 18.0248Z" fill="black"/>
<path fill-rule="evenodd" clip-rule="evenodd" d="M131.3 26.5911L131.081 28.1042L130.333 27.229C130.469 26.9348 130.867 26.6571 131.3 26.5911Z" fill="black"/>
<path fill-rule="evenodd" clip-rule="evenodd" d="M136.224 27.3939C135.851 28.0053 135.406 28.6547 135.07 29.0603C135.026 29.1133 134.967 29.1542 134.901 29.1792C134.533 29.3166 133.919 29.5234 133.468 29.6608L136.224 27.3939Z" fill="black"/>
<path fill-rule="evenodd" clip-rule="evenodd" d="M152.117 17.5703C152.315 17.4979 152.531 17.5029 152.725 17.5843C154.228 18.2137 156.756 19.6943 158.161 20.7374C158.296 20.8383 158.35 20.9077 158.386 21.0705C158.716 22.5671 158.841 24.8805 158.633 26.8282C158.618 26.968 158.59 27.052 158.517 27.2013C157.627 29.0171 156.625 30.726 155.57 32.0443L155.572 32.0227C155.586 31.8824 155.662 31.0908 155.666 30.6626C155.666 30.6141 155.689 30.5697 155.728 30.5402C155.923 30.3883 156.192 30.1726 156.344 30.0412C156.419 29.9772 156.46 29.9293 156.498 29.8673C156.928 29.175 157.696 27.7253 158.005 26.8531C158.081 26.6403 158.111 26.4151 158.093 26.1898C157.993 24.9744 157.802 23.2905 157.517 22.1915C157.469 22.0042 157.344 21.8458 157.172 21.7574C156.926 21.6315 156.444 21.4122 155.346 20.9731C155.193 20.9122 155.051 20.8278 154.926 20.7229C154.206 20.1194 153.08 19.2148 152.38 18.6943C152.175 18.5419 151.914 18.4865 151.664 18.5429C151.154 18.6583 150.504 18.8191 150.139 18.918C150.015 18.9515 149.966 18.9545 149.838 18.9395C149.771 18.9318 149.684 18.9234 149.594 18.9151L149.457 18.9031C149.297 18.8895 149.147 18.878 149.088 18.8736L149.062 18.8716C150.254 18.3136 151.4 17.8321 152.117 17.5703L152.117 17.5703Z" fill="black"/>
<path fill-rule="evenodd" clip-rule="evenodd" d="M134.381 25.2479C134.499 25.21 134.625 25.2055 134.745 25.2344C135.287 25.3643 136.434 25.6446 137.3 25.8659C137.422 25.8968 137.574 26.0102 137.638 26.1176L137.827 26.4308C137.893 26.5407 137.898 26.6756 137.839 26.7895C137.682 27.0942 137.457 27.5067 137.219 27.9321L137.04 28.252C136.709 28.8376 136.379 29.4025 136.192 29.6998C136.069 29.8961 136 29.983 135.781 30.0604C134.928 30.3597 133.869 30.7173 133.24 30.9206C133.111 30.9621 133.068 31.04 133.093 31.1824C133.138 31.4417 133.283 32.3218 133.339 32.5786C133.359 32.6735 133.435 32.7489 133.576 32.722C133.948 32.6515 134.939 32.4098 134.939 32.4098C134.939 32.4098 134.647 32.679 134.472 32.8379C134.44 32.8678 134.403 32.8898 134.362 32.9033C134.092 32.9932 133.433 33.1775 133.227 33.2225C133.067 33.257 132.965 33.194 132.924 33.0132C132.924 33.0132 132.643 31.8203 132.541 31.4147C132.525 31.3527 132.509 31.2993 132.49 31.2383C132.414 31.0036 132.231 30.542 132.128 30.3002C132.116 30.2723 132.11 30.2423 132.11 30.2113C132.113 29.9351 132.164 29.3186 132.164 29.3186C132.164 29.3186 132.771 29.8856 133.064 30.0904C133.13 30.1369 133.17 30.1464 133.251 30.1259C133.654 30.0225 134.581 29.7168 135.09 29.5269C135.206 29.4835 135.307 29.4106 135.387 29.3151C135.913 28.6812 136.573 27.6952 136.954 26.9513C137.006 26.8489 137.016 26.7316 136.983 26.6217L136.901 26.3519C136.877 26.273 136.794 26.1841 136.716 26.1546C135.82 25.8144 135.113 25.5616 134.282 25.2794L134.381 25.2479Z" fill="black"/>
<path fill-rule="evenodd" clip-rule="evenodd" d="M150.451 22.1968L150.761 22.3311C150.852 22.3706 150.936 22.4285 151.005 22.5005C152.905 24.4786 154.425 26.5297 154.729 27.0702C154.788 27.1741 154.828 27.278 154.843 27.3969C155.184 30.2817 154.891 33.3379 154.193 35.9964C154.13 36.2362 154.059 36.3591 153.828 36.5324C153.083 37.0911 151.972 37.9819 150.866 38.8902L150.518 39.1772C149.186 40.2769 147.921 41.3536 147.384 41.8489C147.249 41.9738 147.132 42.1147 147.036 42.271C146.784 42.6792 146.4 43.3815 146.211 43.7301L146.158 43.8277C146.12 43.898 146.098 43.939 146.098 43.939C145.848 43.394 145.302 42.0642 145.115 41.5267C145.054 41.3514 145.043 41.2595 145.107 41.0247C145.413 39.9102 146.856 36.6703 147.137 36.0843L147.138 36.3241C147.138 36.3591 147.132 36.3935 147.121 36.4265C146.995 36.8096 146.218 39.3633 146.061 40.4707C146.026 40.717 146.029 40.7834 146.061 41.0252C146.13 41.5422 146.44 42.4903 146.44 42.4903C146.44 42.4903 146.624 42.1077 146.795 41.8489C146.879 41.7221 146.929 41.6611 147.067 41.5252C147.761 40.8406 148.945 39.7823 150.178 38.7181L150.614 38.3428C151.562 37.5318 152.507 36.7427 153.255 36.1398C153.449 35.9829 153.522 35.878 153.565 35.5803C153.779 34.1136 153.841 31.4811 153.712 29.5654C153.687 29.2037 153.57 28.8541 153.365 28.5538C152.897 27.863 152.336 27.2091 151.487 26.3694C151.365 26.249 151.283 26.0951 151.252 25.9273C151.004 24.6085 150.451 22.1968 150.451 22.1968H150.451Z" fill="black"/>
<path fill-rule="evenodd" clip-rule="evenodd" d="M140.446 23.1569C140.446 23.1569 140.619 23.7148 140.785 24.3206L140.843 24.5356C140.949 24.9304 141.042 25.3201 141.076 25.5666C141.109 25.8039 141.103 25.8678 141.019 26.0951C140.814 26.6396 140.436 27.5153 140.033 28.4106L139.859 28.7945C139.365 29.8807 138.865 30.93 138.622 31.3842C138.502 31.608 138.389 31.7539 138.164 31.9821C137.65 32.5042 136.665 33.4907 136.056 34.0427C135.835 34.2435 135.775 34.4149 135.73 34.6746C135.657 35.0917 135.585 35.8036 135.565 36.1712C135.548 36.4944 135.6 36.6458 135.781 36.966C136.855 38.8767 140.441 43.2726 141.462 44.1957C141.536 44.2627 141.591 44.3076 141.747 44.411C141.897 44.511 142.387 44.8277 142.387 44.8277C142.406 44.8411 142.423 44.8591 142.435 44.8796L142.613 45.1908C142.613 45.1908 142.596 45.1826 142.566 45.1678L142.49 45.1299C142.428 45.0993 142.347 45.0589 142.253 45.0123L142.025 44.8987C141.676 44.724 141.26 44.514 141.042 44.3966C140.952 44.3481 140.867 44.2912 140.788 44.2257C139.592 43.2346 135.926 38.9561 134.848 37.1698C134.579 36.7237 134.552 36.5793 134.588 36.1572C134.655 35.3715 134.76 34.3834 134.852 33.9503C134.907 33.689 134.965 33.5357 135.166 33.3049C135.84 32.5302 136.663 31.5075 137.465 30.4582L137.747 30.0871C138.963 28.4773 140.082 26.866 140.5 26.0452C140.596 25.8584 140.604 25.7934 140.606 25.6171C140.612 25.1056 140.448 24.1095 140.405 23.8577C140.398 23.8183 140.396 23.7783 140.4 23.7383L140.446 23.1569Z" fill="black"/>
<path fill-rule="evenodd" clip-rule="evenodd" d="M143.723 29.4885C143.723 29.4885 143.861 30.3062 143.903 30.5435C143.927 30.6779 143.932 30.7138 143.898 30.8457C143.787 31.2697 143.277 33.5049 142.869 35.793L142.805 36.1545C142.638 37.1182 142.494 38.0748 142.41 38.8932C142.363 39.3583 142.378 39.4697 142.501 39.8823C142.85 41.0482 144.141 44.0943 144.389 44.6498C144.417 44.7113 144.433 44.7757 144.441 44.8421L144.534 45.5605C144.121 44.9375 141.873 40.8179 140.991 38.5365C140.887 38.2678 140.866 38.1354 140.982 37.6414C141.596 35.0203 143.256 30.5665 143.723 29.4885H143.723Z" fill="black"/>
<defs>
<clipPath id="clip0_601_49967">
<rect width="32" height="35.1209" fill="white" transform="translate(16 12)"/>
</clipPath>
<clipPath id="clip1_601_49967">
<rect width="32" height="32" fill="white" transform="translate(72 13.5605)"/>
</clipPath>
</defs>
</svg>
