<?xml version="1.0" encoding="UTF-8"?>
<svg id="Layer_1" xmlns="http://www.w3.org/2000/svg" version="1.1" xmlns:xlink="http://www.w3.org/1999/xlink" viewBox="0 0 124 101">
  <!-- Generator: Adobe Illustrator 30.2.0, SVG Export Plug-In . SVG Version: 2.1.1 Build 105)  -->
  <defs>
    <style>
      .st0, .st1 {
        fill: #fff;
      }

      .st2 {
        fill: url(#linear-gradient1);
      }

      .st1 {
        fill-rule: evenodd;
      }

      .st3 {
        fill: #e1251b;
      }

      .st4 {
        fill: #ee2e24;
      }

      .st5 {
        fill: url(#linear-gradient);
      }
    </style>
    <linearGradient id="linear-gradient" x1="16.6" y1="48.5" x2="110.3" y2="-5.6" gradientUnits="userSpaceOnUse">
      <stop offset=".6" stop-color="#ee2e24"/>
      <stop offset=".7" stop-color="#d2241b"/>
      <stop offset=".8" stop-color="#a2150c"/>
      <stop offset=".9" stop-color="#850b03"/>
      <stop offset="1" stop-color="#7a0800"/>
    </linearGradient>
    <linearGradient id="linear-gradient1" x1="21.2" y1="29.5" x2="17.7" y2="20.7" gradientUnits="userSpaceOnUse">
      <stop offset="0" stop-color="#ee2e24"/>
      <stop offset=".2" stop-color="#cb261e"/>
      <stop offset=".5" stop-color="#9b1c17"/>
      <stop offset=".8" stop-color="#7e1613"/>
      <stop offset=".9" stop-color="#731412"/>
      <stop offset="1" stop-color="#731412"/>
    </linearGradient>
  </defs>
  <g>
    <g id="World_Challenge">
      <path class="st0" d="M19.9,48.5c.1,0,.1,0,.1.1l-2.1,5.4c-.4.9-.6,1-1.6,1s-1.3-.1-1.4-1l-.3-3.2-1.4,3.2c-.4.9-.6,1-1.7,1s-1.2-.1-1.2-1l-.2-5.4c0-.1,0-.1.2-.1h1.2c0,0,.1,0,.1.1l.2,4.8c0,.2,0,.3.2.3s.2,0,.3-.3l2-4.6c0-.1.1-.1.2-.1h1.1c0,0,.2,0,.2.1l.4,4.6c0,.2,0,.3.2.3s.2,0,.3-.3l1.9-4.8c0-.1,0-.1.2-.1h1.2Z"/>
      <path class="st0" d="M26.4,51.8c-.5,2.6-1.2,3.3-3.6,3.3s-2.9-.8-2.5-3.3c.5-2.6,1.2-3.3,3.6-3.3s2.9.8,2.5,3.3ZM21.8,51.8c-.3,1.6-.1,2.1,1.2,2.1s1.6-.5,1.9-2.1c.3-1.7.1-2.2-1.2-2.2s-1.6.5-1.9,2.2Z"/>
      <path class="st0" d="M33.4,50.6c-.2,1.3-.7,1.8-1.8,2l1.2,2.3c0,0,0,.2-.1.2h-1.2c-.2,0-.3,0-.3-.2l-1.1-2.2h-.9l-.4,2.2c0,.1,0,.1-.2.1h-1.2c-.1,0-.1,0-.1-.1l1.1-6.2c0,0,0-.1.2-.1.9,0,1.8,0,2.5,0,2.1,0,2.7.5,2.4,2.2ZM29.7,49.6l-.4,2h1c1.1,0,1.4-.1,1.6-1,.2-.8-.1-1-1.2-1h-1Z"/>
      <path class="st0" d="M36.5,48.5c0,0,.1,0,.1.1l-.9,5.3h3.1c0,0,.1,0,.1.1l-.2.9c0,0,0,.1-.2.1h-4.4c0,0-.1,0-.1-.1l1.1-6.3c0,0,0-.1.2-.1h1.2Z"/>
      <path class="st0" d="M45.9,51.7c-.4,2.3-1.4,3.3-3.6,3.3s-1.9,0-2.7,0c-.1,0-.1,0-.1-.1l1.1-6.2c0,0,0-.1.2-.1.9,0,1.8,0,2.7,0,2.2,0,2.9,1,2.5,3.3ZM41.9,49.6l-.8,4.3h1.4c1.1,0,1.7-.6,1.9-2.2.3-1.6,0-2.2-1.2-2.2h-1.3Z"/>
      <path class="st0" d="M54.9,48.6c.1,0,.2,0,.2.2v.7c-.1,0-.2.1-.3.1h-1.9c-1.3,0-1.6.5-1.9,2.2-.3,1.6-.2,2.2,1.1,2.2h1.9c0,0,.1,0,.1.1v.7c-.1.1-.2.2-.4.2-.5,0-1.1.1-1.9.1-2.4,0-2.9-.8-2.4-3.3.5-2.6,1.2-3.3,3.6-3.3s1.4,0,1.8.1Z"/>
      <path class="st0" d="M61.8,48.5c0,0,.1,0,.1.1l-1.1,6.3c0,0,0,.1-.2.1h-1.2c0,0-.1,0-.1-.1l.5-2.6h-3.1l-.5,2.6c0,0,0,.1-.2.1h-1.2c0,0-.1,0-.1-.1l1.1-6.3c0,0,0-.1.2-.1h1.2c0,0,.1,0,.1.1l-.5,2.5h3.1l.5-2.5c0,0,0-.1.2-.1h1.2Z"/>
      <path class="st0" d="M67.6,49.4l.7,5.4c0,.1,0,.1-.2.1h-1.2c0,0,0,0-.1-.1l-.2-1.8h-2.5l-.9,1.8c0,.1,0,.1-.2.1h-1.2c-.1,0-.1,0,0-.1l2.6-5.4c.5-.9.7-1,1.7-1s1.3,0,1.4,1ZM65.7,49.8l-1.1,2.2h1.8l-.3-2.2c0-.2,0-.2-.2-.2s-.2,0-.3.2Z"/>
      <path class="st0" d="M71.8,48.5c0,0,.1,0,.1.1l-.9,5.3h3.1c0,0,.1,0,.1.1l-.2.9c0,0,0,.1-.2.1h-4.4c0,0-.1,0-.1-.1l1.1-6.3c0,0,0-.1.2-.1h1.2Z"/>
      <path class="st0" d="M77.2,48.5c0,0,.1,0,.1.1l-.9,5.3h3.1c0,0,.1,0,.1.1l-.2.9c0,0,0,.1-.2.1h-4.4c0,0-.1,0-.1-.1l1.1-6.3c0,0,0-.1.2-.1h1.2Z"/>
      <path class="st0" d="M86.1,48.5c0,0,.1,0,.1.1l-.2.9c0,0,0,.1-.2.1h-3.4l-.3,1.6h3.1c0,0,.1,0,.1.1l-.2.9c0,0,0,.1-.2.1h-3.1l-.3,1.5h3.4c0,0,.1,0,.1.1l-.2.9c0,0,0,.1-.2.1h-4.7c0,0-.1,0-.1-.1l1.1-6.3c0,0,0-.1.2-.1h4.7Z"/>
      <path class="st0" d="M93.5,48.5c0,0,.1,0,.1.1l-1.1,6.3c0,0,0,.1-.2.1h-.9c-.2,0-.3,0-.4-.2l-2.4-4.1-.7,4.1c0,0,0,.1-.2.1h-1.2c0,0-.1,0-.1-.1l1.1-6.3c0,0,0-.1.2-.1h.9c.4,0,.4,0,.5.3l2.2,3.8.7-4c0,0,0-.1.2-.1h1.2Z"/>
      <path class="st0" d="M100,48.6c.1,0,.2,0,.2.2v.7c-.1,0-.2.1-.3.1h-2.1c-1.3,0-1.6.5-1.9,2.2-.3,1.6-.2,2.2,1.1,2.2h1.2l.3-2c0,0,0-.1.2-.1h1.1c0,0,.1,0,.1.1l-.4,2.4c0,.1,0,.2,0,.2-.3.3-1.5.5-2.6.5-2.4,0-2.9-.8-2.4-3.3.5-2.6,1.2-3.3,3.6-3.3s1.5,0,2,.1Z"/>
      <path class="st0" d="M106.8,48.5c0,0,.1,0,.1.1l-.2.9c0,0,0,.1-.2.1h-3.4l-.3,1.6h3.1c0,0,.1,0,.1.1l-.2.9c0,0,0,.1-.2.1h-3.1l-.3,1.5h3.4c0,0,.1,0,.1.1l-.2.9c0,0,0,.1-.2.1h-4.7c0,0-.1,0-.1-.1l1.1-6.3c0,0,0-.1.2-.1h4.7Z"/>
    </g>
    <g id="GT">
      <g>
        <g>
          <path class="st5" d="M58.4,42l21.7-21.4H26.9c-9.8,0-18.6,6-21.7,8.3,2-2,6.3-6.2,8.3-8.2,3.1-3.1,6.1-4.7,13.1-4.7h96.2l-2.9,2.9c-1.1,1.1-2.6,1.7-4.1,1.7h-20.2c-.2.2-16.8,16.6-18.3,18.1-2.2,2.1-5.2,3.3-8.4,3.3h-10.3Z"/>
          <path class="st4" d="M122.6,16.1l-2.8,2.7c-1.1,1.1-2.5,1.7-4.1,1.7h-20.3c-.2.2-16.8,16.6-18.3,18.1-2.2,2.1-5.2,3.3-8.4,3.3h-10.1l21.5-21.2.3-.3H26.9c-6.3,0-12.1,2.5-16,4.6-2,1.1-3.7,2.2-4.9,3.1,2.2-2.1,5.7-5.7,7.5-7.4,1.8-1.8,3.4-2.9,5.3-3.6,2-.8,4.4-1.1,7.7-1.1h96M122.9,15.9H26.6c-6.6,0-9.7,1.4-13.1,4.7-2.7,2.6-9.3,9.2-9.3,9.2h0s0,0,0,0c0,0,10.7-9.2,22.8-9.2h53.1l-21.7,21.4h10.5c3.1,0,6.2-1.2,8.5-3.4,1.6-1.5,18.3-18.1,18.3-18.1h20.2c1.6,0,3.1-.6,4.2-1.7l3-3h0Z"/>
        </g>
        <path class="st4" d="M66.5,25.2h-27.8c-1.7,0-3.3.7-4.5,1.9l-1.6,1.6h18.3c-6.8,6.7-6.9,6.7-14.3,6.7h-14l-6.8,6.7h28.2c2.8,0,6.3-1.1,8.7-3.5l13.6-13.5Z"/>
      </g>
      <path class="st2" d="M28.9,24.2c2.4-2.4,5-3.5,8.2-3.5h-10.2c-12.1,0-22.8,9.2-22.8,9.2l-1.6,1.6h19.1s4.5-4.5,7.2-7.2Z"/>
    </g>
  </g>
  <g id="EUROPE">
    <path class="st3" d="M6,58.6c0,0,.1,0,.1.1v.7c-.1,0-.2.1-.3.1h-2.7l-.2,1.3h2.5c0,0,.1,0,.1.1v.7c-.1,0-.2.1-.3.1h-2.5l-.2,1.2h2.7c0,0,.1,0,0,.1v.7c-.1,0-.2.1-.3.1H1.3c0,0-.1,0,0-.1l.9-5c0,0,0-.1.1-.1h3.8Z"/>
    <path class="st3" d="M13,58.6c0,0,.1,0,0,.1l-.4,2.5c-.4,2.1-.9,2.7-2.9,2.7s-2.3-.5-1.9-2.7l.5-2.5c0,0,0-.1.1-.1h1c0,0,.1,0,0,.1l-.4,2.5c-.2,1.4,0,1.7.9,1.7s1.3-.3,1.5-1.7l.4-2.5c0,0,0-.1.1-.1h1Z"/>
    <path class="st3" d="M19.8,60.3c-.2,1-.6,1.4-1.4,1.6l1,1.8c0,0,0,.1-.1.1h-1c-.2,0-.2,0-.3-.1l-.9-1.8h-.7l-.3,1.8c0,0,0,.1-.1.1h-1c0,0-.1,0,0-.1l.9-5c0,0,0,0,.1,0,.7,0,1.4,0,2,0,1.7,0,2.1.4,1.9,1.7ZM16.8,59.5l-.3,1.6h.8c.9,0,1.2-.1,1.3-.8.1-.7,0-.8-1-.8h-.8Z"/>
    <path class="st3" d="M26.8,61.2c-.4,2.1-1,2.7-2.9,2.7s-2.3-.6-2-2.7c.4-2.1,1-2.7,2.9-2.7s2.3.6,2,2.7ZM23.2,61.2c-.2,1.3,0,1.7.9,1.7s1.3-.4,1.5-1.7c.2-1.3.1-1.7-.9-1.7s-1.3.4-1.6,1.7Z"/>
    <path class="st3" d="M33.9,60.3c-.2,1.4-.8,1.7-2.5,1.7h-.9l-.3,1.8c0,0,0,.1-.1.1h-1c0,0-.1,0,0-.1l.9-5c0,0,0,0,.1,0,.7,0,1.4,0,2,0,1.7,0,2.1.4,1.9,1.7ZM30.9,59.5l-.3,1.6h.8c.9,0,1.2-.1,1.3-.8.1-.7,0-.8-1-.8h-.8Z"/>
    <path class="st3" d="M40.3,58.6c0,0,.1,0,.1.1v.7c-.1,0-.2.1-.3.1h-2.7l-.2,1.3h2.5c0,0,.1,0,.1.1v.7c-.1,0-.2.1-.3.1h-2.5l-.2,1.2h2.7c0,0,.1,0,0,.1v.7c-.1,0-.2.1-.3.1h-3.8c0,0-.1,0,0-.1l.9-5c0,0,0-.1.1-.1h3.8Z"/>
  </g>
  <g>
    <g>
      <path class="st0" d="M69.9,75.8c0,.3,0,.5,0,.7,0,.2.1.4.3.6,0,0,0,.1,0,.2,0,0,0,.2-.2.2l-.5.3c0,0-.1,0-.2,0s-.2,0-.2-.1c-.1-.1-.2-.2-.3-.4,0-.1-.2-.3-.2-.5-.6.7-1.4,1.1-2.4,1.1s-1.2-.2-1.6-.6c-.4-.4-.6-.9-.6-1.5s.2-1.2.7-1.7c.5-.4,1.1-.6,2-.6s.6,0,.9,0c.3,0,.6.1.9.2v-.6c0-.6-.1-1-.4-1.3-.3-.2-.7-.4-1.3-.4s-.6,0-.9.1c-.3,0-.6.2-.9.3-.1,0-.2,0-.3.1,0,0,0,0-.1,0-.1,0-.2,0-.2-.3v-.4c0-.1,0-.2,0-.3,0,0,.1-.1.2-.2.3-.1.6-.3,1-.4.4-.1.8-.2,1.3-.2,1,0,1.7.2,2.1.7.4.4.7,1.1.7,2v2.6M66.6,77c.3,0,.5,0,.8-.1.3,0,.5-.3.8-.5.1-.2.2-.3.3-.5,0-.2,0-.4,0-.7v-.3c-.2,0-.5-.1-.7-.1-.3,0-.5,0-.8,0-.5,0-.9.1-1.2.3-.3.2-.4.5-.4.9s0,.7.3.9c.2.2.5.3.8.3M73.1,77.9c-.1,0-.2,0-.3,0,0,0-.1-.2-.2-.3l-1.9-6.2c0-.2,0-.3,0-.3,0-.1,0-.2.2-.2h.8c.1,0,.3,0,.3,0,0,0,.1.2.2.3l1.4,5.3,1.3-5.3c0-.2,0-.3.2-.3,0,0,.2,0,.3,0h.6c.1,0,.3,0,.3,0,0,0,.1.2.2.3l1.3,5.4,1.4-5.4c0-.2.1-.3.2-.3,0,0,.2,0,.3,0h.7c.1,0,.2,0,.2.2s0,0,0,.1c0,0,0,.1,0,.2l-1.9,6.2c0,.2-.1.3-.2.3,0,0-.2,0-.3,0h-.7c-.1,0-.3,0-.3,0,0,0-.1-.2-.2-.3l-1.3-5.2-1.2,5.2c0,.2,0,.3-.2.3,0,0-.2,0-.3,0h-.7ZM83.4,78.1c-.4,0-.8,0-1.2-.1-.4,0-.7-.2-.9-.3-.1,0-.2-.1-.2-.2,0,0,0-.1,0-.2v-.4c0-.2,0-.3.2-.3s0,0,.1,0c0,0,.1,0,.2,0,.3.1.6.2.9.3.3,0,.6,0,1,0,.5,0,.9,0,1.2-.3.3-.2.4-.4.4-.8s0-.4-.2-.6c-.1-.1-.4-.3-.8-.4l-1.2-.4c-.6-.2-1-.5-1.3-.8-.3-.4-.4-.7-.4-1.2s0-.6.2-.9c.1-.3.3-.5.6-.7.2-.2.5-.3.8-.4.3,0,.7-.1,1-.1s.4,0,.5,0c.2,0,.4,0,.5,0,.2,0,.3,0,.5.1.1,0,.3,0,.3.1.1,0,.2.1.2.2,0,0,0,.2,0,.3v.4c0,.2,0,.3-.2.3s-.2,0-.3,0c-.5-.2-1-.3-1.5-.3s-.8,0-1.1.2c-.3.1-.4.4-.4.7s0,.4.2.6c.2.2.5.3.9.4l1.1.4c.6.2,1,.4,1.2.8.2.3.4.7.4,1.1s0,.7-.2.9c-.1.3-.3.5-.6.7-.2.2-.5.3-.9.4-.3.1-.7.2-1.1.2"/>
      <path class="st1" d="M84.9,82.1c-2.6,2-6.5,3-9.8,3s-8.8-1.7-12-4.6c-.2-.2,0-.5.3-.4,3.4,2,7.6,3.2,12,3.2s6.2-.6,9.1-1.9c.4-.2.8.3.4.6"/>
      <path class="st1" d="M86,80.8c-.3-.4-2.2-.2-3.1-.1-.3,0-.3-.2,0-.4,1.5-1.1,4-.8,4.3-.4.3.4,0,2.8-1.5,4-.2.2-.4,0-.3-.2.3-.8,1-2.6.7-3"/>
    </g>
    <g>
      <path class="st0" d="M1.3,80.3c-.2,0-.2,0-.2-.2v-7.4c0-.2,0-.2.2-.2h.6c.2,0,.3,0,.3.2v.3c.3-.2.6-.4.9-.5.3-.1.6-.2,1-.2.7,0,1.3.3,1.7.8.4.5.6,1.2.6,2.1s-.1,1.1-.3,1.6c-.2.5-.5.8-.8,1-.4.2-.8.4-1.2.4s-.6,0-.9-.2c-.3-.1-.5-.3-.7-.4v2.5c0,.2,0,.2-.2.2h-.8ZM3.7,77.1c.5,0,.8-.2,1-.5.2-.3.3-.8.3-1.5s-.1-1.1-.3-1.4c-.2-.3-.6-.5-1-.5s-.9.1-1.3.4v3c.4.3.8.4,1.3.4Z"/>
      <path class="st0" d="M10.1,78.2c-.8,0-1.5-.3-2-.8-.5-.5-.7-1.3-.7-2.2s.2-1.7.7-2.2c.5-.5,1.1-.8,2-.8s1.5.3,2,.8c.5.5.7,1.2.7,2.2s-.2,1.7-.7,2.2c-.5.5-1.1.8-2,.8ZM10.1,77.1c.9,0,1.4-.6,1.4-1.9s-.5-1.9-1.4-1.9-1.4.6-1.4,1.9.5,1.9,1.4,1.9Z"/>
      <path class="st0" d="M15.3,78c-.2,0-.3,0-.3-.2l-1.6-5c0-.1,0-.2,0-.2,0-.1,0-.2.2-.2h.9c.2,0,.2,0,.3.2l1,4.1,1.1-4c0,0,0-.1.1-.2,0,0,.1,0,.2,0h.7c0,0,.2,0,.2,0,0,0,0,0,0,.2l1.1,4.1,1.1-4.1c0-.1.1-.2.3-.2h.8c.1,0,.2,0,.2.2s0,.1,0,.2l-1.7,5c0,.2-.2.2-.3.2h-.8c0,0-.2,0-.2,0,0,0,0,0-.1-.2l-1-4-1,4c0,0,0,.1-.1.2,0,0-.1,0-.2,0h-.8Z"/>
      <path class="st0" d="M25,78.2c-.9,0-1.6-.2-2.1-.7-.5-.5-.7-1.2-.7-2.2s.2-1.7.7-2.2c.5-.5,1.1-.8,2-.8s1.3.2,1.7.6c.4.4.6.9.6,1.7s0,.5,0,.8c0,0,0,.2,0,.2,0,0,0,0-.2,0h-3.4c0,.6.2,1,.5,1.2.3.3.7.4,1.3.4s.9,0,1.4-.2c0,0,.1,0,.1,0,0,0,0,0,0,0,.1,0,.2,0,.2.2v.4c0,.1,0,.2,0,.2,0,0-.1,0-.2.1-.5.2-1,.3-1.7.3ZM25.9,74.6h0c0-.5,0-.9-.3-1.1-.2-.2-.5-.4-.9-.4s-.7.1-1,.4c-.2.3-.4.6-.4,1.1h2.5Z"/>
      <path class="st0" d="M28.5,78c-.2,0-.2,0-.2-.2v-5.1c0-.2,0-.2.2-.2h.6c.1,0,.2,0,.2,0,0,0,0,0,0,.2v.6c.4-.3.7-.5,1-.7.3-.1.5-.2.8-.2h0c0,0,.2,0,.2,0,0,0,.1,0,.1,0,0,0,0,.1,0,.2v.6c0,.2,0,.2-.2.2s-.1,0-.2,0c0,0-.2,0-.2,0-.5,0-1,.1-1.4.4v3.8c0,.2,0,.2-.2.2h-.8Z"/>
      <path class="st0" d="M35.1,78.2c-.9,0-1.6-.2-2.1-.7-.5-.5-.7-1.2-.7-2.2s.2-1.7.7-2.2c.5-.5,1.1-.8,2-.8s1.3.2,1.7.6c.4.4.6.9.6,1.7s0,.5,0,.8c0,0,0,.2,0,.2,0,0,0,0-.2,0h-3.4c0,.6.2,1,.5,1.2.3.3.7.4,1.3.4s.9,0,1.4-.2c0,0,.1,0,.1,0,0,0,0,0,0,0,.1,0,.2,0,.2.2v.4c0,.1,0,.2,0,.2,0,0-.1,0-.2.1-.5.2-1,.3-1.7.3ZM36,74.6h0c0-.5,0-.9-.3-1.1-.2-.2-.5-.4-.9-.4s-.7.1-1,.4c-.2.3-.4.6-.4,1.1h2.5Z"/>
      <path class="st0" d="M40.4,78.1c-.7,0-1.3-.3-1.7-.8-.4-.5-.6-1.2-.6-2.1s.1-1.1.3-1.6c.2-.5.5-.8.8-1,.4-.2.8-.4,1.2-.4s1.1.2,1.6.6v-2.7c0-.2,0-.2.2-.2h.8c.2,0,.2,0,.2.2v7.6c0,.2,0,.2-.2.2h-.6c-.2,0-.3,0-.3-.2v-.3c-.6.4-1.1.7-1.8.7ZM40.8,77.1c.4,0,.9-.1,1.3-.4v-3c-.4-.3-.8-.4-1.2-.4s-.9.2-1.1.5c-.2.3-.3.8-.3,1.4,0,1.3.5,1.9,1.4,1.9Z"/>
      <path class="st0" d="M50.8,78.1c-.3,0-.6,0-.9-.2-.3-.1-.6-.3-.8-.5v.4c-.1.1-.2.2-.4.2h-.6c-.2,0-.2,0-.2-.2v-7.6c0-.2,0-.2.2-.2h.8c.2,0,.2,0,.2.2v2.8c.5-.4,1.1-.7,1.7-.7s1.3.3,1.7.8c.4.5.6,1.2.6,2.1s-.1,1.1-.3,1.6c-.2.5-.5.8-.8,1-.4.2-.8.4-1.2.4ZM50.5,77.1c.5,0,.8-.2,1-.5.2-.3.3-.8.3-1.5s-.1-1.1-.3-1.4c-.2-.3-.6-.5-1-.5s-.9.1-1.3.4v3c.4.3.8.4,1.3.4Z"/>
      <path class="st0" d="M54.9,80.4c-.3,0-.5,0-.7,0,0,0-.2,0-.2-.1,0,0,0-.1,0-.2v-.4c0-.1,0-.2.2-.2s0,0,.1,0c0,0,.1,0,.3,0,.3,0,.5,0,.7-.2.2-.1.3-.4.5-.8v-.4c.1,0-1.9-5.3-1.9-5.3,0,0,0-.1,0-.2,0-.1,0-.2.2-.2h.9c.2,0,.2,0,.3.2l1.4,4.2,1.4-4.2c0-.1.1-.2.3-.2h.8c.1,0,.2,0,.2.2s0,.1,0,.2l-2.4,6.1c-.2.5-.4.9-.7,1.2-.3.2-.6.4-1.1.4Z"/>
    </g>
  </g>
</svg>